<svg width="111" height="81" viewBox="0 0 111 81" fill="none" xmlns="http://www.w3.org/2000/svg">
    <g opacity="0.5" filter="url(#filter0_d)">
        <path d="M39.2991 2.8H39.7991V2.3H39.2991V2.8ZM39.2991 70V70.5H39.7991V70H39.2991ZM16.6431 70H16.1431V70.5H16.6431V70ZM16.6431 19.888H17.1431V19.388H16.6431V19.888ZM5.12312 19.888H4.62312V20.388H5.12312V19.888ZM5.12312 2.8V2.3H4.62312V2.8H5.12312ZM38.3498 2.3C38.0737 2.3 37.8498 2.52385 37.8498 2.8C37.8498 3.07614 38.0737 3.3 38.3498 3.3V2.3ZM34.5525 3.3C34.8286 3.3 35.0525 3.07614 35.0525 2.8C35.0525 2.52385 34.8286 2.3 34.5525 2.3V3.3ZM32.6538 2.3C32.3777 2.3 32.1538 2.52385 32.1538 2.8C32.1538 3.07614 32.3777 3.3 32.6538 3.3V2.3ZM28.8565 3.3C29.1326 3.3 29.3565 3.07614 29.3565 2.8C29.3565 2.52385 29.1326 2.3 28.8565 2.3V3.3ZM26.9578 2.3C26.6817 2.3 26.4578 2.52385 26.4578 2.8C26.4578 3.07614 26.6817 3.3 26.9578 3.3V2.3ZM23.1605 3.3C23.4366 3.3 23.6605 3.07614 23.6605 2.8C23.6605 2.52385 23.4366 2.3 23.1605 2.3V3.3ZM21.2618 2.3C20.9856 2.3 20.7618 2.52385 20.7618 2.8C20.7618 3.07614 20.9856 3.3 21.2618 3.3V2.3ZM17.4645 3.3C17.7406 3.3 17.9645 3.07614 17.9645 2.8C17.9645 2.52385 17.7406 2.3 17.4645 2.3V3.3ZM15.5658 2.3C15.2896 2.3 15.0658 2.52385 15.0658 2.8C15.0658 3.07614 15.2896 3.3 15.5658 3.3V2.3ZM11.7685 3.3C12.0446 3.3 12.2685 3.07614 12.2685 2.8C12.2685 2.52385 12.0446 2.3 11.7685 2.3V3.3ZM9.86979 2.3C9.59365 2.3 9.36979 2.52385 9.36979 2.8C9.36979 3.07614 9.59365 3.3 9.86979 3.3V2.3ZM6.07246 3.3C6.3486 3.3 6.57246 3.07614 6.57246 2.8C6.57246 2.52385 6.3486 2.3 6.07246 2.3V3.3ZM4.62312 3.74933C4.62312 4.02547 4.84698 4.24933 5.12312 4.24933C5.39927 4.24933 5.62312 4.02547 5.62312 3.74933H4.62312ZM5.62312 7.54666C5.62312 7.27052 5.39927 7.04666 5.12312 7.04666C4.84698 7.04666 4.62312 7.27052 4.62312 7.54666H5.62312ZM4.62312 9.44533C4.62312 9.72147 4.84698 9.94533 5.12312 9.94533C5.39927 9.94533 5.62312 9.72147 5.62312 9.44533H4.62312ZM5.62312 13.2427C5.62312 12.9665 5.39927 12.7427 5.12312 12.7427C4.84698 12.7427 4.62312 12.9665 4.62312 13.2427H5.62312ZM4.62312 15.1413C4.62312 15.4175 4.84698 15.6413 5.12312 15.6413C5.39927 15.6413 5.62312 15.4175 5.62312 15.1413H4.62312ZM5.62312 18.9387C5.62312 18.6625 5.39927 18.4387 5.12312 18.4387C4.84698 18.4387 4.62312 18.6625 4.62312 18.9387H5.62312ZM6.08312 20.388C6.35927 20.388 6.58312 20.1641 6.58312 19.888C6.58312 19.6119 6.35927 19.388 6.08312 19.388V20.388ZM9.92312 19.388C9.64698 19.388 9.42312 19.6119 9.42312 19.888C9.42312 20.1641 9.64698 20.388 9.92312 20.388V19.388ZM11.8431 20.388C12.1193 20.388 12.3431 20.1641 12.3431 19.888C12.3431 19.6119 12.1193 19.388 11.8431 19.388V20.388ZM15.6831 19.388C15.407 19.388 15.1831 19.6119 15.1831 19.888C15.1831 20.1641 15.407 20.388 15.6831 20.388V19.388ZM16.1431 20.932C16.1431 21.2081 16.367 21.432 16.6431 21.432C16.9193 21.432 17.1431 21.2081 17.1431 20.932H16.1431ZM17.1431 25.108C17.1431 24.8319 16.9193 24.608 16.6431 24.608C16.367 24.608 16.1431 24.8319 16.1431 25.108H17.1431ZM16.1431 27.196C16.1431 27.4721 16.367 27.696 16.6431 27.696C16.9193 27.696 17.1431 27.4721 17.1431 27.196H16.1431ZM17.1431 31.372C17.1431 31.0959 16.9193 30.872 16.6431 30.872C16.367 30.872 16.1431 31.0959 16.1431 31.372H17.1431ZM16.1431 33.46C16.1431 33.7361 16.367 33.96 16.6431 33.96C16.9193 33.96 17.1431 33.7361 17.1431 33.46H16.1431ZM17.1431 37.636C17.1431 37.3599 16.9193 37.136 16.6431 37.136C16.367 37.136 16.1431 37.3599 16.1431 37.636H17.1431ZM16.1431 39.724C16.1431 40.0001 16.367 40.224 16.6431 40.224C16.9193 40.224 17.1431 40.0001 17.1431 39.724H16.1431ZM17.1431 43.9C17.1431 43.6239 16.9193 43.4 16.6431 43.4C16.367 43.4 16.1431 43.6239 16.1431 43.9H17.1431ZM16.1431 45.988C16.1431 46.2641 16.367 46.488 16.6431 46.488C16.9193 46.488 17.1431 46.2641 17.1431 45.988H16.1431ZM17.1431 50.164C17.1431 49.8879 16.9193 49.664 16.6431 49.664C16.367 49.664 16.1431 49.8879 16.1431 50.164H17.1431ZM16.1431 52.252C16.1431 52.5281 16.367 52.752 16.6431 52.752C16.9193 52.752 17.1431 52.5281 17.1431 52.252H16.1431ZM17.1431 56.428C17.1431 56.1519 16.9193 55.928 16.6431 55.928C16.367 55.928 16.1431 56.1519 16.1431 56.428H17.1431ZM16.1431 58.516C16.1431 58.7921 16.367 59.016 16.6431 59.016C16.9193 59.016 17.1431 58.7921 17.1431 58.516H16.1431ZM17.1431 62.692C17.1431 62.4159 16.9193 62.192 16.6431 62.192C16.367 62.192 16.1431 62.4159 16.1431 62.692H17.1431ZM16.1431 64.78C16.1431 65.0561 16.367 65.28 16.6431 65.28C16.9193 65.28 17.1431 65.0561 17.1431 64.78H16.1431ZM17.1431 68.956C17.1431 68.6799 16.9193 68.456 16.6431 68.456C16.367 68.456 16.1431 68.6799 16.1431 68.956H17.1431ZM17.5871 70.5C17.8633 70.5 18.0871 70.2761 18.0871 70C18.0871 69.7239 17.8633 69.5 17.5871 69.5V70.5ZM21.3631 69.5C21.087 69.5 20.8631 69.7239 20.8631 70C20.8631 70.2761 21.087 70.5 21.3631 70.5V69.5ZM23.2511 70.5C23.5273 70.5 23.7511 70.2761 23.7511 70C23.7511 69.7239 23.5273 69.5 23.2511 69.5V70.5ZM27.0271 69.5C26.751 69.5 26.5271 69.7239 26.5271 70C26.5271 70.2761 26.751 70.5 27.0271 70.5V69.5ZM28.9151 70.5C29.1913 70.5 29.4151 70.2761 29.4151 70C29.4151 69.7239 29.1913 69.5 28.9151 69.5V70.5ZM32.6911 69.5C32.415 69.5 32.1911 69.7239 32.1911 70C32.1911 70.2761 32.415 70.5 32.6911 70.5V69.5ZM34.5791 70.5C34.8553 70.5 35.0791 70.2761 35.0791 70C35.0791 69.7239 34.8553 69.5 34.5791 69.5V70.5ZM38.3551 69.5C38.079 69.5 37.8551 69.7239 37.8551 70C37.8551 70.2761 38.079 70.5 38.3551 70.5V69.5ZM39.7991 68.9818C39.7991 68.7057 39.5753 68.4818 39.2991 68.4818C39.023 68.4818 38.7991 68.7057 38.7991 68.9818H39.7991ZM38.7991 64.9091C38.7991 65.1852 39.023 65.4091 39.2991 65.4091C39.5753 65.4091 39.7991 65.1852 39.7991 64.9091H38.7991ZM39.7991 62.8727C39.7991 62.5966 39.5753 62.3727 39.2991 62.3727C39.023 62.3727 38.7991 62.5966 38.7991 62.8727H39.7991ZM38.7991 58.8C38.7991 59.0761 39.023 59.3 39.2991 59.3C39.5753 59.3 39.7991 59.0761 39.7991 58.8H38.7991ZM39.7991 56.7636C39.7991 56.4875 39.5753 56.2636 39.2991 56.2636C39.023 56.2636 38.7991 56.4875 38.7991 56.7636H39.7991ZM38.7991 52.6909C38.7991 52.9671 39.023 53.1909 39.2991 53.1909C39.5753 53.1909 39.7991 52.9671 39.7991 52.6909H38.7991ZM39.7991 50.6545C39.7991 50.3784 39.5753 50.1545 39.2991 50.1545C39.023 50.1545 38.7991 50.3784 38.7991 50.6545H39.7991ZM38.7991 46.5818C38.7991 46.858 39.023 47.0818 39.2991 47.0818C39.5753 47.0818 39.7991 46.858 39.7991 46.5818H38.7991ZM39.7991 44.5455C39.7991 44.2693 39.5753 44.0455 39.2991 44.0455C39.023 44.0455 38.7991 44.2693 38.7991 44.5455H39.7991ZM38.7991 40.4727C38.7991 40.7489 39.023 40.9727 39.2991 40.9727C39.5753 40.9727 39.7991 40.7489 39.7991 40.4727H38.7991ZM39.7991 38.4364C39.7991 38.1602 39.5753 37.9364 39.2991 37.9364C39.023 37.9364 38.7991 38.1602 38.7991 38.4364H39.7991ZM38.7991 34.3636C38.7991 34.6398 39.023 34.8636 39.2991 34.8636C39.5753 34.8636 39.7991 34.6398 39.7991 34.3636H38.7991ZM39.7991 32.3273C39.7991 32.0511 39.5753 31.8273 39.2991 31.8273C39.023 31.8273 38.7991 32.0511 38.7991 32.3273H39.7991ZM38.7991 28.2545C38.7991 28.5307 39.023 28.7545 39.2991 28.7545C39.5753 28.7545 39.7991 28.5307 39.7991 28.2545H38.7991ZM39.7991 26.2182C39.7991 25.942 39.5753 25.7182 39.2991 25.7182C39.023 25.7182 38.7991 25.942 38.7991 26.2182H39.7991ZM38.7991 22.1454C38.7991 22.4216 39.023 22.6454 39.2991 22.6454C39.5753 22.6454 39.7991 22.4216 39.7991 22.1454H38.7991ZM39.7991 20.1091C39.7991 19.8329 39.5753 19.6091 39.2991 19.6091C39.023 19.6091 38.7991 19.8329 38.7991 20.1091H39.7991ZM38.7991 16.0364C38.7991 16.3125 39.023 16.5364 39.2991 16.5364C39.5753 16.5364 39.7991 16.3125 39.7991 16.0364H38.7991ZM39.7991 14C39.7991 13.7239 39.5753 13.5 39.2991 13.5C39.023 13.5 38.7991 13.7239 38.7991 14H39.7991ZM38.7991 9.92727C38.7991 10.2034 39.023 10.4273 39.2991 10.4273C39.5753 10.4273 39.7991 10.2034 39.7991 9.92727H38.7991ZM39.7991 7.8909C39.7991 7.61476 39.5753 7.3909 39.2991 7.3909C39.023 7.3909 38.7991 7.61476 38.7991 7.8909H39.7991ZM38.7991 3.81817C38.7991 4.09431 39.023 4.31817 39.2991 4.31817C39.5753 4.31817 39.7991 4.09431 39.7991 3.81817H38.7991ZM39.2991 2.3H38.3498V3.3H39.2991V2.3ZM34.5525 2.3H32.6538V3.3H34.5525V2.3ZM28.8565 2.3H26.9578V3.3H28.8565V2.3ZM23.1605 2.3H21.2618V3.3H23.1605V2.3ZM17.4645 2.3H15.5658V3.3H17.4645V2.3ZM11.7685 2.3H9.86979V3.3H11.7685V2.3ZM6.07246 2.3H5.12312V3.3H6.07246V2.3ZM4.62312 2.8V3.74933H5.62312V2.8H4.62312ZM4.62312 7.54666V9.44533H5.62312V7.54666H4.62312ZM4.62312 13.2427V15.1413H5.62312V13.2427H4.62312ZM4.62312 18.9387V19.888H5.62312V18.9387H4.62312ZM5.12312 20.388H6.08312V19.388H5.12312V20.388ZM9.92312 20.388H11.8431V19.388H9.92312V20.388ZM15.6831 20.388H16.6431V19.388H15.6831V20.388ZM16.1431 19.888V20.932H17.1431V19.888H16.1431ZM16.1431 25.108V27.196H17.1431V25.108H16.1431ZM16.1431 31.372V33.46H17.1431V31.372H16.1431ZM16.1431 37.636V39.724H17.1431V37.636H16.1431ZM16.1431 43.9V45.988H17.1431V43.9H16.1431ZM16.1431 50.164V52.252H17.1431V50.164H16.1431ZM16.1431 56.428V58.516H17.1431V56.428H16.1431ZM16.1431 62.692V64.78H17.1431V62.692H16.1431ZM16.1431 68.956V70H17.1431V68.956H16.1431ZM16.6431 70.5H17.5871V69.5H16.6431V70.5ZM21.3631 70.5H23.2511V69.5H21.3631V70.5ZM27.0271 70.5H28.9151V69.5H27.0271V70.5ZM32.6911 70.5H34.5791V69.5H32.6911V70.5ZM38.3551 70.5H39.2991V69.5H38.3551V70.5ZM39.7991 70V68.9818H38.7991V70H39.7991ZM39.7991 64.9091V62.8727H38.7991V64.9091H39.7991ZM39.7991 58.8V56.7636H38.7991V58.8H39.7991ZM39.7991 52.6909V50.6545H38.7991V52.6909H39.7991ZM39.7991 46.5818V44.5455H38.7991V46.5818H39.7991ZM39.7991 40.4727V38.4364H38.7991V40.4727H39.7991ZM39.7991 34.3636V32.3273H38.7991V34.3636H39.7991ZM39.7991 28.2545V26.2182H38.7991V28.2545H39.7991ZM39.7991 22.1454V20.1091H38.7991V22.1454H39.7991ZM39.7991 16.0364V14H38.7991V16.0364H39.7991ZM39.7991 9.92727V7.8909H38.7991V9.92727H39.7991ZM39.7991 3.81817V2.8H38.7991V3.81817H39.7991ZM59.2641 67.408L59.0007 67.8331L59.0078 67.8373L59.2641 67.408ZM48.5121 55.312L48.0617 55.5291L48.0649 55.5356L48.5121 55.312ZM48.5121 17.584L48.0638 17.3626L48.0627 17.3648L48.5121 17.584ZM59.2641 5.488L59.5231 5.91568L59.5248 5.91464L59.2641 5.488ZM90.8481 5.488L90.5847 5.91306L90.5918 5.91727L90.8481 5.488ZM101.6 17.584L101.15 17.8011L101.153 17.8076L101.6 17.584ZM101.6 55.312L101.152 55.0906L101.151 55.0928L101.6 55.312ZM90.8481 67.408L91.1071 67.8357L91.1089 67.8346L90.8481 67.408ZM74.1952 71.025C73.9191 71.0183 73.6899 71.2367 73.6832 71.5128C73.6765 71.7888 73.8948 72.018 74.1709 72.0247L74.1952 71.025ZM70.4477 71.7417C70.7216 71.7774 70.9725 71.5844 71.0082 71.3106C71.0439 71.0367 70.8508 70.7858 70.577 70.7501L70.4477 71.7417ZM68.7875 70.4648C68.5161 70.4134 68.2545 70.5917 68.2032 70.863C68.1518 71.1343 68.3301 71.3959 68.6014 71.4473L68.7875 70.4648ZM64.9735 70.5292C65.2365 70.6135 65.518 70.4687 65.6023 70.2057C65.6866 69.9427 65.5417 69.6612 65.2787 69.5769L64.9735 70.5292ZM63.5747 68.9698C63.3177 68.8688 63.0275 68.9952 62.9265 69.2522C62.8254 69.5092 62.9518 69.7994 63.2088 69.9005L63.5747 68.9698ZM59.82 68.3046C60.0616 68.4383 60.3658 68.351 60.4996 68.1094C60.6334 67.8678 60.546 67.5635 60.3044 67.4298L59.82 68.3046ZM58.775 66.4994C58.5452 66.3463 58.2347 66.4085 58.0816 66.6383C57.9285 66.8681 57.9907 67.1785 58.2205 67.3316L58.775 66.4994ZM55.2783 65.0756C55.4858 65.2579 55.8017 65.2374 55.984 65.0299C56.1662 64.8225 56.1458 64.5065 55.9383 64.3243L55.2783 65.0756ZM54.6342 63.1002C54.4392 62.9047 54.1227 62.9042 53.9271 63.0993C53.7316 63.2943 53.7312 63.6109 53.9262 63.8064L54.6342 63.1002ZM51.4832 61.0213C51.6519 61.2399 51.9659 61.2803 52.1845 61.1115C52.4031 60.9427 52.4435 60.6287 52.2747 60.4102L51.4832 61.0213ZM51.2228 58.9598C51.0673 58.7316 50.7563 58.6727 50.528 58.8281C50.2998 58.9836 50.2409 59.2947 50.3963 59.5229L51.2228 58.9598ZM48.4884 56.3568C48.6181 56.6006 48.9209 56.6931 49.1647 56.5634C49.4085 56.4337 49.501 56.131 49.3713 55.8872L48.4884 56.3568ZM48.5159 54.1282C48.4042 53.8757 48.1089 53.7616 47.8564 53.8733C47.6038 53.9851 47.4897 54.2804 47.6015 54.5329L48.5159 54.1282ZM46.0797 50.423C46.1599 50.6872 46.4392 50.8363 46.7034 50.7561C46.9676 50.6758 47.1167 50.3965 47.0365 50.1323L46.0797 50.423ZM46.4735 48.0734C46.4079 47.8052 46.1374 47.6408 45.8691 47.7064C45.6008 47.7719 45.4365 48.0425 45.502 48.3107L46.4735 48.0734ZM44.682 44.0158C44.7206 44.2892 44.9735 44.4796 45.247 44.441C45.5204 44.4024 45.7108 44.1495 45.6722 43.876L44.682 44.0158ZM45.4205 41.7505C45.394 41.4757 45.1498 41.2743 44.8749 41.3008C44.6 41.3273 44.3987 41.5716 44.4251 41.8464L45.4205 41.7505ZM44.1817 37.4907C44.1866 37.7668 44.4144 37.9866 44.6905 37.9818C44.9666 37.9769 45.1864 37.7491 45.1816 37.473L44.1817 37.4907ZM45.1815 35.332C45.1863 35.0559 44.9665 34.8282 44.6904 34.8233C44.4143 34.8184 44.1865 35.0383 44.1816 35.3144L45.1815 35.332ZM44.4233 30.979C44.3968 31.2539 44.5982 31.4982 44.8731 31.5246C45.148 31.5511 45.3922 31.3497 45.4187 31.0748L44.4233 30.979ZM45.669 28.9594C45.7076 28.6859 45.5172 28.433 45.2437 28.3944C44.9703 28.3558 44.7174 28.5462 44.6788 28.8196L45.669 28.9594ZM45.4965 24.5446C45.4308 24.8128 45.5949 25.0835 45.8631 25.1492C46.1313 25.215 46.402 25.0508 46.4678 24.7826L45.4965 24.5446ZM47.0304 22.7346C47.1111 22.4705 46.9624 22.191 46.6983 22.1104C46.4342 22.0297 46.1547 22.1784 46.0741 22.4424L47.0304 22.7346ZM47.6002 18.3547C47.4874 18.6068 47.6004 18.9025 47.8524 19.0153C48.1045 19.128 48.4003 19.0151 48.513 18.763L47.6002 18.3547ZM49.3688 17.0041C49.4973 16.7596 49.4034 16.4573 49.1589 16.3288C48.9145 16.2003 48.6122 16.2943 48.4837 16.5387L49.3688 17.0041ZM50.3789 13.3614C50.2243 13.5902 50.2845 13.901 50.5134 14.0556C50.7422 14.2102 51.053 14.15 51.2076 13.9212L50.3789 13.3614ZM52.2549 12.4666C52.423 12.2475 52.3817 11.9336 52.1627 11.7655C51.9436 11.5974 51.6297 11.6387 51.4616 11.8578L52.2549 12.4666ZM53.9037 9.06617C53.7085 9.26158 53.7088 9.57816 53.9042 9.77327C54.0996 9.96839 54.4162 9.96814 54.6113 9.77273L53.9037 9.06617ZM55.9175 8.55068C56.1255 8.36905 56.1469 8.05319 55.9652 7.84519C55.7836 7.63719 55.4677 7.61582 55.2597 7.79745L55.9175 8.55068ZM58.219 5.55509C57.9879 5.70619 57.923 6.01605 58.0741 6.24719C58.2252 6.47832 58.535 6.5432 58.7662 6.3921L58.219 5.55509ZM60.3057 5.45488C60.5459 5.31871 60.6303 5.01357 60.4941 4.77334C60.358 4.5331 60.0528 4.44874 59.8126 4.58491L60.3057 5.45488ZM63.1939 2.9544C62.9377 3.05758 62.8137 3.34887 62.9169 3.60501C63.0201 3.86115 63.3114 3.98515 63.5675 3.88197L63.1939 2.9544ZM65.2696 3.26055C65.532 3.17437 65.6748 2.89184 65.5886 2.62949C65.5025 2.36713 65.2199 2.22431 64.9576 2.31049L65.2696 3.26055ZM68.5882 1.36874C68.3171 1.42136 68.14 1.68378 68.1926 1.95486C68.2453 2.22594 68.5077 2.40304 68.7787 2.35042L68.5882 1.36874ZM70.5701 2.05755C70.8438 2.02096 71.0361 1.76942 70.9995 1.49571C70.9629 1.222 70.7113 1.02978 70.4376 1.06637L70.5701 2.05755ZM74.1688 0.775571C73.8927 0.782442 73.6745 1.0118 73.6814 1.28786C73.6882 1.56391 73.9176 1.78213 74.1937 1.77526L74.1688 0.775571ZM76.0097 1.77515C76.2858 1.78199 76.5151 1.56374 76.522 1.28768C76.5288 1.01163 76.3106 0.782293 76.0345 0.775454L76.0097 1.77515ZM79.7459 1.06397C79.4722 1.02743 79.2207 1.2197 79.1842 1.49341C79.1476 1.76712 79.3399 2.01864 79.6136 2.05518L79.7459 1.06397ZM81.3951 2.34635C81.6662 2.39901 81.9286 2.22194 81.9812 1.95087C82.0339 1.67979 81.8568 1.41736 81.5858 1.3647L81.3951 2.34635ZM85.1972 2.30423C84.9349 2.21766 84.6522 2.36006 84.5656 2.62229C84.4791 2.88451 84.6215 3.16726 84.8837 3.25382L85.1972 2.30423ZM86.5748 3.87506C86.8306 3.9789 87.1223 3.85565 87.2261 3.59977C87.3299 3.3439 87.2067 3.05229 86.9508 2.94845L86.5748 3.87506ZM90.309 4.58417C90.0695 4.4467 89.7639 4.5294 89.6265 4.76889C89.489 5.00838 89.5717 5.31397 89.8112 5.45144L90.309 4.58417ZM91.3523 6.38942C91.5843 6.53911 91.8938 6.47234 92.0435 6.24029C92.1932 6.00823 92.1264 5.69877 91.8943 5.54909L91.3523 6.38942ZM94.8688 7.77754C94.66 7.59683 94.3443 7.61961 94.1635 7.82842C93.9828 8.03722 94.0056 8.35298 94.2144 8.53369L94.8688 7.77754ZM95.5256 9.75136C95.7213 9.94621 96.0379 9.94554 96.2327 9.74987C96.4276 9.55419 96.4269 9.23761 96.2312 9.04276L95.5256 9.75136ZM98.679 11.836C98.5112 11.6167 98.1973 11.575 97.9781 11.7428C97.7588 11.9106 97.717 12.2245 97.8848 12.4438L98.679 11.836ZM98.9287 13.9013C99.0824 14.1307 99.393 14.192 99.6224 14.0383C99.8518 13.8846 99.9131 13.574 99.7594 13.3446L98.9287 13.9013ZM101.638 16.5381C101.511 16.2926 101.21 16.196 100.964 16.3224C100.719 16.4488 100.622 16.7503 100.749 16.9958L101.638 16.5381ZM101.611 18.7642C101.726 19.0152 102.023 19.1254 102.274 19.0103C102.525 18.8952 102.635 18.5984 102.52 18.3474L101.611 18.7642ZM104.083 22.4287C104 22.1652 103.72 22.0186 103.456 22.1012C103.193 22.1838 103.046 22.4644 103.129 22.7279L104.083 22.4287ZM103.706 24.7744C103.773 25.0422 104.045 25.2047 104.313 25.1373C104.58 25.07 104.743 24.7982 104.675 24.5304L103.706 24.7744ZM105.515 28.8085C105.476 28.5352 105.222 28.3458 104.949 28.3854C104.676 28.4249 104.486 28.6786 104.526 28.9519L105.515 28.8085ZM104.783 31.0689C104.81 31.3437 105.055 31.5445 105.329 31.5174C105.604 31.4902 105.805 31.2454 105.778 30.9706L104.783 31.0689ZM106.026 35.3127C106.021 35.0366 105.793 34.8168 105.517 34.8218C105.241 34.8268 105.022 35.0547 105.027 35.3308L106.026 35.3127ZM105.026 37.4742C105.021 37.7503 105.241 37.9782 105.517 37.9832C105.793 37.9883 106.021 37.7685 106.026 37.4924L105.026 37.4742ZM105.776 41.8548C105.803 41.58 105.602 41.3352 105.328 41.308C105.053 41.2808 104.808 41.4815 104.781 41.7563L105.776 41.8548ZM104.522 43.8834C104.483 44.1567 104.672 44.4104 104.946 44.45C105.219 44.4896 105.472 44.3001 105.512 44.0268L104.522 43.8834ZM104.67 48.3247C104.737 48.0568 104.574 47.7853 104.306 47.7181C104.039 47.651 103.767 47.8137 103.7 48.0815L104.67 48.3247ZM103.123 50.139C103.04 50.4026 103.187 50.6829 103.451 50.7651C103.715 50.8473 103.995 50.7002 104.077 50.4366L103.123 50.139ZM102.519 54.5402C102.633 54.2887 102.522 53.9923 102.27 53.8783C102.019 53.7642 101.722 53.8755 101.608 54.127L102.519 54.5402ZM100.746 55.8954C100.619 56.1403 100.714 56.4423 100.959 56.5699C101.203 56.6974 101.505 56.6023 101.633 56.3574L100.746 55.8954ZM99.742 59.5398C99.8966 59.311 99.8365 59.0001 99.6077 58.8455C99.3789 58.6909 99.0681 58.751 98.9135 58.9798L99.742 59.5398ZM97.865 60.433C97.6965 60.6518 97.7373 60.9658 97.9561 61.1342C98.1749 61.3027 98.4889 61.2619 98.6573 61.0431L97.865 60.433ZM96.2087 63.8297C96.4043 63.6347 96.4048 63.3182 96.2098 63.1226C96.0149 62.927 95.6983 62.9265 95.5027 63.1215L96.2087 63.8297ZM94.1937 64.3412C93.9854 64.5226 93.9635 64.8384 94.1449 65.0467C94.3262 65.2549 94.642 65.2768 94.8503 65.0955L94.1937 64.3412ZM91.8928 67.3376C92.1236 67.186 92.1877 66.8759 92.036 66.6452C91.8843 66.4144 91.5743 66.3503 91.3435 66.502L91.8928 67.3376ZM89.8124 67.4331C89.5716 67.5682 89.4858 67.873 89.6209 68.1138C89.756 68.3547 90.0607 68.4404 90.3016 68.3054L89.8124 67.4331ZM86.9357 69.9064C87.1924 69.8047 87.3181 69.5141 87.2164 69.2574C87.1147 69.0006 86.8241 68.875 86.5674 68.9766L86.9357 69.9064ZM84.8744 69.5836C84.6116 69.6682 84.4671 69.9499 84.5518 70.2128C84.6365 70.4756 84.9182 70.6201 85.181 70.5354L84.8744 69.5836ZM81.5724 71.4513C81.8438 71.3999 82.022 71.1383 81.9706 70.8669C81.9192 70.5956 81.6576 70.4173 81.3863 70.4687L81.5724 71.4513ZM79.6066 70.7524C79.3328 70.7881 79.1397 71.039 79.1754 71.3128C79.211 71.5866 79.4619 71.7797 79.7358 71.7441L79.6066 70.7524ZM76.0323 72.0249C76.3084 72.0182 76.5268 71.789 76.5201 71.5129C76.5135 71.2369 76.2843 71.0185 76.0082 71.0251L76.0323 72.0249ZM74.0558 52.7992C73.7843 52.749 73.5234 52.9284 73.4732 53.1999C73.423 53.4715 73.6024 53.7323 73.8739 53.7825L74.0558 52.7992ZM69.8658 51.0851C70.0249 51.3109 70.3368 51.3649 70.5625 51.2059C70.7883 51.0468 70.8423 50.7349 70.6833 50.5091L69.8658 51.0851ZM69.6513 48.5959C69.5452 48.341 69.2525 48.2204 68.9976 48.3265C68.7426 48.4326 68.622 48.7253 68.7281 48.9803L69.6513 48.5959ZM67.4985 44.4652C67.5445 44.7375 67.8024 44.921 68.0747 44.875C68.347 44.8291 68.5305 44.5711 68.4846 44.2988L67.4985 44.4652ZM68.1851 42.0614C68.1568 41.7867 67.9113 41.5869 67.6366 41.6151C67.3619 41.6433 67.1621 41.8889 67.1903 42.1636L68.1851 42.0614ZM66.9332 37.5534C66.9376 37.8295 67.1651 38.0498 67.4412 38.0453C67.7173 38.0409 67.9375 37.8135 67.9331 37.5374L66.9332 37.5534ZM67.9331 35.2626C67.9375 34.9865 67.7173 34.7591 67.4412 34.7547C67.1651 34.7502 66.9376 34.9705 66.9332 35.2466L67.9331 35.2626ZM67.1903 30.6364C67.1621 30.9111 67.3619 31.1567 67.6366 31.1849C67.9113 31.2131 68.1568 31.0133 68.1851 30.7386L67.1903 30.6364ZM68.4846 28.5012C68.5305 28.2289 68.347 27.9709 68.0747 27.925C67.8024 27.879 67.5445 28.0625 67.4985 28.3348L68.4846 28.5012ZM68.7281 23.8197C68.622 24.0747 68.7426 24.3674 68.9976 24.4735C69.2525 24.5796 69.5452 24.459 69.6513 24.2041L68.7281 23.8197ZM70.6832 22.2909C70.8423 22.0651 70.7883 21.7532 70.5625 21.5941C70.3368 21.4351 70.0249 21.4891 69.8658 21.7149L70.6832 22.2909ZM73.8739 19.0175C73.6024 19.0677 73.423 19.3285 73.4732 19.6001C73.5234 19.8716 73.7843 20.051 74.0558 20.0008L73.8739 19.0175ZM76.1524 20.0008C76.424 20.051 76.6848 19.8716 76.735 19.6001C76.7853 19.3285 76.6058 19.0677 76.3343 19.0175L76.1524 20.0008ZM80.3425 21.7149C80.1834 21.4891 79.8715 21.4351 79.6457 21.5941C79.42 21.7532 79.3659 22.0651 79.525 22.2909L80.3425 21.7149ZM80.5569 24.2041C80.6631 24.459 80.9558 24.5796 81.2107 24.4735C81.4656 24.3674 81.5862 24.0746 81.4801 23.8197L80.5569 24.2041ZM82.7097 28.3348C82.6638 28.0625 82.4058 27.879 82.1335 27.925C81.8612 27.9709 81.6777 28.2289 81.7237 28.5012L82.7097 28.3348ZM82.0232 30.7386C82.0514 31.0133 82.297 31.2131 82.5717 31.1849C82.8464 31.1566 83.0462 30.9111 83.0179 30.6364L82.0232 30.7386ZM83.275 35.2466C83.2706 34.9705 83.0432 34.7502 82.7671 34.7547C82.491 34.7591 82.2707 34.9865 82.2752 35.2626L83.275 35.2466ZM82.2752 37.5374C82.2707 37.8135 82.491 38.0409 82.7671 38.0453C83.0432 38.0498 83.2706 37.8295 83.275 37.5534L82.2752 37.5374ZM83.0179 42.1636C83.0462 41.8889 82.8464 41.6433 82.5717 41.6151C82.297 41.5869 82.0514 41.7867 82.0232 42.0614L83.0179 42.1636ZM81.7237 44.2988C81.6777 44.5711 81.8612 44.8291 82.1335 44.875C82.4058 44.921 82.6638 44.7375 82.7097 44.4652L81.7237 44.2988ZM81.4801 48.9803C81.5862 48.7253 81.4656 48.4326 81.2107 48.3265C80.9558 48.2204 80.6631 48.341 80.5569 48.5959L81.4801 48.9803ZM79.525 50.5091C79.3659 50.7349 79.42 51.0468 79.6457 51.2059C79.8715 51.3649 80.1834 51.3109 80.3425 51.0851L79.525 50.5091ZM76.3343 53.7825C76.6058 53.7323 76.7853 53.4715 76.735 53.1999C76.6848 52.9284 76.424 52.749 76.1524 52.7992L76.3343 53.7825ZM75.1041 71.036C74.7993 71.036 74.4963 71.0323 74.1952 71.025L74.1709 72.0247C74.4802 72.0322 74.7913 72.036 75.1041 72.036V71.036ZM70.577 70.7501C69.9723 70.6713 69.3758 70.5761 68.7875 70.4648L68.6014 71.4473C69.2089 71.5623 69.8243 71.6604 70.4477 71.7417L70.577 70.7501ZM65.2787 69.5769C64.702 69.3921 64.134 69.1897 63.5747 68.9698L63.2088 69.9005C63.7883 70.1283 64.3765 70.3379 64.9735 70.5292L65.2787 69.5769ZM60.3044 67.4298C60.041 67.2838 59.7797 67.1335 59.5205 66.9787L59.0078 67.8373C59.2762 67.9976 59.547 68.1534 59.82 68.3046L60.3044 67.4298ZM59.5275 66.983C59.2736 66.8256 59.0227 66.6644 58.775 66.4994L58.2205 67.3316C58.4775 67.5028 58.7375 67.6699 59.0007 67.833L59.5275 66.983ZM55.9383 64.3243C55.4914 63.9318 55.0568 63.5238 54.6342 63.1002L53.9262 63.8064C54.3642 64.2454 54.8149 64.6685 55.2783 65.0756L55.9383 64.3243ZM52.2747 60.4102C51.9128 59.9414 51.5621 59.458 51.2228 58.9598L50.3963 59.5229C50.7467 60.0371 51.1089 60.5366 51.4832 61.0213L52.2747 60.4102ZM49.3713 55.8872C49.2314 55.6242 49.0941 55.358 48.9593 55.0884L48.0649 55.5356C48.2034 55.8126 48.3446 56.0863 48.4884 56.3568L49.3713 55.8872ZM48.9625 55.0949C48.809 54.7764 48.6602 54.4541 48.5159 54.1282L47.6015 54.5329C47.75 54.8686 47.9034 55.2007 48.0617 55.5291L48.9625 55.0949ZM47.0365 50.1323C46.832 49.4594 46.6444 48.7731 46.4735 48.0734L45.502 48.3107C45.6772 49.0279 45.8697 49.732 46.0797 50.423L47.0365 50.1323ZM45.6722 43.876C45.5738 43.1791 45.4899 42.4706 45.4205 41.7505L44.4251 41.8464C44.4959 42.5808 44.5815 43.3039 44.682 44.0158L45.6722 43.876ZM45.1816 37.473C45.1753 37.1178 45.1721 36.7602 45.1721 36.4H44.1721C44.1721 36.766 44.1753 37.1295 44.1817 37.4907L45.1816 37.473ZM45.1721 36.4C45.1721 36.0415 45.1752 35.6855 45.1815 35.332L44.1816 35.3144C44.1753 35.6738 44.1721 36.0357 44.1721 36.4H45.1721ZM45.4187 31.0748C45.4877 30.3578 45.5711 29.6526 45.669 28.9594L44.6788 28.8196C44.5788 29.5279 44.4936 30.2477 44.4233 30.979L45.4187 31.0748ZM46.4678 24.7826C46.6385 24.0861 46.8261 23.4035 47.0304 22.7346L46.0741 22.4424C45.8641 23.1296 45.6716 23.8303 45.4965 24.5446L46.4678 24.7826ZM48.513 18.763C48.6578 18.4392 48.8073 18.1193 48.9615 17.8032L48.0627 17.3648C47.9036 17.6909 47.7495 18.0209 47.6002 18.3547L48.513 18.763ZM48.9604 17.8054C49.0941 17.5349 49.2302 17.2677 49.3688 17.0041L48.4837 16.5387C48.3411 16.8099 48.2012 17.0846 48.0638 17.3626L48.9604 17.8054ZM51.2076 13.9212C51.5455 13.4209 51.8946 12.9361 52.2549 12.4666L51.4616 11.8578C51.0888 12.3435 50.7279 12.8448 50.3789 13.3614L51.2076 13.9212ZM54.6113 9.77273C55.0345 9.34889 55.4699 8.94155 55.9175 8.55068L55.2597 7.79745C54.7949 8.20342 54.3428 8.62633 53.9037 9.06617L54.6113 9.77273ZM58.7662 6.3921C59.0154 6.22918 59.2677 6.07037 59.5231 5.91567L59.0051 5.06032C58.7399 5.22095 58.4778 5.38587 58.219 5.55509L58.7662 6.3921ZM59.5248 5.91464C59.783 5.75687 60.0433 5.60362 60.3057 5.45488L59.8126 4.58491C59.5406 4.73908 59.2709 4.89789 59.0034 5.06135L59.5248 5.91464ZM63.5675 3.88197C64.1262 3.6569 64.6936 3.44976 65.2696 3.26055L64.9576 2.31049C64.3609 2.50648 63.773 2.72111 63.1939 2.9544L63.5675 3.88197ZM68.7787 2.35042C69.3676 2.2361 69.9648 2.13847 70.5701 2.05755L70.4376 1.06637C69.8132 1.14984 69.1967 1.25063 68.5882 1.36874L68.7787 2.35042ZM74.1937 1.77526C74.4953 1.76775 74.7988 1.764 75.1041 1.764V0.763998C74.7906 0.763998 74.4788 0.767854 74.1688 0.775571L74.1937 1.77526ZM75.1041 1.764C75.4079 1.764 75.7098 1.76772 76.0097 1.77515L76.0345 0.775454C75.7262 0.767815 75.4161 0.763998 75.1041 0.763998V1.764ZM79.6136 2.05518C80.216 2.13561 80.8099 2.23268 81.3951 2.34635L81.5858 1.3647C80.9808 1.2472 80.3676 1.14696 79.7459 1.06397L79.6136 2.05518ZM84.8837 3.25382C85.4565 3.44292 86.0202 3.65 86.5748 3.87506L86.9508 2.94845C86.3755 2.71498 85.7909 2.50024 85.1972 2.30423L84.8837 3.25382ZM89.8112 5.45144C90.0713 5.60075 90.3291 5.7546 90.5847 5.913L91.1115 5.06299C90.8464 4.89869 90.5789 4.73908 90.309 4.58417L89.8112 5.45144ZM90.5918 5.91727C90.8485 6.07062 91.102 6.22801 91.3523 6.38942L91.8943 5.54909C91.6344 5.38141 91.3711 5.21795 91.1045 5.05872L90.5918 5.91727ZM94.2144 8.53369C94.6645 8.92319 95.1016 9.32907 95.5256 9.75136L96.2312 9.04276C95.7907 8.60412 95.3366 8.18237 94.8688 7.77754L94.2144 8.53369ZM97.8848 12.4438C98.2448 12.9141 98.5928 13.3999 98.9287 13.9013L99.7594 13.3446C99.412 12.8262 99.0519 12.3233 98.679 11.836L97.8848 12.4438ZM100.749 16.9958C100.885 17.2608 101.019 17.5292 101.15 17.8011L102.051 17.3669C101.916 17.0872 101.778 16.8109 101.638 16.5381L100.749 16.9958ZM101.153 17.8076C101.31 18.1227 101.463 18.4415 101.611 18.7642L102.52 18.3474C102.368 18.0146 102.21 17.6856 102.047 17.3604L101.153 17.8076ZM103.129 22.7279C103.338 23.3962 103.531 24.0784 103.706 24.7744L104.675 24.5304C104.496 23.8163 104.298 23.1158 104.083 22.4287L103.129 22.7279ZM104.526 28.9519C104.626 29.6456 104.712 30.3513 104.783 31.0689L105.778 30.9706C105.706 30.2384 105.618 29.5177 105.515 28.8085L104.526 28.9519ZM105.027 35.3308C105.033 35.6846 105.036 36.041 105.036 36.4H106.036C106.036 36.0351 106.033 35.6726 106.026 35.3127L105.027 35.3308ZM105.036 36.4C105.036 36.7606 105.033 37.1187 105.026 37.4742L106.026 37.4924C106.033 37.1307 106.036 36.7666 106.036 36.4H105.036ZM104.781 41.7563C104.71 42.477 104.623 43.186 104.522 43.8834L105.512 44.0268C105.615 43.314 105.703 42.59 105.776 41.8548L104.781 41.7563ZM103.7 48.0815C103.525 48.7807 103.332 49.4665 103.123 50.139L104.077 50.4366C104.293 49.7457 104.49 49.0417 104.67 48.3247L103.7 48.0815ZM101.608 54.127C101.461 54.4518 101.309 54.773 101.152 55.0906L102.048 55.5334C102.21 55.206 102.367 54.8749 102.519 54.5402L101.608 54.127ZM101.151 55.0928C101.019 55.3637 100.884 55.6312 100.746 55.8954L101.633 56.3574C101.775 56.0853 101.914 55.8099 102.05 55.5312L101.151 55.0928ZM98.9135 58.9798C98.5761 59.479 98.2266 59.9634 97.865 60.433L98.6573 61.0431C99.0317 60.5569 99.3933 60.0557 99.742 59.5398L98.9135 58.9798ZM95.5027 63.1215C95.0793 63.5435 94.643 63.9501 94.1937 64.3412L94.8503 65.0955C95.3166 64.6895 95.7694 64.2676 96.2087 63.8297L95.5027 63.1215ZM91.3435 66.502C91.0947 66.6656 90.8427 66.8254 90.5874 66.9814L91.1089 67.8346C91.3735 67.6729 91.6348 67.5073 91.8928 67.3376L91.3435 66.502ZM90.5891 66.9803C90.3325 67.1357 90.0736 67.2867 89.8124 67.4331L90.3016 68.3054C90.5725 68.1534 90.841 67.9969 91.1071 67.8357L90.5891 66.9803ZM86.5674 68.9766C86.0122 69.1965 85.4479 69.3989 84.8744 69.5836L85.181 70.5354C85.7751 70.3441 86.36 70.1344 86.9357 69.9064L86.5674 68.9766ZM81.3863 70.4687C80.8017 70.5795 80.2084 70.6741 79.6066 70.7524L79.7358 71.7441C80.3563 71.6633 80.9685 71.5657 81.5724 71.4513L81.3863 70.4687ZM76.0082 71.0251C75.7088 71.0324 75.4074 71.036 75.1041 71.036V72.036C75.4154 72.036 75.7248 72.0323 76.0323 72.0249L76.0082 71.0251ZM75.1041 52.892C74.7377 52.892 74.3884 52.8607 74.0558 52.7992L73.8739 53.7825C74.2703 53.8558 74.6806 53.892 75.1041 53.892V52.892ZM70.6833 50.5091C70.303 49.9695 69.9582 49.333 69.6513 48.5959L68.7281 48.9803C69.0583 49.7732 69.4367 50.4761 69.8658 51.0851L70.6833 50.5091ZM68.4846 44.2988C68.3661 43.5965 68.2662 42.8507 68.1851 42.0614L67.1903 42.1636C67.2734 42.9721 67.3761 43.7394 67.4985 44.4652L68.4846 44.2988ZM67.9331 37.5374C67.9271 37.165 67.9241 36.7859 67.9241 36.4H66.9241C66.9241 36.791 66.9272 37.1755 66.9332 37.5534L67.9331 37.5374ZM67.9241 36.4C67.9241 36.0141 67.9271 35.635 67.9331 35.2626L66.9332 35.2466C66.9272 35.6245 66.9241 36.009 66.9241 36.4H67.9241ZM68.1851 30.7386C68.2662 29.9493 68.3661 29.2035 68.4846 28.5012L67.4985 28.3348C67.3761 29.0606 67.2734 29.8278 67.1903 30.6364L68.1851 30.7386ZM69.6513 24.2041C69.9582 23.467 70.303 22.8305 70.6832 22.2909L69.8658 21.7149C69.4367 22.3239 69.0583 23.0268 68.7281 23.8197L69.6513 24.2041ZM74.0558 20.0008C74.3884 19.9393 74.7377 19.908 75.1041 19.908V18.908C74.6806 18.908 74.2703 18.9442 73.8739 19.0175L74.0558 20.0008ZM75.1041 19.908C75.4706 19.908 75.8198 19.9393 76.1524 20.0008L76.3343 19.0175C75.9379 18.9442 75.5276 18.908 75.1041 18.908V19.908ZM79.525 22.2909C79.9053 22.8305 80.25 23.467 80.5569 24.2041L81.4801 23.8197C81.15 23.0268 80.7716 22.3239 80.3425 21.7149L79.525 22.2909ZM81.7237 28.5012C81.8422 29.2035 81.9421 29.9493 82.0232 30.7386L83.0179 30.6364C82.9348 29.8278 82.8322 29.0606 82.7097 28.3348L81.7237 28.5012ZM82.2752 35.2626C82.2811 35.635 82.2841 36.0141 82.2841 36.4H83.2841C83.2841 36.009 83.2811 35.6245 83.275 35.2466L82.2752 35.2626ZM82.2841 36.4C82.2841 36.7859 82.2811 37.165 82.2752 37.5374L83.275 37.5534C83.2811 37.1755 83.2841 36.791 83.2841 36.4H82.2841ZM82.0232 42.0614C81.9421 42.8507 81.8422 43.5965 81.7237 44.2988L82.7097 44.4652C82.8322 43.7394 82.9348 42.9721 83.0179 42.1636L82.0232 42.0614ZM80.5569 48.5959C80.25 49.333 79.9053 49.9695 79.525 50.5091L80.3425 51.0851C80.7716 50.4761 81.15 49.7732 81.4801 48.9803L80.5569 48.5959ZM76.1524 52.7992C75.8198 52.8607 75.4706 52.892 75.1041 52.892V53.892C75.5276 53.892 75.9379 53.8558 76.3343 53.7825L76.1524 52.7992Z" fill="url(#paint0_linear)"/>
    </g>
    <defs>
        <filter id="filter0_d" x="0.623108" y="0.764008" width="109.413" height="79.272" filterUnits="userSpaceOnUse" color-interpolation-filters="sRGB">
            <feFlood flood-opacity="0" result="BackgroundImageFix"/>
            <feColorMatrix in="SourceAlpha" type="matrix" values="0 0 0 0 0 0 0 0 0 0 0 0 0 0 0 0 0 0 127 0"/>
            <feOffset dy="4"/>
            <feGaussianBlur stdDeviation="2"/>
            <feColorMatrix type="matrix" values="0 0 0 0 0 0 0 0 0 0 0 0 0 0 0 0 0 0 0.25 0"/>
            <feBlend mode="normal" in2="BackgroundImageFix" result="effect1_dropShadow"/>
            <feBlend mode="normal" in="SourceGraphic" in2="effect1_dropShadow" result="shape"/>
        </filter>
        <linearGradient id="paint0_linear" x1="56.5" y1="-23" x2="56.5" y2="94" gradientUnits="userSpaceOnUse">
            <stop stop-color="#FFEE55"/>
            <stop offset="1" stop-color="white"/>
        </linearGradient>
    </defs>
</svg>
