<svg width="67" height="79" viewBox="0 0 67 79" fill="none" xmlns="http://www.w3.org/2000/svg">
    <g filter="url(#filter0_d)">
        <path d="M55.7573 30.464L55.423 30.836L55.4288 30.841L55.7573 30.464ZM59.1173 57.632L58.6932 57.367L58.692 57.3691L59.1173 57.632ZM48.9413 66.272L49.1548 66.7242L49.1598 66.7217L48.9413 66.272ZM17.5493 68L17.4422 68.4884L17.4436 68.4887L17.5493 68ZM5.26125 63.488L4.80697 63.2791L4.61462 63.6975L5.01574 63.9236L5.26125 63.488ZM12.9413 46.784L13.1883 46.3493L12.7146 46.0801L12.487 46.5751L12.9413 46.784ZM21.7733 50.432L21.6425 50.9146L21.645 50.9153L21.7733 50.432ZM37.2293 50.336L37.4736 50.7723L37.4791 50.7691L37.2293 50.336ZM37.5173 42.848L37.2712 43.2833L37.2785 43.2874L37.286 43.2913L37.5173 42.848ZM10.0613 41.6L9.56294 41.559L9.51838 42.1H10.0613V41.6ZM13.4213 0.799995V0.299995H12.9607L12.9229 0.758958L13.4213 0.799995ZM58.0613 0.799995H58.5613V0.299995H58.0613V0.799995ZM58.0613 17.888V18.388H58.5613V17.888H58.0613ZM32.0453 17.888V17.388H31.5802L31.5466 17.8519L32.0453 17.888ZM31.5653 24.512L31.0666 24.4759L31.0277 25.012H31.5653V24.512ZM34.4453 24.012C34.1691 24.012 33.9453 24.2359 33.9453 24.512C33.9453 24.7881 34.1691 25.012 34.4453 25.012V24.012ZM32.1413 25.012C32.4174 25.012 32.6413 24.7881 32.6413 24.512C32.6413 24.2359 32.4174 24.012 32.1413 24.012V25.012ZM32.1439 23.4441C32.1639 23.1687 31.9568 22.9293 31.6814 22.9093C31.406 22.8893 31.1665 23.0964 31.1466 23.3719L32.1439 23.4441ZM31.4666 18.9559C31.4466 19.2313 31.6537 19.4707 31.9291 19.4907C32.2045 19.5106 32.444 19.3036 32.4639 19.0281L31.4666 18.9559ZM33.1293 18.388C33.4054 18.388 33.6293 18.1641 33.6293 17.888C33.6293 17.6119 33.4054 17.388 33.1293 17.388V18.388ZM37.4653 17.388C37.1891 17.388 36.9653 17.6119 36.9653 17.888C36.9653 18.1641 37.1891 18.388 37.4653 18.388V17.388ZM39.6333 18.388C39.9094 18.388 40.1333 18.1641 40.1333 17.888C40.1333 17.6119 39.9094 17.388 39.6333 17.388V18.388ZM43.9693 17.388C43.6931 17.388 43.4693 17.6119 43.4693 17.888C43.4693 18.1641 43.6931 18.388 43.9693 18.388V17.388ZM46.1373 18.388C46.4134 18.388 46.6373 18.1641 46.6373 17.888C46.6373 17.6119 46.4134 17.388 46.1373 17.388V18.388ZM50.4733 17.388C50.1971 17.388 49.9733 17.6119 49.9733 17.888C49.9733 18.1641 50.1971 18.388 50.4733 18.388V17.388ZM52.6412 18.388C52.9174 18.388 53.1412 18.1641 53.1412 17.888C53.1412 17.6119 52.9174 17.388 52.6412 17.388V18.388ZM56.9773 17.388C56.7011 17.388 56.4773 17.6119 56.4773 17.888C56.4773 18.1641 56.7011 18.388 56.9773 18.388V17.388ZM58.5613 16.9387C58.5613 16.6625 58.3374 16.4387 58.0613 16.4387C57.7851 16.4387 57.5613 16.6625 57.5613 16.9387H58.5613ZM57.5613 13.1413C57.5613 13.4175 57.7851 13.6413 58.0613 13.6413C58.3374 13.6413 58.5613 13.4175 58.5613 13.1413H57.5613ZM58.5613 11.2427C58.5613 10.9665 58.3374 10.7427 58.0613 10.7427C57.7851 10.7427 57.5613 10.9665 57.5613 11.2427H58.5613ZM57.5613 7.44533C57.5613 7.72147 57.7851 7.94533 58.0613 7.94533C58.3374 7.94533 58.5613 7.72147 58.5613 7.44533H57.5613ZM58.5613 5.54666C58.5613 5.27052 58.3374 5.04666 58.0613 5.04666C57.7851 5.04666 57.5613 5.27052 57.5613 5.54666H58.5613ZM57.5613 1.74933C57.5613 2.02547 57.7851 2.24933 58.0613 2.24933C58.3374 2.24933 58.5613 2.02547 58.5613 1.74933H57.5613ZM56.9984 0.299995C56.7223 0.299995 56.4984 0.523853 56.4984 0.799995C56.4984 1.07614 56.7223 1.3 56.9984 1.3V0.299995ZM52.747 1.3C53.0231 1.3 53.247 1.07614 53.247 0.799995C53.247 0.523853 53.0231 0.299995 52.747 0.299995V1.3ZM50.6213 0.299995C50.3451 0.299995 50.1213 0.523853 50.1213 0.799995C50.1213 1.07614 50.3451 1.3 50.6213 1.3V0.299995ZM46.3698 1.3C46.646 1.3 46.8698 1.07614 46.8698 0.799995C46.8698 0.523853 46.646 0.299995 46.3698 0.299995V1.3ZM44.2441 0.299995C43.968 0.299995 43.7441 0.523853 43.7441 0.799995C43.7441 1.07614 43.968 1.3 44.2441 1.3V0.299995ZM39.9927 1.3C40.2688 1.3 40.4927 1.07614 40.4927 0.799995C40.4927 0.523853 40.2688 0.299995 39.9927 0.299995V1.3ZM37.867 0.299995C37.5908 0.299995 37.367 0.523853 37.367 0.799995C37.367 1.07614 37.5908 1.3 37.867 1.3V0.299995ZM33.6155 1.3C33.8917 1.3 34.1155 1.07614 34.1155 0.799995C34.1155 0.523853 33.8917 0.299995 33.6155 0.299995V1.3ZM31.4898 0.299995C31.2137 0.299995 30.9898 0.523853 30.9898 0.799995C30.9898 1.07614 31.2137 1.3 31.4898 1.3V0.299995ZM27.2384 1.3C27.5145 1.3 27.7384 1.07614 27.7384 0.799995C27.7384 0.523853 27.5145 0.299995 27.2384 0.299995V1.3ZM25.1127 0.299995C24.8365 0.299995 24.6127 0.523853 24.6127 0.799995C24.6127 1.07614 24.8365 1.3 25.1127 1.3V0.299995ZM20.8612 1.3C21.1374 1.3 21.3612 1.07614 21.3612 0.799995C21.3612 0.523853 21.1374 0.299995 20.8612 0.299995V1.3ZM18.7355 0.299995C18.4594 0.299995 18.2355 0.523853 18.2355 0.799995C18.2355 1.07614 18.4594 1.3 18.7355 1.3V0.299995ZM14.4841 1.3C14.7602 1.3 14.9841 1.07614 14.9841 0.799995C14.9841 0.523853 14.7602 0.299995 14.4841 0.299995V1.3ZM12.8429 1.73039C12.8203 2.0056 13.025 2.24707 13.3002 2.26974C13.5754 2.2924 13.8169 2.08767 13.8396 1.81246L12.8429 1.73039ZM13.5196 5.69818C13.5422 5.42297 13.3375 5.18149 13.0623 5.15883C12.7871 5.13616 12.5456 5.34089 12.5229 5.6161L13.5196 5.69818ZM12.3629 7.55896C12.3403 7.83417 12.545 8.07564 12.8202 8.09831C13.0954 8.12097 13.3369 7.91624 13.3596 7.64103L12.3629 7.55896ZM13.0396 11.5267C13.0622 11.2515 12.8575 11.0101 12.5823 10.9874C12.3071 10.9647 12.0656 11.1695 12.0429 11.4447L13.0396 11.5267ZM11.8829 13.3875C11.8603 13.6627 12.065 13.9042 12.3402 13.9269C12.6154 13.9495 12.8569 13.7448 12.8796 13.4696L11.8829 13.3875ZM12.5596 17.3553C12.5822 17.0801 12.3775 16.8386 12.1023 16.816C11.8271 16.7933 11.5856 16.998 11.5629 17.2732L12.5596 17.3553ZM11.4029 19.2161C11.3803 19.4913 11.585 19.7328 11.8602 19.7555C12.1354 19.7781 12.3769 19.5734 12.3996 19.2982L11.4029 19.2161ZM12.0796 23.1839C12.1022 22.9087 11.8975 22.6672 11.6223 22.6445C11.3471 22.6219 11.1056 22.8266 11.0829 23.1018L12.0796 23.1839ZM10.9229 25.0447C10.9003 25.3199 11.105 25.5614 11.3802 25.584C11.6554 25.6067 11.8969 25.402 11.9196 25.1267L10.9229 25.0447ZM11.5996 29.0125C11.6222 28.7373 11.4175 28.4958 11.1423 28.4731C10.8671 28.4504 10.6256 28.6552 10.6029 28.9304L11.5996 29.0125ZM10.4429 30.8732C10.4203 31.1485 10.625 31.3899 10.9002 31.4126C11.1754 31.4353 11.4169 31.2305 11.4396 30.9553L10.4429 30.8732ZM11.1196 34.841C11.1422 34.5658 10.9375 34.3243 10.6623 34.3017C10.3871 34.279 10.1456 34.4837 10.1229 34.759L11.1196 34.841ZM9.96294 36.7018C9.94027 36.977 10.145 37.2185 10.4202 37.2412C10.6954 37.2638 10.9369 37.0591 10.9596 36.7839L9.96294 36.7018ZM10.6396 40.6696C10.6622 40.3944 10.4575 40.1529 10.1823 40.1303C9.90708 40.1076 9.6656 40.3123 9.64294 40.5875L10.6396 40.6696ZM11.1439 42.1C11.4201 42.1 11.6439 41.8761 11.6439 41.6C11.6439 41.3239 11.4201 41.1 11.1439 41.1V42.1ZM15.4746 41.1C15.1984 41.1 14.9746 41.3239 14.9746 41.6C14.9746 41.8761 15.1984 42.1 15.4746 42.1V41.1ZM17.6399 42.1C17.9161 42.1 18.1399 41.8761 18.1399 41.6C18.1399 41.3239 17.9161 41.1 17.6399 41.1V42.1ZM21.9706 41.1C21.6944 41.1 21.4706 41.3239 21.4706 41.6C21.4706 41.8761 21.6944 42.1 21.9706 42.1V41.1ZM24.1359 42.1C24.4121 42.1 24.6359 41.8761 24.6359 41.6C24.6359 41.3239 24.4121 41.1 24.1359 41.1V42.1ZM28.4666 41.1C28.1904 41.1 27.9666 41.3239 27.9666 41.6C27.9666 41.8761 28.1904 42.1 28.4666 42.1V41.1ZM30.8912 42.1185C31.1673 42.1264 31.3975 41.909 31.4054 41.633C31.4133 41.357 31.1959 41.1268 30.9199 41.1189L30.8912 42.1185ZM36.4179 41.8486C36.1543 41.7663 35.8739 41.9134 35.7917 42.177C35.7094 42.4406 35.8565 42.721 36.1201 42.8032L36.4179 41.8486ZM37.8536 43.6388C38.0777 43.8001 38.3902 43.7492 38.5515 43.5251C38.7129 43.301 38.662 42.9886 38.4379 42.8272L37.8536 43.6388ZM40.1626 45.5861C40.1189 45.3134 39.8625 45.1278 39.5898 45.1715C39.3172 45.2152 39.1315 45.4717 39.1752 45.7443L40.1626 45.5861ZM39.162 47.124C39.1126 47.3957 39.2927 47.656 39.5644 47.7055C39.8361 47.7549 40.0964 47.5748 40.1459 47.3031L39.162 47.124ZM38.2126 50.2872C38.4335 50.1215 38.4782 49.8081 38.3124 49.5872C38.1467 49.3663 37.8333 49.3216 37.6124 49.4874L38.2126 50.2872ZM36.0585 50.3411C35.8023 50.4441 35.6781 50.7353 35.7812 50.9915C35.8842 51.2477 36.1754 51.3719 36.4316 51.2688L36.0585 50.3411ZM32.0099 52.152C32.2857 52.1378 32.4978 51.9027 32.4835 51.627C32.4693 51.3512 32.2342 51.1391 31.9585 51.1534L32.0099 52.152ZM30.1363 51.1707C29.8603 51.164 29.631 51.3823 29.6243 51.6584C29.6175 51.9345 29.8359 52.1637 30.1119 52.1704L30.1363 51.1707ZM26.9977 51.9475C27.2719 51.9798 27.5204 51.7836 27.5527 51.5094C27.585 51.2351 27.3889 50.9866 27.1147 50.9543L26.9977 51.9475ZM25.6125 50.744C25.3399 50.6999 25.0832 50.885 25.039 51.1576C24.9949 51.4302 25.18 51.687 25.4526 51.7311L25.6125 50.744ZM22.3995 51.108C22.6677 51.1738 22.9385 51.0097 23.0043 50.7416C23.0701 50.4734 22.9061 50.2026 22.6379 50.1368L22.3995 51.108ZM21.1458 49.7354C20.8808 49.6575 20.603 49.8092 20.5251 50.0742C20.4473 50.3391 20.599 50.617 20.8639 50.6948L21.1458 49.7354ZM17.8014 49.6513C18.0588 49.7514 18.3486 49.624 18.4487 49.3666C18.5488 49.1092 18.4214 48.8195 18.164 48.7193L17.8014 49.6513ZM16.7081 48.117C16.4552 48.0061 16.1603 48.1212 16.0493 48.3741C15.9384 48.627 16.0535 48.9219 16.3064 49.0328L16.7081 48.117ZM13.4013 47.6111C13.6441 47.7426 13.9476 47.6524 14.0791 47.4096C14.2106 47.1667 14.1204 46.8633 13.8776 46.7318L13.4013 47.6111ZM12.0603 47.5031C11.9449 47.754 12.0548 48.0509 12.3057 48.1663C12.5566 48.2816 12.8535 48.1718 12.9689 47.9209L12.0603 47.5031ZM11.2622 51.6329C11.3776 51.382 11.2677 51.0851 11.0168 50.9697C10.7659 50.8544 10.469 50.9642 10.3536 51.2151L11.2622 51.6329ZM9.5003 53.0711C9.38494 53.322 9.49482 53.6189 9.74572 53.7343C9.99661 53.8496 10.2935 53.7398 10.4089 53.4889L9.5003 53.0711ZM8.7022 57.2009C8.81756 56.95 8.70768 56.6531 8.45678 56.5377C8.20589 56.4224 7.90899 56.5322 7.79363 56.7831L8.7022 57.2009ZM6.9403 58.6391C6.82494 58.89 6.93482 59.1869 7.18572 59.3023C7.43661 59.4176 7.73351 59.3078 7.84887 59.0569L6.9403 58.6391ZM6.1422 62.7689C6.25756 62.518 6.14768 62.2211 5.89678 62.1057C5.64589 61.9904 5.34899 62.1002 5.23363 62.3511L6.1422 62.7689ZM5.99116 64.4536C6.23578 64.5818 6.53794 64.4873 6.66607 64.2427C6.79419 63.9981 6.69975 63.6959 6.45513 63.5678L5.99116 64.4536ZM10.392 65.3499C10.1346 65.2499 9.8449 65.3774 9.74485 65.6348C9.64481 65.8922 9.77235 66.1819 10.0297 66.282L10.392 65.3499ZM12.1126 67.0323C12.3746 67.1195 12.6577 66.9779 12.745 66.7159C12.8322 66.4539 12.6906 66.1708 12.4286 66.0835L12.1126 67.0323ZM16.5982 67.269C16.3297 67.2047 16.0598 67.3703 15.9955 67.6388C15.9312 67.9074 16.0967 68.1772 16.3653 68.2415L16.5982 67.269ZM18.6203 68.7327C18.8912 68.7864 19.1543 68.6104 19.2081 68.3396C19.2618 68.0687 19.0858 67.8055 18.8149 67.7518L18.6203 68.7327ZM23.4903 68.512C23.2163 68.4773 22.9661 68.6712 22.9314 68.9452C22.8967 69.2191 23.0906 69.4693 23.3645 69.5041L23.4903 68.512ZM25.7545 69.7639C26.0295 69.7888 26.2727 69.5861 26.2976 69.3111C26.3225 69.0361 26.1198 68.7929 25.8448 68.768L25.7545 69.7639ZM30.5732 69.0253C30.2971 69.0202 30.0693 69.24 30.0642 69.5161C30.0592 69.7922 30.279 70.0201 30.5551 70.0251L30.5732 69.0253ZM32.7453 70.0284C33.0215 70.0241 33.2418 69.7968 33.2375 69.5207C33.2332 69.2446 33.0059 69.0242 32.7298 69.0285L32.7453 70.0284ZM36.6068 68.8367C36.3317 68.8603 36.1278 69.1025 36.1514 69.3777C36.1751 69.6528 36.4172 69.8567 36.6924 69.8331L36.6068 68.8367ZM38.6611 69.6243C38.9351 69.5896 39.1289 69.3393 39.0942 69.0653C39.0594 68.7914 38.8091 68.5975 38.5351 68.6323L38.6611 69.6243ZM42.3473 67.9695C42.0779 68.0301 41.9086 68.2977 41.9692 68.5671C42.0298 68.8365 42.2973 69.0057 42.5668 68.9451L42.3473 67.9695ZM44.492 68.4566C44.7576 68.3812 44.9118 68.1047 44.8364 67.8391C44.761 67.5734 44.4845 67.4192 44.2188 67.4946L44.492 68.4566ZM47.851 66.2146C47.5973 66.3234 47.4798 66.6174 47.5886 66.8712C47.6975 67.125 47.9915 67.2425 48.2452 67.1336L47.851 66.2146ZM50.1809 66.2047C50.4252 66.0759 50.5187 65.7734 50.3899 65.5292C50.2611 65.2849 49.9587 65.1913 49.7144 65.3202L50.1809 66.2047ZM53.4655 62.9683C53.2443 63.1337 53.1991 63.447 53.3644 63.6682C53.5297 63.8893 53.843 63.9346 54.0642 63.7693L53.4655 62.9683ZM55.8416 62.3071C56.0461 62.1215 56.0615 61.8053 55.8759 61.6008C55.6904 61.3963 55.3742 61.3809 55.1696 61.5664L55.8416 62.3071ZM58.0872 58.285C57.9282 58.5108 57.9824 58.8227 58.2082 58.9816C58.434 59.1406 58.7459 59.0864 58.9049 58.8606L58.0872 58.285ZM60.0788 56.9937C60.2148 56.7534 60.1302 56.4483 59.8898 56.3124C59.6495 56.1764 59.3444 56.261 59.2084 56.5014L60.0788 56.9937ZM60.856 52.8378C60.7671 53.0993 60.9069 53.3833 61.1684 53.4722C61.4298 53.5611 61.7138 53.4212 61.8027 53.1598L60.856 52.8378ZM62.3835 51.1357C62.4467 50.8669 62.2801 50.5977 62.0113 50.5345C61.7425 50.4713 61.4733 50.6379 61.4101 50.9067L62.3835 51.1357ZM61.9553 46.9271C61.9432 47.2029 62.157 47.4364 62.4329 47.4485C62.7088 47.4606 62.9422 47.2468 62.9543 46.9709L61.9553 46.9271ZM62.9595 44.9336C62.9494 44.6577 62.7176 44.4421 62.4416 44.4521C62.1657 44.4622 61.9501 44.694 61.9601 44.97L62.9595 44.9336ZM61.5192 41.2134C61.575 41.4838 61.8394 41.6579 62.1098 41.6022C62.3803 41.5465 62.5544 41.2821 62.4987 41.0116L61.5192 41.2134ZM62.0077 39.0917C61.9265 38.8277 61.6467 38.6797 61.3827 38.7609C61.1188 38.8422 60.9708 39.122 61.052 39.3859L62.0077 39.0917ZM59.5842 35.924C59.718 36.1656 60.0223 36.253 60.2639 36.1192C60.5054 35.9855 60.5929 35.6812 60.4591 35.4396L59.5842 35.924ZM59.4063 33.7545C59.2479 33.5283 58.9361 33.4734 58.7099 33.6318C58.4837 33.7902 58.4288 34.102 58.5872 34.3282L59.4063 33.7545ZM56.1274 31.4779C56.3272 31.6685 56.6437 31.661 56.8343 31.4613C57.025 31.2615 57.0175 30.945 56.8177 30.7543L56.1274 31.4779ZM55.3716 29.4796C55.1566 29.3064 54.8418 29.3403 54.6686 29.5553C54.4953 29.7703 54.5292 30.0851 54.7442 30.2583L55.3716 29.4796ZM51.7518 28.3063C51.9962 28.4349 52.2985 28.341 52.427 28.0965C52.5556 27.8521 52.4616 27.5498 52.2172 27.4213L51.7518 28.3063ZM50.5197 26.6176C50.2656 26.5096 49.972 26.628 49.864 26.8822C49.756 27.1363 49.8745 27.4299 50.1286 27.5379L50.5197 26.6176ZM46.721 26.3682C46.9875 26.4406 47.2622 26.2834 47.3347 26.0169C47.4071 25.7504 47.2499 25.4757 46.9834 25.4032L46.721 26.3682ZM45.1702 24.9653C44.9001 24.9079 44.6346 25.0802 44.5771 25.3503C44.5197 25.6204 44.692 25.886 44.9621 25.9434L45.1702 24.9653ZM41.3818 25.3604C41.656 25.3926 41.9045 25.1965 41.9368 24.9222C41.9691 24.648 41.773 24.3995 41.4987 24.3672L41.3818 25.3604ZM39.6516 24.1863C39.3763 24.1645 39.1355 24.3701 39.1137 24.6454C39.092 24.9207 39.2975 25.1614 39.5728 25.1832L39.6516 24.1863ZM35.9333 25.0184C36.2094 25.0223 36.4364 24.8016 36.4403 24.5255C36.4442 24.2494 36.2235 24.0224 35.9474 24.0185L35.9333 25.0184ZM35.0213 24.012H34.4453V25.012H35.0213V24.012ZM32.1413 24.012H31.5653V25.012H32.1413V24.012ZM32.0639 24.5481L32.1439 23.4441L31.1466 23.3719L31.0666 24.4759L32.0639 24.5481ZM32.4639 19.0281L32.5439 17.9241L31.5466 17.8519L31.4666 18.9559L32.4639 19.0281ZM32.0453 18.388H33.1293V17.388H32.0453V18.388ZM37.4653 18.388H39.6333V17.388H37.4653V18.388ZM43.9693 18.388H46.1373V17.388H43.9693V18.388ZM50.4733 18.388H52.6412V17.388H50.4733V18.388ZM56.9773 18.388H58.0613V17.388H56.9773V18.388ZM58.5613 17.888V16.9387H57.5613V17.888H58.5613ZM58.5613 13.1413V11.2427H57.5613V13.1413H58.5613ZM58.5613 7.44533V5.54666H57.5613V7.44533H58.5613ZM58.5613 1.74933V0.799995H57.5613V1.74933H58.5613ZM58.0613 0.299995H56.9984V1.3H58.0613V0.299995ZM52.747 0.299995H50.6213V1.3H52.747V0.299995ZM46.3698 0.299995H44.2441V1.3H46.3698V0.299995ZM39.9927 0.299995H37.867V1.3H39.9927V0.299995ZM33.6155 0.299995H31.4898V1.3H33.6155V0.299995ZM27.2384 0.299995H25.1127V1.3H27.2384V0.299995ZM20.8612 0.299995H18.7355V1.3H20.8612V0.299995ZM14.4841 0.299995H13.4213V1.3H14.4841V0.299995ZM12.9229 0.758958L12.8429 1.73039L13.8396 1.81246L13.9196 0.841033L12.9229 0.758958ZM12.5229 5.6161L12.3629 7.55896L13.3596 7.64103L13.5196 5.69818L12.5229 5.6161ZM12.0429 11.4447L11.8829 13.3875L12.8796 13.4696L13.0396 11.5267L12.0429 11.4447ZM11.5629 17.2732L11.4029 19.2161L12.3996 19.2982L12.5596 17.3553L11.5629 17.2732ZM11.0829 23.1018L10.9229 25.0447L11.9196 25.1267L12.0796 23.1839L11.0829 23.1018ZM10.6029 28.9304L10.4429 30.8732L11.4396 30.9553L11.5996 29.0125L10.6029 28.9304ZM10.1229 34.759L9.96294 36.7018L10.9596 36.7839L11.1196 34.841L10.1229 34.759ZM9.64294 40.5875L9.56294 41.559L10.5596 41.641L10.6396 40.6696L9.64294 40.5875ZM10.0613 42.1H11.1439V41.1H10.0613V42.1ZM15.4746 42.1H17.6399V41.1H15.4746V42.1ZM21.9706 42.1H24.1359V41.1H21.9706V42.1ZM28.4666 42.1H29.5493V41.1H28.4666V42.1ZM29.5493 42.1C30.0147 42.1 30.462 42.1062 30.8912 42.1185L30.9199 41.1189C30.4804 41.1063 30.0235 41.1 29.5493 41.1V42.1ZM36.1201 42.8032C36.5774 42.9458 36.9594 43.107 37.2712 43.2833L37.7633 42.4127C37.3764 42.194 36.9262 42.0071 36.4179 41.8486L36.1201 42.8032ZM37.286 43.2913C37.4935 43.3996 37.6825 43.5156 37.8536 43.6388L38.4379 42.8272C38.225 42.674 37.995 42.5333 37.7485 42.4047L37.286 43.2913ZM39.1752 45.7443C39.2083 45.9506 39.2253 46.169 39.2253 46.4H40.2253C40.2253 46.12 40.2047 45.8485 40.1626 45.5861L39.1752 45.7443ZM39.2253 46.4C39.2253 46.653 39.2039 46.8941 39.162 47.124L40.1459 47.3031C40.1991 47.0107 40.2253 46.7095 40.2253 46.4H39.2253ZM37.6124 49.4874C37.4202 49.6316 37.2094 49.7702 36.9794 49.9029L37.4791 50.7691C37.741 50.618 37.9857 50.4575 38.2126 50.2872L37.6124 49.4874ZM36.985 49.8997C36.6956 50.0618 36.387 50.209 36.0585 50.3411L36.4316 51.2688C36.7975 51.1217 37.1449 50.9563 37.4736 50.7723L36.985 49.8997ZM31.9585 51.1534C31.6143 51.1711 31.2592 51.18 30.8933 51.18V52.18C31.2754 52.18 31.6476 52.1707 32.0099 52.152L31.9585 51.1534ZM30.8933 51.18C30.6417 51.18 30.3894 51.1769 30.1363 51.1707L30.1119 52.1704C30.3731 52.1768 30.6335 52.18 30.8933 52.18V51.18ZM27.1147 50.9543C26.6168 50.8957 26.1161 50.8256 25.6125 50.744L25.4526 51.7311C25.9702 51.815 26.4852 51.8871 26.9977 51.9475L27.1147 50.9543ZM22.6379 50.1368C22.393 50.0767 22.1476 50.014 21.9015 49.9487L21.645 50.9153C21.8971 50.9822 22.1486 51.0464 22.3995 51.108L22.6379 50.1368ZM21.904 49.9494C21.6503 49.8807 21.3976 49.8094 21.1458 49.7354L20.8639 50.6948C21.1225 50.7708 21.3821 50.8441 21.6425 50.9146L21.904 49.9494ZM18.164 48.7193C17.6752 48.5292 17.1899 48.3284 16.7081 48.117L16.3064 49.0328C16.8011 49.2498 17.2994 49.456 17.8014 49.6513L18.164 48.7193ZM13.8776 46.7318C13.647 46.6068 13.4172 46.4793 13.1883 46.3493L12.6942 47.2187C12.929 47.3521 13.1647 47.4829 13.4013 47.6111L13.8776 46.7318ZM12.487 46.5751L12.0603 47.5031L12.9689 47.9209L13.3955 46.9929L12.487 46.5751ZM10.3536 51.2151L9.5003 53.0711L10.4089 53.4889L11.2622 51.6329L10.3536 51.2151ZM7.79363 56.7831L6.9403 58.6391L7.84887 59.0569L8.7022 57.2009L7.79363 56.7831ZM5.23363 62.3511L4.80697 63.2791L5.71553 63.6969L6.1422 62.7689L5.23363 62.3511ZM5.01574 63.9236C5.33626 64.1042 5.66139 64.2809 5.99116 64.4536L6.45513 63.5678C6.13435 63.3998 5.81822 63.228 5.50676 63.0524L5.01574 63.9236ZM10.0297 66.282C10.7082 66.5457 11.4025 66.7958 12.1126 67.0323L12.4286 66.0835C11.7336 65.8521 11.0547 65.6075 10.392 65.3499L10.0297 66.282ZM16.3653 68.2415C16.7209 68.3267 17.0799 68.409 17.4422 68.4884L17.6563 67.5116C17.3002 67.4335 16.9475 67.3527 16.5982 67.269L16.3653 68.2415ZM17.4436 68.4887C17.8358 68.5735 18.228 68.6548 18.6203 68.7327L18.8149 67.7518C18.4283 67.6751 18.0416 67.5949 17.6549 67.5113L17.4436 68.4887ZM23.3645 69.5041C24.1611 69.6051 24.9578 69.6917 25.7545 69.7639L25.8448 68.768C25.06 68.6968 24.2752 68.6115 23.4903 68.512L23.3645 69.5041ZM30.5551 70.0251C30.9558 70.0324 31.3565 70.036 31.7573 70.036V69.036C31.3626 69.036 30.9679 69.0324 30.5732 69.0253L30.5551 70.0251ZM31.7573 70.036C32.0892 70.036 32.4185 70.0335 32.7453 70.0284L32.7298 69.0285C32.4083 69.0335 32.0841 69.036 31.7573 69.036V70.036ZM36.6924 69.8331C37.3608 69.7757 38.0171 69.7061 38.6611 69.6243L38.5351 68.6323C37.905 68.7123 37.2622 68.7805 36.6068 68.8367L36.6924 69.8331ZM42.5668 68.9451C43.2235 68.7974 43.8652 68.6346 44.492 68.4566L44.2188 67.4946C43.6104 67.6674 42.9866 67.8257 42.3473 67.9695L42.5668 68.9451ZM48.2452 67.1336C48.5529 67.0017 48.8561 66.8652 49.1548 66.7241L48.7277 65.8199C48.4401 65.9557 48.1479 66.0873 47.851 66.2146L48.2452 67.1336ZM49.1598 66.7217C49.5068 66.553 49.8472 66.3807 50.1809 66.2047L49.7144 65.3202C49.3906 65.4909 49.06 65.6583 48.7227 65.8223L49.1598 66.7217ZM54.0642 63.7693C54.6909 63.3009 55.2834 62.8135 55.8416 62.3071L55.1696 61.5664C54.6358 62.0508 54.0678 62.5181 53.4655 62.9683L54.0642 63.7693ZM58.9049 58.8606C59.1276 58.5442 59.3402 58.2223 59.5426 57.8949L58.692 57.3691C58.5001 57.6794 58.2985 57.9847 58.0872 58.285L58.9049 58.8606ZM59.5413 57.897C59.728 57.5982 59.9072 57.2971 60.0788 56.9937L59.2084 56.5014C59.0441 56.7919 58.8724 57.0804 58.6933 57.367L59.5413 57.897ZM61.8027 53.1598C62.029 52.4945 62.2226 51.8197 62.3835 51.1357L61.4101 50.9067C61.2565 51.5594 61.0718 52.203 60.856 52.8378L61.8027 53.1598ZM62.9543 46.9709C62.9696 46.6227 62.9773 46.2724 62.9773 45.92H61.9773C61.9773 46.2579 61.9699 46.5936 61.9553 46.9271L62.9543 46.9709ZM62.9773 45.92C62.9773 45.5881 62.9713 45.2593 62.9595 44.9336L61.9601 44.97C61.9715 45.2833 61.9773 45.6 61.9773 45.92H62.9773ZM62.4987 41.0116C62.3637 40.3563 62.2001 39.7163 62.0077 39.0917L61.052 39.3859C61.2348 39.9794 61.3905 40.5885 61.5192 41.2134L62.4987 41.0116ZM60.4591 35.4396C60.1386 34.8608 59.7877 34.2991 59.4063 33.7545L58.5872 34.3282C58.9485 34.8441 59.2809 35.3761 59.5842 35.924L60.4591 35.4396ZM56.8177 30.7543C56.5805 30.528 56.3365 30.3055 56.0857 30.087L55.4288 30.841C55.6683 31.0497 55.9012 31.262 56.1274 31.4779L56.8177 30.7543ZM56.0914 30.0921C55.8582 29.8825 55.6182 29.6783 55.3716 29.4796L54.7442 30.2583C54.977 30.4459 55.2033 30.6384 55.4231 30.8359L56.0914 30.0921ZM52.2172 27.4213C51.6732 27.1351 51.1073 26.8673 50.5197 26.6176L50.1286 27.5379C50.6919 27.7773 51.233 28.0335 51.7518 28.3063L52.2172 27.4213ZM46.9834 25.4032C46.3957 25.2434 45.7913 25.0974 45.1702 24.9653L44.9621 25.9434C45.5658 26.0718 46.152 26.2134 46.721 26.3682L46.9834 25.4032ZM41.4987 24.3672C40.896 24.2963 40.2803 24.236 39.6516 24.1863L39.5728 25.1832C40.1893 25.2319 40.7923 25.2909 41.3818 25.3604L41.4987 24.3672ZM35.9474 24.0185C35.6413 24.0142 35.3326 24.012 35.0213 24.012V25.012C35.328 25.012 35.632 25.0141 35.9333 25.0184L35.9474 24.0185Z" fill="url(#paint0_linear)"/>
    </g>
    <defs>
        <filter id="filter0_d" x="0.614624" y="0.299988" width="66.3626" height="77.736" filterUnits="userSpaceOnUse" color-interpolation-filters="sRGB">
            <feFlood flood-opacity="0" result="BackgroundImageFix"/>
            <feColorMatrix in="SourceAlpha" type="matrix" values="0 0 0 0 0 0 0 0 0 0 0 0 0 0 0 0 0 0 127 0"/>
            <feOffset dy="4"/>
            <feGaussianBlur stdDeviation="2"/>
            <feColorMatrix type="matrix" values="0 0 0 0 0 0 0 0 0 0 0 0 0 0 0 0 0 0 0.25 0"/>
            <feBlend mode="normal" in2="BackgroundImageFix" result="effect1_dropShadow"/>
            <feBlend mode="normal" in="SourceGraphic" in2="effect1_dropShadow" result="shape"/>
        </filter>
        <linearGradient id="paint0_linear" x1="34.5" y1="-25" x2="34.5" y2="92" gradientUnits="userSpaceOnUse">
            <stop stop-color="#FFEE55"/>
            <stop offset="1" stop-color="white"/>
        </linearGradient>
    </defs>
</svg>
