<svg width="69" height="81" viewBox="0 0 69 81" fill="none" xmlns="http://www.w3.org/2000/svg">
    <g opacity="0.5" filter="url(#filter0_d)">
        <path d="M52.4536 29.2L52.2268 29.6456L52.2268 29.6456L52.4536 29.2ZM60.9016 36.784L61.3214 36.5124L61.3214 36.5124L60.9016 36.784ZM60.4216 60.4L60.0079 60.1192L60.0045 60.1244L60.4216 60.4ZM50.6296 68.656L50.4201 68.202L50.4201 68.202L50.6296 68.656ZM19.8136 67.792L19.5829 68.2356L19.5853 68.2368L19.8136 67.792ZM8.58163 56.656L9.02057 56.4166L9.02057 56.4166L8.58163 56.656ZM9.15763 18.544L8.72076 18.3007L8.71868 18.3046L9.15763 18.544ZM22.2136 5.68L21.982 5.23688L21.9799 5.23798L22.2136 5.68ZM53.3176 2.704L53.1904 3.1876L53.1984 3.18956L53.3176 2.704ZM62.6296 6.544L63.0741 6.77298L63.2811 6.37113L62.9021 6.12478L62.6296 6.544ZM54.4696 22.384L54.1797 22.7914L54.6499 23.1259L54.9141 22.613L54.4696 22.384ZM32.5816 21.808L32.8865 22.2043L32.8879 22.2032L32.5816 21.808ZM27.6856 30.256L27.196 30.1547L26.9386 31.3986L27.9748 30.6639L27.6856 30.256ZM40.2616 54.064L39.9173 53.7015L39.9173 53.7015L40.2616 54.064ZM40.2616 44.08L39.908 44.4337L39.9173 44.4425L40.2616 44.08ZM30.2776 44.08L30.6221 44.4426L30.6312 44.4336L30.2776 44.08ZM30.2776 54.064L30.622 53.7015L30.622 53.7015L30.2776 54.064ZM39.8379 26.0327C39.5619 26.0424 39.346 26.2739 39.3557 26.5499C39.3654 26.8259 39.597 27.0417 39.873 27.0321L39.8379 26.0327ZM35.299 27.5639C35.5693 27.5077 35.743 27.243 35.6868 26.9727C35.6307 26.7023 35.3659 26.5286 35.0956 26.5848L35.299 27.5639ZM32.7752 27.1918C32.5121 27.2757 32.3669 27.5571 32.4509 27.8201C32.5349 28.0832 32.8162 28.2284 33.0793 28.1444L32.7752 27.1918ZM28.9267 30.0345C29.1618 29.8898 29.2351 29.5818 29.0904 29.3466C28.9456 29.1115 28.6377 29.0382 28.4025 29.1829L28.9267 30.0345ZM28.3558 29.5662C28.4229 29.2983 28.2601 29.0268 27.9923 28.9597C27.7244 28.8926 27.4529 29.0554 27.3858 29.3233L28.3558 29.5662ZM28.5309 26.0987C28.4116 26.3477 28.5167 26.6463 28.7657 26.7656C29.0148 26.885 29.3134 26.7798 29.4327 26.5308L28.5309 26.0987ZM30.2103 25.1316C30.3593 24.8992 30.2916 24.5899 30.0592 24.4409C29.8267 24.2919 29.5174 24.3595 29.3684 24.592L30.2103 25.1316ZM31.6087 21.9636C31.4021 22.1468 31.3832 22.4628 31.5664 22.6694C31.7496 22.876 32.0657 22.895 32.2723 22.7118L31.6087 21.9636ZM33.5588 21.7176C33.7877 21.5632 33.8481 21.2524 33.6936 21.0235C33.5392 20.7946 33.2284 20.7342 32.9995 20.8887L33.5588 21.7176ZM36.1849 19.2937C35.9244 19.3855 35.7877 19.6711 35.8796 19.9315C35.9714 20.192 36.2569 20.3286 36.5174 20.2368L36.1849 19.2937ZM38.1166 19.7747C38.3857 19.7129 38.5538 19.4446 38.492 19.1754C38.4301 18.9063 38.1618 18.7382 37.8927 18.8001L38.1166 19.7747ZM41.3968 18.3489C41.1209 18.3596 40.9059 18.592 40.9166 18.8679C40.9273 19.1439 41.1597 19.3589 41.4356 19.3481L41.3968 18.3489ZM43.3346 19.3519C43.6105 19.3625 43.8428 19.1473 43.8533 18.8714C43.8638 18.5954 43.6487 18.3632 43.3727 18.3527L43.3346 19.3519ZM47.7258 18.8973C47.4562 18.8375 47.1892 19.0077 47.1295 19.2773C47.0698 19.5469 47.2399 19.8139 47.5095 19.8736L47.7258 18.8973ZM49.5307 20.4335C49.7924 20.5214 50.0759 20.3806 50.1639 20.1188C50.2518 19.857 50.1109 19.5735 49.8492 19.4856L49.5307 20.4335ZM53.8398 21.3629C53.6056 21.2166 53.2971 21.2878 53.1508 21.522C53.0045 21.7562 53.0758 22.0647 53.31 22.211L53.8398 21.3629ZM55.3674 21.733C55.4939 21.4875 55.3974 21.186 55.1519 21.0595C54.9065 20.933 54.6049 21.0295 54.4785 21.275L55.3674 21.733ZM56.2918 17.755C56.1653 18.0005 56.2618 18.302 56.5073 18.4285C56.7528 18.5549 57.0543 18.4585 57.1808 18.213L56.2918 17.755ZM58.0874 16.453C58.2139 16.2075 58.1174 15.906 57.8719 15.7795C57.6265 15.653 57.3249 15.7495 57.1985 15.995L58.0874 16.453ZM59.0118 12.475C58.8853 12.7205 58.9818 13.022 59.2273 13.1485C59.4728 13.2749 59.7743 13.1785 59.9008 12.933L59.0118 12.475ZM60.8074 11.173C60.9339 10.9275 60.8374 10.626 60.5919 10.4995C60.3465 10.373 60.0449 10.4695 59.9185 10.715L60.8074 11.173ZM61.7318 7.19502C61.6053 7.4405 61.7018 7.74202 61.9473 7.86849C62.1928 7.99495 62.4943 7.89846 62.6208 7.65298L61.7318 7.19502ZM62.1713 5.66864C61.9345 5.52668 61.6274 5.60362 61.4854 5.84048C61.3435 6.07734 61.4204 6.38443 61.6573 6.52639L62.1713 5.66864ZM58.7141 5.01992C58.9673 5.13017 59.2619 5.01431 59.3721 4.76113C59.4824 4.50795 59.3665 4.21333 59.1134 4.10308L58.7141 5.01992ZM57.5234 3.46319C57.2645 3.36707 56.9768 3.499 56.8806 3.75788C56.7845 4.01675 56.9165 4.30453 57.1753 4.40065L57.5234 3.46319ZM54.0056 3.39657C54.2723 3.46794 54.5464 3.30955 54.6178 3.04279C54.6892 2.77602 54.5308 2.50192 54.264 2.43055L54.0056 3.39657ZM52.4927 1.98168C52.224 1.91762 51.9544 2.08344 51.8903 2.35205C51.8262 2.62066 51.9921 2.89034 52.2607 2.9544L52.4927 1.98168ZM48.4945 2.23548C48.7678 2.27509 49.0214 2.08565 49.061 1.81236C49.1006 1.53908 48.9112 1.28542 48.6379 1.24582L48.4945 2.23548ZM46.6908 1.0066C46.416 0.978812 46.1708 1.17901 46.143 1.45375C46.1152 1.72849 46.3154 1.97374 46.5901 2.00152L46.6908 1.0066ZM42.7582 1.77324C43.0343 1.77857 43.2624 1.55908 43.2678 1.28299C43.2731 1.0069 43.0536 0.778761 42.7775 0.773427L42.7582 1.77324ZM40.6606 0.775547C40.3845 0.78119 40.1652 1.00957 40.1709 1.28566C40.1765 1.56174 40.4049 1.78098 40.681 1.77534L40.6606 0.775547ZM36.2311 2.06086C36.5056 2.03059 36.7036 1.78355 36.6733 1.50907C36.643 1.23459 36.396 1.03662 36.1215 1.06689L36.2311 2.06086ZM33.865 1.37176C33.5924 1.41556 33.4069 1.6721 33.4507 1.94474C33.4945 2.21739 33.751 2.4029 34.0237 2.3591L33.865 1.37176ZM29.6749 3.29712C29.9413 3.22408 30.0979 2.94899 30.0249 2.68268C29.9519 2.41637 29.6768 2.25969 29.4105 2.33272L29.6749 3.29712ZM27.2284 2.99984C26.9668 3.08832 26.8265 3.3721 26.9149 3.63368C27.0034 3.89527 27.2872 4.03559 27.5488 3.94711L27.2284 2.99984ZM23.4373 5.62451C23.686 5.50444 23.7903 5.20552 23.6702 4.95685C23.5501 4.70817 23.2512 4.60391 23.0025 4.72398L23.4373 5.62451ZM21.0606 5.74229C20.8206 5.87883 20.7367 6.1841 20.8732 6.42412C21.0098 6.66415 21.315 6.74803 21.555 6.61149L21.0606 5.74229ZM18.1577 8.84251C18.3781 8.67623 18.422 8.3627 18.2558 8.14224C18.0895 7.92178 17.776 7.87786 17.5555 8.04415L18.1577 8.84251ZM15.9228 9.36308C15.7139 9.54368 15.6909 9.85943 15.8715 10.0683C16.0521 10.2772 16.3679 10.3002 16.5768 10.1196L15.9228 9.36308ZM13.6882 12.9756C13.8712 12.7688 13.852 12.4528 13.6453 12.2698C13.4385 12.0867 13.1225 12.106 12.9394 12.3127L13.6882 12.9756ZM11.6008 13.9281C11.4315 14.1463 11.4712 14.4604 11.6894 14.6296C11.9076 14.7989 12.2217 14.7592 12.3909 14.541L11.6008 13.9281ZM10.1029 17.9043C10.2441 17.667 10.1662 17.3602 9.92895 17.2189C9.69167 17.0777 9.38481 17.1555 9.24356 17.3928L10.1029 17.9043ZM8.1772 19.3389C8.05331 19.5857 8.15294 19.8862 8.39973 20.0101C8.64652 20.134 8.94702 20.0344 9.07091 19.7876L8.1772 19.3389ZM7.31043 23.9649C7.40098 23.704 7.26291 23.4192 7.00204 23.3286C6.74117 23.238 6.45628 23.3761 6.36573 23.637L7.31043 23.9649ZM5.6696 25.8622C5.59519 26.1281 5.75045 26.404 6.01638 26.4784C6.28231 26.5528 6.55821 26.3976 6.63261 26.1316L5.6696 25.8622ZM5.66058 30.5701C5.70481 30.2975 5.51969 30.0407 5.24711 29.9965C4.97454 29.9522 4.71772 30.1374 4.67349 30.4099L5.66058 30.5701ZM4.35965 32.7147C4.32922 32.9892 4.52705 33.2364 4.80151 33.2668C5.07597 33.2972 5.32313 33.0994 5.35356 32.8249L4.35965 32.7147ZM5.06118 37.371C5.06681 37.0949 4.84756 36.8666 4.57148 36.8609C4.29539 36.8553 4.06702 37.0745 4.06139 37.3506L5.06118 37.371ZM4.05937 39.5655C4.06451 39.8416 4.2925 40.0612 4.56859 40.0561C4.84469 40.0509 5.06434 39.8229 5.05919 39.5468L4.05937 39.5655ZM5.30338 43.6697C5.27518 43.395 5.02964 43.1952 4.75494 43.2234C4.48024 43.2516 4.28041 43.4971 4.30861 43.7718L5.30338 43.6697ZM4.57377 45.8662C4.61512 46.1393 4.86997 46.3271 5.143 46.2857C5.41603 46.2444 5.60384 45.9895 5.56249 45.7165L4.57377 45.8662ZM6.39515 49.7479C6.32407 49.4811 6.05014 49.3224 5.7833 49.3934C5.51646 49.4645 5.35777 49.7385 5.42884 50.0053L6.39515 49.7479ZM6.03665 52.0338C6.12423 52.2957 6.40753 52.437 6.66941 52.3494C6.9313 52.2618 7.0726 51.9785 6.98502 51.7166L6.03665 52.0338ZM8.54692 55.508C8.42386 55.2608 8.12369 55.1602 7.87649 55.2832C7.62929 55.4063 7.52865 55.7064 7.65172 55.9536L8.54692 55.508ZM8.58836 57.6852C8.72756 57.9237 9.03373 58.0042 9.27223 57.865C9.51072 57.7259 9.59122 57.4197 9.45203 57.1812L8.58836 57.6852ZM11.3995 60.0943C11.2318 59.8749 10.918 59.8329 10.6986 60.0005C10.4792 60.1682 10.4372 60.482 10.6048 60.7014L11.3995 60.0943ZM11.7548 62.1081C11.9366 62.316 12.2525 62.3371 12.4603 62.1553C12.6682 61.9735 12.6893 61.6576 12.5075 61.4498L11.7548 62.1081ZM14.9839 63.919C14.7754 63.738 14.4596 63.7602 14.2786 63.9687C14.0975 64.1772 14.1198 64.493 14.3283 64.6741L14.9839 63.919ZM15.7417 65.8182C15.9622 65.9844 16.2757 65.9404 16.4419 65.7199C16.6082 65.4994 16.5642 65.1859 16.3437 65.0197L15.7417 65.8182ZM19.2735 66.9318C19.0328 66.7965 18.728 66.8821 18.5927 67.1229C18.4575 67.3637 18.5431 67.6685 18.7839 67.8037L19.2735 66.9318ZM20.4748 68.6755C20.7244 68.7936 21.0225 68.6871 21.1407 68.4375C21.2589 68.1879 21.1523 67.8898 20.9027 67.7716L20.4748 68.6755ZM24.4684 69.1952C24.2061 69.1086 23.9234 69.251 23.8368 69.5132C23.7501 69.7754 23.8925 70.0581 24.1547 70.1448L24.4684 69.1952ZM26.0526 70.7109C26.3193 70.7822 26.5934 70.6238 26.6648 70.357C26.7361 70.0903 26.5776 69.8162 26.3109 69.7449L26.0526 70.7109ZM30.077 70.5358C29.8042 70.4932 29.5485 70.6798 29.5058 70.9527C29.4632 71.2255 29.6499 71.4812 29.9227 71.5238L30.077 70.5358ZM31.8815 71.781C32.156 71.8104 32.4025 71.6117 32.4319 71.3371C32.4613 71.0625 32.2625 70.8161 31.9879 70.7867L31.8815 71.781ZM35.8392 71.0265C35.5631 71.021 35.3349 71.2404 35.3294 71.5165C35.3239 71.7926 35.5433 72.0208 35.8194 72.0263L35.8392 71.0265ZM38.007 72.0179C38.283 72.0095 38.5 71.779 38.4916 71.503C38.4832 71.227 38.2527 71.01 37.9767 71.0184L38.007 72.0179ZM42.6294 70.5732C42.357 70.6182 42.1726 70.8755 42.2176 71.1479C42.2626 71.4204 42.5199 71.6048 42.7924 71.5598L42.6294 70.5732ZM45.1527 71.0813C45.4211 71.0165 45.5862 70.7464 45.5214 70.4779C45.4566 70.2095 45.1864 70.0445 44.918 70.1093L45.1527 71.0813ZM49.3518 68.6695C49.0967 68.7751 48.9755 69.0676 49.0811 69.3227C49.1868 69.5778 49.4792 69.699 49.7344 69.5934L49.3518 68.6695ZM51.8301 68.6287C52.076 68.5031 52.1736 68.2019 52.048 67.956C51.9224 67.71 51.6212 67.6125 51.3753 67.7381L51.8301 68.6287ZM54.9656 65.4968C54.7454 65.6636 54.7021 65.9772 54.8689 66.1973C55.0356 66.4174 55.3492 66.4607 55.5693 66.294L54.9656 65.4968ZM57.2657 64.8773C57.4689 64.6903 57.482 64.374 57.295 64.1708C57.108 63.9676 56.7917 63.9545 56.5885 64.1415L57.2657 64.8773ZM59.4006 60.9928C59.2376 61.2157 59.2861 61.5285 59.509 61.6915C59.7319 61.8545 60.0447 61.806 60.2077 61.5831L59.4006 60.9928ZM61.4393 59.7396C61.5824 59.5034 61.5069 59.196 61.2707 59.0529C61.0345 58.9098 60.7271 58.9853 60.584 59.2215L61.4393 59.7396ZM62.3921 55.3689C62.302 55.6299 62.4405 55.9146 62.7015 56.0047C62.9625 56.0949 63.2472 55.9564 63.3373 55.6954L62.3921 55.3689ZM63.9562 53.5469C64.0189 53.278 63.8517 53.0092 63.5828 52.9464C63.3139 52.8837 63.045 53.0509 62.9823 53.3198L63.9562 53.5469ZM63.5475 49.0877C63.536 49.3636 63.7503 49.5966 64.0262 49.6081C64.3021 49.6196 64.5351 49.4053 64.5466 49.1294L63.5475 49.0877ZM64.5497 47.0095C64.5386 46.7336 64.306 46.5189 64.0301 46.5299C63.7542 46.5409 63.5394 46.7736 63.5505 47.0495L64.5497 47.0095ZM63.0622 43.23C63.1223 43.4995 63.3895 43.6693 63.6591 43.6092C63.9286 43.5491 64.0984 43.2819 64.0383 43.0124L63.0622 43.23ZM63.5017 41.0631C63.4152 40.8009 63.1325 40.6584 62.8702 40.7449C62.608 40.8314 62.4655 41.1142 62.552 41.3764L63.5017 41.0631ZM60.9836 37.8755C61.1217 38.1146 61.4275 38.1964 61.6666 38.0583C61.9057 37.9202 61.9876 37.6143 61.8495 37.3752L60.9836 37.8755ZM60.7725 35.7022C60.6128 35.4769 60.3007 35.4238 60.0755 35.5835C59.8502 35.7432 59.7971 36.0553 59.9568 36.2805L60.7725 35.7022ZM57.5362 33.4358C57.7333 33.6292 58.0499 33.6261 58.2432 33.429C58.4366 33.2319 58.4336 32.9153 58.2365 32.7219L57.5362 33.4358ZM56.7771 31.4147C56.5633 31.2399 56.2483 31.2716 56.0735 31.4854C55.8988 31.6992 55.9304 32.0142 56.1442 32.1889L56.7771 31.4147ZM53.0532 30.0875C53.294 30.2227 53.5988 30.1371 53.7339 29.8963C53.8691 29.6555 53.7835 29.3507 53.5427 29.2155L53.0532 30.0875ZM51.7742 28.3153C51.5233 28.1999 51.2264 28.3096 51.1109 28.5605C50.9955 28.8113 51.1052 29.1083 51.3561 29.2237L51.7742 28.3153ZM47.7273 27.8966C47.9935 27.9701 48.2688 27.8139 48.3423 27.5477C48.4158 27.2815 48.2596 27.0062 47.9934 26.9327L47.7273 27.8966ZM46.0316 26.4756C45.7603 26.4238 45.4985 26.6017 45.4467 26.873C45.3948 27.1442 45.5727 27.4061 45.844 27.4579L46.0316 26.4756ZM41.999 27.0292C42.275 27.0391 42.5067 26.8234 42.5166 26.5474C42.5264 26.2715 42.3107 26.0397 42.0348 26.0299L41.999 27.0292ZM34.4099 55.3481C34.135 55.3218 33.8908 55.5233 33.8645 55.7982C33.8382 56.0731 34.0397 56.3173 34.3146 56.3436L34.4099 55.3481ZM30.6882 55.0491C30.9132 55.2092 31.2254 55.1565 31.3855 54.9315C31.5455 54.7064 31.4929 54.3943 31.2678 54.2342L30.6882 55.0491ZM30.0599 53.0785C29.8916 52.8596 29.5777 52.8185 29.3587 52.9868C29.1398 53.1551 29.0988 53.4691 29.2671 53.688L30.0599 53.0785ZM27.9028 50.0367C27.9294 50.3116 28.1737 50.5128 28.4486 50.4863C28.7235 50.4597 28.9247 50.2153 28.8982 49.9405L27.9028 50.0367ZM28.8982 48.2035C28.9247 47.9287 28.7235 47.6843 28.4486 47.6577C28.1737 47.6312 27.9294 47.8324 27.9028 48.1073L28.8982 48.2035ZM29.2671 44.456C29.0988 44.6749 29.1398 44.9889 29.3587 45.1572C29.5777 45.3255 29.8916 45.2844 30.0599 45.0655L29.2671 44.456ZM31.2688 43.8789C31.4895 43.7129 31.5339 43.3995 31.368 43.1788C31.2021 42.958 30.8886 42.9136 30.6679 43.0795L31.2688 43.8789ZM34.3044 41.7077C34.0296 41.7356 33.8296 41.9809 33.8575 42.2557C33.8854 42.5304 34.1308 42.7305 34.4055 42.7025L34.3044 41.7077ZM36.1338 42.7025C36.4085 42.7305 36.6538 42.5304 36.6818 42.2557C36.7097 41.9809 36.5096 41.7356 36.2349 41.7077L36.1338 42.7025ZM39.8714 43.0795C39.6506 42.9136 39.3372 42.958 39.1712 43.1788C39.0053 43.3995 39.0497 43.7129 39.2705 43.8789L39.8714 43.0795ZM40.4794 45.0655C40.6477 45.2844 40.9616 45.3255 41.1805 45.1572C41.3994 44.9889 41.4405 44.6749 41.2722 44.456L40.4794 45.0655ZM42.6365 48.1073C42.6099 47.8324 42.3655 47.6312 42.0907 47.6577C41.8158 47.6843 41.6145 47.9287 41.6411 48.2035L42.6365 48.1073ZM41.6411 49.9405C41.6145 50.2153 41.8158 50.4597 42.0907 50.4863C42.3655 50.5128 42.6099 50.3116 42.6365 50.0367L41.6411 49.9405ZM41.2722 53.688C41.4405 53.4691 41.3994 53.1551 41.1805 52.9868C40.9616 52.8185 40.6477 52.8596 40.4794 53.0785L41.2722 53.688ZM39.2714 54.2342C39.0464 54.3943 38.9937 54.7064 39.1538 54.9315C39.3138 55.1565 39.626 55.2092 39.851 55.0491L39.2714 54.2342ZM36.2247 56.3436C36.4995 56.3173 36.701 56.0731 36.6747 55.7982C36.6484 55.5233 36.4043 55.3218 36.1294 55.3481L36.2247 56.3436ZM41.0296 26.012C40.6275 26.012 40.2302 26.0189 39.8379 26.0327L39.873 27.0321C40.2533 27.0187 40.6389 27.012 41.0296 27.012V26.012ZM35.0956 26.5848C34.2964 26.7508 33.5228 26.9531 32.7752 27.1918L33.0793 28.1444C33.7925 27.9167 34.5323 27.7232 35.299 27.5639L35.0956 26.5848ZM28.4025 29.1829C28.0594 29.3941 27.724 29.6158 27.3964 29.8481L27.9748 30.6639C28.2847 30.4442 28.6019 30.2344 28.9267 30.0345L28.4025 29.1829ZM28.1753 30.3573C28.2309 30.0885 28.2911 29.8248 28.3558 29.5662L27.3858 29.3233C27.3176 29.5956 27.2543 29.8728 27.196 30.1547L28.1753 30.3573ZM29.4327 26.5308C29.6686 26.0386 29.9278 25.5723 30.2103 25.1316L29.3684 24.592C29.0629 25.0685 28.7838 25.5708 28.5309 26.0987L29.4327 26.5308ZM32.2723 22.7118C32.4705 22.536 32.6752 22.3668 32.8865 22.2043L32.2768 21.4117C32.0471 21.5883 31.8245 21.7723 31.6087 21.9636L32.2723 22.7118ZM32.8879 22.2032C33.1065 22.0338 33.3301 21.872 33.5588 21.7176L32.9995 20.8887C32.7526 21.0553 32.5112 21.23 32.2753 21.4128L32.8879 22.2032ZM36.5174 20.2368C37.031 20.0558 37.564 19.9016 38.1166 19.7747L37.8927 18.8001C37.3047 18.9352 36.7353 19.0997 36.1849 19.2937L36.5174 20.2368ZM41.4356 19.3481C41.7124 19.3374 41.9931 19.332 42.2776 19.332V18.332C41.9804 18.332 41.6868 18.3376 41.3968 18.3489L41.4356 19.3481ZM42.2776 19.332C42.6343 19.332 42.9866 19.3386 43.3346 19.3519L43.3727 18.3527C43.0118 18.3389 42.6467 18.332 42.2776 18.332V19.332ZM47.5095 19.8736C48.2045 20.0276 48.8781 20.2142 49.5307 20.4335L49.8492 19.4856C49.1621 19.2547 48.4542 19.0587 47.7258 18.8973L47.5095 19.8736ZM53.31 22.211C53.6054 22.3956 53.8953 22.589 54.1797 22.7914L54.7595 21.9766C54.4588 21.7626 54.1522 21.5581 53.8398 21.3629L53.31 22.211ZM54.9141 22.613L55.3674 21.733L54.4785 21.275L54.0251 22.155L54.9141 22.613ZM57.1808 18.213L58.0874 16.453L57.1985 15.995L56.2918 17.755L57.1808 18.213ZM59.9008 12.933L60.8074 11.173L59.9185 10.715L59.0118 12.475L59.9008 12.933ZM62.6208 7.65298L63.0741 6.77298L62.1851 6.31502L61.7318 7.19502L62.6208 7.65298ZM62.9021 6.12478C62.663 5.96938 62.4195 5.81734 62.1713 5.66864L61.6573 6.52639C61.8951 6.66894 62.1284 6.81455 62.3571 6.96322L62.9021 6.12478ZM59.1134 4.10308C58.5983 3.87877 58.0683 3.66549 57.5234 3.46319L57.1753 4.40065C57.7036 4.59678 58.2165 4.80322 58.7141 5.01992L59.1134 4.10308ZM54.264 2.43055C53.9914 2.3576 53.7157 2.2869 53.4369 2.21843L53.1984 3.18956C53.4706 3.25643 53.7397 3.32543 54.0056 3.39657L54.264 2.43055ZM53.4449 2.22046C53.1289 2.1373 52.8115 2.05771 52.4927 1.98168L52.2607 2.9544C52.572 3.02864 52.8819 3.10635 53.1904 3.18753L53.4449 2.22046ZM48.6379 1.24582C47.9942 1.15252 47.3451 1.07279 46.6908 1.0066L46.5901 2.00152C47.2303 2.06628 47.8651 2.14427 48.4945 2.23548L48.6379 1.24582ZM42.7775 0.773427C42.4521 0.767141 42.1255 0.763998 41.7976 0.763998V1.764C42.1191 1.764 42.4393 1.76708 42.7582 1.77324L42.7775 0.773427ZM41.7976 0.763998C41.4163 0.763998 41.0373 0.767847 40.6606 0.775547L40.681 1.77534C41.0508 1.76778 41.4231 1.764 41.7976 1.764V0.763998ZM36.1215 1.06689C35.359 1.15097 34.6068 1.25259 33.865 1.37176L34.0237 2.3591C34.7488 2.2426 35.4846 2.14318 36.2311 2.06086L36.1215 1.06689ZM29.4105 2.33272C28.6714 2.53541 27.944 2.75777 27.2284 2.99984L27.5488 3.94711C28.2457 3.71139 28.9544 3.49472 29.6749 3.29712L29.4105 2.33272ZM23.0025 4.72398C22.6592 4.88974 22.319 5.06071 21.982 5.23689L22.4453 6.12311C22.7728 5.95187 23.1035 5.78567 23.4373 5.62451L23.0025 4.72398ZM21.9799 5.23798C21.6698 5.40195 21.3634 5.57005 21.0606 5.74229L21.555 6.61149C21.8488 6.44437 22.1462 6.28121 22.4473 6.12202L21.9799 5.23798ZM17.5555 8.04415C16.9956 8.46643 16.4514 8.90608 15.9228 9.36308L16.5768 10.1196C17.0885 9.67715 17.6155 9.25146 18.1577 8.84251L17.5555 8.04415ZM12.9394 12.3127C12.4777 12.8343 12.0315 13.3727 11.6008 13.9281L12.3909 14.541C12.8085 14.0026 13.241 13.4808 13.6882 12.9756L12.9394 12.3127ZM9.24356 17.3928C9.06571 17.6916 8.89145 17.9942 8.72078 18.3008L9.59447 18.7872C9.76051 18.4891 9.92997 18.1947 10.1029 17.9043L9.24356 17.3928ZM8.71868 18.3046C8.53262 18.6457 8.35213 18.9905 8.1772 19.3389L9.07091 19.7876C9.24075 19.4492 9.41598 19.1145 9.59657 18.7834L8.71868 18.3046ZM6.36573 23.637C6.11295 24.3652 5.88091 25.107 5.6696 25.8622L6.63261 26.1316C6.83852 25.3957 7.06447 24.6735 7.31043 23.9649L6.36573 23.637ZM4.67349 30.4099C4.55074 31.1664 4.44614 31.9347 4.35965 32.7147L5.35356 32.8249C5.43824 32.0612 5.54059 31.3096 5.66058 30.5701L4.67349 30.4099ZM4.06139 37.3506C4.05355 37.7352 4.04963 38.1223 4.04963 38.512H5.04963C5.04963 38.129 5.05348 37.7487 5.06118 37.371L4.06139 37.3506ZM4.04963 38.512C4.04963 38.8658 4.05287 39.2169 4.05937 39.5655L5.05919 39.5468C5.05281 39.2046 5.04963 38.8597 5.04963 38.512H4.04963ZM4.30861 43.7718C4.38155 44.4824 4.46993 45.1806 4.57377 45.8662L5.56249 45.7165C5.46112 45.0471 5.37474 44.3649 5.30338 43.6697L4.30861 43.7718ZM5.42884 50.0053C5.61293 50.6964 5.81552 51.3726 6.03665 52.0338L6.98502 51.7166C6.77066 51.0757 6.57403 50.4194 6.39515 49.7479L5.42884 50.0053ZM7.65172 55.9536C7.81012 56.2718 7.97378 56.5858 8.14268 56.8954L9.02057 56.4166C8.8577 56.118 8.69981 55.8151 8.54692 55.508L7.65172 55.9536ZM8.14268 56.8954C8.28816 57.1621 8.43672 57.4254 8.58836 57.6852L9.45203 57.1812C9.3053 56.9298 9.16148 56.6749 9.02057 56.4166L8.14268 56.8954ZM10.6048 60.7014C10.9747 61.1855 11.358 61.6544 11.7548 62.1081L12.5075 61.4498C12.1254 61.0129 11.7561 60.5611 11.3995 60.0943L10.6048 60.7014ZM14.3283 64.6741C14.7857 65.0713 15.2568 65.4526 15.7417 65.8182L16.3437 65.0197C15.8772 64.668 15.4239 64.3011 14.9839 63.919L14.3283 64.6741ZM18.7839 67.8037C19.047 67.9514 19.3134 68.0954 19.5829 68.2356L20.0443 67.3484C19.7842 67.2131 19.5272 67.0742 19.2735 66.9318L18.7839 67.8037ZM19.5853 68.2368C19.879 68.3875 20.1755 68.5337 20.4748 68.6755L20.9027 67.7716C20.613 67.6345 20.326 67.493 20.0419 67.3472L19.5853 68.2368ZM24.1547 70.1448C24.7768 70.3503 25.4095 70.539 26.0526 70.7109L26.3109 69.7449C25.6861 69.5778 25.0719 69.3946 24.4684 69.1952L24.1547 70.1448ZM29.9227 71.5238C30.5664 71.6244 31.2193 71.7101 31.8815 71.781L31.9879 70.7867C31.3414 70.7175 30.7045 70.6338 30.077 70.5358L29.9227 71.5238ZM35.8194 72.0263C36.1461 72.0328 36.4749 72.036 36.8056 72.036V71.036C36.4814 71.036 36.1592 71.0328 35.8392 71.0265L35.8194 72.0263ZM36.8056 72.036C37.2088 72.036 37.6093 72.03 38.007 72.0179L37.9767 71.0184C37.5892 71.0301 37.1988 71.036 36.8056 71.036V72.036ZM42.7924 71.5598C43.5916 71.4278 44.3784 71.2683 45.1527 71.0813L44.918 70.1093C44.1678 70.2904 43.405 70.4451 42.6294 70.5732L42.7924 71.5598ZM49.7344 69.5934C50.106 69.4395 50.4743 69.2784 50.8392 69.11L50.4201 68.202C50.0673 68.3649 49.7112 68.5207 49.3518 68.6695L49.7344 69.5934ZM50.8392 69.11C51.1751 68.9549 51.5054 68.7945 51.8301 68.6287L51.3753 67.7381C51.0626 67.8978 50.7442 68.0524 50.4201 68.202L50.8392 69.11ZM55.5693 66.294C56.1606 65.8461 56.7261 65.3739 57.2657 64.8773L56.5885 64.1415C56.0727 64.6162 55.5317 65.068 54.9656 65.4968L55.5693 66.294ZM60.2077 61.5831C60.4246 61.2866 60.635 60.9841 60.8388 60.6756L60.0045 60.1244C59.8093 60.4197 59.6081 60.7091 59.4006 60.9928L60.2077 61.5831ZM60.8354 60.6808C61.0455 60.3711 61.2468 60.0574 61.4393 59.7396L60.584 59.2215C60.4005 59.5244 60.2084 59.8237 60.0079 60.1192L60.8354 60.6808ZM63.3373 55.6954C63.5793 54.9948 63.7856 54.2786 63.9562 53.5469L62.9823 53.3198C62.8194 54.0184 62.6227 54.7014 62.3921 55.3689L63.3373 55.6954ZM64.5466 49.1294C64.562 48.7615 64.5696 48.3904 64.5696 48.016H63.5696C63.5696 48.3767 63.5622 48.734 63.5475 49.0877L64.5466 49.1294ZM64.5696 48.016C64.5696 47.6777 64.563 47.3422 64.5497 47.0095L63.5505 47.0495C63.5632 47.3686 63.5696 47.6908 63.5696 48.016H64.5696ZM64.0383 43.0124C63.8904 42.349 63.7115 41.6992 63.5017 41.0631L62.552 41.3764C62.7513 41.9806 62.9214 42.5984 63.0622 43.23L64.0383 43.0124ZM61.8495 37.3752C61.6812 37.084 61.5052 36.7964 61.3214 36.5124L60.4818 37.0556C60.6565 37.3256 60.8238 37.5989 60.9836 37.8755L61.8495 37.3752ZM61.3214 36.5124C61.1434 36.2373 60.9604 35.9672 60.7725 35.7022L59.9568 36.2805C60.1364 36.5339 60.3114 36.7923 60.4818 37.0556L61.3214 36.5124ZM58.2365 32.7219C57.7705 32.2647 57.284 31.829 56.7771 31.4147L56.1442 32.1889C56.6278 32.5842 57.0918 32.9998 57.5362 33.4358L58.2365 32.7219ZM53.5427 29.2155C53.2599 29.0568 52.9725 28.9031 52.6805 28.7544L52.2268 29.6456C52.5069 29.7882 52.7824 29.9355 53.0532 30.0875L53.5427 29.2155ZM52.6805 28.7544C52.3805 28.6017 52.0784 28.4553 51.7742 28.3153L51.3561 29.2237C51.6482 29.3582 51.9385 29.4988 52.2268 29.6456L52.6805 28.7544ZM47.9934 26.9327C47.3476 26.7545 46.6937 26.6021 46.0316 26.4756L45.844 27.4579C46.4799 27.5793 47.1076 27.7256 47.7273 27.8966L47.9934 26.9327ZM42.0348 26.0299C41.7015 26.018 41.3665 26.012 41.0296 26.012V27.012C41.3547 27.012 41.6778 27.0177 41.999 27.0292L42.0348 26.0299ZM35.2696 55.388C34.9733 55.388 34.6868 55.3746 34.4099 55.3481L34.3146 56.3436C34.6249 56.3733 34.9433 56.388 35.2696 56.388V55.388ZM31.2678 54.2342C31.0424 54.0739 30.8271 53.8964 30.622 53.7015L29.9333 54.4265C30.172 54.6533 30.4236 54.8609 30.6882 55.0491L31.2678 54.2342ZM30.622 53.7015C30.4161 53.5059 30.2288 53.2982 30.0599 53.0785L29.2671 53.688C29.4683 53.9496 29.6904 54.1958 29.9333 54.4265L30.622 53.7015ZM28.8982 49.9405C28.8712 49.6619 28.8576 49.3725 28.8576 49.072H27.8576C27.8576 49.4026 27.8726 49.7242 27.9028 50.0367L28.8982 49.9405ZM28.8576 49.072C28.8576 48.7715 28.8712 48.4821 28.8982 48.2035L27.9028 48.1073C27.8726 48.4198 27.8576 48.7414 27.8576 49.072H28.8576ZM30.0599 45.0655C30.2288 44.8458 30.4161 44.6381 30.622 44.4425L29.9333 43.7175C29.6904 43.9482 29.4683 44.1944 29.2671 44.456L30.0599 45.0655ZM30.6312 44.4336C30.834 44.2307 31.0465 44.0459 31.2688 43.8789L30.6679 43.0795C30.4072 43.2755 30.1593 43.4913 29.9241 43.7264L30.6312 44.4336ZM34.4055 42.7025C34.6837 42.6743 34.9717 42.66 35.2696 42.66V41.66C34.9397 41.66 34.6179 41.6758 34.3044 41.7077L34.4055 42.7025ZM35.2696 42.66C35.5676 42.66 35.8556 42.6743 36.1338 42.7025L36.2349 41.7077C35.9213 41.6758 35.5995 41.66 35.2696 41.66V42.66ZM39.2705 43.8789C39.4927 44.0459 39.7053 44.2307 39.9081 44.4336L40.6152 43.7264C40.38 43.4913 40.1321 43.2755 39.8714 43.0795L39.2705 43.8789ZM39.9173 44.4425C40.1232 44.6381 40.3104 44.8458 40.4794 45.0655L41.2722 44.456C41.071 44.1944 40.8488 43.9482 40.606 43.7175L39.9173 44.4425ZM41.6411 48.2035C41.668 48.4821 41.6816 48.7715 41.6816 49.072H42.6816C42.6816 48.7414 42.6667 48.4198 42.6365 48.1073L41.6411 48.2035ZM41.6816 49.072C41.6816 49.3725 41.668 49.6619 41.6411 49.9405L42.6365 50.0367C42.6667 49.7242 42.6816 49.4026 42.6816 49.072H41.6816ZM40.4794 53.0785C40.3104 53.2982 40.1232 53.5059 39.9173 53.7015L40.606 54.4265C40.8488 54.1958 41.071 53.9496 41.2722 53.688L40.4794 53.0785ZM39.9173 53.7015C39.7121 53.8964 39.4969 54.0739 39.2714 54.2342L39.851 55.0491C40.1156 54.8609 40.3673 54.6533 40.606 54.4265L39.9173 53.7015ZM36.1294 55.3481C35.8525 55.3746 35.5659 55.388 35.2696 55.388V56.388C35.596 56.388 35.9144 56.3733 36.2247 56.3436L36.1294 55.3481Z" fill="url(#paint0_linear)"/>
    </g>
    <defs>
        <filter id="filter0_d" x="0.0496216" y="0.763992" width="68.52" height="79.272" filterUnits="userSpaceOnUse" color-interpolation-filters="sRGB">
            <feFlood flood-opacity="0" result="BackgroundImageFix"/>
            <feColorMatrix in="SourceAlpha" type="matrix" values="0 0 0 0 0 0 0 0 0 0 0 0 0 0 0 0 0 0 127 0"/>
            <feOffset dy="4"/>
            <feGaussianBlur stdDeviation="2"/>
            <feColorMatrix type="matrix" values="0 0 0 0 0 0 0 0 0 0 0 0 0 0 0 0 0 0 0.25 0"/>
            <feBlend mode="normal" in2="BackgroundImageFix" result="effect1_dropShadow"/>
            <feBlend mode="normal" in="SourceGraphic" in2="effect1_dropShadow" result="shape"/>
        </filter>
        <linearGradient id="paint0_linear" x1="33.5" y1="-23" x2="33.5" y2="94" gradientUnits="userSpaceOnUse">
            <stop stop-color="#FFEE55"/>
            <stop offset="1" stop-color="white"/>
        </linearGradient>
    </defs>
</svg>
