<svg width="67" height="77" viewBox="0 0 67 77" fill="none" xmlns="http://www.w3.org/2000/svg">
    <g opacity="0.5" filter="url(#filter0_d)">
        <path d="M62.0825 0.799995H62.5825V0.299995H62.0825V0.799995ZM62.0825 14.72L62.5435 14.9135L62.5825 14.8207V14.72H62.0825ZM39.7145 68V68.5H40.0469L40.1755 68.1935L39.7145 68ZM14.9465 68L14.4871 67.8027L14.1877 68.5H14.9465V68ZM36.2585 18.368L36.7179 18.5653L37.0173 17.868H36.2585V18.368ZM23.2985 18.368V17.868H22.7985V18.368H23.2985ZM23.2985 28.16V28.66H23.7985V28.16H23.2985ZM4.5785 28.16H4.0785V28.66H4.5785V28.16ZM4.5785 0.799995V0.299995H4.0785V0.799995H4.5785ZM61.1241 0.299995C60.848 0.299995 60.6241 0.523853 60.6241 0.799995C60.6241 1.07614 60.848 1.3 61.1241 1.3V0.299995ZM57.2905 1.3C57.5666 1.3 57.7905 1.07614 57.7905 0.799995C57.7905 0.523853 57.5666 0.299995 57.2905 0.299995V1.3ZM55.3737 0.299995C55.0976 0.299995 54.8737 0.523853 54.8737 0.799995C54.8737 1.07614 55.0976 1.3 55.3737 1.3V0.299995ZM51.5401 1.3C51.8162 1.3 52.0401 1.07614 52.0401 0.799995C52.0401 0.523853 51.8162 0.299995 51.5401 0.299995V1.3ZM49.6233 0.299995C49.3472 0.299995 49.1233 0.523853 49.1233 0.799995C49.1233 1.07614 49.3472 1.3 49.6233 1.3V0.299995ZM45.7897 1.3C46.0658 1.3 46.2897 1.07614 46.2897 0.799995C46.2897 0.523853 46.0658 0.299995 45.7897 0.299995V1.3ZM43.8729 0.299995C43.5968 0.299995 43.3729 0.523853 43.3729 0.799995C43.3729 1.07614 43.5968 1.3 43.8729 1.3V0.299995ZM40.0393 1.3C40.3154 1.3 40.5393 1.07614 40.5393 0.799995C40.5393 0.523853 40.3154 0.299995 40.0393 0.299995V1.3ZM38.1225 0.299995C37.8464 0.299995 37.6225 0.523853 37.6225 0.799995C37.6225 1.07614 37.8464 1.3 38.1225 1.3V0.299995ZM34.2889 1.3C34.565 1.3 34.7889 1.07614 34.7889 0.799995C34.7889 0.523853 34.565 0.299995 34.2889 0.299995V1.3ZM32.3721 0.299995C32.096 0.299995 31.8721 0.523853 31.8721 0.799995C31.8721 1.07614 32.096 1.3 32.3721 1.3V0.299995ZM28.5385 1.3C28.8146 1.3 29.0385 1.07614 29.0385 0.799995C29.0385 0.523853 28.8146 0.299995 28.5385 0.299995V1.3ZM26.6217 0.299995C26.3456 0.299995 26.1217 0.523853 26.1217 0.799995C26.1217 1.07614 26.3456 1.3 26.6217 1.3V0.299995ZM22.7881 1.3C23.0642 1.3 23.2881 1.07614 23.2881 0.799995C23.2881 0.523853 23.0642 0.299995 22.7881 0.299995V1.3ZM20.8713 0.299995C20.5952 0.299995 20.3713 0.523853 20.3713 0.799995C20.3713 1.07614 20.5952 1.3 20.8713 1.3V0.299995ZM17.0377 1.3C17.3138 1.3 17.5377 1.07614 17.5377 0.799995C17.5377 0.523853 17.3138 0.299995 17.0377 0.299995V1.3ZM15.1209 0.299995C14.8448 0.299995 14.6209 0.523853 14.6209 0.799995C14.6209 1.07614 14.8448 1.3 15.1209 1.3V0.299995ZM11.2873 1.3C11.5634 1.3 11.7873 1.07614 11.7873 0.799995C11.7873 0.523853 11.5634 0.299995 11.2873 0.299995V1.3ZM9.3705 0.299995C9.09435 0.299995 8.8705 0.523853 8.8705 0.799995C8.8705 1.07614 9.09435 1.3 9.3705 1.3V0.299995ZM5.5369 1.3C5.81304 1.3 6.0369 1.07614 6.0369 0.799995C6.0369 0.523853 5.81304 0.299995 5.5369 0.299995V1.3ZM4.0785 1.712C4.0785 1.98814 4.30236 2.212 4.5785 2.212C4.85464 2.212 5.0785 1.98814 5.0785 1.712H4.0785ZM5.0785 5.36C5.0785 5.08385 4.85464 4.86 4.5785 4.86C4.30236 4.86 4.0785 5.08385 4.0785 5.36H5.0785ZM4.0785 7.184C4.0785 7.46014 4.30236 7.684 4.5785 7.684C4.85464 7.684 5.0785 7.46014 5.0785 7.184H4.0785ZM5.0785 10.832C5.0785 10.5559 4.85464 10.332 4.5785 10.332C4.30236 10.332 4.0785 10.5559 4.0785 10.832H5.0785ZM4.0785 12.656C4.0785 12.9321 4.30236 13.156 4.5785 13.156C4.85464 13.156 5.0785 12.9321 5.0785 12.656H4.0785ZM5.0785 16.304C5.0785 16.0279 4.85464 15.804 4.5785 15.804C4.30236 15.804 4.0785 16.0279 4.0785 16.304H5.0785ZM4.0785 18.128C4.0785 18.4041 4.30236 18.628 4.5785 18.628C4.85464 18.628 5.0785 18.4041 5.0785 18.128H4.0785ZM5.0785 21.776C5.0785 21.4999 4.85464 21.276 4.5785 21.276C4.30236 21.276 4.0785 21.4999 4.0785 21.776H5.0785ZM4.0785 23.6C4.0785 23.8761 4.30236 24.1 4.5785 24.1C4.85464 24.1 5.0785 23.8761 5.0785 23.6H4.0785ZM5.0785 27.248C5.0785 26.9719 4.85464 26.748 4.5785 26.748C4.30236 26.748 4.0785 26.9719 4.0785 27.248H5.0785ZM5.6185 28.66C5.89464 28.66 6.1185 28.4361 6.1185 28.16C6.1185 27.8839 5.89464 27.66 5.6185 27.66V28.66ZM9.7785 27.66C9.50236 27.66 9.2785 27.8839 9.2785 28.16C9.2785 28.4361 9.50236 28.66 9.7785 28.66V27.66ZM11.8585 28.66C12.1346 28.66 12.3585 28.4361 12.3585 28.16C12.3585 27.8839 12.1346 27.66 11.8585 27.66V28.66ZM16.0185 27.66C15.7424 27.66 15.5185 27.8839 15.5185 28.16C15.5185 28.4361 15.7424 28.66 16.0185 28.66V27.66ZM18.0985 28.66C18.3746 28.66 18.5985 28.4361 18.5985 28.16C18.5985 27.8839 18.3746 27.66 18.0985 27.66V28.66ZM22.2585 27.66C21.9824 27.66 21.7585 27.8839 21.7585 28.16C21.7585 28.4361 21.9824 28.66 22.2585 28.66V27.66ZM23.7985 27.344C23.7985 27.0679 23.5746 26.844 23.2985 26.844C23.0224 26.844 22.7985 27.0679 22.7985 27.344H23.7985ZM22.7985 24.08C22.7985 24.3561 23.0224 24.58 23.2985 24.58C23.5746 24.58 23.7985 24.3561 23.7985 24.08H22.7985ZM23.7985 22.448C23.7985 22.1719 23.5746 21.948 23.2985 21.948C23.0224 21.948 22.7985 22.1719 22.7985 22.448H23.7985ZM22.7985 19.184C22.7985 19.4601 23.0224 19.684 23.2985 19.684C23.5746 19.684 23.7985 19.4601 23.7985 19.184H22.7985ZM24.3785 18.868C24.6546 18.868 24.8785 18.6441 24.8785 18.368C24.8785 18.0919 24.6546 17.868 24.3785 17.868V18.868ZM28.6985 17.868C28.4224 17.868 28.1985 18.0919 28.1985 18.368C28.1985 18.6441 28.4224 18.868 28.6985 18.868V17.868ZM30.8585 18.868C31.1346 18.868 31.3585 18.6441 31.3585 18.368C31.3585 18.0919 31.1346 17.868 30.8585 17.868V18.868ZM35.1785 17.868C34.9024 17.868 34.6785 18.0919 34.6785 18.368C34.6785 18.6441 34.9024 18.868 35.1785 18.868V17.868ZM35.4044 19.0898C35.2954 19.3436 35.4128 19.6376 35.6666 19.7465C35.9203 19.8555 36.2143 19.7381 36.3233 19.4844L35.4044 19.0898ZM34.7446 23.1608C34.8536 22.9071 34.7362 22.6131 34.4824 22.5041C34.2287 22.3952 33.9347 22.5125 33.8257 22.7663L34.7446 23.1608ZM33.0364 24.6045C32.9274 24.8582 33.0448 25.1523 33.2986 25.2612C33.5523 25.3702 33.8463 25.2528 33.9553 24.9991L33.0364 24.6045ZM32.3766 28.6755C32.4856 28.4218 32.3682 28.1277 32.1144 28.0188C31.8607 27.9098 31.5667 28.0272 31.4577 28.2809L32.3766 28.6755ZM30.6684 30.1192C30.5594 30.3729 30.6768 30.6669 30.9306 30.7759C31.1843 30.8848 31.4783 30.7675 31.5873 30.5137L30.6684 30.1192ZM30.0086 34.1902C30.1176 33.9364 30.0002 33.6424 29.7464 33.5335C29.4927 33.4245 29.1987 33.5419 29.0897 33.7956L30.0086 34.1902ZM28.3004 35.6338C28.1914 35.8876 28.3088 36.1816 28.5626 36.2905C28.8163 36.3995 29.1103 36.2821 29.2193 36.0284L28.3004 35.6338ZM27.6406 39.7048C27.7496 39.4511 27.6322 39.1571 27.3784 39.0481C27.1247 38.9392 26.8307 39.0565 26.7217 39.3103L27.6406 39.7048ZM25.9324 41.1485C25.8234 41.4022 25.9408 41.6963 26.1946 41.8052C26.4483 41.9142 26.7423 41.7968 26.8513 41.5431L25.9324 41.1485ZM25.2726 45.2195C25.3816 44.9658 25.2642 44.6717 25.0105 44.5628C24.7567 44.4538 24.4627 44.5712 24.3537 44.8249L25.2726 45.2195ZM23.5644 46.6632C23.4554 46.9169 23.5728 47.2109 23.8266 47.3199C24.0803 47.4288 24.3743 47.3115 24.4833 47.0577L23.5644 46.6632ZM22.9046 50.7342C23.0136 50.4804 22.8962 50.1864 22.6425 50.0774C22.3887 49.9685 22.0947 50.0859 21.9857 50.3396L22.9046 50.7342ZM21.1964 52.1778C21.0874 52.4316 21.2048 52.7256 21.4586 52.8345C21.7123 52.9435 22.0063 52.8261 22.1153 52.5724L21.1964 52.1778ZM20.5366 56.2488C20.6456 55.9951 20.5282 55.7011 20.2745 55.5921C20.0207 55.4832 19.7267 55.6005 19.6177 55.8543L20.5366 56.2488ZM18.8284 57.6925C18.7194 57.9462 18.8368 58.2402 19.0906 58.3492C19.3443 58.4582 19.6383 58.3408 19.7473 58.087L18.8284 57.6925ZM18.1686 61.7635C18.2776 61.5098 18.1602 61.2157 17.9065 61.1068C17.6527 60.9978 17.3587 61.1152 17.2497 61.3689L18.1686 61.7635ZM16.4604 63.2072C16.3514 63.4609 16.4688 63.7549 16.7226 63.8639C16.9763 63.9728 17.2703 63.8555 17.3793 63.6017L16.4604 63.2072ZM15.8006 67.2782C15.9096 67.0244 15.7922 66.7304 15.5385 66.6214C15.2847 66.5125 14.9907 66.6299 14.8817 66.8836L15.8006 67.2782ZM15.9785 68.5C16.2546 68.5 16.4785 68.2761 16.4785 68C16.4785 67.7239 16.2546 67.5 15.9785 67.5V68.5ZM20.1065 67.5C19.8304 67.5 19.6065 67.7239 19.6065 68C19.6065 68.2761 19.8304 68.5 20.1065 68.5V67.5ZM22.1705 68.5C22.4466 68.5 22.6705 68.2761 22.6705 68C22.6705 67.7239 22.4466 67.5 22.1705 67.5V68.5ZM26.2985 67.5C26.0224 67.5 25.7985 67.7239 25.7985 68C25.7985 68.2761 26.0224 68.5 26.2985 68.5V67.5ZM28.3625 68.5C28.6386 68.5 28.8625 68.2761 28.8625 68C28.8625 67.7239 28.6386 67.5 28.3625 67.5V68.5ZM32.4905 67.5C32.2144 67.5 31.9905 67.7239 31.9905 68C31.9905 68.2761 32.2144 68.5 32.4905 68.5V67.5ZM34.5545 68.5C34.8306 68.5 35.0545 68.2761 35.0545 68C35.0545 67.7239 34.8306 67.5 34.5545 67.5V68.5ZM38.6825 67.5C38.4064 67.5 38.1825 67.7239 38.1825 68C38.1825 68.2761 38.4064 68.5 38.6825 68.5V67.5ZM40.5483 67.3055C40.6552 67.0509 40.5355 66.7579 40.2808 66.651C40.0262 66.5441 39.7332 66.6638 39.6263 66.9185L40.5483 67.3055ZM41.1175 63.3665C41.0106 63.6211 41.1303 63.9141 41.385 64.021C41.6396 64.1279 41.9326 64.0082 42.0395 63.7535L41.1175 63.3665ZM42.7851 61.9775C42.892 61.7229 42.7723 61.4299 42.5176 61.323C42.263 61.2161 41.97 61.3358 41.8631 61.5905L42.7851 61.9775ZM43.3543 58.0385C43.2474 58.2931 43.3671 58.5861 43.6218 58.693C43.8764 58.7999 44.1694 58.6802 44.2763 58.4255L43.3543 58.0385ZM45.0219 56.6495C45.1288 56.3949 45.0091 56.1019 44.7544 55.995C44.4998 55.8881 44.2068 56.0078 44.0999 56.2625L45.0219 56.6495ZM45.5911 52.7105C45.4842 52.9651 45.6039 53.2581 45.8586 53.365C46.1132 53.4719 46.4062 53.3522 46.5131 53.0975L45.5911 52.7105ZM47.2587 51.3215C47.3656 51.0669 47.2459 50.7739 46.9912 50.667C46.7366 50.5601 46.4436 50.6798 46.3367 50.9345L47.2587 51.3215ZM47.8279 47.3825C47.721 47.6371 47.8407 47.9301 48.0954 48.037C48.35 48.1439 48.643 48.0242 48.7499 47.7695L47.8279 47.3825ZM49.4955 45.9935C49.6024 45.7389 49.4827 45.4459 49.228 45.339C48.9734 45.2321 48.6804 45.3518 48.5735 45.6065L49.4955 45.9935ZM50.0647 42.0545C49.9578 42.3091 50.0775 42.6021 50.3322 42.709C50.5868 42.8159 50.8798 42.6962 50.9867 42.4415L50.0647 42.0545ZM51.7323 40.6655C51.8392 40.4109 51.7195 40.1179 51.4648 40.011C51.2102 39.9041 50.9172 40.0238 50.8103 40.2785L51.7323 40.6655ZM52.3015 36.7265C52.1946 36.9811 52.3143 37.2741 52.569 37.381C52.8236 37.4879 53.1166 37.3682 53.2235 37.1135L52.3015 36.7265ZM53.9691 35.3375C54.076 35.0829 53.9563 34.7899 53.7016 34.683C53.447 34.5761 53.154 34.6958 53.0471 34.9505L53.9691 35.3375ZM54.5383 31.3985C54.4314 31.6531 54.5511 31.9461 54.8058 32.053C55.0604 32.1599 55.3534 32.0402 55.4603 31.7855L54.5383 31.3985ZM56.2059 30.0095C56.3128 29.7549 56.1931 29.4619 55.9384 29.355C55.6838 29.2481 55.3908 29.3678 55.2839 29.6225L56.2059 30.0095ZM56.7751 26.0705C56.6682 26.3251 56.7879 26.6181 57.0426 26.725C57.2972 26.8319 57.5902 26.7122 57.6971 26.4575L56.7751 26.0705ZM58.4427 24.6815C58.5496 24.4269 58.4299 24.1339 58.1752 24.027C57.9206 23.9201 57.6276 24.0398 57.5207 24.2945L58.4427 24.6815ZM59.0119 20.7425C58.905 20.9971 59.0247 21.2901 59.2794 21.397C59.534 21.5039 59.827 21.3842 59.9339 21.1295L59.0119 20.7425ZM60.6795 19.3535C60.7864 19.0989 60.6667 18.8059 60.412 18.699C60.1574 18.5921 59.8644 18.7118 59.7575 18.9665L60.6795 19.3535ZM61.2487 15.4145C61.1418 15.6691 61.2615 15.9621 61.5162 16.069C61.7708 16.1759 62.0638 16.0562 62.1707 15.8015L61.2487 15.4145ZM62.5825 13.56C62.5825 13.2839 62.3586 13.06 62.0825 13.06C61.8064 13.06 61.5825 13.2839 61.5825 13.56H62.5825ZM61.5825 8.92C61.5825 9.19614 61.8064 9.42 62.0825 9.42C62.3586 9.42 62.5825 9.19614 62.5825 8.92H61.5825ZM62.5825 6.6C62.5825 6.32385 62.3586 6.1 62.0825 6.1C61.8064 6.1 61.5825 6.32385 61.5825 6.6H62.5825ZM61.5825 1.96C61.5825 2.23614 61.8064 2.46 62.0825 2.46C62.3586 2.46 62.5825 2.23614 62.5825 1.96H61.5825ZM62.0825 0.299995H61.1241V1.3H62.0825V0.299995ZM57.2905 0.299995H55.3737V1.3H57.2905V0.299995ZM51.5401 0.299995H49.6233V1.3H51.5401V0.299995ZM45.7897 0.299995H43.8729V1.3H45.7897V0.299995ZM40.0393 0.299995H38.1225V1.3H40.0393V0.299995ZM34.2889 0.299995H32.3721V1.3H34.2889V0.299995ZM28.5385 0.299995H26.6217V1.3H28.5385V0.299995ZM22.7881 0.299995H20.8713V1.3H22.7881V0.299995ZM17.0377 0.299995H15.1209V1.3H17.0377V0.299995ZM11.2873 0.299995H9.3705V1.3H11.2873V0.299995ZM5.5369 0.299995H4.5785V1.3H5.5369V0.299995ZM4.0785 0.799995V1.712H5.0785V0.799995H4.0785ZM4.0785 5.36V7.184H5.0785V5.36H4.0785ZM4.0785 10.832V12.656H5.0785V10.832H4.0785ZM4.0785 16.304V18.128H5.0785V16.304H4.0785ZM4.0785 21.776V23.6H5.0785V21.776H4.0785ZM4.0785 27.248V28.16H5.0785V27.248H4.0785ZM4.5785 28.66H5.6185V27.66H4.5785V28.66ZM9.7785 28.66H11.8585V27.66H9.7785V28.66ZM16.0185 28.66H18.0985V27.66H16.0185V28.66ZM22.2585 28.66H23.2985V27.66H22.2585V28.66ZM23.7985 28.16V27.344H22.7985V28.16H23.7985ZM23.7985 24.08V22.448H22.7985V24.08H23.7985ZM23.7985 19.184V18.368H22.7985V19.184H23.7985ZM23.2985 18.868H24.3785V17.868H23.2985V18.868ZM28.6985 18.868H30.8585V17.868H28.6985V18.868ZM35.1785 18.868H36.2585V17.868H35.1785V18.868ZM35.7991 18.1707L35.4044 19.0898L36.3233 19.4844L36.7179 18.5653L35.7991 18.1707ZM33.8257 22.7663L33.0364 24.6045L33.9553 24.9991L34.7446 23.1608L33.8257 22.7663ZM31.4577 28.2809L30.6684 30.1192L31.5873 30.5137L32.3766 28.6755L31.4577 28.2809ZM29.0897 33.7956L28.3004 35.6338L29.2193 36.0284L30.0086 34.1902L29.0897 33.7956ZM26.7217 39.3103L25.9324 41.1485L26.8513 41.5431L27.6406 39.7048L26.7217 39.3103ZM24.3537 44.8249L23.5644 46.6632L24.4833 47.0577L25.2726 45.2195L24.3537 44.8249ZM21.9857 50.3396L21.1964 52.1778L22.1153 52.5724L22.9046 50.7342L21.9857 50.3396ZM19.6177 55.8543L18.8284 57.6925L19.7473 58.087L20.5366 56.2488L19.6177 55.8543ZM17.2497 61.3689L16.4604 63.2072L17.3793 63.6017L18.1686 61.7635L17.2497 61.3689ZM14.8817 66.8836L14.4871 67.8027L15.4059 68.1973L15.8006 67.2782L14.8817 66.8836ZM14.9465 68.5H15.9785V67.5H14.9465V68.5ZM20.1065 68.5H22.1705V67.5H20.1065V68.5ZM26.2985 68.5H28.3625V67.5H26.2985V68.5ZM32.4905 68.5H34.5545V67.5H32.4905V68.5ZM38.6825 68.5H39.7145V67.5H38.6825V68.5ZM40.1755 68.1935L40.5483 67.3055L39.6263 66.9185L39.2535 67.8065L40.1755 68.1935ZM42.0395 63.7535L42.7851 61.9775L41.8631 61.5905L41.1175 63.3665L42.0395 63.7535ZM44.2763 58.4255L45.0219 56.6495L44.0999 56.2625L43.3543 58.0385L44.2763 58.4255ZM46.5131 53.0975L47.2587 51.3215L46.3367 50.9345L45.5911 52.7105L46.5131 53.0975ZM48.7499 47.7695L49.4955 45.9935L48.5735 45.6065L47.8279 47.3825L48.7499 47.7695ZM50.9867 42.4415L51.7323 40.6655L50.8103 40.2785L50.0647 42.0545L50.9867 42.4415ZM53.2235 37.1135L53.9691 35.3375L53.0471 34.9505L52.3015 36.7265L53.2235 37.1135ZM55.4603 31.7855L56.2059 30.0095L55.2839 29.6225L54.5383 31.3985L55.4603 31.7855ZM57.6971 26.4575L58.4427 24.6815L57.5207 24.2945L56.7751 26.0705L57.6971 26.4575ZM59.9339 21.1295L60.6795 19.3535L59.7575 18.9665L59.0119 20.7425L59.9339 21.1295ZM62.1707 15.8015L62.5435 14.9135L61.6215 14.5265L61.2487 15.4145L62.1707 15.8015ZM62.5825 14.72V13.56H61.5825V14.72H62.5825ZM62.5825 8.92V6.6H61.5825V8.92H62.5825ZM62.5825 1.96V0.799995H61.5825V1.96H62.5825Z" fill="url(#paint0_linear)"/>
    </g>
    <defs>
        <filter id="filter0_d" x="0.0784912" y="0.299988" width="66.504" height="76.2" filterUnits="userSpaceOnUse" color-interpolation-filters="sRGB">
            <feFlood flood-opacity="0" result="BackgroundImageFix"/>
            <feColorMatrix in="SourceAlpha" type="matrix" values="0 0 0 0 0 0 0 0 0 0 0 0 0 0 0 0 0 0 127 0"/>
            <feOffset dy="4"/>
            <feGaussianBlur stdDeviation="2"/>
            <feColorMatrix type="matrix" values="0 0 0 0 0 0 0 0 0 0 0 0 0 0 0 0 0 0 0.25 0"/>
            <feBlend mode="normal" in2="BackgroundImageFix" result="effect1_dropShadow"/>
            <feBlend mode="normal" in="SourceGraphic" in2="effect1_dropShadow" result="shape"/>
        </filter>
        <linearGradient id="paint0_linear" x1="33.5" y1="-25" x2="33.5" y2="92" gradientUnits="userSpaceOnUse">
            <stop stop-color="#FFEE55"/>
            <stop offset="1" stop-color="white"/>
        </linearGradient>
    </defs>
</svg>
