<svg width="71" height="81" viewBox="0 0 71 81" fill="none" xmlns="http://www.w3.org/2000/svg">
    <g opacity="0.5" filter="url(#filter0_d)">
        <path d="M56.6328 34.576L56.3211 34.185L55.7673 34.6264L56.3686 35.0005L56.6328 34.576ZM63.2568 41.2L62.8252 41.4526L62.8289 41.4588L62.8328 41.465L63.2568 41.2ZM61.8168 61.36L61.4233 61.0514L61.4196 61.0563L61.8168 61.36ZM51.1608 68.944L51.3385 69.4114L51.342 69.41L51.1608 68.944ZM19.7688 68.944L19.5853 69.4092L19.5932 69.4122L19.7688 68.944ZM9.11275 61.36L8.71554 61.6637L8.71932 61.6686L9.11275 61.36ZM7.67275 41.2L7.24584 40.9397L7.244 40.9428L7.67275 41.2ZM14.3928 34.576L14.6569 35.0005L15.2582 34.6264L14.7044 34.185L14.3928 34.576ZM11.2248 10.768L10.8318 10.4587L10.8278 10.464L11.2248 10.768ZM21.0168 3.75999L20.8335 3.29478L20.8311 3.29576L21.0168 3.75999ZM49.9128 3.75999L49.7271 4.22424L49.7295 4.2252L49.9128 3.75999ZM59.7048 10.768L59.3078 11.0721L59.3119 11.0773L59.7048 10.768ZM31.5768 18.064L31.2232 17.7104L31.2175 17.7161L31.212 17.722L31.5768 18.064ZM31.5768 26.512L31.212 26.854L31.2175 26.8599L31.2232 26.8656L31.5768 26.512ZM39.3528 26.512L38.9992 26.1584L38.9935 26.1641L38.988 26.17L39.3528 26.512ZM39.3528 18.064L38.988 18.406L38.9935 18.4119L38.9992 18.4176L39.3528 18.064ZM40.7928 54.352L40.4563 53.9819L40.4479 53.9899L40.7928 54.352ZM40.7928 44.176L40.4478 44.5382L40.4564 44.546L40.7928 44.176ZM30.1368 44.176L29.8003 43.8059L29.7919 43.8139L30.1368 44.176ZM30.1368 54.352L29.7918 54.7142L29.8004 54.722L30.1368 54.352ZM57.617 34.4097C57.8262 34.2295 57.8496 33.9137 57.6694 33.7046C57.4891 33.4954 57.1734 33.4719 56.9642 33.6522L57.617 34.4097ZM59.2868 31.2778C59.1126 31.4921 59.1451 31.807 59.3593 31.9812C59.5736 32.1554 59.8885 32.1229 60.0627 31.9086L59.2868 31.2778ZM61.1011 30.4913C61.2526 30.2604 61.1882 29.9505 60.9574 29.799C60.7265 29.6475 60.4165 29.7118 60.265 29.9427L61.1011 30.4913ZM61.7636 27.0052C61.6662 27.2636 61.7966 27.552 62.055 27.6495C62.3134 27.7469 62.6018 27.6164 62.6993 27.3581L61.7636 27.0052ZM63.2284 25.6777C63.2967 25.4102 63.1351 25.1379 62.8676 25.0696C62.6 25.0013 62.3277 25.1628 62.2594 25.4304L63.2284 25.6777ZM62.7379 22.1589C62.7253 22.4348 62.9387 22.6686 63.2145 22.6813C63.4904 22.6939 63.7242 22.4805 63.7369 22.2047L62.7379 22.1589ZM63.734 20.3577C63.7209 20.0818 63.4867 19.8688 63.2109 19.8819C62.9351 19.895 62.722 20.1292 62.7351 20.405L63.734 20.3577ZM62.1816 16.7746C62.253 17.0414 62.5271 17.1998 62.7939 17.1284C63.0606 17.0571 63.219 16.783 63.1477 16.5162L62.1816 16.7746ZM62.5344 14.6642C62.4323 14.4076 62.1416 14.2824 61.885 14.3845C61.6284 14.4866 61.5032 14.7773 61.6053 15.0339L62.5344 14.6642ZM59.8607 11.8148C60.0193 12.0408 60.3312 12.0954 60.5572 11.9368C60.7832 11.7781 60.8378 11.4663 60.6791 11.2402L59.8607 11.8148ZM59.4447 9.65343C59.265 9.44376 58.9493 9.41947 58.7397 9.59917C58.53 9.77888 58.5057 10.0945 58.6854 10.3042L59.4447 9.65343ZM55.8099 7.59085C56.0289 7.75909 56.3428 7.71796 56.511 7.49898C56.6793 7.28 56.6381 6.96611 56.4192 6.79787L55.8099 7.59085ZM54.7151 5.61053C54.4817 5.46302 54.1728 5.53269 54.0253 5.76614C53.8778 5.99958 53.9475 6.3084 54.1809 6.45591L54.7151 5.61053ZM50.6536 4.60688C50.9071 4.71656 51.2014 4.60003 51.3111 4.3466C51.4208 4.09317 51.3042 3.79882 51.0508 3.68914L50.6536 4.60688ZM48.9331 2.85684C48.6727 2.76471 48.387 2.90106 48.2949 3.16138C48.2028 3.4217 48.3391 3.70742 48.5994 3.79955L48.9331 2.85684ZM43.944 2.5355C44.2149 2.58888 44.4778 2.41252 44.5312 2.14158C44.5846 1.87065 44.4082 1.60774 44.1373 1.55436L43.944 2.5355ZM41.6886 1.1529C41.4148 1.11669 41.1636 1.30925 41.1273 1.58301C41.0911 1.85677 41.2837 2.10805 41.5574 2.14426L41.6886 1.1529ZM36.7266 1.77819C37.0026 1.7847 37.2317 1.56619 37.2382 1.29013C37.2447 1.01406 37.0262 0.784983 36.7502 0.778468L36.7266 1.77819ZM34.2676 0.778639C33.9915 0.785187 33.773 1.01429 33.7796 1.29035C33.7861 1.56642 34.0152 1.78491 34.2913 1.77836L34.2676 0.778639ZM29.4295 2.1474C29.7033 2.11121 29.8959 1.85994 29.8597 1.58618C29.8235 1.31242 29.5722 1.11983 29.2984 1.15602L29.4295 2.1474ZM26.8347 1.55896C26.5637 1.61213 26.3871 1.8749 26.4403 2.14588C26.4935 2.41685 26.7562 2.59342 27.0272 2.54025L26.8347 1.55896ZM22.3374 3.80279C22.5981 3.7117 22.7356 3.42653 22.6445 3.16584C22.5534 2.90516 22.2682 2.76767 22.0075 2.85876L22.3374 3.80279ZM19.8791 3.69482C19.6263 3.80583 19.5113 4.1008 19.6223 4.35365C19.7334 4.60649 20.0283 4.72146 20.2812 4.61044L19.8791 3.69482ZM16.7646 6.47483C16.9975 6.32655 17.0662 6.0175 16.9179 5.78455C16.7696 5.5516 16.4606 5.48295 16.2276 5.63124L16.7646 6.47483ZM14.5284 6.82029C14.3095 6.98863 14.2685 7.30255 14.4369 7.52145C14.6052 7.74035 14.9191 7.78133 15.138 7.61299L14.5284 6.82029ZM12.2494 10.316C12.4312 10.1081 12.41 9.79223 12.2021 9.61047C11.9942 9.42871 11.6784 9.44988 11.4966 9.65777L12.2494 10.316ZM10.2587 11.2503C10.103 11.4784 10.1617 11.7895 10.3898 11.9452C10.6179 12.1009 10.929 12.0422 11.0846 11.8141L10.2587 11.2503ZM9.3844 15.0437C9.48385 14.7861 9.35564 14.4966 9.09802 14.3972C8.84041 14.2977 8.55096 14.4259 8.4515 14.6835L9.3844 15.0437ZM7.85735 16.5334C7.78802 16.8007 7.94849 17.0736 8.21579 17.1429C8.48308 17.2123 8.75598 17.0518 8.82532 16.7845L7.85735 16.5334ZM8.28967 20.4076C8.30234 20.1317 8.08899 19.8978 7.81314 19.8852C7.53729 19.8725 7.30339 20.0859 7.29072 20.3617L8.28967 20.4076ZM7.28864 22.2047C7.30127 22.4805 7.53513 22.6939 7.81098 22.6813C8.08684 22.6686 8.30022 22.4348 8.28759 22.1589L7.28864 22.2047ZM8.76606 25.4304C8.69776 25.1628 8.42548 25.0013 8.15792 25.0696C7.89036 25.1379 7.72883 25.4102 7.79713 25.6777L8.76606 25.4304ZM8.32622 27.3581C8.42366 27.6164 8.71211 27.7469 8.97049 27.6495C9.22887 27.552 9.35934 27.2636 9.2619 27.0052L8.32622 27.3581ZM10.7605 29.9427C10.609 29.7118 10.299 29.6475 10.0681 29.799C9.83726 29.9505 9.77291 30.2604 9.92441 30.4913L10.7605 29.9427ZM10.9628 31.9086C11.137 32.1229 11.4519 32.1554 11.6662 31.9812C11.8804 31.807 11.9129 31.4921 11.7387 31.2778L10.9628 31.9086ZM14.0613 33.6522C13.8521 33.4719 13.5364 33.4954 13.3561 33.7046C13.1759 33.9137 13.1993 34.2295 13.4085 34.4097L14.0613 33.6522ZM13.4478 34.5905C13.2182 34.7439 13.1565 35.0544 13.3099 35.284C13.4633 35.5136 13.7738 35.5753 14.0034 35.4219L13.4478 34.5905ZM11.5531 37.3205C11.7583 37.1357 11.7749 36.8196 11.5902 36.6143C11.4054 36.4091 11.0893 36.3925 10.884 36.5773L11.5531 37.3205ZM9.71893 37.7123C9.529 37.9128 9.53753 38.2292 9.73799 38.4192C9.93844 38.6091 10.2549 38.6006 10.4448 38.4001L9.71893 37.7123ZM8.51566 40.8098C8.66937 40.5804 8.60801 40.2698 8.37861 40.1161C8.1492 39.9624 7.83862 40.0237 7.68491 40.2531L8.51566 40.8098ZM6.85201 41.6343C6.72184 41.8778 6.81374 42.1808 7.05727 42.311C7.30081 42.4411 7.60376 42.3492 7.73393 42.1057L6.85201 41.6343ZM6.59668 44.8576C6.67679 44.5933 6.5275 44.3142 6.26323 44.2341C5.99896 44.154 5.71979 44.3032 5.63968 44.5675L6.59668 44.8576ZM5.25104 46.1053C5.19572 46.3759 5.3702 46.64 5.64075 46.6954C5.91129 46.7507 6.17546 46.5762 6.23077 46.3056L5.25104 46.1053ZM5.88238 49.28C5.89248 49.004 5.67695 48.7721 5.401 48.762C5.12504 48.7519 4.89315 48.9675 4.88305 49.2434L5.88238 49.28ZM4.89296 51.0684C4.90597 51.3442 5.14013 51.5573 5.41596 51.5443C5.6918 51.5313 5.90486 51.2971 5.89185 51.0213L4.89296 51.0684ZM6.48022 54.9154C6.40967 54.6484 6.13605 54.4892 5.86907 54.5597C5.6021 54.6303 5.44286 54.9039 5.51341 55.1709L6.48022 54.9154ZM6.15927 57.1501C6.25989 57.4072 6.54993 57.5341 6.80708 57.4335C7.06424 57.3329 7.19114 57.0428 7.09052 56.7857L6.15927 57.1501ZM8.93164 60.2572C8.77579 60.0292 8.46465 59.9708 8.23669 60.1266C8.00873 60.2825 7.95028 60.5936 8.10613 60.8216L8.93164 60.2572ZM9.43933 62.5384C9.62093 62.7464 9.93679 62.7679 10.1448 62.5863C10.3528 62.4047 10.3743 62.0888 10.1927 61.8808L9.43933 62.5384ZM13.3391 64.8188C13.1198 64.6511 12.806 64.6929 12.6382 64.9122C12.4704 65.1315 12.5122 65.4454 12.7316 65.6131L13.3391 64.8188ZM14.5791 66.8972C14.8126 67.0447 15.1214 66.9749 15.2688 66.7414C15.4162 66.5079 15.3464 66.1991 15.1129 66.0517L14.5791 66.8972ZM18.9479 68.0635C18.6945 67.9537 18.4001 68.0701 18.2903 68.3235C18.1805 68.5768 18.2969 68.8713 18.5502 68.9811L18.9479 68.0635ZM20.4432 69.7188C20.7042 69.8092 20.989 69.6711 21.0794 69.4101C21.1699 69.1492 21.0317 68.8644 20.7708 68.774L20.4432 69.7188ZM24.1444 69.7649C23.8762 69.6994 23.6056 69.8638 23.5401 70.1321C23.4747 70.4004 23.6391 70.6709 23.9074 70.7364L24.1444 69.7649ZM25.6691 71.1256C25.9399 71.1793 26.2031 71.0033 26.2568 70.7325C26.3106 70.4616 26.1346 70.1984 25.8637 70.1447L25.6691 71.1256ZM29.3454 70.6901C29.0711 70.658 28.8227 70.8543 28.7906 71.1286C28.7585 71.4028 28.9548 71.6512 29.2291 71.6833L29.3454 70.6901ZM31.0207 71.8601C31.296 71.8823 31.5371 71.6771 31.5593 71.4019C31.5815 71.1266 31.3764 70.8855 31.1011 70.8633L31.0207 71.8601ZM34.6287 71.0294C34.3526 71.0252 34.1253 71.2457 34.1212 71.5218C34.117 71.7979 34.3375 72.0251 34.6136 72.0293L34.6287 71.0294ZM36.4067 72.0293C36.6828 72.0252 36.9033 71.798 36.8992 71.5219C36.895 71.2458 36.6678 71.0253 36.3917 71.0295L36.4067 72.0293ZM39.8986 70.8648C39.6234 70.887 39.4182 71.1281 39.4404 71.4034C39.4625 71.6786 39.7036 71.8838 39.9789 71.8616L39.8986 70.8648ZM41.7604 71.686C42.0346 71.6539 42.2309 71.4056 42.1988 71.1313C42.1667 70.857 41.9183 70.6607 41.6441 70.6928L41.7604 71.686ZM45.1047 70.1494C44.8339 70.2034 44.6581 70.4667 44.7121 70.7375C44.7661 71.0083 45.0294 71.1841 45.3002 71.1301L45.1047 70.1494ZM47.0516 70.741C47.3198 70.6751 47.4838 70.4043 47.4179 70.1362C47.352 69.868 47.0812 69.704 46.813 69.7699L47.0516 70.741ZM50.163 68.7764C49.9025 68.8678 49.7654 69.1532 49.8568 69.4137C49.9483 69.6743 50.2337 69.8114 50.4942 69.7199L50.163 68.7764ZM52.3799 68.9866C52.6338 68.878 52.7516 68.5842 52.643 68.3303C52.5344 68.0764 52.2405 67.9586 51.9866 68.0671L52.3799 68.9866ZM55.8324 66.0706C55.5984 66.2173 55.5277 66.5258 55.6744 66.7598C55.8211 66.9937 56.1296 67.0645 56.3636 66.9178L55.8324 66.0706ZM58.216 65.6355C58.4354 65.4678 58.4773 65.154 58.3097 64.9346C58.142 64.7152 57.8282 64.6732 57.6088 64.8409L58.216 65.6355ZM60.7424 61.8923C60.5627 62.102 60.587 62.4176 60.7967 62.5973C61.0064 62.777 61.322 62.7527 61.5017 62.5431L60.7424 61.8923ZM62.8319 60.8312C62.9905 60.6051 62.9358 60.2933 62.7098 60.1347C62.4838 59.9761 62.1719 60.0308 62.0133 60.2568L62.8319 60.8312ZM63.8987 56.7957C63.7957 57.0518 63.9198 57.3431 64.176 57.4462C64.4321 57.5492 64.7234 57.4251 64.8265 57.1689L63.8987 56.7957ZM65.4914 55.1878C65.5639 54.9213 65.4066 54.6466 65.1401 54.5741C64.8736 54.5017 64.5989 54.659 64.5264 54.9254L65.4914 55.1878ZM65.1329 51.0239C65.1195 51.2997 65.3323 51.5342 65.6081 51.5476C65.8839 51.561 66.1184 51.3482 66.1317 51.0724L65.1329 51.0239ZM66.1417 49.2398C66.1312 48.9639 65.8989 48.7488 65.623 48.7593C65.3471 48.7699 65.1319 49.0021 65.1425 49.2781L66.1417 49.2398ZM64.7777 46.2985C64.8354 46.5685 65.1011 46.7406 65.3711 46.6829C65.6412 46.6252 65.8133 46.3595 65.7556 46.0895L64.7777 46.2985ZM65.3487 44.5488C65.2654 44.2856 64.9844 44.1397 64.7211 44.2231C64.4578 44.3065 64.312 44.5875 64.3954 44.8507L65.3487 44.5488ZM63.2131 42.1089C63.3475 42.3501 63.652 42.4367 63.8932 42.3023C64.1345 42.1679 64.221 41.8633 64.0866 41.6221L63.2131 42.1089ZM63.263 40.257C63.1129 40.0252 62.8033 39.9589 62.5715 40.109C62.3397 40.2591 62.2735 40.5686 62.4235 40.8004L63.263 40.257ZM60.538 38.388C60.7263 38.5899 61.0427 38.601 61.2447 38.4126C61.4466 38.2243 61.4576 37.9079 61.2693 37.7059L60.538 38.388ZM60.1176 36.5698C59.9133 36.3841 59.597 36.3991 59.4113 36.6035C59.2256 36.8078 59.2406 37.124 59.445 37.3098L60.1176 36.5698ZM57.0174 35.4192C57.2469 35.5727 57.5574 35.5112 57.711 35.2817C57.8646 35.0522 57.803 34.7417 57.5735 34.5881L57.0174 35.4192ZM34.7381 16.0676C34.4634 16.0964 34.2642 16.3424 34.293 16.617C34.3218 16.8916 34.5678 17.0909 34.8424 17.0621L34.7381 16.0676ZM32.4236 17.9865C32.6436 17.8196 32.6866 17.5059 32.5197 17.2859C32.3528 17.0659 32.0392 17.0229 31.8192 17.1898L32.4236 17.9865ZM30.6874 18.3793C30.5328 18.6081 30.593 18.9189 30.8218 19.0735C31.0507 19.228 31.3615 19.1679 31.516 18.939L30.6874 18.3793ZM30.6658 21.568C30.6888 21.2928 30.4844 21.0511 30.2092 21.0281C29.934 21.0051 29.6923 21.2095 29.6693 21.4847L30.6658 21.568ZM29.6693 23.0913C29.6923 23.3665 29.934 23.5709 30.2092 23.5479C30.4844 23.5249 30.6888 23.2832 30.6658 23.008L29.6693 23.0913ZM31.516 25.637C31.3615 25.4081 31.0507 25.348 30.8218 25.5025C30.593 25.6571 30.5328 25.9679 30.6874 26.1967L31.516 25.637ZM31.8192 27.3862C32.0392 27.5531 32.3528 27.5101 32.5197 27.2901C32.6866 27.0701 32.6436 26.7564 32.4236 26.5895L31.8192 27.3862ZM34.8424 27.5139C34.5678 27.4851 34.3218 27.6844 34.293 27.959C34.2641 28.2336 34.4634 28.4796 34.7381 28.5084L34.8424 27.5139ZM36.2734 28.5097C36.5481 28.4812 36.7476 28.2354 36.7191 27.9607C36.6906 27.686 36.4448 27.4865 36.1701 27.515L36.2734 28.5097ZM38.5205 26.6015C38.3042 26.7731 38.2679 27.0876 38.4395 27.3039C38.6112 27.5202 38.9257 27.5565 39.142 27.3849L38.5205 26.6015ZM40.2568 26.2206C40.4188 25.997 40.3689 25.6844 40.1453 25.5224C39.9217 25.3604 39.6091 25.4103 39.4471 25.6339L40.2568 26.2206ZM40.3573 23.012C40.3325 23.287 40.5354 23.53 40.8104 23.5548C41.0854 23.5796 41.3285 23.3767 41.3532 23.1017L40.3573 23.012ZM41.3532 21.4743C41.3285 21.1993 41.0854 20.9964 40.8104 21.0212C40.5354 21.046 40.3325 21.289 40.3573 21.564L41.3532 21.4743ZM39.4471 18.9421C39.6091 19.1657 39.9217 19.2156 40.1453 19.0536C40.3689 18.8916 40.4188 18.579 40.2568 18.3553L39.4471 18.9421ZM39.142 17.1911C38.9257 17.0195 38.6112 17.0558 38.4395 17.2721C38.2679 17.4884 38.3042 17.8029 38.5205 17.9745L39.142 17.1911ZM36.1701 17.061C36.4448 17.0895 36.6906 16.89 36.7191 16.6153C36.7476 16.3406 36.5481 16.0948 36.2734 16.0663L36.1701 17.061ZM34.587 55.7292C34.3121 55.703 34.0681 55.9046 34.0419 56.1795C34.0157 56.4544 34.2173 56.6985 34.4922 56.7247L34.587 55.7292ZM30.6163 55.3692C30.8438 55.5257 31.1551 55.468 31.3116 55.2405C31.468 55.013 31.4104 54.7017 31.1829 54.5452L30.6163 55.3692ZM29.899 53.3495C29.7288 53.1321 29.4145 53.0939 29.1971 53.2641C28.9797 53.4343 28.9415 53.7486 29.1117 53.966L29.899 53.3495ZM27.6703 50.253C27.6987 50.5277 27.9444 50.7274 28.2191 50.699C28.4937 50.6706 28.6934 50.425 28.665 50.1503L27.6703 50.253ZM28.665 48.3777C28.6934 48.103 28.4937 47.8574 28.2191 47.829C27.9444 47.8006 27.6987 48.0003 27.6703 48.275L28.665 48.3777ZM29.1117 44.562C28.9415 44.7794 28.9797 45.0937 29.1971 45.2639C29.4145 45.4341 29.7288 45.3959 29.899 45.1785L29.1117 44.562ZM31.1829 43.9828C31.4104 43.8263 31.468 43.515 31.3116 43.2875C31.1551 43.06 30.8438 43.0023 30.6163 43.1588L31.1829 43.9828ZM34.4922 41.8033C34.2173 41.8295 34.0157 42.0736 34.0419 42.3485C34.0681 42.6234 34.3121 42.825 34.587 42.7988L34.4922 41.8033ZM36.425 42.7978C36.6999 42.8237 36.9439 42.6219 36.9698 42.347C36.9958 42.0721 36.794 41.8282 36.5191 41.8022L36.425 42.7978ZM40.3418 43.1576C40.1167 42.9977 39.8045 43.0507 39.6447 43.2758C39.4849 43.501 39.5378 43.8131 39.763 43.973L40.3418 43.1576ZM41.0603 45.1784C41.2359 45.3916 41.551 45.4221 41.7641 45.2465C41.9773 45.071 42.0078 44.7558 41.8322 44.5427L41.0603 45.1784ZM43.3518 48.2643C43.3218 47.9898 43.075 47.7916 42.8005 47.8215C42.526 47.8515 42.3277 48.0983 42.3577 48.3729L43.3518 48.2643ZM42.3577 50.1551C42.3277 50.4297 42.526 50.6765 42.8005 50.7065C43.075 50.7364 43.3218 50.5382 43.3518 50.2637L42.3577 50.1551ZM41.8322 53.9853C42.0078 53.7722 41.9773 53.457 41.7641 53.2815C41.551 53.1059 41.2359 53.1364 41.0603 53.3495L41.8322 53.9853ZM39.763 54.555C39.5378 54.7149 39.4849 55.027 39.6447 55.2522C39.8045 55.4773 40.1167 55.5303 40.3418 55.3704L39.763 54.555ZM36.5191 56.7258C36.794 56.6998 36.9958 56.4559 36.9698 56.181C36.9439 55.9061 36.6999 55.7043 36.425 55.7302L36.5191 56.7258ZM56.9444 34.967C57.1743 34.7837 57.3985 34.598 57.617 34.4097L56.9642 33.6522C56.7556 33.8319 56.5412 34.0095 56.3211 34.185L56.9444 34.967ZM60.0627 31.9086C60.437 31.4483 60.7831 30.9759 61.1011 30.4913L60.265 29.9427C59.9662 30.3981 59.6402 30.8431 59.2868 31.2778L60.0627 31.9086ZM62.6993 27.3581C62.906 26.81 63.0823 26.2499 63.2284 25.6777L62.2594 25.4304C62.1224 25.9671 61.9572 26.492 61.7636 27.0052L62.6993 27.3581ZM63.7369 22.2047C63.7501 21.9149 63.7568 21.6227 63.7568 21.328H62.7568C62.7568 21.6077 62.7505 21.8847 62.7379 22.1589L63.7369 22.2047ZM63.7568 21.328C63.7568 21.0015 63.7492 20.6781 63.734 20.3577L62.7351 20.405C62.7495 20.7093 62.7568 21.017 62.7568 21.328H63.7568ZM63.1477 16.5162C62.9785 15.884 62.7741 15.2666 62.5344 14.6642L61.6053 15.0339C61.8304 15.5996 62.0225 16.1798 62.1816 16.7746L63.1477 16.5162ZM60.6791 11.2402C60.4936 10.976 60.2997 10.7155 60.0976 10.4587L59.3119 11.0773C59.5028 11.3198 59.6858 11.5657 59.8607 11.8148L60.6791 11.2402ZM60.1017 10.464C59.8905 10.1882 59.6715 9.91807 59.4447 9.65343L58.6854 10.3042C58.9003 10.555 59.1078 10.8109 59.3078 11.072L60.1017 10.464ZM56.4192 6.79787C55.8782 6.38226 55.3101 5.9865 54.7151 5.61053L54.1809 6.45591C54.751 6.81613 55.294 7.19447 55.8099 7.59085L56.4192 6.79787ZM51.0508 3.68914C50.7379 3.55374 50.4197 3.42229 50.096 3.29479L49.7295 4.2252C50.0431 4.34873 50.3511 4.47596 50.6536 4.60688L51.0508 3.68914ZM50.0984 3.29576C49.7152 3.14246 49.3267 2.99616 48.9331 2.85684L48.5994 3.79955C48.9806 3.93443 49.3565 4.076 49.7271 4.22423L50.0984 3.29576ZM44.1373 1.55436C43.3386 1.39699 42.5223 1.26319 41.6886 1.1529L41.5574 2.14426C42.3711 2.2519 43.1666 2.38233 43.944 2.5355L44.1373 1.55436ZM36.7502 0.778468C36.3413 0.76882 35.9288 0.763998 35.5128 0.763998V1.764C35.9211 1.764 36.3257 1.76873 36.7266 1.77819L36.7502 0.778468ZM35.5128 0.763998C35.0942 0.763998 34.6792 0.768877 34.2676 0.778639L34.2913 1.77836C34.6948 1.76879 35.102 1.764 35.5128 1.764V0.763998ZM29.2984 1.15602C28.4605 1.2668 27.6393 1.40109 26.8347 1.55896L27.0272 2.54025C27.8108 2.3865 28.6115 2.25554 29.4295 2.1474L29.2984 1.15602ZM22.0075 2.85876C21.6113 2.99721 21.2199 3.14256 20.8335 3.29479L21.2 4.2252C21.5742 4.0778 21.9533 3.93699 22.3374 3.80279L22.0075 2.85876ZM20.8311 3.29576C20.5086 3.42474 20.1913 3.55776 19.8791 3.69482L20.2812 4.61044C20.583 4.47792 20.8901 4.34918 21.2024 4.22423L20.8311 3.29576ZM16.2276 5.63124C15.6359 6.00785 15.0695 6.40419 14.5284 6.82029L15.138 7.61299C15.655 7.21544 16.1971 6.83603 16.7646 6.47483L16.2276 5.63124ZM11.4966 9.65777C11.2679 9.91935 11.0463 10.1863 10.8319 10.4587L11.6176 11.0773C11.8214 10.8184 12.032 10.5647 12.2494 10.316L11.4966 9.65777ZM10.8278 10.464C10.6299 10.7223 10.4402 10.9844 10.2587 11.2503L11.0846 11.8141C11.2558 11.5634 11.4348 11.3161 11.6217 11.072L10.8278 10.464ZM8.4515 14.6835C8.21919 15.2853 8.02116 15.902 7.85735 16.5334L8.82532 16.7845C8.97964 16.1896 9.16602 15.6094 9.3844 15.0437L8.4515 14.6835ZM7.29072 20.3617C7.27607 20.6808 7.26875 21.0029 7.26875 21.328H8.26875C8.26875 21.0179 8.27573 20.7111 8.28967 20.4076L7.29072 20.3617ZM7.26875 21.328C7.26875 21.6227 7.27537 21.9149 7.28864 22.2047L8.28759 22.1589C8.27504 21.8847 8.26875 21.6077 8.26875 21.328H7.26875ZM7.79713 25.6777C7.94318 26.2499 8.11954 26.81 8.32622 27.3581L9.2619 27.0052C9.06835 26.492 8.90306 25.9671 8.76606 25.4304L7.79713 25.6777ZM9.92441 30.4913C10.2424 30.9759 10.5885 31.4483 10.9628 31.9086L11.7387 31.2778C11.3853 30.8431 11.0593 30.3981 10.7605 29.9427L9.92441 30.4913ZM13.4085 34.4097C13.627 34.598 13.8512 34.7837 14.0811 34.967L14.7044 34.185C14.4843 34.0095 14.2699 33.8319 14.0613 33.6522L13.4085 34.4097ZM14.1286 34.1515C13.8977 34.2951 13.6708 34.4415 13.4478 34.5905L14.0034 35.4219C14.2173 35.279 14.4351 35.1385 14.6569 35.0005L14.1286 34.1515ZM10.884 36.5773C10.4774 36.9434 10.089 37.3217 9.71893 37.7123L10.4448 38.4001C10.7964 38.029 11.1658 37.6692 11.5531 37.3205L10.884 36.5773ZM7.68491 40.2531C7.53368 40.4788 7.38733 40.7077 7.24585 40.9397L8.09965 41.4603C8.2337 41.2405 8.37237 41.0236 8.51566 40.8098L7.68491 40.2531ZM7.244 40.9428C7.10748 41.1703 6.97681 41.4008 6.85201 41.6343L7.73393 42.1057C7.85093 41.8868 7.97344 41.6707 8.1015 41.4572L7.244 40.9428ZM5.63968 44.5675C5.48757 45.0693 5.35804 45.582 5.25104 46.1053L6.23077 46.3056C6.33171 45.8119 6.45371 45.3293 6.59668 44.8576L5.63968 44.5675ZM4.88305 49.2434C4.87351 49.5041 4.86875 49.7669 4.86875 50.032H5.86875C5.86875 49.7789 5.8733 49.5282 5.88238 49.28L4.88305 49.2434ZM4.86875 50.032C4.86875 50.3806 4.87681 50.726 4.89296 51.0684L5.89185 51.0213C5.87646 50.6949 5.86875 50.3651 5.86875 50.032H4.86875ZM5.51341 55.1709C5.69169 55.8455 5.90697 56.5053 6.15927 57.1501L7.09052 56.7857C6.85226 56.1768 6.64882 55.5534 6.48022 54.9154L5.51341 55.1709ZM8.10613 60.8216C8.30061 61.106 8.50376 61.3867 8.71557 61.6637L9.50993 61.0563C9.30874 60.7932 9.11599 60.5268 8.93164 60.2572L8.10613 60.8216ZM8.71932 61.6686C8.95139 61.9645 9.19139 62.2544 9.43933 62.5384L10.1927 61.8808C9.95622 61.6099 9.72739 61.3335 9.50618 61.0514L8.71932 61.6686ZM12.7316 65.6131C13.3194 66.0628 13.9353 66.4908 14.5791 66.8972L15.1129 66.0517C14.4937 65.6607 13.9024 65.2497 13.3391 64.8188L12.7316 65.6131ZM18.5502 68.9811C18.8896 69.1281 19.2346 69.2708 19.5853 69.4091L19.9522 68.4789C19.6116 68.3446 19.2769 68.2061 18.9479 68.0635L18.5502 68.9811ZM19.5932 69.4122C19.8742 69.5176 20.1576 69.6198 20.4432 69.7188L20.7708 68.774C20.493 68.6776 20.2175 68.5783 19.9443 68.4758L19.5932 69.4122ZM23.9074 70.7364C24.4863 70.8777 25.0735 71.0074 25.6691 71.1256L25.8637 70.1447C25.2821 70.0293 24.709 69.9027 24.1444 69.7649L23.9074 70.7364ZM29.2291 71.6833C29.819 71.7524 30.4162 71.8113 31.0207 71.8601L31.1011 70.8633C30.5083 70.8155 29.9231 70.7577 29.3454 70.6901L29.2291 71.6833ZM34.6136 72.0293C34.9117 72.0338 35.2114 72.036 35.5128 72.036V71.036C35.2164 71.036 34.9217 71.0338 34.6287 71.0294L34.6136 72.0293ZM35.5128 72.036C35.8124 72.036 36.1104 72.0338 36.4067 72.0293L36.3917 71.0295C36.1005 71.0338 35.8075 71.036 35.5128 71.036V72.036ZM39.9789 71.8616C40.5803 71.8132 41.1742 71.7547 41.7604 71.686L41.6441 70.6928C41.0701 70.76 40.4883 70.8174 39.8986 70.8648L39.9789 71.8616ZM45.3002 71.1301C45.8927 71.012 46.4766 70.8823 47.0516 70.741L46.813 69.7699C46.2526 69.9076 45.6831 70.0341 45.1047 70.1494L45.3002 71.1301ZM50.4942 69.7199C50.7781 69.6203 51.0595 69.5174 51.3385 69.4113L50.983 68.4767C50.7122 68.5797 50.4388 68.6796 50.163 68.7764L50.4942 69.7199ZM51.342 69.41C51.6938 69.2732 52.0398 69.132 52.3799 68.9866L51.9866 68.0671C51.657 68.2081 51.3213 68.3451 50.9795 68.478L51.342 69.41ZM56.3636 66.9178C57.0108 66.512 57.6283 66.0846 58.216 65.6355L57.6088 64.8409C57.0464 65.2706 56.4543 65.6806 55.8324 66.0706L56.3636 66.9178ZM61.5017 62.5431C61.7477 62.256 61.9851 61.9629 62.2139 61.6637L61.4196 61.0563C61.2021 61.3406 60.9764 61.6193 60.7424 61.8923L61.5017 62.5431ZM62.2102 61.6686C62.4262 61.3931 62.6334 61.114 62.8319 60.8312L62.0133 60.2568C61.8252 60.5249 61.6285 60.7898 61.4233 61.0514L62.2102 61.6686ZM64.8265 57.1689C65.0861 56.5236 65.3078 55.8632 65.4914 55.1878L64.5264 54.9254C64.353 55.5634 64.1438 56.1868 63.8987 56.7957L64.8265 57.1689ZM66.1317 51.0724C66.1484 50.7287 66.1568 50.3819 66.1568 50.032H65.1568C65.1568 50.366 65.1488 50.6967 65.1329 51.0239L66.1317 51.0724ZM66.1568 50.032C66.1568 49.7657 66.1518 49.5017 66.1417 49.2398L65.1425 49.2781C65.152 49.5269 65.1568 49.7782 65.1568 50.032H66.1568ZM65.7556 46.0895C65.6435 45.5651 65.5079 45.0515 65.3487 44.5488L64.3954 44.8507C64.5447 45.3223 64.6722 45.8049 64.7777 46.2985L65.7556 46.0895ZM64.0866 41.6221C63.9574 41.3901 63.8221 41.1611 63.6808 40.935L62.8328 41.465C62.9652 41.677 63.092 41.8916 63.2131 42.1089L64.0866 41.6221ZM63.6883 40.9474C63.5517 40.7141 63.4099 40.4839 63.263 40.257L62.4235 40.8004C62.5623 41.0148 62.6962 41.2322 62.8252 41.4526L63.6883 40.9474ZM61.2693 37.7059C60.9046 37.3149 60.5207 36.9362 60.1176 36.5698L59.445 37.3098C59.8281 37.658 60.1924 38.0174 60.538 38.388L61.2693 37.7059ZM57.5735 34.5881C57.3521 34.4399 57.1265 34.2943 56.8969 34.1515L56.3686 35.0005C56.589 35.1377 56.8052 35.2772 57.0174 35.4192L57.5735 34.5881ZM35.5128 16.028C35.2485 16.028 34.9902 16.0411 34.7381 16.0676L34.8424 17.0621C35.0581 17.0395 35.2815 17.028 35.5128 17.028V16.028ZM31.8192 17.1898C31.6108 17.3479 31.4121 17.5215 31.2232 17.7104L31.9303 18.4176C32.088 18.2599 32.2524 18.1163 32.4236 17.9865L31.8192 17.1898ZM31.212 17.722C31.0197 17.9271 30.8448 18.1463 30.6874 18.3793L31.516 18.939C31.6437 18.75 31.7855 18.5724 31.9415 18.406L31.212 17.722ZM29.6693 21.4847C29.6475 21.745 29.6368 22.0129 29.6368 22.288H30.6368C30.6368 22.0389 30.6465 21.799 30.6658 21.568L29.6693 21.4847ZM29.6368 22.288C29.6368 22.5631 29.6475 22.831 29.6693 23.0913L30.6658 23.008C30.6465 22.777 30.6368 22.5371 30.6368 22.288H29.6368ZM30.6874 26.1967C30.8448 26.4297 31.0197 26.6489 31.212 26.854L31.9415 26.17C31.7855 26.0036 31.6437 25.826 31.516 25.637L30.6874 26.1967ZM31.2232 26.8656C31.4121 27.0545 31.6108 27.2281 31.8192 27.3862L32.4236 26.5895C32.2524 26.4597 32.088 26.3161 31.9303 26.1584L31.2232 26.8656ZM34.7381 28.5084C34.9902 28.5349 35.2485 28.548 35.5128 28.548V27.548C35.2815 27.548 35.0581 27.5365 34.8424 27.5139L34.7381 28.5084ZM35.5128 28.548C35.7728 28.548 36.0264 28.5353 36.2734 28.5097L36.1701 27.515C35.9593 27.5369 35.7403 27.548 35.5128 27.548V28.548ZM39.142 27.3849C39.345 27.2238 39.5368 27.0468 39.7175 26.854L38.988 26.17C38.8398 26.3281 38.684 26.4717 38.5205 26.6015L39.142 27.3849ZM39.7063 26.8656C39.9075 26.6644 40.0911 26.4494 40.2568 26.2206L39.4471 25.6339C39.3126 25.8194 39.1634 25.9942 38.9992 26.1584L39.7063 26.8656ZM41.3532 23.1017C41.377 22.838 41.3888 22.5667 41.3888 22.288H40.3888C40.3888 22.5386 40.3782 22.7799 40.3573 23.012L41.3532 23.1017ZM41.3888 22.288C41.3888 22.0093 41.377 21.738 41.3532 21.4743L40.3573 21.564C40.3782 21.7961 40.3888 22.0374 40.3888 22.288H41.3888ZM40.2568 18.3553C40.0911 18.1266 39.9075 17.9116 39.7063 17.7104L38.9992 18.4176C39.1634 18.5818 39.3126 18.7566 39.4471 18.9421L40.2568 18.3553ZM39.7175 17.722C39.5368 17.5292 39.345 17.3522 39.142 17.1911L38.5205 17.9745C38.684 18.1043 38.8398 18.2479 38.988 18.406L39.7175 17.722ZM36.2734 16.0663C36.0264 16.0407 35.7728 16.028 35.5128 16.028V17.028C35.7403 17.028 35.9593 17.0391 36.1701 17.061L36.2734 16.0663ZM35.5128 55.772C35.1944 55.772 34.8858 55.7577 34.587 55.7292L34.4922 56.7247C34.8241 56.7563 35.1643 56.772 35.5128 56.772V55.772ZM31.1829 54.5452C30.9361 54.3755 30.6995 54.1879 30.4731 53.982L29.8004 54.722C30.0597 54.9577 30.3317 55.1735 30.6163 55.3692L31.1829 54.5452ZM30.4816 53.9899C30.2685 53.787 30.0744 53.5735 29.899 53.3495L29.1117 53.966C29.3178 54.2292 29.5447 54.4786 29.7919 54.7141L30.4816 53.9899ZM28.665 50.1503C28.6356 49.8654 28.6208 49.5701 28.6208 49.264H27.6208C27.6208 49.6024 27.6372 49.9322 27.6703 50.253L28.665 50.1503ZM28.6208 49.264C28.6208 48.9579 28.6356 48.6626 28.665 48.3777L27.6703 48.275C27.6372 48.5958 27.6208 48.9256 27.6208 49.264H28.6208ZM29.899 45.1785C30.0744 44.9545 30.2685 44.741 30.4816 44.5381L29.7919 43.8139C29.5447 44.0494 29.3178 44.2987 29.1117 44.562L29.899 45.1785ZM30.4731 44.546C30.6995 44.3401 30.9361 44.1525 31.1829 43.9828L30.6163 43.1588C30.3317 43.3545 30.0597 43.5703 29.8004 43.806L30.4731 44.546ZM34.587 42.7988C34.8858 42.7703 35.1944 42.756 35.5128 42.756V41.756C35.1643 41.756 34.8241 41.7717 34.4922 41.8033L34.587 42.7988ZM35.5128 42.756C35.8272 42.756 36.1313 42.77 36.425 42.7978L36.5191 41.8022C36.1924 41.7713 35.8569 41.756 35.5128 41.756V42.756ZM39.763 43.973C40.0025 44.143 40.2308 44.3313 40.4479 44.5381L41.1376 43.8139C40.8864 43.5747 40.6211 43.3558 40.3418 43.1576L39.763 43.973ZM40.4564 44.546C40.6772 44.7467 40.8784 44.9575 41.0603 45.1784L41.8322 44.5427C41.6187 44.2835 41.3842 44.0379 41.1291 43.806L40.4564 44.546ZM42.3577 48.3729C42.389 48.6591 42.4048 48.9561 42.4048 49.264H43.4048C43.4048 48.9219 43.3872 48.5886 43.3518 48.2643L42.3577 48.3729ZM42.4048 49.264C42.4048 49.5719 42.389 49.8689 42.3577 50.1551L43.3518 50.2637C43.3872 49.9394 43.4048 49.6061 43.4048 49.264H42.4048ZM41.0603 53.3495C40.8784 53.5705 40.6772 53.7813 40.4564 53.982L41.1291 54.722C41.3842 54.4901 41.6187 54.2445 41.8322 53.9853L41.0603 53.3495ZM40.4479 53.9899C40.2308 54.1967 40.0025 54.385 39.763 54.555L40.3418 55.3704C40.6211 55.1722 40.8864 54.9533 41.1376 54.7141L40.4479 53.9899ZM36.425 55.7302C36.1313 55.758 35.8272 55.772 35.5128 55.772V56.772C35.8569 56.772 36.1924 56.7567 36.5191 56.7258L36.425 55.7302Z" fill="url(#paint0_linear)"/>
    </g>
    <defs>
        <filter id="filter0_d" x="0.868774" y="0.764008" width="69.288" height="79.272" filterUnits="userSpaceOnUse" color-interpolation-filters="sRGB">
            <feFlood flood-opacity="0" result="BackgroundImageFix"/>
            <feColorMatrix in="SourceAlpha" type="matrix" values="0 0 0 0 0 0 0 0 0 0 0 0 0 0 0 0 0 0 127 0"/>
            <feOffset dy="4"/>
            <feGaussianBlur stdDeviation="2"/>
            <feColorMatrix type="matrix" values="0 0 0 0 0 0 0 0 0 0 0 0 0 0 0 0 0 0 0.25 0"/>
            <feBlend mode="normal" in2="BackgroundImageFix" result="effect1_dropShadow"/>
            <feBlend mode="normal" in="SourceGraphic" in2="effect1_dropShadow" result="shape"/>
        </filter>
        <linearGradient id="paint0_linear" x1="35.5" y1="-23" x2="35.5" y2="94" gradientUnits="userSpaceOnUse">
            <stop stop-color="#FFEE55"/>
            <stop offset="1" stop-color="white"/>
        </linearGradient>
    </defs>
</svg>
