<svg width="69" height="81" viewBox="0 0 69 81" fill="none" xmlns="http://www.w3.org/2000/svg">
    <g opacity="0.5" filter="url(#filter0_d)">
        <path d="M49.0776 5.008L48.8469 5.45161L48.8494 5.45284L49.0776 5.008ZM60.4056 16.144L60.8446 15.9046L60.8446 15.9046L60.4056 16.144ZM59.7336 54.256L59.2968 54.0127L59.2947 54.0166L59.7336 54.256ZM46.6776 67.12L46.446 66.6769L46.4439 66.678L46.6776 67.12ZM15.6696 70.096L15.7969 69.6124L15.7889 69.6104L15.6696 70.096ZM6.35763 66.256L5.91314 66.027L5.70613 66.4289L6.08513 66.6752L6.35763 66.256ZM14.5176 50.416L14.8075 50.0086L14.3374 49.6741L14.0731 50.187L14.5176 50.416ZM36.3096 51.088L36.6145 51.4843L36.6159 51.4832L36.3096 51.088ZM41.3016 42.544L41.7913 42.6453L42.0486 41.4014L41.0124 42.1361L41.3016 42.544ZM16.5336 43.6L16.3068 44.0456L16.3068 44.0456L16.5336 43.6ZM8.08563 36.016L7.66584 36.2876L7.66584 36.2876L8.08563 36.016ZM8.46963 12.4L8.05586 12.1192L8.05246 12.1244L8.46963 12.4ZM18.3576 4.144L18.1481 3.69002L18.1481 3.69002L18.3576 4.144ZM38.7096 28.816L39.0541 29.1786L39.0632 29.1696L38.7096 28.816ZM38.7096 18.736L39.054 18.3735L39.054 18.3735L38.7096 18.736ZM28.7256 18.736L29.07 19.0985L29.07 19.0985L28.7256 18.736ZM28.7256 28.816L28.372 29.1697L28.3813 29.1785L28.7256 28.816ZM30.9802 0.782091C30.7042 0.790462 30.4873 1.021 30.4956 1.29702C30.504 1.57303 30.7345 1.79 31.0106 1.78163L30.9802 0.782091ZM26.3578 2.22684C26.6303 2.18185 26.8147 1.92451 26.7697 1.65205C26.7247 1.3796 26.4673 1.19521 26.1949 1.24021L26.3578 2.22684ZM23.8345 1.71865C23.5661 1.78348 23.4011 2.05363 23.4659 2.32205C23.5307 2.59048 23.8008 2.75553 24.0693 2.69071L23.8345 1.71865ZM19.6354 4.13053C19.8906 4.0249 20.0118 3.73243 19.9061 3.47729C19.8005 3.22216 19.508 3.10096 19.2529 3.2066L19.6354 4.13053ZM17.1522 4.17353C16.9063 4.29905 16.8086 4.6002 16.9341 4.84616C17.0597 5.09213 17.3608 5.18977 17.6068 5.06425L17.1522 4.17353ZM13.993 7.31277C14.2136 7.14672 14.2579 6.83324 14.0918 6.61261C13.9258 6.39197 13.6123 6.34773 13.3917 6.51378L13.993 7.31277ZM11.6818 7.92993C11.4776 8.11587 11.4628 8.4321 11.6487 8.63627C11.8347 8.84043 12.1509 8.85521 12.3551 8.66927L11.6818 7.92993ZM9.50091 11.8143C9.66634 11.5932 9.62122 11.2798 9.40012 11.1144C9.17901 10.9489 8.86566 10.9941 8.70023 11.2152L9.50091 11.8143ZM7.46171 13.0701C7.32148 13.308 7.40065 13.6145 7.63854 13.7548C7.87642 13.895 8.18295 13.8158 8.32318 13.5779L7.46171 13.0701ZM6.56035 17.4404C6.64819 17.1786 6.50718 16.8951 6.24538 16.8073C5.98359 16.7194 5.70014 16.8604 5.6123 17.1222L6.56035 17.4404ZM5.01176 19.2685C4.95076 19.5378 5.11965 19.8055 5.38897 19.8665C5.65829 19.9275 5.92606 19.7587 5.98706 19.4893L5.01176 19.2685ZM5.43908 23.7147C5.45025 23.4387 5.23564 23.206 4.95972 23.1948C4.68381 23.1836 4.45107 23.3983 4.4399 23.6742L5.43908 23.7147ZM4.43757 25.7905C4.4486 26.0664 4.68123 26.2811 4.95715 26.2701C5.23307 26.2591 5.44781 26.0264 5.43677 25.7505L4.43757 25.7905ZM5.92502 29.57C5.86492 29.3005 5.59771 29.1307 5.32819 29.1908C5.05867 29.2509 4.88889 29.5181 4.94899 29.7876L5.92502 29.57ZM5.48556 31.7369C5.57207 31.9991 5.85479 32.1416 6.11703 32.0551C6.37927 31.9685 6.52174 31.6858 6.43523 31.4236L5.48556 31.7369ZM8.00368 34.9245C7.86555 34.6854 7.55973 34.6036 7.32062 34.7417C7.08151 34.8798 6.99966 35.1857 7.1378 35.4248L8.00368 34.9245ZM8.21472 37.0978C8.37444 37.3231 8.68653 37.3762 8.9118 37.2165C9.13707 37.0568 9.1902 36.7447 9.03049 36.5195L8.21472 37.0978ZM11.4511 39.3642C11.254 39.1708 10.9374 39.1739 10.744 39.371C10.5506 39.5681 10.5536 39.8847 10.7508 40.0781L11.4511 39.3642ZM12.2102 41.3853C12.424 41.5601 12.739 41.5284 12.9137 41.3146C13.0885 41.1008 13.0568 40.7858 12.843 40.6111L12.2102 41.3853ZM15.934 42.7125C15.6933 42.5773 15.3885 42.6629 15.2533 42.9037C15.1181 43.1445 15.2038 43.4493 15.4446 43.5845L15.934 42.7125ZM17.2131 44.4847C17.4639 44.6001 17.7609 44.4904 17.8763 44.2395C17.9918 43.9887 17.882 43.6917 17.6312 43.5763L17.2131 44.4847ZM21.26 44.9034C20.9938 44.8299 20.7184 44.9861 20.6449 45.2523C20.5715 45.5185 20.7277 45.7938 20.9939 45.8673L21.26 44.9034ZM22.9557 46.3243C23.2269 46.3762 23.4888 46.1983 23.5406 45.927C23.5924 45.6558 23.4145 45.3939 23.1433 45.3421L22.9557 46.3243ZM26.9882 45.7708C26.7123 45.7609 26.4805 45.9766 26.4707 46.2526C26.4608 46.5285 26.6765 46.7603 26.9525 46.7701L26.9882 45.7708ZM29.1494 46.7673C29.4253 46.7576 29.6412 46.5261 29.6315 46.2501C29.6218 45.9741 29.3902 45.7583 29.1143 45.7679L29.1494 46.7673ZM33.6883 45.2361C33.4179 45.2923 33.2443 45.557 33.3004 45.8273C33.3566 46.0977 33.6213 46.2714 33.8917 46.2152L33.6883 45.2361ZM36.2121 45.6082C36.4752 45.5242 36.6203 45.2429 36.5364 44.9799C36.4524 44.7168 36.171 44.5716 35.908 44.6556L36.2121 45.6082ZM40.0606 42.7655C39.8254 42.9102 39.7521 43.2182 39.8969 43.4534C40.0416 43.6885 40.3496 43.7618 40.5848 43.6171L40.0606 42.7655ZM40.6285 43.2437C40.5611 43.5115 40.7234 43.7833 40.9912 43.8507C41.259 43.9182 41.5308 43.7558 41.5982 43.4881L40.6285 43.2437ZM40.4245 46.7514C40.5453 46.5031 40.442 46.2039 40.1937 46.083C39.9454 45.9622 39.6462 46.0655 39.5253 46.3138L40.4245 46.7514ZM38.7282 47.7273C38.5777 47.9588 38.6435 48.2685 38.8751 48.419C39.1066 48.5694 39.4163 48.5037 39.5667 48.2721L38.7282 47.7273ZM37.2902 50.9238C37.4967 50.7404 37.5154 50.4244 37.3321 50.2179C37.1487 50.0114 36.8327 49.9927 36.6262 50.176L37.2902 50.9238ZM35.341 51.1672C35.1111 51.3203 35.0489 51.6307 35.202 51.8606C35.3551 52.0904 35.6655 52.1526 35.8953 51.9995L35.341 51.1672ZM32.7328 53.5499C32.9941 53.4605 33.1334 53.1763 33.044 52.915C32.9546 52.6537 32.6703 52.5144 32.4091 52.6038L32.7328 53.5499ZM30.8251 53.0469C30.5555 53.1066 30.3854 53.3736 30.4452 53.6432C30.5049 53.9128 30.7719 54.0829 31.0415 54.0232L30.8251 53.0469ZM27.5792 54.452C27.8552 54.4418 28.0706 54.2097 28.0603 53.9338C28.05 53.6578 27.818 53.4425 27.5421 53.4527L27.5792 54.452ZM25.6527 53.4481C25.3767 53.4375 25.1445 53.6527 25.134 53.9286C25.1234 54.2046 25.3386 54.4368 25.6145 54.4473L25.6527 53.4481ZM21.2614 53.9027C21.531 53.9625 21.798 53.7923 21.8577 53.5227C21.9175 53.2531 21.7473 52.9861 21.4777 52.9264L21.2614 53.9027ZM19.4566 52.3665C19.1948 52.2785 18.9113 52.4194 18.8234 52.6812C18.7354 52.943 18.8763 53.2265 19.1381 53.3144L19.4566 52.3665ZM15.1475 51.4371C15.3817 51.5834 15.6901 51.5122 15.8364 51.278C15.9827 51.0438 15.9115 50.7353 15.6773 50.589L15.1475 51.4371ZM13.6198 51.067C13.4933 51.3125 13.5898 51.614 13.8353 51.7405C14.0808 51.8669 14.3823 51.7705 14.5088 51.525L13.6198 51.067ZM12.6954 55.045C12.8219 54.7995 12.7254 54.498 12.4799 54.3715C12.2345 54.2451 11.9329 54.3415 11.8065 54.587L12.6954 55.045ZM10.8998 56.347C10.7733 56.5925 10.8698 56.894 11.1153 57.0205C11.3608 57.1469 11.6623 57.0505 11.7888 56.805L10.8998 56.347ZM9.97545 60.325C10.1019 60.0795 10.0054 59.778 9.75994 59.6515C9.51445 59.5251 9.21293 59.6215 9.08647 59.867L9.97545 60.325ZM8.17981 61.627C8.05334 61.8725 8.14983 62.174 8.39531 62.3005C8.6408 62.4269 8.94232 62.3305 9.06878 62.085L8.17981 61.627ZM7.25545 65.605C7.38191 65.3595 7.28542 65.058 7.03994 64.9315C6.79445 64.8051 6.49293 64.9015 6.36647 65.147L7.25545 65.605ZM6.81591 67.1314C7.05277 67.2733 7.35986 67.1964 7.50182 66.9595C7.64377 66.7227 7.56684 66.4156 7.32998 66.2736L6.81591 67.1314ZM10.2732 67.7801C10.02 67.6698 9.72536 67.7857 9.61511 68.0389C9.50486 68.292 9.62072 68.5867 9.8739 68.6969L10.2732 67.7801ZM11.4638 69.3368C11.7227 69.4329 12.0105 69.301 12.1066 69.0421C12.2027 68.7832 12.0708 68.4955 11.8119 68.3993L11.4638 69.3368ZM14.9817 69.4034C14.7149 69.3321 14.4408 69.4905 14.3694 69.7572C14.2981 70.024 14.4565 70.2981 14.7232 70.3694L14.9817 69.4034ZM16.4946 70.8183C16.7632 70.8824 17.0329 70.7166 17.0969 70.448C17.161 70.1793 16.9952 69.9097 16.7266 69.8456L16.4946 70.8183ZM20.4928 70.5645C20.2195 70.5249 19.9658 70.7143 19.9262 70.9876C19.8866 71.2609 20.0761 71.5146 20.3493 71.5542L20.4928 70.5645ZM22.2965 71.7934C22.5712 71.8212 22.8165 71.621 22.8443 71.3463C22.8721 71.0715 22.6719 70.8263 22.3971 70.7985L22.2965 71.7934ZM26.2291 71.0268C25.953 71.0214 25.7248 71.2409 25.7195 71.517C25.7142 71.7931 25.9336 72.0212 26.2097 72.0266L26.2291 71.0268ZM28.3216 72.0245C28.5977 72.0189 28.817 71.7906 28.8114 71.5145C28.8057 71.2384 28.5774 71.0191 28.3013 71.0248L28.3216 72.0245ZM32.7311 70.7412C32.4566 70.7714 32.2586 71.0184 32.2888 71.2929C32.319 71.5674 32.5661 71.7654 32.8405 71.7352L32.7311 70.7412ZM35.0872 71.4318C35.3598 71.388 35.5453 71.1314 35.5015 70.8588C35.4577 70.5861 35.2012 70.4006 34.9285 70.4444L35.0872 71.4318ZM39.2566 69.5089C38.9904 69.5822 38.834 69.8575 38.9073 70.1237C38.9806 70.3899 39.2558 70.5464 39.522 70.4731L39.2566 69.5089ZM41.694 69.8059C41.9554 69.717 42.0952 69.433 42.0063 69.1715C41.9174 68.9101 41.6333 68.7703 41.3719 68.8592L41.694 69.8059ZM45.4588 67.1785C45.2107 67.2995 45.1076 67.5989 45.2287 67.847C45.3497 68.0952 45.649 68.1983 45.8972 68.0772L45.4588 67.1785ZM47.8316 67.0628C48.0723 66.9274 48.1576 66.6225 48.0222 66.3818C47.8868 66.1412 47.5819 66.0558 47.3413 66.1913L47.8316 67.0628ZM50.7503 63.9738C50.5293 64.1392 50.4842 64.4526 50.6496 64.6737C50.8151 64.8948 51.1285 64.9398 51.3495 64.7744L50.7503 63.9738ZM52.988 63.4594C53.1974 63.2794 53.2211 62.9637 53.0411 62.7543C52.861 62.545 52.5453 62.5212 52.336 62.7012L52.988 63.4594ZM55.2282 59.8474C55.0453 60.0543 55.0648 60.3703 55.2717 60.5532C55.4786 60.7361 55.7946 60.7166 55.9775 60.5097L55.2282 59.8474ZM57.3148 58.8899C57.4834 58.6712 57.4427 58.3572 57.224 58.1886C57.0053 58.02 56.6914 58.0606 56.5228 58.2793L57.3148 58.8899ZM58.7934 54.9037C58.654 55.1421 58.7342 55.4483 58.9725 55.5878C59.2109 55.7272 59.5171 55.6471 59.6566 55.4087L58.7934 54.9037ZM60.7217 53.468C60.8476 53.2222 60.7505 52.9209 60.5048 52.7949C60.2591 52.669 59.9577 52.7661 59.8318 53.0118L60.7217 53.468ZM61.6264 48.8427C61.5341 49.103 61.6702 49.3888 61.9305 49.4811C62.1908 49.5734 62.4766 49.4373 62.5689 49.177L61.6264 48.8427ZM63.2801 46.9526C63.356 46.6871 63.2023 46.4103 62.9368 46.3343C62.6713 46.2584 62.3946 46.4121 62.3186 46.6776L63.2801 46.9526ZM63.3124 42.2384C63.2672 42.5108 63.4514 42.7682 63.7238 42.8134C63.9963 42.8586 64.2537 42.6744 64.2989 42.402L63.3124 42.2384ZM64.6202 40.0943C64.6513 39.8199 64.4541 39.5723 64.1797 39.5412C63.9053 39.5101 63.6576 39.7073 63.6265 39.9817L64.6202 40.0943ZM63.9258 35.4304C63.92 35.7065 64.1392 35.935 64.4153 35.9407C64.6914 35.9465 64.9198 35.7273 64.9256 35.4513L63.9258 35.4304ZM64.9279 33.2345C64.9227 32.9584 64.6948 32.7388 64.4187 32.7439C64.1426 32.7491 63.9229 32.9771 63.9281 33.2532L64.9279 33.2345ZM63.6839 29.1303C63.7121 29.405 63.9576 29.6048 64.2323 29.5766C64.507 29.5484 64.7068 29.3029 64.6786 29.0282L63.6839 29.1303ZM64.4135 26.9338C64.3721 26.6607 64.1173 26.4729 63.8443 26.5143C63.5712 26.5556 63.3834 26.8105 63.4248 27.0835L64.4135 26.9338ZM62.5921 23.0521C62.6632 23.3189 62.9371 23.4776 63.204 23.4066C63.4708 23.3355 63.6295 23.0615 63.5584 22.7947L62.5921 23.0521ZM62.9506 20.7662C62.863 20.5043 62.5797 20.363 62.3178 20.4506C62.056 20.5382 61.9147 20.8215 62.0022 21.0833L62.9506 20.7662ZM60.4403 17.292C60.5634 17.5392 60.8636 17.6398 61.1108 17.5168C61.358 17.3937 61.4586 17.0935 61.3355 16.8463L60.4403 17.292ZM60.3964 15.111C60.2571 14.8726 59.9509 14.7923 59.7125 14.9317C59.4741 15.071 59.3938 15.3773 59.5331 15.6157L60.3964 15.111ZM57.5716 12.6938C57.7399 12.9127 58.0538 12.9537 58.2727 12.7854C58.4916 12.617 58.5326 12.3031 58.3643 12.0842L57.5716 12.6938ZM57.2035 10.675C57.0208 10.4679 56.7049 10.4481 56.4978 10.6308C56.2907 10.8135 56.2709 11.1294 56.4536 11.3365L57.2035 10.675ZM53.9536 8.86879C54.1632 9.04866 54.4788 9.02463 54.6587 8.8151C54.8386 8.60558 54.8145 8.28991 54.605 8.11004L53.9536 8.86879ZM53.1784 6.96897C52.957 6.80405 52.6437 6.8499 52.4788 7.07139C52.3139 7.29287 52.3597 7.60611 52.5812 7.77104L53.1784 6.96897ZM49.6262 5.86722C49.8677 6.00108 50.172 5.91379 50.3059 5.67226C50.4397 5.43073 50.3524 5.12642 50.1109 4.99256L49.6262 5.86722ZM48.4252 4.12342C48.1761 4.00412 47.8775 4.10929 47.7582 4.35833C47.6389 4.60738 47.7441 4.90598 47.9931 5.02528L48.4252 4.12342ZM44.4521 3.59848C44.7142 3.6856 44.9972 3.54381 45.0843 3.28177C45.1715 3.01973 45.0297 2.73668 44.7676 2.64955L44.4521 3.59848ZM42.8799 2.08336C42.6132 2.01175 42.3389 2.16991 42.2673 2.4366C42.1957 2.7033 42.3539 2.97755 42.6206 3.04916L42.8799 2.08336ZM38.8751 2.26071C39.1479 2.30334 39.4037 2.11672 39.4463 1.84388C39.4889 1.57105 39.3023 1.31532 39.0295 1.2727L38.8751 2.26071ZM37.0805 1.01698C36.8059 0.987622 36.5596 1.18641 36.5302 1.46099C36.5008 1.73557 36.6996 1.98195 36.9742 2.01131L37.0805 1.01698ZM33.1431 1.77342C33.4192 1.77886 33.6474 1.55946 33.6528 1.28337C33.6583 1.00729 33.4389 0.779057 33.1628 0.773612L33.1431 1.77342ZM32.8579 30.1001C32.583 30.0738 32.3388 30.2753 32.3125 30.5502C32.2862 30.8251 32.4877 31.0693 32.7626 31.0956L32.8579 30.1001ZM29.1362 29.8011C29.3612 29.9612 29.6734 29.9085 29.8335 29.6835C29.9935 29.4584 29.9409 29.1463 29.7158 28.9862L29.1362 29.8011ZM28.5184 27.8139C28.3538 27.5922 28.0406 27.5459 27.8189 27.7106C27.5972 27.8752 27.551 28.1884 27.7156 28.4101L28.5184 27.8139ZM26.3519 24.7067C26.3787 24.9815 26.6233 25.1826 26.8981 25.1558C27.173 25.129 27.374 24.8845 27.3472 24.6096L26.3519 24.7067ZM27.3462 22.8595C27.3727 22.5847 27.1715 22.3403 26.8966 22.3137C26.6217 22.2872 26.3774 22.4884 26.3508 22.7633L27.3462 22.8595ZM27.7151 19.112C27.5468 19.3309 27.5878 19.6449 27.8067 19.8132C28.0257 19.9815 28.3396 19.9404 28.5079 19.7215L27.7151 19.112ZM29.7158 18.5658C29.9409 18.4057 29.9935 18.0936 29.8335 17.8685C29.6734 17.6435 29.3612 17.5908 29.1362 17.7509L29.7158 18.5658ZM32.7626 16.4564C32.4877 16.4827 32.2862 16.7269 32.3125 17.0018C32.3388 17.2767 32.583 17.4782 32.8579 17.4519L32.7626 16.4564ZM34.5774 17.4519C34.8523 17.4782 35.0964 17.2767 35.1227 17.0018C35.149 16.7269 34.9475 16.4827 34.6727 16.4564L34.5774 17.4519ZM38.299 17.7509C38.074 17.5908 37.7618 17.6435 37.6018 17.8685C37.4417 18.0936 37.4944 18.4057 37.7194 18.5658L38.299 17.7509ZM38.9274 19.7215C39.0957 19.9404 39.4096 19.9815 39.6285 19.8132C39.8474 19.6449 39.8885 19.3309 39.7202 19.112L38.9274 19.7215ZM41.0845 22.7633C41.0579 22.4884 40.8135 22.2872 40.5387 22.3137C40.2638 22.3403 40.0625 22.5847 40.0891 22.8595L41.0845 22.7633ZM40.088 24.6096C40.0612 24.8845 40.2623 25.129 40.5371 25.1558C40.812 25.1826 41.0565 24.9815 41.0833 24.7067L40.088 24.6096ZM39.7196 28.4101C39.8843 28.1884 39.838 27.8752 39.6163 27.7106C39.3947 27.5459 39.0815 27.5922 38.9168 27.8139L39.7196 28.4101ZM37.7194 28.9862C37.4944 29.1463 37.4417 29.4584 37.6018 29.6835C37.7618 29.9085 38.074 29.9612 38.299 29.8011L37.7194 28.9862ZM34.6727 31.0956C34.9475 31.0693 35.149 30.8251 35.1227 30.5502C35.0964 30.2753 34.8523 30.0738 34.5774 30.1001L34.6727 31.0956ZM32.1816 0.763998C31.7785 0.763998 31.378 0.770027 30.9802 0.782091L31.0106 1.78163C31.3981 1.76988 31.7884 1.764 32.1816 1.764V0.763998ZM26.1949 1.24021C25.3956 1.3722 24.6088 1.53167 23.8345 1.71865L24.0693 2.69071C24.8194 2.50956 25.5822 2.35493 26.3578 2.22684L26.1949 1.24021ZM19.2529 3.2066C18.8812 3.36047 18.513 3.52161 18.1481 3.69002L18.5672 4.59798C18.92 4.43514 19.276 4.27933 19.6354 4.13053L19.2529 3.2066ZM18.1481 3.69002C17.8107 3.84575 17.4787 4.00691 17.1522 4.17353L17.6068 5.06425C17.9214 4.9037 18.2415 4.74827 18.5672 4.59797L18.1481 3.69002ZM13.3917 6.51378C12.7968 6.9615 12.2268 7.43355 11.6818 7.92993L12.3551 8.66927C12.8768 8.19411 13.4228 7.74194 13.993 7.31277L13.3917 6.51378ZM8.70023 11.2152C8.47918 11.5106 8.2644 11.812 8.05589 12.1192L8.88336 12.6807C9.08329 12.3861 9.28914 12.0973 9.50091 11.8143L8.70023 11.2152ZM8.05246 12.1244C7.84686 12.4355 7.64994 12.7508 7.46171 13.0701L8.32318 13.5779C8.50268 13.2734 8.69055 12.9726 8.88679 12.6756L8.05246 12.1244ZM5.6123 17.1222C5.37744 17.8221 5.17728 18.5376 5.01176 19.2685L5.98706 19.4893C6.14526 18.7908 6.33638 18.1078 6.56035 17.4404L5.6123 17.1222ZM4.4399 23.6742C4.42504 24.0409 4.41763 24.4108 4.41763 24.784H5.41763C5.41763 24.4241 5.42478 24.0676 5.43908 23.7147L4.4399 23.6742ZM4.41763 24.784C4.41763 25.1223 4.42427 25.4578 4.43757 25.7905L5.43677 25.7505C5.42401 25.4314 5.41763 25.1092 5.41763 24.784H4.41763ZM4.94899 29.7876C5.0969 30.451 5.27574 31.1008 5.48556 31.7369L6.43523 31.4236C6.23593 30.8194 6.06584 30.2016 5.92502 29.57L4.94899 29.7876ZM7.1378 35.4248C7.30605 35.716 7.48207 36.0036 7.66584 36.2876L8.50541 35.7444C8.33071 35.4744 8.16348 35.2011 8.00368 34.9245L7.1378 35.4248ZM7.66584 36.2876C7.84385 36.5627 8.02681 36.8328 8.21472 37.0978L9.03049 36.5195C8.85083 36.2661 8.67581 36.0077 8.50541 35.7444L7.66584 36.2876ZM10.7508 40.0781C11.2168 40.5353 11.7033 40.971 12.2102 41.3853L12.843 40.6111C12.3594 40.2158 11.8955 39.8002 11.4511 39.3642L10.7508 40.0781ZM15.4446 43.5845C15.7273 43.7432 16.0147 43.8969 16.3068 44.0456L16.7605 43.1544C16.4803 43.0118 16.2049 42.8645 15.934 42.7125L15.4446 43.5845ZM16.3068 44.0456C16.6068 44.1983 16.9089 44.3447 17.2131 44.4847L17.6312 43.5763C17.339 43.4418 17.0488 43.3012 16.7605 43.1544L16.3068 44.0456ZM20.9939 45.8673C21.6396 46.0455 22.2936 46.1979 22.9557 46.3243L23.1433 45.3421C22.5074 45.2207 21.8796 45.0744 21.26 44.9034L20.9939 45.8673ZM26.9525 46.7701C27.2857 46.782 27.6208 46.788 27.9576 46.788V45.788C27.6325 45.788 27.3094 45.7823 26.9882 45.7708L26.9525 46.7701ZM27.9576 46.788C28.3598 46.788 28.757 46.7811 29.1494 46.7673L29.1143 45.7679C28.7339 45.7813 28.3484 45.788 27.9576 45.788V46.788ZM33.8917 46.2152C34.6909 46.0492 35.4644 45.8469 36.2121 45.6082L35.908 44.6556C35.1948 44.8833 34.4549 45.0768 33.6883 45.2361L33.8917 46.2152ZM40.5848 43.6171C40.9279 43.4059 41.2633 43.1842 41.5908 42.9519L41.0124 42.1361C40.7026 42.3558 40.3853 42.5656 40.0606 42.7655L40.5848 43.6171ZM40.812 42.4427C40.7557 42.7147 40.6946 42.9817 40.6285 43.2437L41.5982 43.4881C41.6678 43.2119 41.7322 42.931 41.7913 42.6453L40.812 42.4427ZM39.5253 46.3138C39.284 46.8098 39.0182 47.2809 38.7282 47.7273L39.5667 48.2721C39.8799 47.7901 40.1658 47.2831 40.4245 46.7514L39.5253 46.3138ZM36.6262 50.176C36.4252 50.3545 36.2176 50.5267 36.0033 50.6928L36.6159 51.4832C36.8476 51.3036 37.0724 51.1172 37.2902 50.9238L36.6262 50.176ZM36.0048 50.6917C35.789 50.8577 35.5677 51.0162 35.341 51.1672L35.8953 51.9995C36.141 51.8359 36.3807 51.6641 36.6145 51.4843L36.0048 50.6917ZM32.4091 52.6038C31.9015 52.7775 31.3736 52.9253 30.8251 53.0469L31.0415 54.0232C31.6248 53.8939 32.1886 53.7362 32.7328 53.5499L32.4091 52.6038ZM27.5421 53.4527C27.2686 53.4629 26.9911 53.468 26.7096 53.468V54.468C27.0032 54.468 27.293 54.4627 27.5792 54.452L27.5421 53.4527ZM26.7096 53.468C26.353 53.468 26.0006 53.4613 25.6527 53.4481L25.6145 54.4473C25.9755 54.4611 26.3405 54.468 26.7096 54.468V53.468ZM21.4777 52.9264C20.7828 52.7724 20.1091 52.5858 19.4566 52.3665L19.1381 53.3144C19.8252 53.5453 20.533 53.7413 21.2614 53.9027L21.4777 52.9264ZM15.6773 50.589C15.3818 50.4044 15.0919 50.211 14.8075 50.0086L14.2277 50.8234C14.5284 51.0374 14.835 51.2419 15.1475 51.4371L15.6773 50.589ZM14.0731 50.187L13.6198 51.067L14.5088 51.525L14.9621 50.645L14.0731 50.187ZM11.8065 54.587L10.8998 56.347L11.7888 56.805L12.6954 55.045L11.8065 54.587ZM9.08647 59.867L8.17981 61.627L9.06878 62.085L9.97545 60.325L9.08647 59.867ZM6.36647 65.147L5.91314 66.027L6.80211 66.485L7.25545 65.605L6.36647 65.147ZM6.08513 66.6752C6.3242 66.8306 6.5678 66.9827 6.81591 67.1314L7.32998 66.2736C7.09213 66.1311 6.85884 65.9854 6.63012 65.8368L6.08513 66.6752ZM9.8739 68.6969C10.389 68.9212 10.919 69.1345 11.4638 69.3368L11.8119 68.3993C11.2837 68.2032 10.7708 67.9968 10.2732 67.7801L9.8739 68.6969ZM14.7232 70.3694C14.9959 70.4424 15.2716 70.5131 15.5504 70.5816L15.7889 69.6104C15.5167 69.5436 15.2476 69.4746 14.9817 69.4034L14.7232 70.3694ZM15.5424 70.5795C15.8584 70.6627 16.1758 70.7423 16.4946 70.8183L16.7266 69.8456C16.4153 69.7714 16.1054 69.6936 15.7969 69.6125L15.5424 70.5795ZM20.3493 71.5542C20.9931 71.6475 21.6421 71.7272 22.2965 71.7934L22.3971 70.7985C21.7569 70.7337 21.1221 70.6557 20.4928 70.5645L20.3493 71.5542ZM26.2097 72.0266C26.5351 72.0329 26.8618 72.036 27.1896 72.036V71.036C26.8682 71.036 26.548 71.0329 26.2291 71.0268L26.2097 72.0266ZM27.1896 72.036C27.5693 72.036 27.9466 72.0322 28.3216 72.0245L28.3013 71.0248C27.9332 71.0323 27.5626 71.036 27.1896 71.036V72.036ZM32.8405 71.7352C33.6001 71.6515 34.349 71.5504 35.0872 71.4318L34.9285 70.4444C34.2071 70.5604 33.4746 70.6593 32.7311 70.7412L32.8405 71.7352ZM39.522 70.4731C40.2582 70.2704 40.9822 70.0481 41.694 69.8059L41.3719 68.8592C40.6791 69.0949 39.974 69.3115 39.2566 69.5089L39.522 70.4731ZM45.8972 68.0772C46.2386 67.9107 46.5766 67.739 46.9113 67.562L46.4439 66.678C46.1188 66.8499 45.7904 67.0167 45.4588 67.1785L45.8972 68.0772ZM46.9093 67.5631C47.2205 67.4004 47.528 67.2336 47.8316 67.0628L47.3413 66.1913C47.0466 66.357 46.7482 66.5189 46.446 66.6769L46.9093 67.5631ZM51.3495 64.7744C51.912 64.3534 52.4582 63.9151 52.988 63.4594L52.336 62.7012C51.8234 63.1421 51.2949 63.5662 50.7503 63.9738L51.3495 64.7744ZM55.9775 60.5097C56.4396 59.9868 56.8854 59.4468 57.3148 58.8899L56.5228 58.2793C56.1069 58.8187 55.6754 59.3414 55.2282 59.8474L55.9775 60.5097ZM59.6566 55.4087C59.8324 55.1082 60.0044 54.8038 60.1726 54.4954L59.2947 54.0166C59.1312 54.3162 58.9642 54.6119 58.7934 54.9037L59.6566 55.4087ZM60.1705 54.4992C60.3598 54.1591 60.5436 53.8154 60.7217 53.468L59.8318 53.0118C59.6589 53.3491 59.4806 53.6827 59.2968 54.0128L60.1705 54.4992ZM62.5689 49.177C62.8271 48.4491 63.0642 47.7076 63.2801 46.9526L62.3186 46.6776C62.1083 47.413 61.8776 48.1347 61.6264 48.8427L62.5689 49.177ZM64.2989 42.402C64.4246 41.6446 64.5316 40.8753 64.6202 40.0943L63.6265 39.9817C63.5399 40.746 63.4352 41.4983 63.3124 42.2384L64.2989 42.402ZM64.9256 35.4513C64.9336 35.0661 64.9376 34.6783 64.9376 34.288H63.9376C63.9376 34.6714 63.9337 35.0523 63.9258 35.4304L64.9256 35.4513ZM64.9376 34.288C64.9376 33.9342 64.9344 33.583 64.9279 33.2345L63.9281 33.2532C63.9344 33.5954 63.9376 33.9403 63.9376 34.288H64.9376ZM64.6786 29.0282C64.6057 28.3176 64.5173 27.6194 64.4135 26.9338L63.4248 27.0835C63.5261 27.7529 63.6125 28.4351 63.6839 29.1303L64.6786 29.0282ZM63.5584 22.7947C63.3743 22.1036 63.1717 21.4274 62.9506 20.7662L62.0022 21.0833C62.2166 21.7243 62.4132 22.3806 62.5921 23.0521L63.5584 22.7947ZM61.3355 16.8463C61.1771 16.5281 61.0135 16.2142 60.8446 15.9046L59.9667 16.3834C60.1296 16.682 60.2874 16.9849 60.4403 17.292L61.3355 16.8463ZM60.8446 15.9046C60.6984 15.6366 60.549 15.3721 60.3964 15.111L59.5331 15.6157C59.6807 15.8681 59.8252 16.124 59.9667 16.3834L60.8446 15.9046ZM58.3643 12.0842C57.9913 11.5992 57.6044 11.1294 57.2035 10.675L56.4536 11.3365C56.8395 11.774 57.2121 12.2264 57.5716 12.6938L58.3643 12.0842ZM54.605 8.11004C54.1435 7.71388 53.668 7.33352 53.1784 6.96897L52.5812 7.77104C53.0523 8.12183 53.5098 8.48775 53.9536 8.86879L54.605 8.11004ZM50.1109 4.99256C49.8459 4.84567 49.5775 4.70253 49.3059 4.56315L48.8494 5.45284C49.1116 5.5874 49.3705 5.72553 49.6262 5.86722L50.1109 4.99256ZM49.3083 4.56439C49.0169 4.41286 48.7225 4.26587 48.4252 4.12342L47.9931 5.02528C48.2807 5.16303 48.5653 5.30514 48.847 5.4516L49.3083 4.56439ZM44.7676 2.64955C44.1493 2.44397 43.5201 2.25525 42.8799 2.08336L42.6206 3.04916C43.2422 3.21606 43.8527 3.39917 44.4521 3.59848L44.7676 2.64955ZM39.0295 1.2727C38.3893 1.17269 37.7397 1.08746 37.0805 1.01698L36.9742 2.01131C37.6177 2.08012 38.2513 2.16326 38.8751 2.26071L39.0295 1.2727ZM33.1628 0.773612C32.8378 0.767202 32.5108 0.763998 32.1816 0.763998V1.764C32.5043 1.764 32.8248 1.76714 33.1431 1.77342L33.1628 0.773612ZM33.7176 30.14C33.4213 30.14 33.1348 30.1266 32.8579 30.1001L32.7626 31.0956C33.0729 31.1253 33.3913 31.14 33.7176 31.14V30.14ZM29.7158 28.9862C29.4904 28.8259 29.2751 28.6484 29.07 28.4535L28.3813 29.1785C28.62 29.4053 28.8716 29.6129 29.1362 29.8011L29.7158 28.9862ZM29.0792 28.4624C28.874 28.2572 28.6872 28.041 28.5184 27.8139L27.7156 28.4101C27.9141 28.6773 28.133 28.9305 28.3721 29.1696L29.0792 28.4624ZM27.3472 24.6096C27.3196 24.3261 27.3056 24.0323 27.3056 23.728H26.3056C26.3056 24.0628 26.321 24.3891 26.3519 24.7067L27.3472 24.6096ZM27.3056 23.728C27.3056 23.4275 27.3192 23.1381 27.3462 22.8595L26.3508 22.7633C26.3206 23.0758 26.3056 23.3974 26.3056 23.728H27.3056ZM28.5079 19.7215C28.6768 19.5018 28.8641 19.2941 29.07 19.0985L28.3813 18.3735C28.1384 18.6042 27.9163 18.8504 27.7151 19.112L28.5079 19.7215ZM29.07 19.0985C29.2751 18.9036 29.4904 18.7261 29.7158 18.5658L29.1362 17.7509C28.8716 17.9391 28.62 18.1467 28.3813 18.3735L29.07 19.0985ZM32.8579 17.4519C33.1348 17.4254 33.4213 17.412 33.7176 17.412V16.412C33.3913 16.412 33.0729 16.4267 32.7626 16.4564L32.8579 17.4519ZM33.7176 17.412C34.0139 17.412 34.3005 17.4254 34.5774 17.4519L34.6727 16.4564C34.3624 16.4267 34.044 16.412 33.7176 16.412V17.412ZM37.7194 18.5658C37.9449 18.7261 38.1601 18.9036 38.3653 19.0985L39.054 18.3735C38.8153 18.1467 38.5636 17.9391 38.299 17.7509L37.7194 18.5658ZM38.3653 19.0985C38.5712 19.2941 38.7584 19.5018 38.9274 19.7215L39.7202 19.112C39.519 18.8504 39.2968 18.6042 39.054 18.3735L38.3653 19.0985ZM40.0891 22.8595C40.116 23.1381 40.1296 23.4275 40.1296 23.728H41.1296C41.1296 23.3974 41.1147 23.0758 41.0845 22.7633L40.0891 22.8595ZM40.1296 23.728C40.1296 24.0323 40.1157 24.3261 40.088 24.6096L41.0833 24.7067C41.1143 24.3891 41.1296 24.0628 41.1296 23.728H40.1296ZM38.9168 27.8139C38.7481 28.041 38.5613 28.2572 38.3561 28.4624L39.0632 29.1696C39.3023 28.9305 39.5212 28.6773 39.7196 28.4101L38.9168 27.8139ZM38.3653 28.4535C38.1601 28.6484 37.9449 28.8259 37.7194 28.9862L38.299 29.8011C38.5636 29.6129 38.8153 29.4053 39.054 29.1785L38.3653 28.4535ZM34.5774 30.1001C34.3005 30.1266 34.0139 30.14 33.7176 30.14V31.14C34.044 31.14 34.3624 31.1253 34.6727 31.0956L34.5774 30.1001Z" fill="url(#paint0_linear)"/>
    </g>
    <defs>
        <filter id="filter0_d" x="0.417603" y="0.764008" width="68.52" height="79.272" filterUnits="userSpaceOnUse" color-interpolation-filters="sRGB">
            <feFlood flood-opacity="0" result="BackgroundImageFix"/>
            <feColorMatrix in="SourceAlpha" type="matrix" values="0 0 0 0 0 0 0 0 0 0 0 0 0 0 0 0 0 0 127 0"/>
            <feOffset dy="4"/>
            <feGaussianBlur stdDeviation="2"/>
            <feColorMatrix type="matrix" values="0 0 0 0 0 0 0 0 0 0 0 0 0 0 0 0 0 0 0.25 0"/>
            <feBlend mode="normal" in2="BackgroundImageFix" result="effect1_dropShadow"/>
            <feBlend mode="normal" in="SourceGraphic" in2="effect1_dropShadow" result="shape"/>
        </filter>
        <linearGradient id="paint0_linear" x1="35.5" y1="-23" x2="35.5" y2="94" gradientUnits="userSpaceOnUse">
            <stop stop-color="#FFEE55"/>
            <stop offset="1" stop-color="white"/>
        </linearGradient>
    </defs>
</svg>
