<svg width="116" height="51" viewBox="0 0 116 51" fill="none" xmlns="http://www.w3.org/2000/svg">
    <g opacity="0.5" filter="url(#filter0_d)">
        <path d="M31.0768 3.088L30.8462 3.53161L30.8486 3.53285L31.0768 3.088ZM37.6848 9.584L38.1238 9.34457L38.1238 9.34457L37.6848 9.584ZM37.2928 31.816L36.856 31.5727L36.8539 31.5766L37.2928 31.816ZM29.6768 39.32L29.4452 38.8769L29.4431 38.878L29.6768 39.32ZM11.5888 41.056L11.7161 40.5724L11.7081 40.5704L11.5888 41.056ZM6.15684 38.816L5.71236 38.587L5.50534 38.9889L5.88435 39.2352L6.15684 38.816ZM10.9168 29.576L11.2067 29.1686L10.7366 28.8341L10.4724 29.347L10.9168 29.576ZM23.6288 29.968L23.9337 30.3643L23.9351 30.3632L23.6288 29.968ZM26.5408 24.984L27.0305 25.0853L27.2878 23.8414L26.2516 24.5761L26.5408 24.984ZM12.0928 25.6L11.866 26.0456L11.866 26.0456L12.0928 25.6ZM7.16484 21.176L6.74506 21.4476L6.74506 21.4476L7.16484 21.176ZM7.38884 7.4L6.97507 7.11923L6.97168 7.12437L7.38884 7.4ZM13.1568 2.584L12.9473 2.13002L12.9473 2.13002L13.1568 2.584ZM25.0288 16.976L25.3733 17.3386L25.3824 17.3296L25.0288 16.976ZM25.0288 11.096L25.3732 10.7335L25.3732 10.7335L25.0288 11.096ZM19.2048 11.096L19.5492 11.4585L19.5492 11.4585L19.2048 11.096ZM19.2048 16.976L18.8512 17.3297L18.8605 17.3385L19.2048 16.976ZM19.807 0.447176C19.5314 0.464247 19.3218 0.701516 19.3388 0.97713C19.3559 1.25274 19.5932 1.46233 19.8688 1.44526L19.807 0.447176ZM14.6078 2.52394C14.8669 2.4285 14.9996 2.14107 14.9042 1.88195C14.8087 1.62282 14.5213 1.49013 14.2622 1.58557L14.6078 2.52394ZM11.7822 2.72503C11.5416 2.86056 11.4564 3.16546 11.5919 3.40606C11.7274 3.64666 12.0323 3.73184 12.2729 3.59632L11.7822 2.72503ZM8.53439 6.70295C8.71002 6.48986 8.67966 6.17474 8.46657 5.9991C8.25348 5.82347 7.93836 5.85383 7.76272 6.06692L8.53439 6.70295ZM6.30042 8.26348C6.17276 8.50834 6.26777 8.81033 6.51263 8.938C6.75749 9.06566 7.05948 8.97065 7.18714 8.72579L6.30042 8.26348ZM5.86698 13.3958C5.8899 13.1206 5.68538 12.8789 5.41019 12.856C5.135 12.8331 4.89334 13.0376 4.87043 13.3128L5.86698 13.3958ZM4.86487 15.8146C4.88748 16.0898 5.12891 16.2946 5.40413 16.2719C5.67935 16.2493 5.88412 16.0079 5.86152 15.7327L4.86487 15.8146ZM7.03467 19.9522C6.90894 19.7063 6.60771 19.6089 6.36185 19.7347C6.11599 19.8604 6.0186 20.1616 6.14433 20.4075L7.03467 19.9522ZM7.41593 22.3934C7.58529 22.6116 7.8994 22.6511 8.1175 22.4817C8.33561 22.3123 8.37512 21.9982 8.20576 21.7801L7.41593 22.3934ZM11.382 24.6278C11.1471 24.4827 10.839 24.5555 10.6938 24.7904C10.5487 25.0253 10.6215 25.3334 10.8564 25.4786L11.382 24.6278ZM12.9483 26.5436C13.2036 26.6489 13.4959 26.5273 13.6012 26.272C13.7065 26.0168 13.5849 25.7244 13.3296 25.6191L12.9483 26.5436ZM17.6422 26.628C17.3668 26.6079 17.1273 26.815 17.1073 27.0904C17.0872 27.3658 17.2943 27.6053 17.5697 27.6253L17.6422 26.628ZM20.1618 27.618C20.4373 27.5978 20.6442 27.3583 20.6241 27.0829C20.6039 26.8075 20.3644 26.6005 20.0889 26.6206L20.1618 27.618ZM25.1412 25.2598C24.8973 25.3893 24.8045 25.6919 24.9339 25.9359C25.0633 26.1798 25.366 26.2726 25.6099 26.1432L25.1412 25.2598ZM25.8214 25.7927C25.7417 26.0571 25.8913 26.3361 26.1557 26.4158C26.4201 26.4956 26.6991 26.3459 26.7788 26.0816L25.8214 25.7927ZM24.72 29.666C24.9136 29.4691 24.9109 29.1525 24.714 28.9589C24.517 28.7653 24.2005 28.768 24.0069 28.965L24.72 29.666ZM22.555 30.084C22.3153 30.2213 22.2324 30.5268 22.3696 30.7664C22.5069 31.006 22.8124 31.089 23.052 30.9518L22.555 30.084ZM19.0593 32.1091C19.3346 32.0878 19.5405 31.8473 19.5192 31.572C19.4978 31.2966 19.2573 31.0908 18.982 31.1121L19.0593 32.1091ZM16.8143 31.1011C16.5391 31.0794 16.2982 31.2849 16.2765 31.5601C16.2547 31.8354 16.4602 32.0762 16.7355 32.098L16.8143 31.1011ZM11.7417 30.6797C11.9842 30.8117 12.2879 30.7221 12.4198 30.4795C12.5518 30.237 12.4622 29.9333 12.2196 29.8014L11.7417 30.6797ZM10.0757 30.117C9.94923 30.3625 10.0457 30.664 10.2912 30.7905C10.5367 30.9169 10.8382 30.8205 10.9647 30.575L10.0757 30.117ZM9.378 33.655C9.50446 33.4095 9.40797 33.108 9.16249 32.9815C8.91701 32.8551 8.61548 32.9515 8.48902 33.197L9.378 33.655ZM7.69569 34.737C7.56923 34.9825 7.66572 35.284 7.9112 35.4105C8.15668 35.5369 8.4582 35.4405 8.58466 35.195L7.69569 34.737ZM6.998 38.275C7.12446 38.0295 7.02797 37.728 6.78249 37.6015C6.53701 37.4751 6.23548 37.5715 6.10902 37.817L6.998 38.275ZM6.75842 39.7594C7.00007 39.8931 7.3043 39.8055 7.43793 39.5638C7.57157 39.3222 7.484 39.0179 7.24235 38.8843L6.75842 39.7594ZM10.7781 40.3214C10.5129 40.2443 10.2355 40.3967 10.1583 40.6619C10.0812 40.927 10.2336 41.2045 10.4988 41.2816L10.7781 40.3214ZM12.5849 41.8075C12.8549 41.8653 13.1207 41.6934 13.1786 41.4234C13.2364 41.1534 13.0645 40.8876 12.7945 40.8297L12.5849 41.8075ZM17.1968 41.3744C16.9208 41.3637 16.6884 41.5786 16.6776 41.8545C16.6668 42.1305 16.8818 42.3629 17.1577 42.3737L17.1968 41.3744ZM19.3056 42.3808C19.5816 42.3723 19.7985 42.1416 19.79 41.8656C19.7814 41.5896 19.5508 41.3727 19.2748 41.3813L19.3056 42.3808ZM23.1064 41.0006C22.8343 41.048 22.6522 41.3069 22.6995 41.579C22.7468 41.851 23.0057 42.0332 23.2778 41.9858L23.1064 41.0006ZM25.2351 41.5632C25.5024 41.4938 25.6628 41.2208 25.5933 40.9535C25.5238 40.6863 25.2509 40.5259 24.9836 40.5954L25.2351 41.5632ZM28.5868 39.3044C28.3367 39.4214 28.2288 39.719 28.3458 39.9691C28.4628 40.2193 28.7605 40.3271 29.0106 40.2101L28.5868 39.3044ZM30.7206 39.3144C30.9591 39.1752 31.0396 38.869 30.9005 38.6305C30.7613 38.392 30.4551 38.3115 30.2166 38.4507L30.7206 39.3144ZM33.0622 36.3915C32.8559 36.5752 32.8375 36.8912 33.0211 37.0975C33.2048 37.3037 33.5208 37.3221 33.7271 37.1385L33.0622 36.3915ZM35.0506 35.8325C35.237 35.6287 35.2229 35.3124 35.0191 35.126C34.8153 34.9397 34.499 34.9538 34.3127 35.1576L35.0506 35.8325ZM36.4143 32.3411C36.2712 32.5773 36.3467 32.8848 36.5828 33.0279C36.819 33.1709 37.1265 33.0955 37.2696 32.8593L36.4143 32.3411ZM38.2091 31.1434C38.3309 30.8955 38.2287 30.5959 37.9808 30.4741C37.733 30.3524 37.4334 30.4546 37.3116 30.7025L38.2091 31.1434ZM38.6884 27.0214C38.6165 27.288 38.7743 27.5624 39.0409 27.6343C39.3076 27.7063 39.582 27.5484 39.6539 27.2818L38.6884 27.0214ZM40.1031 25.2731C40.1519 25.0013 39.9712 24.7414 39.6994 24.6925C39.4276 24.6437 39.1677 24.8244 39.1189 25.0962L40.1031 25.2731ZM39.5213 21.1607C39.5126 21.4367 39.7293 21.6675 40.0053 21.6762C40.2813 21.6849 40.5121 21.4682 40.5208 21.1922L39.5213 21.1607ZM40.5239 19.2406C40.5161 18.9645 40.286 18.7471 40.01 18.7549C39.7339 18.7627 39.5165 18.9928 39.5243 19.2688L40.5239 19.2406ZM39.1935 15.7023C39.2384 15.9748 39.4956 16.1593 39.7681 16.1145C40.0405 16.0697 40.2251 15.8125 40.1803 15.54L39.1935 15.7023ZM39.8033 13.7118C39.7362 13.4439 39.4646 13.2812 39.1968 13.3483C38.9289 13.4154 38.7662 13.687 38.8333 13.9548L39.8033 13.7118ZM37.6477 10.6119C37.7662 10.8613 38.0645 10.9675 38.3139 10.849C38.5633 10.7305 38.6694 10.4322 38.5509 10.1828L37.6477 10.6119ZM37.7219 8.64511C37.5789 8.40884 37.2715 8.33319 37.0352 8.47613C36.799 8.61907 36.7233 8.92648 36.8663 9.16275L37.7219 8.64511ZM35.0544 6.7293C35.2406 6.93323 35.5568 6.94761 35.7608 6.76142C35.9647 6.57523 35.9791 6.25897 35.7929 6.05504L35.0544 6.7293ZM34.6403 4.91716C34.4339 4.73367 34.1179 4.7522 33.9344 4.95856C33.7509 5.16492 33.7694 5.48096 33.9758 5.66446L34.6403 4.91716ZM31.5164 3.89601C31.7557 4.03377 32.0614 3.95144 32.1992 3.71211C32.3369 3.47279 32.2546 3.1671 32.0153 3.02934L31.5164 3.89601ZM30.5226 2.26042C30.2716 2.14517 29.9748 2.25518 29.8595 2.50612C29.7443 2.75706 29.8543 3.05392 30.1052 3.16917L30.5226 2.26042ZM26.989 2.07684C27.2567 2.14466 27.5287 1.98264 27.5965 1.71496C27.6643 1.44727 27.5023 1.17529 27.2346 1.10747L26.989 2.07684ZM25.5333 0.749731C25.2611 0.703656 25.003 0.887025 24.9569 1.1593C24.9108 1.43157 25.0942 1.68964 25.3665 1.73571L25.5333 0.749731ZM22.0556 1.41634C22.3316 1.42459 22.562 1.20751 22.5703 0.931495C22.5785 0.655476 22.3615 0.425033 22.0854 0.416788L22.0556 1.41634ZM21.6352 17.5177C21.3603 17.4914 21.1161 17.6929 21.0898 17.9678C21.0635 18.2427 21.265 18.4868 21.5399 18.5131L21.6352 17.5177ZM19.3236 17.7204C19.5486 17.8805 19.8608 17.8278 20.0209 17.6028C20.1809 17.3778 20.1282 17.0656 19.9032 16.9055L19.3236 17.7204ZM19.2512 16.2672C19.0866 16.0455 18.7734 15.9993 18.5517 16.1639C18.33 16.3286 18.2838 16.6417 18.4484 16.8634L19.2512 16.2672ZM17.6128 14.5991C17.6397 14.874 17.8842 15.075 18.159 15.0482C18.4339 15.0214 18.6349 14.7769 18.6081 14.5021L17.6128 14.5991ZM18.6075 13.5214C18.6341 13.2466 18.4328 13.0022 18.158 12.9756C17.8831 12.9491 17.6387 13.1504 17.6122 13.4252L18.6075 13.5214ZM18.4502 11.1884C18.2819 11.4073 18.3229 11.7212 18.5418 11.8895C18.7608 12.0578 19.0747 12.0168 19.243 11.7979L18.4502 11.1884ZM19.9032 11.1665C20.1282 11.0064 20.1809 10.6942 20.0209 10.4692C19.8608 10.2442 19.5486 10.1915 19.3236 10.3516L19.9032 11.1665ZM21.5399 9.55886C21.265 9.58517 21.0635 9.82934 21.0898 10.1042C21.1161 10.3791 21.3603 10.5806 21.6352 10.5543L21.5399 9.55886ZM22.5985 10.5543C22.8734 10.5806 23.1176 10.3791 23.1439 10.1042C23.1702 9.82934 22.9687 9.58517 22.6938 9.55886L22.5985 10.5543ZM24.9101 10.3516C24.6851 10.1915 24.3729 10.2442 24.2128 10.4692C24.0528 10.6942 24.1054 11.0064 24.3305 11.1665L24.9101 10.3516ZM24.9907 11.7979C25.159 12.0168 25.4729 12.0578 25.6918 11.8895C25.9108 11.7212 25.9518 11.4073 25.7835 11.1884L24.9907 11.7979ZM26.6215 13.4252C26.595 13.1504 26.3506 12.9491 26.0757 12.9756C25.8009 13.0022 25.5996 13.2466 25.6262 13.5214L26.6215 13.4252ZM25.6256 14.5021C25.5988 14.7769 25.7998 15.0214 26.0747 15.0482C26.3495 15.075 26.594 14.874 26.6208 14.5991L25.6256 14.5021ZM25.7853 16.8634C25.9499 16.6417 25.9037 16.3285 25.682 16.1639C25.4603 15.9993 25.1471 16.0455 24.9825 16.2672L25.7853 16.8634ZM24.3305 16.9055C24.1054 17.0656 24.0528 17.3778 24.2128 17.6028C24.3729 17.8278 24.6851 17.8805 24.9101 17.7204L24.3305 16.9055ZM22.6938 18.5131C22.9687 18.4868 23.1702 18.2427 23.1439 17.9678C23.1176 17.6929 22.8734 17.4914 22.5985 17.5177L22.6938 18.5131ZM21.2208 0.403999C20.7433 0.403999 20.272 0.418374 19.807 0.447176L19.8688 1.44526C20.3127 1.41777 20.7633 1.404 21.2208 1.404V0.403999ZM14.2622 1.58557C13.816 1.74991 13.3777 1.93139 12.9473 2.13002L13.3664 3.03798C13.7726 2.8505 14.1864 2.67915 14.6078 2.52394L14.2622 1.58557ZM12.9473 2.13002C12.5461 2.31522 12.1576 2.51354 11.7822 2.72503L12.2729 3.59632C12.6244 3.39837 12.9888 3.21223 13.3664 3.03798L12.9473 2.13002ZM7.76272 6.06692C7.4852 6.40363 7.22266 6.75443 6.97511 7.11925L7.80258 7.68075C8.0329 7.34133 8.27684 7.01542 8.53439 6.70295L7.76272 6.06692ZM6.97168 7.12437C6.72727 7.49428 6.5035 7.87399 6.30042 8.26348L7.18714 8.72579C7.37413 8.36715 7.58039 8.01711 7.80601 7.67563L6.97168 7.12437ZM4.87043 13.3128C4.83467 13.7424 4.81684 14.1794 4.81684 14.624H5.81684C5.81684 14.2062 5.8336 13.7968 5.86698 13.3958L4.87043 13.3128ZM4.81684 14.624C4.81684 15.0274 4.83282 15.4243 4.86487 15.8146L5.86152 15.7327C5.83177 15.3706 5.81684 15.001 5.81684 14.624H4.81684ZM6.14433 20.4075C6.32607 20.7629 6.52634 21.1096 6.74506 21.4476L7.58463 20.9044C7.38413 20.5945 7.20083 20.2771 7.03467 19.9522L6.14433 20.4075ZM6.74506 21.4476C6.95678 21.7748 7.18039 22.0901 7.41593 22.3934L8.20576 21.7801C7.98809 21.4998 7.78104 21.2079 7.58463 20.9044L6.74506 21.4476ZM10.8564 25.4786C11.182 25.6797 11.5185 25.8687 11.866 26.0456L12.3197 25.1544C11.9962 24.9897 11.6836 24.8142 11.382 24.6278L10.8564 25.4786ZM11.866 26.0456C12.2217 26.2267 12.5825 26.3927 12.9483 26.5436L13.3296 25.6191C12.9886 25.4785 12.652 25.3236 12.3197 25.1544L11.866 26.0456ZM17.5697 27.6253C17.9612 27.6538 18.3569 27.668 18.7568 27.668V26.668C18.3806 26.668 18.0091 26.6546 17.6422 26.628L17.5697 27.6253ZM18.7568 27.668C19.2366 27.668 19.705 27.6514 20.1618 27.618L20.0889 26.6206C19.6576 26.6522 19.2136 26.668 18.7568 26.668V27.668ZM25.6099 26.1432C26.0348 25.9178 26.4415 25.6674 26.8301 25.3919L26.2516 24.5761C25.8986 24.8265 25.5285 25.0544 25.1412 25.2598L25.6099 26.1432ZM26.0512 24.8827C25.9859 25.1983 25.9093 25.5016 25.8214 25.7927L26.7788 26.0816C26.8756 25.7606 26.9595 25.4285 27.0305 25.0853L26.0512 24.8827ZM24.0069 28.965C23.7939 29.1817 23.5658 29.3843 23.3226 29.5728L23.9351 30.3632C24.2135 30.1475 24.4752 29.9151 24.72 29.666L24.0069 28.965ZM23.324 29.5717C23.0802 29.7592 22.8239 29.93 22.555 30.084L23.052 30.9518C23.3599 30.7754 23.6538 30.5796 23.9337 30.3643L23.324 29.5717ZM18.982 31.1121C18.6741 31.136 18.3564 31.148 18.0288 31.148V32.148C18.3808 32.148 18.7243 32.1351 19.0593 32.1091L18.982 31.1121ZM18.0288 31.148C17.6134 31.148 17.2086 31.1323 16.8143 31.1011L16.7355 32.098C17.1571 32.1314 17.5883 32.148 18.0288 32.148V31.148ZM12.2196 29.8014C11.8693 29.6108 11.5317 29.3999 11.2067 29.1686L10.627 29.9834C10.9846 30.2379 11.3562 30.47 11.7417 30.6797L12.2196 29.8014ZM10.4724 29.347L10.0757 30.117L10.9647 30.575L11.3613 29.805L10.4724 29.347ZM8.48902 33.197L7.69569 34.737L8.58466 35.195L9.378 33.655L8.48902 33.197ZM6.10902 37.817L5.71236 38.587L6.60133 39.045L6.998 38.275L6.10902 37.817ZM5.88435 39.2352C6.16536 39.4179 6.45674 39.5926 6.75842 39.7594L7.24235 38.8843C6.9608 38.7286 6.68982 38.5661 6.42934 38.3968L5.88435 39.2352ZM10.4988 41.2816C10.8152 41.3737 11.1388 41.4603 11.4696 41.5416L11.7081 40.5704C11.3905 40.4924 11.0805 40.4094 10.7781 40.3214L10.4988 41.2816ZM11.4616 41.5395C11.8328 41.6372 12.2072 41.7265 12.5849 41.8075L12.7945 40.8297C12.4317 40.7519 12.0723 40.6662 11.7161 40.5725L11.4616 41.5395ZM17.1577 42.3737C17.5386 42.3886 17.9223 42.396 18.3088 42.396V41.396C17.9351 41.396 17.5644 41.3888 17.1968 41.3744L17.1577 42.3737ZM18.3088 42.396C18.6441 42.396 18.9764 42.3909 19.3056 42.3808L19.2748 41.3813C18.956 41.3911 18.6341 41.396 18.3088 41.396V42.396ZM23.2778 41.9858C23.9452 41.8697 24.5976 41.7289 25.2351 41.5632L24.9836 40.5954C24.3734 40.7539 23.7476 40.8891 23.1064 41.0006L23.2778 41.9858ZM29.0106 40.2101C29.3149 40.0677 29.6149 39.9183 29.9106 39.762L29.4431 38.878C29.1619 39.0267 28.8764 39.1688 28.5868 39.3044L29.0106 40.2101ZM29.9085 39.7631C30.1842 39.619 30.4549 39.4694 30.7206 39.3144L30.2166 38.4507C29.9645 38.5978 29.7074 38.7399 29.4452 38.8769L29.9085 39.7631ZM33.7271 37.1385C34.1902 36.7262 34.6314 36.2908 35.0506 35.8325L34.3127 35.1576C33.9165 35.5907 33.4997 36.002 33.0622 36.3915L33.7271 37.1385ZM37.2696 32.8593C37.4287 32.5965 37.5828 32.3285 37.7318 32.0554L36.8539 31.5766C36.7121 31.8366 36.5655 32.0914 36.4143 32.3411L37.2696 32.8593ZM37.7297 32.0592C37.897 31.7588 38.0568 31.4535 38.2091 31.1434L37.3116 30.7025C37.1668 30.9973 37.0149 31.2873 36.856 31.5728L37.7297 32.0592ZM39.6539 27.2818C39.8301 26.6287 39.9798 25.9591 40.1031 25.2731L39.1189 25.0962C39.0004 25.755 38.8569 26.3967 38.6884 27.0214L39.6539 27.2818ZM40.5208 21.1922C40.5315 20.8542 40.5368 20.5127 40.5368 20.168H39.5368C39.5368 20.5024 39.5317 20.8333 39.5213 21.1607L40.5208 21.1922ZM40.5368 20.168C40.5368 19.8554 40.5325 19.5463 40.5239 19.2406L39.5243 19.2688C39.5327 19.5649 39.5368 19.8646 39.5368 20.168H40.5368ZM40.1803 15.54C40.0771 14.9129 39.9515 14.3034 39.8033 13.7118L38.8333 13.9548C38.9745 14.5186 39.0947 15.1011 39.1935 15.7023L40.1803 15.54ZM38.5509 10.1828C38.4155 9.89779 38.2731 9.61838 38.1238 9.34457L37.2459 9.82342C37.3862 10.0807 37.5202 10.3435 37.6477 10.6119L38.5509 10.1828ZM38.1238 9.34457C37.9941 9.10684 37.8601 8.87368 37.7219 8.64511L36.8663 9.16275C36.9967 9.37837 37.1233 9.59859 37.2459 9.82342L38.1238 9.34457ZM35.7929 6.05504C35.4275 5.65488 35.0433 5.27556 34.6403 4.91716L33.9758 5.66446C34.3528 5.9997 34.7123 6.35462 35.0544 6.7293L35.7929 6.05504ZM32.0153 3.02934C31.7829 2.89557 31.5462 2.76684 31.3051 2.64315L30.8486 3.53285C31.0755 3.64929 31.2981 3.77035 31.5164 3.89601L32.0153 3.02934ZM31.3075 2.64439C31.0498 2.51037 30.7881 2.38238 30.5226 2.26042L30.1052 3.16917C30.3561 3.28436 30.603 3.40517 30.8462 3.53161L31.3075 2.64439ZM27.2346 1.10747C26.6808 0.967163 26.1137 0.847948 25.5333 0.749731L25.3665 1.73571C25.9213 1.8296 26.4621 1.94334 26.989 2.07684L27.2346 1.10747ZM22.0854 0.416788C21.7999 0.408259 21.5117 0.403999 21.2208 0.403999V1.404C21.502 1.404 21.7802 1.40812 22.0556 1.41634L22.0854 0.416788ZM22.1168 17.54C21.9503 17.54 21.7898 17.5325 21.6352 17.5177L21.5399 18.5131C21.7278 18.5311 21.9202 18.54 22.1168 18.54V17.54ZM19.9032 16.9055C19.7799 16.8178 19.6619 16.7205 19.5492 16.6135L18.8605 17.3385C19.0067 17.4774 19.1611 17.6048 19.3236 17.7204L19.9032 16.9055ZM19.5584 16.6224C19.4457 16.5098 19.3435 16.3914 19.2512 16.2672L18.4484 16.8634C18.5704 17.0277 18.7048 17.183 18.8513 17.3296L19.5584 16.6224ZM18.6081 14.5021C18.5927 14.3438 18.5848 14.1791 18.5848 14.008H17.5848C17.5848 14.2097 17.5941 14.4068 17.6128 14.5991L18.6081 14.5021ZM18.5848 14.008C18.5848 13.839 18.5925 13.6769 18.6075 13.5214L17.6122 13.4252C17.5939 13.6146 17.5848 13.8089 17.5848 14.008H18.5848ZM19.243 11.7979C19.3348 11.6784 19.4368 11.5653 19.5492 11.4585L18.8605 10.7335C18.7111 10.8754 18.5743 11.027 18.4502 11.1884L19.243 11.7979ZM19.5492 11.4585C19.6619 11.3515 19.7799 11.2542 19.9032 11.1665L19.3236 10.3516C19.1611 10.4672 19.0067 10.5946 18.8605 10.7335L19.5492 11.4585ZM21.6352 10.5543C21.7898 10.5395 21.9503 10.532 22.1168 10.532V9.532C21.9202 9.532 21.7278 9.54087 21.5399 9.55886L21.6352 10.5543ZM22.1168 10.532C22.2834 10.532 22.4439 10.5395 22.5985 10.5543L22.6938 9.55886C22.5059 9.54087 22.3135 9.532 22.1168 9.532V10.532ZM24.3305 11.1665C24.4538 11.2542 24.5718 11.3515 24.6845 11.4585L25.3732 10.7335C25.227 10.5946 25.0726 10.4672 24.9101 10.3516L24.3305 11.1665ZM24.6845 11.4585C24.7969 11.5653 24.8989 11.6784 24.9907 11.7979L25.7835 11.1884C25.6594 11.027 25.5226 10.8754 25.3732 10.7335L24.6845 11.4585ZM25.6262 13.5214C25.6412 13.6769 25.6488 13.839 25.6488 14.008H26.6488C26.6488 13.8089 26.6398 13.6146 26.6215 13.4252L25.6262 13.5214ZM25.6488 14.008C25.6488 14.1791 25.641 14.3438 25.6256 14.5021L26.6208 14.5991C26.6396 14.4068 26.6488 14.2097 26.6488 14.008H25.6488ZM24.9825 16.2672C24.8902 16.3914 24.7879 16.5098 24.6753 16.6224L25.3824 17.3296C25.5289 17.183 25.6633 17.0276 25.7853 16.8634L24.9825 16.2672ZM24.6845 16.6135C24.5718 16.7205 24.4538 16.8178 24.3305 16.9055L24.9101 17.7204C25.0726 17.6048 25.227 17.4774 25.3732 17.3385L24.6845 16.6135ZM22.5985 17.5177C22.4439 17.5325 22.2834 17.54 22.1168 17.54V18.54C22.3135 18.54 22.5059 18.5311 22.6938 18.5131L22.5985 17.5177ZM66.4203 3.088L66.1896 3.53161L66.192 3.53285L66.4203 3.088ZM73.0283 9.584L73.4672 9.34457L73.4672 9.34457L73.0283 9.584ZM72.6363 31.816L72.1994 31.5727L72.1973 31.5766L72.6363 31.816ZM65.0203 39.32L64.7887 38.8769L64.7866 38.878L65.0203 39.32ZM46.9323 41.056L47.0595 40.5724L47.0515 40.5704L46.9323 41.056ZM41.5003 38.816L41.0558 38.587L40.8488 38.9889L41.2278 39.2352L41.5003 38.816ZM46.2603 29.576L46.5502 29.1686L46.08 28.8341L45.8158 29.347L46.2603 29.576ZM58.9723 29.968L59.2771 30.3643L59.2786 30.3632L58.9723 29.968ZM61.8843 24.984L62.3739 25.0853L62.6313 23.8414L61.5951 24.5761L61.8843 24.984ZM47.4363 25.6L47.2094 26.0456L47.2094 26.0456L47.4363 25.6ZM42.5083 21.176L42.0885 21.4476L42.0885 21.4476L42.5083 21.176ZM42.7323 7.4L42.3185 7.11923L42.3151 7.12437L42.7323 7.4ZM48.5003 2.584L48.2908 2.13002L48.2908 2.13002L48.5003 2.584ZM60.3723 16.976L60.7168 17.3386L60.7258 17.3296L60.3723 16.976ZM60.3723 11.096L60.7167 10.7335L60.7167 10.7335L60.3723 11.096ZM54.5483 11.096L54.8927 11.4585L54.8927 11.4585L54.5483 11.096ZM54.5483 16.976L54.1946 17.3297L54.2039 17.3385L54.5483 16.976ZM55.1504 0.447176C54.8748 0.464247 54.6652 0.701516 54.6823 0.97713C54.6994 1.25274 54.9366 1.46233 55.2122 1.44526L55.1504 0.447176ZM49.9512 2.52394C50.2104 2.4285 50.343 2.14107 50.2476 1.88195C50.1522 1.62282 49.8647 1.49013 49.6056 1.58557L49.9512 2.52394ZM47.1256 2.72503C46.885 2.86056 46.7998 3.16546 46.9353 3.40606C47.0709 3.64666 47.3758 3.73184 47.6164 3.59632L47.1256 2.72503ZM43.8778 6.70295C44.0535 6.48986 44.0231 6.17474 43.81 5.9991C43.5969 5.82347 43.2818 5.85383 43.1062 6.06692L43.8778 6.70295ZM41.6439 8.26348C41.5162 8.50834 41.6112 8.81033 41.8561 8.938C42.1009 9.06566 42.4029 8.97065 42.5306 8.72579L41.6439 8.26348ZM41.2104 13.3958C41.2333 13.1206 41.0288 12.8789 40.7536 12.856C40.4784 12.8331 40.2368 13.0376 40.2139 13.3128L41.2104 13.3958ZM40.2083 15.8146C40.2309 16.0898 40.4724 16.2946 40.7476 16.2719C41.0228 16.2493 41.2276 16.0079 41.205 15.7327L40.2083 15.8146ZM42.3781 19.9522C42.2524 19.7063 41.9511 19.6089 41.7053 19.7347C41.4594 19.8604 41.362 20.1616 41.4878 20.4075L42.3781 19.9522ZM42.7594 22.3934C42.9287 22.6116 43.2428 22.6511 43.4609 22.4817C43.679 22.3123 43.7186 21.9982 43.5492 21.7801L42.7594 22.3934ZM46.7254 24.6278C46.4905 24.4827 46.1824 24.5555 46.0373 24.7904C45.8922 25.0253 45.9649 25.3334 46.1999 25.4786L46.7254 24.6278ZM48.2918 26.5436C48.547 26.6489 48.8393 26.5273 48.9446 26.272C49.0499 26.0168 48.9284 25.7244 48.6731 25.6191L48.2918 26.5436ZM52.9856 26.628C52.7102 26.6079 52.4707 26.815 52.4507 27.0904C52.4307 27.3658 52.6377 27.6053 52.9131 27.6253L52.9856 26.628ZM55.5053 27.618C55.7807 27.5978 55.9876 27.3583 55.9675 27.0829C55.9474 26.8075 55.7078 26.6005 55.4324 26.6206L55.5053 27.618ZM60.4847 25.2598C60.2407 25.3893 60.1479 25.6919 60.2773 25.9359C60.4067 26.1798 60.7094 26.2726 60.9533 26.1432L60.4847 25.2598ZM61.1649 25.7927C61.0851 26.0571 61.2348 26.3361 61.4991 26.4158C61.7635 26.4956 62.0425 26.3459 62.1222 26.0816L61.1649 25.7927ZM60.0635 29.666C60.257 29.4691 60.2543 29.1525 60.0574 28.9589C59.8605 28.7653 59.5439 28.768 59.3503 28.965L60.0635 29.666ZM57.8984 30.084C57.6588 30.2213 57.5758 30.5268 57.713 30.7664C57.8503 31.006 58.1558 31.089 58.3954 30.9518L57.8984 30.084ZM54.4027 32.1091C54.6781 32.0878 54.8839 31.8473 54.8626 31.572C54.8412 31.2966 54.6008 31.0908 54.3254 31.1121L54.4027 32.1091ZM52.1578 31.1011C51.8825 31.0794 51.6417 31.2849 51.6199 31.5601C51.5981 31.8354 51.8036 32.0762 52.0789 32.098L52.1578 31.1011ZM47.0851 30.6797C47.3277 30.8117 47.6313 30.7221 47.7633 30.4795C47.8953 30.237 47.8056 29.9333 47.5631 29.8014L47.0851 30.6797ZM45.4191 30.117C45.2927 30.3625 45.3892 30.664 45.6346 30.7905C45.8801 30.9169 46.1816 30.8205 46.3081 30.575L45.4191 30.117ZM44.7214 33.655C44.8479 33.4095 44.7514 33.108 44.5059 32.9815C44.2604 32.8551 43.9589 32.9515 43.8325 33.197L44.7214 33.655ZM43.0391 34.737C42.9127 34.9825 43.0092 35.284 43.2546 35.4105C43.5001 35.5369 43.8016 35.4405 43.9281 35.195L43.0391 34.737ZM42.3414 38.275C42.4679 38.0295 42.3714 37.728 42.1259 37.6015C41.8804 37.4751 41.5789 37.5715 41.4525 37.817L42.3414 38.275ZM42.1019 39.7594C42.3435 39.8931 42.6477 39.8055 42.7814 39.5638C42.915 39.3222 42.8274 39.0179 42.5858 38.8843L42.1019 39.7594ZM46.1215 40.3214C45.8564 40.2443 45.5789 40.3967 45.5018 40.6619C45.4246 40.927 45.5771 41.2045 45.8422 41.2816L46.1215 40.3214ZM47.9283 41.8075C48.1983 41.8653 48.4641 41.6934 48.522 41.4234C48.5799 41.1534 48.4079 40.8876 48.1379 40.8297L47.9283 41.8075ZM52.5402 41.3744C52.2643 41.3637 52.0318 41.5786 52.0211 41.8545C52.0103 42.1305 52.2252 42.3629 52.5011 42.3737L52.5402 41.3744ZM54.649 42.3808C54.925 42.3723 55.1419 42.1416 55.1334 41.8656C55.1249 41.5896 54.8942 41.3727 54.6182 41.3813L54.649 42.3808ZM58.4498 41.0006C58.1778 41.048 57.9956 41.3069 58.0429 41.579C58.0903 41.851 58.3492 42.0332 58.6212 41.9858L58.4498 41.0006ZM60.5786 41.5632C60.8458 41.4938 61.0062 41.2208 60.9367 40.9535C60.8673 40.6863 60.5943 40.5259 60.3271 40.5954L60.5786 41.5632ZM63.9302 39.3044C63.6801 39.4214 63.5722 39.719 63.6893 39.9691C63.8063 40.2193 64.1039 40.3271 64.354 40.2101L63.9302 39.3044ZM66.064 39.3144C66.3025 39.1752 66.3831 38.869 66.2439 38.6305C66.1047 38.392 65.7986 38.3115 65.5601 38.4507L66.064 39.3144ZM68.4056 36.3915C68.1993 36.5752 68.181 36.8912 68.3646 37.0975C68.5482 37.3037 68.8642 37.3221 69.0705 37.1385L68.4056 36.3915ZM70.3941 35.8325C70.5804 35.6287 70.5663 35.3124 70.3625 35.126C70.1587 34.9397 69.8425 34.9538 69.6561 35.1576L70.3941 35.8325ZM71.7577 32.3411C71.6146 32.5773 71.6901 32.8848 71.9263 33.0279C72.1625 33.1709 72.4699 33.0955 72.613 32.8593L71.7577 32.3411ZM73.5526 31.1434C73.6743 30.8955 73.5721 30.5959 73.3243 30.4741C73.0764 30.3524 72.7768 30.4546 72.655 30.7025L73.5526 31.1434ZM74.0319 27.0214C73.9599 27.288 74.1178 27.5624 74.3844 27.6343C74.651 27.7063 74.9254 27.5484 74.9973 27.2818L74.0319 27.0214ZM75.4465 25.2731C75.4954 25.0013 75.3147 24.7414 75.0429 24.6925C74.7711 24.6437 74.5112 24.8244 74.4623 25.0962L75.4465 25.2731ZM74.8648 21.1607C74.856 21.4367 75.0727 21.6675 75.3487 21.6762C75.6247 21.6849 75.8555 21.4682 75.8643 21.1922L74.8648 21.1607ZM75.8673 19.2406C75.8595 18.9645 75.6294 18.7471 75.3534 18.7549C75.0774 18.7627 74.8599 18.9928 74.8677 19.2688L75.8673 19.2406ZM74.537 15.7023C74.5818 15.9748 74.839 16.1593 75.1115 16.1145C75.384 16.0697 75.5685 15.8125 75.5237 15.54L74.537 15.7023ZM75.1467 13.7118C75.0796 13.4439 74.8081 13.2812 74.5402 13.3483C74.2723 13.4154 74.1096 13.687 74.1767 13.9548L75.1467 13.7118ZM72.9911 10.6119C73.1096 10.8613 73.4079 10.9675 73.6573 10.849C73.9067 10.7305 74.0129 10.4322 73.8944 10.1828L72.9911 10.6119ZM73.0653 8.64511C72.9224 8.40884 72.6149 8.33319 72.3787 8.47613C72.1424 8.61907 72.0668 8.92648 72.2097 9.16275L73.0653 8.64511ZM70.3978 6.7293C70.584 6.93323 70.9003 6.94761 71.1042 6.76142C71.3081 6.57523 71.3225 6.25897 71.1363 6.05504L70.3978 6.7293ZM69.9837 4.91716C69.7773 4.73367 69.4613 4.7522 69.2778 4.95856C69.0943 5.16492 69.1128 5.48096 69.3192 5.66446L69.9837 4.91716ZM66.8598 3.89601C67.0992 4.03377 67.4048 3.95144 67.5426 3.71211C67.6804 3.47279 67.598 3.1671 67.3587 3.02934L66.8598 3.89601ZM65.866 2.26042C65.6151 2.14517 65.3182 2.25518 65.203 2.50612C65.0877 2.75706 65.1977 3.05392 65.4487 3.16917L65.866 2.26042ZM62.3325 2.07684C62.6001 2.14466 62.8721 1.98264 62.9399 1.71496C63.0078 1.44727 62.8457 1.17529 62.5781 1.10747L62.3325 2.07684ZM60.8768 0.749731C60.6045 0.703656 60.3464 0.887025 60.3004 1.1593C60.2543 1.43157 60.4376 1.68964 60.7099 1.73571L60.8768 0.749731ZM57.399 1.41634C57.675 1.42459 57.9055 1.20751 57.9137 0.931495C57.922 0.655476 57.7049 0.425033 57.4289 0.416788L57.399 1.41634ZM56.9786 17.5177C56.7037 17.4914 56.4596 17.6929 56.4332 17.9678C56.4069 18.2427 56.6084 18.4868 56.8833 18.5131L56.9786 17.5177ZM54.667 17.7204C54.8921 17.8805 55.2042 17.8278 55.3643 17.6028C55.5243 17.3778 55.4717 17.0656 55.2467 16.9055L54.667 17.7204ZM54.5947 16.2672C54.43 16.0455 54.1168 15.9993 53.8951 16.1639C53.6735 16.3286 53.6272 16.6417 53.7919 16.8634L54.5947 16.2672ZM52.9563 14.5991C52.9831 14.874 53.2276 15.075 53.5025 15.0482C53.7773 15.0214 53.9784 14.7769 53.9516 14.5021L52.9563 14.5991ZM53.951 13.5214C53.9775 13.2466 53.7763 13.0022 53.5014 12.9756C53.2265 12.9491 52.9822 13.1504 52.9556 13.4252L53.951 13.5214ZM53.7936 11.1884C53.6253 11.4073 53.6664 11.7212 53.8853 11.8895C54.1042 12.0578 54.4181 12.0168 54.5864 11.7979L53.7936 11.1884ZM55.2467 11.1665C55.4717 11.0064 55.5243 10.6942 55.3643 10.4692C55.2042 10.2442 54.8921 10.1915 54.667 10.3516L55.2467 11.1665ZM56.8833 9.55886C56.6084 9.58517 56.4069 9.82934 56.4332 10.1042C56.4596 10.3791 56.7037 10.5806 56.9786 10.5543L56.8833 9.55886ZM57.9419 10.5543C58.2168 10.5806 58.461 10.3791 58.4873 10.1042C58.5136 9.82934 58.3121 9.58517 58.0372 9.55886L57.9419 10.5543ZM60.2535 10.3516C60.0285 10.1915 59.7163 10.2442 59.5563 10.4692C59.3962 10.6942 59.4489 11.0064 59.6739 11.1665L60.2535 10.3516ZM60.3341 11.7979C60.5024 12.0168 60.8164 12.0578 61.0353 11.8895C61.2542 11.7212 61.2952 11.4073 61.1269 11.1884L60.3341 11.7979ZM61.965 13.4252C61.9384 13.1504 61.694 12.9491 61.4192 12.9756C61.1443 13.0022 60.943 13.2466 60.9696 13.5214L61.965 13.4252ZM60.969 14.5021C60.9422 14.7769 61.1433 15.0214 61.4181 15.0482C61.6929 15.075 61.9375 14.874 61.9643 14.5991L60.969 14.5021ZM61.1287 16.8634C61.2934 16.6417 61.2471 16.3285 61.0254 16.1639C60.8037 15.9993 60.4905 16.0455 60.3259 16.2672L61.1287 16.8634ZM59.6739 16.9055C59.4489 17.0656 59.3962 17.3778 59.5563 17.6028C59.7163 17.8278 60.0285 17.8805 60.2535 17.7204L59.6739 16.9055ZM58.0372 18.5131C58.3121 18.4868 58.5136 18.2427 58.4873 17.9678C58.461 17.6929 58.2168 17.4914 57.9419 17.5177L58.0372 18.5131ZM56.5643 0.403999C56.0867 0.403999 55.6154 0.418374 55.1504 0.447176L55.2122 1.44526C55.6561 1.41777 56.1068 1.404 56.5643 1.404V0.403999ZM49.6056 1.58557C49.1594 1.74991 48.7211 1.93139 48.2908 2.13002L48.7098 3.03798C49.116 2.8505 49.5298 2.67915 49.9512 2.52394L49.6056 1.58557ZM48.2908 2.13002C47.8895 2.31522 47.5011 2.51354 47.1256 2.72503L47.6164 3.59632C47.9678 3.39837 48.3323 3.21223 48.7098 3.03798L48.2908 2.13002ZM43.1062 6.06692C42.8286 6.40363 42.5661 6.75443 42.3185 7.11925L43.146 7.68075C43.3763 7.34133 43.6203 7.01542 43.8778 6.70295L43.1062 6.06692ZM42.3151 7.12437C42.0707 7.49428 41.8469 7.87399 41.6439 8.26348L42.5306 8.72579C42.7176 8.36715 42.9238 8.01711 43.1494 7.67563L42.3151 7.12437ZM40.2139 13.3128C40.1781 13.7424 40.1603 14.1794 40.1603 14.624H41.1603C41.1603 14.2062 41.177 13.7968 41.2104 13.3958L40.2139 13.3128ZM40.1603 14.624C40.1603 15.0274 40.1763 15.4243 40.2083 15.8146L41.205 15.7327C41.1752 15.3706 41.1603 15.001 41.1603 14.624H40.1603ZM41.4878 20.4075C41.6695 20.7629 41.8698 21.1096 42.0885 21.4476L42.9281 20.9044C42.7276 20.5945 42.5443 20.2771 42.3781 19.9522L41.4878 20.4075ZM42.0885 21.4476C42.3002 21.7748 42.5238 22.0901 42.7594 22.3934L43.5492 21.7801C43.3315 21.4998 43.1245 21.2079 42.9281 20.9044L42.0885 21.4476ZM46.1999 25.4786C46.5254 25.6797 46.8619 25.8687 47.2094 26.0456L47.6631 25.1544C47.3396 24.9897 47.0271 24.8142 46.7254 24.6278L46.1999 25.4786ZM47.2094 26.0456C47.5652 26.2267 47.9259 26.3927 48.2918 26.5436L48.6731 25.6191C48.332 25.4785 47.9954 25.3236 47.6631 25.1544L47.2094 26.0456ZM52.9131 27.6253C53.3046 27.6538 53.7004 27.668 54.1003 27.668V26.668C53.7241 26.668 53.3525 26.6546 52.9856 26.628L52.9131 27.6253ZM54.1003 27.668C54.5801 27.668 55.0484 27.6514 55.5053 27.618L55.4324 26.6206C55.001 26.6522 54.557 26.668 54.1003 26.668V27.668ZM60.9533 26.1432C61.3782 25.9178 61.785 25.6674 62.1735 25.3919L61.5951 24.5761C61.242 24.8265 60.872 25.0544 60.4847 25.2598L60.9533 26.1432ZM61.3947 24.8827C61.3294 25.1983 61.2527 25.5016 61.1649 25.7927L62.1222 26.0816C62.2191 25.7606 62.3029 25.4285 62.3739 25.0853L61.3947 24.8827ZM59.3503 28.965C59.1373 29.1817 58.9093 29.3843 58.666 29.5728L59.2786 30.3632C59.5569 30.1475 59.8186 29.9151 60.0635 29.666L59.3503 28.965ZM58.6674 29.5717C58.4236 29.7592 58.1673 29.93 57.8984 30.084L58.3954 30.9518C58.7033 30.7754 58.9973 30.5796 59.2771 30.3643L58.6674 29.5717ZM54.3254 31.1121C54.0175 31.136 53.6998 31.148 53.3723 31.148V32.148C53.7242 32.148 54.0678 32.1351 54.4027 32.1091L54.3254 31.1121ZM53.3723 31.148C52.9568 31.148 52.552 31.1323 52.1578 31.1011L52.0789 32.098C52.5006 32.1314 52.9317 32.148 53.3723 32.148V31.148ZM47.5631 29.8014C47.2128 29.6108 46.8752 29.3999 46.5502 29.1686L45.9704 29.9834C46.328 30.2379 46.6996 30.47 47.0851 30.6797L47.5631 29.8014ZM45.8158 29.347L45.4191 30.117L46.3081 30.575L46.7048 29.805L45.8158 29.347ZM43.8325 33.197L43.0391 34.737L43.9281 35.195L44.7214 33.655L43.8325 33.197ZM41.4525 37.817L41.0558 38.587L41.9448 39.045L42.3414 38.275L41.4525 37.817ZM41.2278 39.2352C41.5088 39.4179 41.8002 39.5926 42.1019 39.7594L42.5858 38.8843C42.3042 38.7286 42.0333 38.5661 41.7728 38.3968L41.2278 39.2352ZM45.8422 41.2816C46.1586 41.3737 46.4823 41.4603 46.813 41.5416L47.0515 40.5704C46.734 40.4924 46.424 40.4094 46.1215 40.3214L45.8422 41.2816ZM46.805 41.5395C47.1762 41.6372 47.5506 41.7265 47.9283 41.8075L48.1379 40.8297C47.7752 40.7519 47.4157 40.6662 47.0595 40.5725L46.805 41.5395ZM52.5011 42.3737C52.882 42.3886 53.2657 42.396 53.6523 42.396V41.396C53.2786 41.396 52.9079 41.3888 52.5402 41.3744L52.5011 42.3737ZM53.6523 42.396C53.9876 42.396 54.3198 42.3909 54.649 42.3808L54.6182 41.3813C54.2995 41.3911 53.9775 41.396 53.6523 41.396V42.396ZM58.6212 41.9858C59.2886 41.8697 59.9411 41.7289 60.5786 41.5632L60.3271 40.5954C59.7168 40.7539 59.0911 40.8891 58.4498 41.0006L58.6212 41.9858ZM64.354 40.2101C64.6583 40.0677 64.9583 39.9183 65.254 39.762L64.7866 38.878C64.5053 39.0267 64.2199 39.1688 63.9302 39.3044L64.354 40.2101ZM65.2519 39.7631C65.5276 39.619 65.7983 39.4694 66.064 39.3144L65.5601 38.4507C65.3079 38.5978 65.0508 38.7399 64.7887 38.8769L65.2519 39.7631ZM69.0705 37.1385C69.5337 36.7262 69.9749 36.2908 70.3941 35.8325L69.6561 35.1576C69.26 35.5907 68.8432 36.002 68.4056 36.3915L69.0705 37.1385ZM72.613 32.8593C72.7722 32.5965 72.9263 32.3285 73.0752 32.0554L72.1973 31.5766C72.0555 31.8366 71.909 32.0914 71.7577 32.3411L72.613 32.8593ZM73.0731 32.0592C73.2404 31.7588 73.4003 31.4535 73.5526 31.1434L72.655 30.7025C72.5102 30.9973 72.3584 31.2873 72.1994 31.5728L73.0731 32.0592ZM74.9973 27.2818C75.1735 26.6287 75.3232 25.9591 75.4465 25.2731L74.4623 25.0962C74.3439 25.755 74.2004 26.3967 74.0319 27.0214L74.9973 27.2818ZM75.8643 21.1922C75.8749 20.8542 75.8803 20.5127 75.8803 20.168H74.8803C74.8803 20.5024 74.8751 20.8333 74.8648 21.1607L75.8643 21.1922ZM75.8803 20.168C75.8803 19.8554 75.876 19.5463 75.8673 19.2406L74.8677 19.2688C74.8761 19.5649 74.8803 19.8646 74.8803 20.168H75.8803ZM75.5237 15.54C75.4206 14.9129 75.295 14.3034 75.1467 13.7118L74.1767 13.9548C74.318 14.5186 74.4381 15.1011 74.537 15.7023L75.5237 15.54ZM73.8944 10.1828C73.759 9.89779 73.6166 9.61838 73.4672 9.34457L72.5893 9.82342C72.7297 10.0807 72.8636 10.3435 72.9911 10.6119L73.8944 10.1828ZM73.4672 9.34457C73.3376 9.10684 73.2036 8.87368 73.0653 8.64511L72.2097 9.16275C72.3402 9.37837 72.4667 9.59859 72.5893 9.82342L73.4672 9.34457ZM71.1363 6.05504C70.771 5.65488 70.3868 5.27556 69.9837 4.91716L69.3192 5.66446C69.6962 5.9997 70.0557 6.35462 70.3978 6.7293L71.1363 6.05504ZM67.3587 3.02934C67.1263 2.89557 66.8896 2.76684 66.6486 2.64315L66.192 3.53285C66.4189 3.64929 66.6415 3.77035 66.8598 3.89601L67.3587 3.02934ZM66.651 2.64439C66.3932 2.51037 66.1316 2.38238 65.866 2.26042L65.4487 3.16917C65.6995 3.28436 65.9465 3.40517 66.1896 3.53161L66.651 2.64439ZM62.5781 1.10747C62.0243 0.967163 61.4572 0.847948 60.8768 0.749731L60.7099 1.73571C61.2647 1.8296 61.8055 1.94334 62.3325 2.07684L62.5781 1.10747ZM57.4289 0.416788C57.1434 0.408259 56.8552 0.403999 56.5643 0.403999V1.404C56.8454 1.404 57.1237 1.40812 57.399 1.41634L57.4289 0.416788ZM57.4603 17.54C57.2937 17.54 57.1332 17.5325 56.9786 17.5177L56.8833 18.5131C57.0713 18.5311 57.2636 18.54 57.4603 18.54V17.54ZM55.2467 16.9055C55.1233 16.8178 55.0053 16.7205 54.8927 16.6135L54.2039 17.3385C54.3502 17.4774 54.5045 17.6048 54.667 17.7204L55.2467 16.9055ZM54.9018 16.6224C54.7892 16.5098 54.6869 16.3914 54.5947 16.2672L53.7919 16.8634C53.9138 17.0277 54.0482 17.183 54.1947 17.3296L54.9018 16.6224ZM53.9516 14.5021C53.9361 14.3438 53.9283 14.1791 53.9283 14.008H52.9283C52.9283 14.2097 52.9375 14.4068 52.9563 14.5991L53.9516 14.5021ZM53.9283 14.008C53.9283 13.839 53.9359 13.6769 53.951 13.5214L52.9556 13.4252C52.9373 13.6146 52.9283 13.8089 52.9283 14.008H53.9283ZM54.5864 11.7979C54.6783 11.6784 54.7802 11.5653 54.8927 11.4585L54.2039 10.7335C54.0546 10.8754 53.9177 11.027 53.7936 11.1884L54.5864 11.7979ZM54.8927 11.4585C55.0053 11.3515 55.1233 11.2542 55.2467 11.1665L54.667 10.3516C54.5045 10.4672 54.3502 10.5946 54.2039 10.7335L54.8927 11.4585ZM56.9786 10.5543C57.1332 10.5395 57.2937 10.532 57.4603 10.532V9.532C57.2636 9.532 57.0713 9.54087 56.8833 9.55886L56.9786 10.5543ZM57.4603 10.532C57.6269 10.532 57.7874 10.5395 57.9419 10.5543L58.0372 9.55886C57.8493 9.54087 57.6569 9.532 57.4603 9.532V10.532ZM59.6739 11.1665C59.7973 11.2542 59.9152 11.3515 60.0279 11.4585L60.7167 10.7335C60.5704 10.5946 60.416 10.4672 60.2535 10.3516L59.6739 11.1665ZM60.0279 11.4585C60.1403 11.5653 60.2423 11.6784 60.3341 11.7979L61.1269 11.1884C61.0029 11.027 60.866 10.8754 60.7167 10.7335L60.0279 11.4585ZM60.9696 13.5214C60.9846 13.6769 60.9923 13.839 60.9923 14.008H61.9923C61.9923 13.8089 61.9833 13.6146 61.965 13.4252L60.9696 13.5214ZM60.9923 14.008C60.9923 14.1791 60.9844 14.3438 60.969 14.5021L61.9643 14.5991C61.983 14.4068 61.9923 14.2097 61.9923 14.008H60.9923ZM60.3259 16.2672C60.2337 16.3914 60.1314 16.5098 60.0187 16.6224L60.7258 17.3296C60.8724 17.183 61.0067 17.0276 61.1287 16.8634L60.3259 16.2672ZM60.0279 16.6135C59.9152 16.7205 59.7973 16.8178 59.6739 16.9055L60.2535 17.7204C60.416 17.6048 60.5704 17.4774 60.7167 17.3385L60.0279 16.6135ZM57.9419 17.5177C57.7874 17.5325 57.6269 17.54 57.4603 17.54V18.54C57.6569 18.54 57.8493 18.5311 58.0372 18.5131L57.9419 17.5177ZM101.764 3.088L101.533 3.53161L101.535 3.53285L101.764 3.088ZM108.372 9.584L108.811 9.34457L108.811 9.34457L108.372 9.584ZM107.98 31.816L107.543 31.5727L107.541 31.5766L107.98 31.816ZM100.364 39.32L100.132 38.8769L100.13 38.878L100.364 39.32ZM82.2757 41.056L82.403 40.5724L82.395 40.5704L82.2757 41.056ZM76.8437 38.816L76.3992 38.587L76.1922 38.9889L76.5712 39.2352L76.8437 38.816ZM81.6037 29.576L81.8936 29.1686L81.4235 28.8341L81.1592 29.347L81.6037 29.576ZM94.3157 29.968L94.6206 30.3643L94.622 30.3632L94.3157 29.968ZM97.2277 24.984L97.7174 25.0853L97.9747 23.8414L96.9385 24.5761L97.2277 24.984ZM82.7797 25.6L82.5529 26.0456L82.5529 26.0456L82.7797 25.6ZM77.8517 21.176L77.4319 21.4476L77.4319 21.4476L77.8517 21.176ZM78.0757 7.4L77.6619 7.11923L77.6586 7.12437L78.0757 7.4ZM83.8437 2.584L83.6342 2.13002L83.6342 2.13002L83.8437 2.584ZM95.7157 16.976L96.0602 17.3386L96.0693 17.3296L95.7157 16.976ZM95.7157 11.096L96.0601 10.7335L96.0601 10.7335L95.7157 11.096ZM89.8917 11.096L90.2361 11.4585L90.2361 11.4585L89.8917 11.096ZM89.8917 16.976L89.538 17.3297L89.5473 17.3385L89.8917 16.976ZM90.4939 0.447176C90.2182 0.464247 90.0086 0.701516 90.0257 0.97713C90.0428 1.25274 90.2801 1.46233 90.5557 1.44526L90.4939 0.447176ZM85.2947 2.52394C85.5538 2.4285 85.6865 2.14107 85.591 1.88195C85.4956 1.62282 85.2082 1.49013 84.949 1.58557L85.2947 2.52394ZM82.469 2.72503C82.2284 2.86056 82.1433 3.16546 82.2788 3.40606C82.4143 3.64666 82.7192 3.73184 82.9598 3.59632L82.469 2.72503ZM79.2213 6.70295C79.3969 6.48986 79.3665 6.17474 79.1534 5.9991C78.9404 5.82347 78.6252 5.85383 78.4496 6.06692L79.2213 6.70295ZM76.9873 8.26348C76.8596 8.50834 76.9546 8.81033 77.1995 8.938C77.4444 9.06566 77.7464 8.97065 77.874 8.72579L76.9873 8.26348ZM76.5539 13.3958C76.5768 13.1206 76.3723 12.8789 76.0971 12.856C75.8219 12.8331 75.5802 13.0376 75.5573 13.3128L76.5539 13.3958ZM75.5517 15.8146C75.5744 16.0898 75.8158 16.2946 76.091 16.2719C76.3662 16.2493 76.571 16.0079 76.5484 15.7327L75.5517 15.8146ZM77.7215 19.9522C77.5958 19.7063 77.2946 19.6089 77.0487 19.7347C76.8029 19.8604 76.7055 20.1616 76.8312 20.4075L77.7215 19.9522ZM78.1028 22.3934C78.2722 22.6116 78.5863 22.6511 78.8044 22.4817C79.0225 22.3123 79.062 21.9982 78.8926 21.7801L78.1028 22.3934ZM82.0689 24.6278C81.834 24.4827 81.5259 24.5555 81.3807 24.7904C81.2356 25.0253 81.3084 25.3334 81.5433 25.4786L82.0689 24.6278ZM83.6352 26.5436C83.8905 26.6489 84.1828 26.5273 84.2881 26.272C84.3934 26.0168 84.2718 25.7244 84.0165 25.6191L83.6352 26.5436ZM88.3291 26.628C88.0537 26.6079 87.8142 26.815 87.7941 27.0904C87.7741 27.3658 87.9811 27.6053 88.2565 27.6253L88.3291 26.628ZM90.8487 27.618C91.1241 27.5978 91.3311 27.3583 91.3109 27.0829C91.2908 26.8075 91.0512 26.6005 90.7758 26.6206L90.8487 27.618ZM95.8281 25.2598C95.5842 25.3893 95.4913 25.6919 95.6208 25.9359C95.7502 26.1798 96.0528 26.2726 96.2968 26.1432L95.8281 25.2598ZM96.5083 25.7927C96.4285 26.0571 96.5782 26.3361 96.8426 26.4158C97.107 26.4956 97.3859 26.3459 97.4657 26.0816L96.5083 25.7927ZM95.4069 29.666C95.6005 29.4691 95.5978 29.1525 95.4008 28.9589C95.2039 28.7653 94.8873 28.768 94.6938 28.965L95.4069 29.666ZM93.2418 30.084C93.0022 30.2213 92.9192 30.5268 93.0565 30.7664C93.1937 31.006 93.4992 31.089 93.7389 30.9518L93.2418 30.084ZM89.7462 32.1091C90.0215 32.0878 90.2274 31.8473 90.206 31.572C90.1847 31.2966 89.9442 31.0908 89.6689 31.1121L89.7462 32.1091ZM87.5012 31.1011C87.2259 31.0794 86.9851 31.2849 86.9633 31.5601C86.9416 31.8354 87.1471 32.0762 87.4223 32.098L87.5012 31.1011ZM82.4286 30.6797C82.6711 30.8117 82.9747 30.7221 83.1067 30.4795C83.2387 30.237 83.1491 29.9333 82.9065 29.8014L82.4286 30.6797ZM80.7626 30.117C80.6361 30.3625 80.7326 30.664 80.9781 30.7905C81.2236 30.9169 81.5251 30.8205 81.6515 30.575L80.7626 30.117ZM80.0649 33.655C80.1913 33.4095 80.0948 33.108 79.8494 32.9815C79.6039 32.8551 79.3024 32.9515 79.1759 33.197L80.0649 33.655ZM78.3826 34.737C78.2561 34.9825 78.3526 35.284 78.5981 35.4105C78.8436 35.5369 79.1451 35.4405 79.2715 35.195L78.3826 34.737ZM77.6849 38.275C77.8113 38.0295 77.7148 37.728 77.4694 37.6015C77.2239 37.4751 76.9224 37.5715 76.7959 37.817L77.6849 38.275ZM77.4453 39.7594C77.6869 39.8931 77.9912 39.8055 78.1248 39.5638C78.2584 39.3222 78.1709 39.0179 77.9292 38.8843L77.4453 39.7594ZM81.465 40.3214C81.1998 40.2443 80.9223 40.3967 80.8452 40.6619C80.7681 40.927 80.9205 41.2045 81.1856 41.2816L81.465 40.3214ZM83.2718 41.8075C83.5418 41.8653 83.8076 41.6934 83.8654 41.4234C83.9233 41.1534 83.7513 40.8876 83.4813 40.8297L83.2718 41.8075ZM87.8836 41.3744C87.6077 41.3637 87.3753 41.5786 87.3645 41.8545C87.3537 42.1305 87.5687 42.3629 87.8446 42.3737L87.8836 41.3744ZM89.9925 42.3808C90.2685 42.3723 90.4853 42.1416 90.4768 41.8656C90.4683 41.5896 90.2377 41.3727 89.9617 41.3813L89.9925 42.3808ZM93.7933 41.0006C93.5212 41.048 93.339 41.3069 93.3864 41.579C93.4337 41.851 93.6926 42.0332 93.9647 41.9858L93.7933 41.0006ZM95.922 41.5632C96.1893 41.4938 96.3496 41.2208 96.2802 40.9535C96.2107 40.6863 95.9378 40.5259 95.6705 40.5954L95.922 41.5632ZM99.2736 39.3044C99.0235 39.4214 98.9157 39.719 99.0327 39.9691C99.1497 40.2193 99.4474 40.3271 99.6975 40.2101L99.2736 39.3044ZM101.407 39.3144C101.646 39.1752 101.727 38.869 101.587 38.6305C101.448 38.392 101.142 38.3115 100.903 38.4507L101.407 39.3144ZM103.749 36.3915C103.543 36.5752 103.524 36.8912 103.708 37.0975C103.892 37.3037 104.208 37.3221 104.414 37.1385L103.749 36.3915ZM105.737 35.8325C105.924 35.6287 105.91 35.3124 105.706 35.126C105.502 34.9397 105.186 34.9538 105 35.1576L105.737 35.8325ZM107.101 32.3411C106.958 32.5773 107.034 32.8848 107.27 33.0279C107.506 33.1709 107.813 33.0955 107.956 32.8593L107.101 32.3411ZM108.896 31.1434C109.018 30.8955 108.916 30.5959 108.668 30.4741C108.42 30.3524 108.12 30.4546 107.998 30.7025L108.896 31.1434ZM109.375 27.0214C109.303 27.288 109.461 27.5624 109.728 27.6343C109.994 27.7063 110.269 27.5484 110.341 27.2818L109.375 27.0214ZM110.79 25.2731C110.839 25.0013 110.658 24.7414 110.386 24.6925C110.115 24.6437 109.855 24.8244 109.806 25.0962L110.79 25.2731ZM110.208 21.1607C110.199 21.4367 110.416 21.6675 110.692 21.6762C110.968 21.6849 111.199 21.4682 111.208 21.1922L110.208 21.1607ZM111.211 19.2406C111.203 18.9645 110.973 18.7471 110.697 18.7549C110.421 18.7627 110.203 18.9928 110.211 19.2688L111.211 19.2406ZM109.88 15.7023C109.925 15.9748 110.182 16.1593 110.455 16.1145C110.727 16.0697 110.912 15.8125 110.867 15.54L109.88 15.7023ZM110.49 13.7118C110.423 13.4439 110.151 13.2812 109.884 13.3483C109.616 13.4154 109.453 13.687 109.52 13.9548L110.49 13.7118ZM108.335 10.6119C108.453 10.8613 108.751 10.9675 109.001 10.849C109.25 10.7305 109.356 10.4322 109.238 10.1828L108.335 10.6119ZM108.409 8.64511C108.266 8.40884 107.958 8.33319 107.722 8.47613C107.486 8.61907 107.41 8.92648 107.553 9.16275L108.409 8.64511ZM105.741 6.7293C105.927 6.93323 106.244 6.94761 106.448 6.76142C106.652 6.57523 106.666 6.25897 106.48 6.05504L105.741 6.7293ZM105.327 4.91716C105.121 4.73367 104.805 4.7522 104.621 4.95856C104.438 5.16492 104.456 5.48096 104.663 5.66446L105.327 4.91716ZM102.203 3.89601C102.443 4.03377 102.748 3.95144 102.886 3.71211C103.024 3.47279 102.941 3.1671 102.702 3.02934L102.203 3.89601ZM101.209 2.26042C100.958 2.14517 100.662 2.25518 100.546 2.50612C100.431 2.75706 100.541 3.05392 100.792 3.16917L101.209 2.26042ZM97.6759 2.07684C97.9436 2.14466 98.2156 1.98264 98.2834 1.71496C98.3512 1.44727 98.1892 1.17529 97.9215 1.10747L97.6759 2.07684ZM96.2202 0.749731C95.9479 0.703656 95.6899 0.887025 95.6438 1.1593C95.5977 1.43157 95.7811 1.68964 96.0534 1.73571L96.2202 0.749731ZM92.7425 1.41634C93.0185 1.42459 93.2489 1.20751 93.2572 0.931495C93.2654 0.655476 93.0483 0.425033 92.7723 0.416788L92.7425 1.41634ZM92.3221 17.5177C92.0472 17.4914 91.803 17.6929 91.7767 17.9678C91.7504 18.2427 91.9519 18.4868 92.2268 18.5131L92.3221 17.5177ZM90.0105 17.7204C90.2355 17.8805 90.5477 17.8278 90.7077 17.6028C90.8678 17.3778 90.8151 17.0656 90.5901 16.9055L90.0105 17.7204ZM89.9381 16.2672C89.7735 16.0455 89.4603 15.9993 89.2386 16.1639C89.0169 16.3286 88.9706 16.6417 89.1353 16.8634L89.9381 16.2672ZM88.2997 14.5991C88.3265 14.874 88.5711 15.075 88.8459 15.0482C89.1207 15.0214 89.3218 14.7769 89.295 14.5021L88.2997 14.5991ZM89.2944 13.5214C89.321 13.2466 89.1197 13.0022 88.8448 12.9756C88.57 12.9491 88.3256 13.1504 88.299 13.4252L89.2944 13.5214ZM89.1371 11.1884C88.9688 11.4073 89.0098 11.7212 89.2287 11.8895C89.4476 12.0578 89.7616 12.0168 89.9299 11.7979L89.1371 11.1884ZM90.5901 11.1665C90.8151 11.0064 90.8678 10.6942 90.7077 10.4692C90.5477 10.2442 90.2355 10.1915 90.0105 10.3516L90.5901 11.1665ZM92.2268 9.55886C91.9519 9.58517 91.7504 9.82934 91.7767 10.1042C91.803 10.3791 92.0472 10.5806 92.3221 10.5543L92.2268 9.55886ZM93.2854 10.5543C93.5603 10.5806 93.8044 10.3791 93.8308 10.1042C93.8571 9.82934 93.6556 9.58517 93.3807 9.55886L93.2854 10.5543ZM95.597 10.3516C95.3719 10.1915 95.0598 10.2442 94.8997 10.4692C94.7397 10.6942 94.7923 11.0064 95.0173 11.1665L95.597 10.3516ZM95.6776 11.7979C95.8459 12.0168 96.1598 12.0578 96.3787 11.8895C96.5976 11.7212 96.6387 11.4073 96.4704 11.1884L95.6776 11.7979ZM97.3084 13.4252C97.2818 13.1504 97.0375 12.9491 96.7626 12.9756C96.4877 13.0022 96.2865 13.2466 96.313 13.5214L97.3084 13.4252ZM96.3124 14.5021C96.2856 14.7769 96.4867 15.0214 96.7615 15.0482C97.0364 15.075 97.2809 14.874 97.3077 14.5991L96.3124 14.5021ZM96.4721 16.8634C96.6368 16.6417 96.5905 16.3285 96.3689 16.1639C96.1472 15.9993 95.834 16.0455 95.6693 16.2672L96.4721 16.8634ZM95.0173 16.9055C94.7923 17.0656 94.7397 17.3778 94.8997 17.6028C95.0598 17.8278 95.3719 17.8805 95.597 17.7204L95.0173 16.9055ZM93.3807 18.5131C93.6556 18.4868 93.8571 18.2427 93.8308 17.9678C93.8044 17.6929 93.5603 17.4914 93.2854 17.5177L93.3807 18.5131ZM91.9077 0.403999C91.4301 0.403999 90.9588 0.418374 90.4939 0.447176L90.5557 1.44526C90.9995 1.41777 91.4502 1.404 91.9077 1.404V0.403999ZM84.949 1.58557C84.5028 1.74991 84.0645 1.93139 83.6342 2.13002L84.0532 3.03798C84.4595 2.8505 84.8732 2.67915 85.2947 2.52394L84.949 1.58557ZM83.6342 2.13002C83.2329 2.31522 82.8445 2.51354 82.469 2.72503L82.9598 3.59632C83.3112 3.39837 83.6757 3.21223 84.0532 3.03798L83.6342 2.13002ZM78.4496 6.06692C78.1721 6.40363 77.9095 6.75443 77.662 7.11925L78.4895 7.68075C78.7198 7.34133 78.9637 7.01542 79.2213 6.70295L78.4496 6.06692ZM77.6586 7.12437C77.4141 7.49428 77.1904 7.87399 76.9873 8.26348L77.874 8.72579C78.061 8.36715 78.2673 8.01711 78.4929 7.67563L77.6586 7.12437ZM75.5573 13.3128C75.5215 13.7424 75.5037 14.1794 75.5037 14.624H76.5037C76.5037 14.2062 76.5205 13.7968 76.5539 13.3958L75.5573 13.3128ZM75.5037 14.624C75.5037 15.0274 75.5197 15.4243 75.5517 15.8146L76.5484 15.7327C76.5186 15.3706 76.5037 15.001 76.5037 14.624H75.5037ZM76.8312 20.4075C77.0129 20.7629 77.2132 21.1096 77.4319 21.4476L78.2715 20.9044C78.071 20.5945 77.8877 20.2771 77.7215 19.9522L76.8312 20.4075ZM77.4319 21.4476C77.6437 21.7748 77.8673 22.0901 78.1028 22.3934L78.8926 21.7801C78.675 21.4998 78.4679 21.2079 78.2715 20.9044L77.4319 21.4476ZM81.5433 25.4786C81.8688 25.6797 82.2054 25.8687 82.5529 26.0456L83.0066 25.1544C82.6831 24.9897 82.3705 24.8142 82.0689 24.6278L81.5433 25.4786ZM82.5529 26.0456C82.9086 26.2267 83.2694 26.3927 83.6352 26.5436L84.0165 25.6191C83.6755 25.4785 83.3388 25.3236 83.0066 25.1544L82.5529 26.0456ZM88.2565 27.6253C88.6481 27.6538 89.0438 27.668 89.4437 27.668V26.668C89.0675 26.668 88.696 26.6546 88.3291 26.628L88.2565 27.6253ZM89.4437 27.668C89.9235 27.668 90.3919 27.6514 90.8487 27.618L90.7758 26.6206C90.3444 26.6522 89.9004 26.668 89.4437 26.668V27.668ZM96.2968 26.1432C96.7216 25.9178 97.1284 25.6674 97.5169 25.3919L96.9385 24.5761C96.5855 24.8265 96.2154 25.0544 95.8281 25.2598L96.2968 26.1432ZM96.7381 24.8827C96.6728 25.1983 96.5961 25.5016 96.5083 25.7927L97.4657 26.0816C97.5625 25.7606 97.6464 25.4285 97.7174 25.0853L96.7381 24.8827ZM94.6938 28.965C94.4807 29.1817 94.2527 29.3843 94.0094 29.5728L94.622 30.3632C94.9004 30.1475 95.1621 29.9151 95.4069 29.666L94.6938 28.965ZM94.0109 29.5717C93.767 29.7592 93.5108 29.93 93.2418 30.084L93.7389 30.9518C94.0468 30.7754 94.3407 30.5796 94.6206 30.3643L94.0109 29.5717ZM89.6689 31.1121C89.3609 31.136 89.0432 31.148 88.7157 31.148V32.148C89.0677 32.148 89.4112 32.1351 89.7462 32.1091L89.6689 31.1121ZM88.7157 31.148C88.3003 31.148 87.8955 31.1323 87.5012 31.1011L87.4223 32.098C87.844 32.1314 88.2751 32.148 88.7157 32.148V31.148ZM82.9065 29.8014C82.5562 29.6108 82.2186 29.3999 81.8936 29.1686L81.3138 29.9834C81.6715 30.2379 82.0431 30.47 82.4286 30.6797L82.9065 29.8014ZM81.1592 29.347L80.7626 30.117L81.6515 30.575L82.0482 29.805L81.1592 29.347ZM79.1759 33.197L78.3826 34.737L79.2715 35.195L80.0649 33.655L79.1759 33.197ZM76.7959 37.817L76.3992 38.587L77.2882 39.045L77.6849 38.275L76.7959 37.817ZM76.5712 39.2352C76.8522 39.4179 77.1436 39.5926 77.4453 39.7594L77.9292 38.8843C77.6477 38.7286 77.3767 38.5661 77.1162 38.3968L76.5712 39.2352ZM81.1856 41.2816C81.5021 41.3737 81.8257 41.4603 82.1565 41.5416L82.395 40.5704C82.0774 40.4924 81.7674 40.4094 81.465 40.3214L81.1856 41.2816ZM82.1485 41.5395C82.5196 41.6372 82.8941 41.7265 83.2718 41.8075L83.4813 40.8297C83.1186 40.7519 82.7591 40.6662 82.403 40.5725L82.1485 41.5395ZM87.8446 42.3737C88.2255 42.3886 88.6092 42.396 88.9957 42.396V41.396C88.622 41.396 88.2513 41.3888 87.8836 41.3744L87.8446 42.3737ZM88.9957 42.396C89.331 42.396 89.6633 42.3909 89.9925 42.3808L89.9617 41.3813C89.6429 41.3911 89.3209 41.396 88.9957 41.396V42.396ZM93.9647 41.9858C94.632 41.8697 95.2845 41.7289 95.922 41.5632L95.6705 40.5954C95.0602 40.7539 94.4345 40.8891 93.7933 41.0006L93.9647 41.9858ZM99.6975 40.2101C100.002 40.0677 100.302 39.9183 100.597 39.762L100.13 38.878C99.8488 39.0267 99.5633 39.1688 99.2736 39.3044L99.6975 40.2101ZM100.595 39.7631C100.871 39.619 101.142 39.4694 101.407 39.3144L100.903 38.4507C100.651 38.5978 100.394 38.7399 100.132 38.8769L100.595 39.7631ZM104.414 37.1385C104.877 36.7262 105.318 36.2908 105.737 35.8325L105 35.1576C104.603 35.5907 104.187 36.002 103.749 36.3915L104.414 37.1385ZM107.956 32.8593C108.116 32.5965 108.27 32.3285 108.419 32.0554L107.541 31.5766C107.399 31.8366 107.252 32.0914 107.101 32.3411L107.956 32.8593ZM108.417 32.0592C108.584 31.7588 108.744 31.4535 108.896 31.1434L107.998 30.7025C107.854 30.9973 107.702 31.2873 107.543 31.5728L108.417 32.0592ZM110.341 27.2818C110.517 26.6287 110.667 25.9591 110.79 25.2731L109.806 25.0962C109.687 25.755 109.544 26.3967 109.375 27.0214L110.341 27.2818ZM111.208 21.1922C111.218 20.8542 111.224 20.5127 111.224 20.168H110.224C110.224 20.5024 110.219 20.8333 110.208 21.1607L111.208 21.1922ZM111.224 20.168C111.224 19.8554 111.219 19.5463 111.211 19.2406L110.211 19.2688C110.22 19.5649 110.224 19.8646 110.224 20.168H111.224ZM110.867 15.54C110.764 14.9129 110.638 14.3034 110.49 13.7118L109.52 13.9548C109.661 14.5186 109.782 15.1011 109.88 15.7023L110.867 15.54ZM109.238 10.1828C109.102 9.89779 108.96 9.61838 108.811 9.34457L107.933 9.82342C108.073 10.0807 108.207 10.3435 108.335 10.6119L109.238 10.1828ZM108.811 9.34457C108.681 9.10684 108.547 8.87368 108.409 8.64511L107.553 9.16275C107.684 9.37837 107.81 9.59859 107.933 9.82342L108.811 9.34457ZM106.48 6.05504C106.114 5.65488 105.73 5.27556 105.327 4.91716L104.663 5.66446C105.04 5.9997 105.399 6.35462 105.741 6.7293L106.48 6.05504ZM102.702 3.02934C102.47 2.89557 102.233 2.76684 101.992 2.64315L101.535 3.53285C101.762 3.64929 101.985 3.77035 102.203 3.89601L102.702 3.02934ZM101.994 2.64439C101.737 2.51037 101.475 2.38238 101.209 2.26042L100.792 3.16917C101.043 3.28436 101.29 3.40517 101.533 3.53161L101.994 2.64439ZM97.9215 1.10747C97.3677 0.967163 96.8006 0.847948 96.2202 0.749731L96.0534 1.73571C96.6081 1.8296 97.149 1.94334 97.6759 2.07684L97.9215 1.10747ZM92.7723 0.416788C92.4868 0.408259 92.1986 0.403999 91.9077 0.403999V1.404C92.1889 1.404 92.4671 1.40812 92.7425 1.41634L92.7723 0.416788ZM92.8037 17.54C92.6371 17.54 92.4766 17.5325 92.3221 17.5177L92.2268 18.5131C92.4147 18.5311 92.6071 18.54 92.8037 18.54V17.54ZM90.5901 16.9055C90.4667 16.8178 90.3488 16.7205 90.2361 16.6135L89.5473 17.3385C89.6936 17.4774 89.848 17.6048 90.0105 17.7204L90.5901 16.9055ZM90.2453 16.6224C90.1326 16.5098 90.0303 16.3914 89.9381 16.2672L89.1353 16.8634C89.2573 17.0277 89.3916 17.183 89.5382 17.3296L90.2453 16.6224ZM89.295 14.5021C89.2796 14.3438 89.2717 14.1791 89.2717 14.008H88.2717C88.2717 14.2097 88.281 14.4068 88.2997 14.5991L89.295 14.5021ZM89.2717 14.008C89.2717 13.839 89.2794 13.6769 89.2944 13.5214L88.299 13.4252C88.2807 13.6146 88.2717 13.8089 88.2717 14.008H89.2717ZM89.9299 11.7979C90.0217 11.6784 90.1237 11.5653 90.2361 11.4585L89.5473 10.7335C89.398 10.8754 89.2611 11.027 89.1371 11.1884L89.9299 11.7979ZM90.2361 11.4585C90.3488 11.3515 90.4667 11.2542 90.5901 11.1665L90.0105 10.3516C89.848 10.4672 89.6936 10.5946 89.5473 10.7335L90.2361 11.4585ZM92.3221 10.5543C92.4766 10.5395 92.6371 10.532 92.8037 10.532V9.532C92.6071 9.532 92.4147 9.54087 92.2268 9.55886L92.3221 10.5543ZM92.8037 10.532C92.9703 10.532 93.1308 10.5395 93.2854 10.5543L93.3807 9.55886C93.1927 9.54087 93.0004 9.532 92.8037 9.532V10.532ZM95.0173 11.1665C95.1407 11.2542 95.2587 11.3515 95.3713 11.4585L96.0601 10.7335C95.9138 10.5946 95.7595 10.4672 95.597 10.3516L95.0173 11.1665ZM95.3713 11.4585C95.4838 11.5653 95.5857 11.6784 95.6776 11.7979L96.4704 11.1884C96.3463 11.027 96.2094 10.8754 96.0601 10.7335L95.3713 11.4585ZM96.313 13.5214C96.3281 13.6769 96.3357 13.839 96.3357 14.008H97.3357C97.3357 13.8089 97.3267 13.6146 97.3084 13.4252L96.313 13.5214ZM96.3357 14.008C96.3357 14.1791 96.3279 14.3438 96.3124 14.5021L97.3077 14.5991C97.3265 14.4068 97.3357 14.2097 97.3357 14.008H96.3357ZM95.6693 16.2672C95.5771 16.3914 95.4748 16.5098 95.3622 16.6224L96.0693 17.3296C96.2158 17.183 96.3502 17.0276 96.4721 16.8634L95.6693 16.2672ZM95.3713 16.6135C95.2587 16.7205 95.1407 16.8178 95.0173 16.9055L95.597 17.7204C95.7595 17.6048 95.9138 17.4774 96.0601 17.3385L95.3713 16.6135ZM93.2854 17.5177C93.1308 17.5325 92.9703 17.54 92.8037 17.54V18.54C93.0004 18.54 93.1927 18.5311 93.3807 18.5131L93.2854 17.5177Z" fill="url(#paint0_linear)"/>
    </g>
    <defs>
        <filter id="filter0_d" x="0.816833" y="0.403992" width="114.407" height="49.992" filterUnits="userSpaceOnUse" color-interpolation-filters="sRGB">
            <feFlood flood-opacity="0" result="BackgroundImageFix"/>
            <feColorMatrix in="SourceAlpha" type="matrix" values="0 0 0 0 0 0 0 0 0 0 0 0 0 0 0 0 0 0 127 0"/>
            <feOffset dy="4"/>
            <feGaussianBlur stdDeviation="2"/>
            <feColorMatrix type="matrix" values="0 0 0 0 0 0 0 0 0 0 0 0 0 0 0 0 0 0 0.25 0"/>
            <feBlend mode="normal" in2="BackgroundImageFix" result="effect1_dropShadow"/>
            <feBlend mode="normal" in="SourceGraphic" in2="effect1_dropShadow" result="shape"/>
        </filter>
        <linearGradient id="paint0_linear" x1="58.5" y1="-13" x2="58.5" y2="55" gradientUnits="userSpaceOnUse">
            <stop stop-color="#FFEE55"/>
            <stop offset="1" stop-color="white"/>
        </linearGradient>
    </defs>
</svg>
