<svg width="139" height="99" viewBox="0 0 139 99" fill="none" xmlns="http://www.w3.org/2000/svg">
    <path d="M73 32H139V95C139 96.6569 137.657 98 136 98H76C74.3431 98 73 96.6569 73 95V32Z" fill="#FFD039"/>
    <rect x="95" y="32" width="22" height="66" fill="#FF3D43"/>
    <path d="M31.8241 48.5781C31.6357 48.5952 27.142 49.0182 22.3177 50.3134C15.4661 52.1542 11.4593 54.8029 10.4101 58.1852C9.50985 61.0862 10.7576 64.2881 14.1185 67.6993C18.6148 72.2624 22.9989 74.6604 27.1505 74.8251C32.3983 75.0341 35.0604 71.5077 35.1707 71.3582C35.2196 71.2917 35.2631 71.2224 35.2997 71.1507L43.0559 55.9484C43.5231 55.0326 42.973 53.8166 41.8283 53.2326L33.2913 48.877C32.8247 48.639 32.3083 48.5334 31.8241 48.5781Z" fill="#FF3D43"/>
    <path d="M39.0707 18.7925C34.3358 18.0743 31.0119 18.9416 29.1911 21.374C27.0684 24.2086 27.2761 29.0064 29.8066 35.6351C31.5894 40.3012 33.8844 44.1877 33.9811 44.3503C34.2291 44.7686 34.6177 45.1248 35.0842 45.3628L43.6212 49.7184C44.766 50.3024 46.0734 50.0341 46.5406 49.1183L54.2968 33.916C54.3334 33.8443 54.3639 33.7685 54.3891 33.6898C54.4454 33.5128 55.7387 29.2891 52.4899 25.162C49.9188 21.8969 45.4042 19.7547 39.0707 18.7925Z" fill="#FF3D43"/>
    <path d="M33.6365 51.1423L25.8803 66.3446C25.8437 66.4163 25.8013 66.4861 25.7524 66.5527C25.6421 66.7022 22.98 70.2286 17.7322 70.0196C17.3148 70.0026 16.8955 69.9575 16.4738 69.8958C20.1455 73.0311 23.7274 74.6887 27.1505 74.8248C32.3983 75.0338 35.0604 71.5073 35.1707 71.3578C35.2196 71.2913 35.2631 71.2221 35.2997 71.1503L43.0558 55.9481C43.5231 55.0323 42.973 53.8163 41.8282 53.2322L33.2912 48.8767C33.1454 48.8023 32.9934 48.7454 32.8396 48.6974C33.6841 49.3363 34.0403 50.351 33.6365 51.1423Z" fill="#D62D2D"/>
    <path d="M43.0704 20.3562C46.3196 24.4824 45.0274 28.7066 44.9706 28.8845C44.9459 28.9623 44.9143 29.0376 44.8773 29.1102L37.1211 44.3125C36.7173 45.1038 35.6857 45.4105 34.6738 45.1022C34.803 45.1986 34.9382 45.2883 35.084 45.3627L43.6211 49.7182C44.7658 50.3023 46.0732 50.034 46.5404 49.1182L54.2966 33.9159C54.3336 33.8433 54.3642 33.7675 54.3889 33.6897C54.4456 33.5118 55.739 29.2881 52.4887 25.1614C50.3694 22.4697 46.9251 20.5426 42.2316 19.4099C42.529 19.7152 42.8117 20.0282 43.0704 20.3562Z" fill="#D62D2D"/>
    <path d="M33.8575 42.6474L30.3731 49.477C29.9054 50.3937 30.4544 51.6091 31.5992 52.1932L40.1362 56.5487C41.2809 57.1328 42.5883 56.8645 43.056 55.9478L46.5405 49.1182C47.0077 48.2024 46.458 46.9855 45.3133 46.4015L36.7763 42.0459C35.6315 41.4619 34.3248 41.7316 33.8575 42.6474Z" fill="#C61E1E"/>
    <rect x="19.5968" y="88.3854" width="88" height="22" rx="1" transform="rotate(-62.9694 19.5968 88.3854)" fill="#FFDB1D"/>
</svg>
