<svg width="360" height="157" viewBox="0 0 360 157" fill="none" xmlns="http://www.w3.org/2000/svg">
    <path d="M179.5 113L-1 0L360 1.1407e-05L179.5 113Z" fill="url(#paint0_linear)"/>
    <path d="M147 90H213V153C213 154.657 211.657 156 210 156H150C148.343 156 147 154.657 147 153V90Z" fill="#FFD039"/>
    <rect x="169" y="90" width="22" height="66" fill="#FF3D43"/>
    <path d="M105.824 106.578C105.636 106.595 101.142 107.018 96.3178 108.313C89.4661 110.154 85.4593 112.803 84.4101 116.185C83.5099 119.086 84.7576 122.288 88.1185 125.699C92.6148 130.262 96.999 132.66 101.151 132.825C106.398 133.034 109.06 129.508 109.171 129.358C109.22 129.292 109.263 129.222 109.3 129.151L117.056 113.948C117.523 113.033 116.973 111.817 115.828 111.233L107.291 106.877C106.825 106.639 106.308 106.533 105.824 106.578Z" fill="#FF3D43"/>
    <path d="M113.071 76.7925C108.336 76.0743 105.012 76.9416 103.191 79.374C101.068 82.2086 101.276 87.0064 103.807 93.6351C105.589 98.3012 107.884 102.188 107.981 102.35C108.229 102.769 108.618 103.125 109.084 103.363L117.621 107.718C118.766 108.302 120.073 108.034 120.541 107.118L128.297 91.916C128.333 91.8443 128.364 91.7685 128.389 91.6898C128.445 91.5128 129.739 87.2891 126.49 83.162C123.919 79.8969 119.404 77.7547 113.071 76.7925Z" fill="#FF3D43"/>
    <path d="M107.636 109.142L99.8803 124.345C99.8437 124.416 99.8013 124.486 99.7524 124.553C99.6421 124.702 96.98 128.229 91.7322 128.02C91.3148 128.003 90.8955 127.957 90.4738 127.896C94.1455 131.031 97.7274 132.689 101.15 132.825C106.398 133.034 109.06 129.507 109.171 129.358C109.22 129.291 109.263 129.222 109.3 129.15L117.056 113.948C117.523 113.032 116.973 111.816 115.828 111.232L107.291 106.877C107.145 106.802 106.993 106.745 106.84 106.697C107.684 107.336 108.04 108.351 107.636 109.142Z" fill="#D62D2D"/>
    <path d="M117.07 78.3562C120.32 82.4824 119.027 86.7066 118.971 86.8845C118.946 86.9623 118.914 87.0376 118.877 87.1102L111.121 102.312C110.717 103.104 109.686 103.41 108.674 103.102C108.803 103.199 108.938 103.288 109.084 103.363L117.621 107.718C118.766 108.302 120.073 108.034 120.54 107.118L128.297 91.9159C128.334 91.8433 128.364 91.7675 128.389 91.6897C128.446 91.5118 129.739 87.2881 126.489 83.1614C124.369 80.4697 120.925 78.5426 116.232 77.4099C116.529 77.7152 116.812 78.0282 117.07 78.3562Z" fill="#D62D2D"/>
    <path d="M107.858 100.647L104.373 107.477C103.905 108.394 104.454 109.609 105.599 110.193L114.136 114.549C115.281 115.133 116.588 114.864 117.056 113.948L120.54 107.118C121.008 106.202 120.458 104.986 119.313 104.401L110.776 100.046C109.632 99.4619 108.325 99.7316 107.858 100.647Z" fill="#C61E1E"/>
    <rect x="93.5968" y="146.385" width="88" height="22" rx="1" transform="rotate(-62.9694 93.5968 146.385)" fill="#FFDB1D"/>
    <defs>
        <linearGradient id="paint0_linear" x1="179.5" y1="0" x2="179.5" y2="139.054" gradientUnits="userSpaceOnUse">
            <stop stop-color="#FFDF65" stop-opacity="0"/>
            <stop offset="1" stop-color="white"/>
        </linearGradient>
    </defs>
</svg>
