<svg width="306" height="551" viewBox="0 0 306 551" fill="none" xmlns="http://www.w3.org/2000/svg">
    <path d="M72.8579 229.144C71.8342 229.144 70.9508 228.379 70.8207 227.337C69.6874 218.098 74.5356 212.694 78.8119 207.927C83.0369 203.215 86.6867 199.145 85.7828 191.769C84.8789 184.389 80.3561 181.326 75.1176 177.777C69.8176 174.187 63.8087 170.116 62.6755 160.878C61.5422 151.643 66.3903 146.235 70.6667 141.468C74.8917 136.756 78.5414 132.686 77.6376 125.309C77.5006 124.181 78.2984 123.156 79.4248 123.015C80.5512 122.878 81.575 123.677 81.7153 124.805C82.8486 134.04 78.0005 139.448 73.7241 144.215C69.4991 148.927 65.8493 152.997 66.7532 160.374C67.6571 167.753 72.18 170.816 77.4184 174.365C82.7185 177.955 88.7273 182.026 89.8606 191.264C90.9939 200.503 86.1458 205.907 81.8694 210.674C77.6444 215.386 73.9946 219.456 74.8985 226.833C75.0355 227.961 74.2377 228.986 73.1113 229.127C73.0257 229.141 72.9401 229.144 72.8579 229.144Z" fill="#BDBDBD"/>
    <mask id="mask0" mask-type="alpha" maskUnits="userSpaceOnUse" x="22" y="3" width="109" height="131">
        <path opacity="0.3" d="M82.0273 92.0775C81.3228 92.8169 80.9497 93.8283 81.0055 94.8501C81.0613 95.8406 81.4972 96.7543 82.24 97.4169C82.9794 98.0796 83.928 98.4179 84.9254 98.3586C104.874 97.2461 120.613 80.7257 120.76 60.7456C120.767 59.7517 120.387 58.817 119.689 58.1091C118.992 57.4011 118.06 57.007 117.066 57C117.056 57 117.049 57 117.039 57C116.055 57 115.131 57.3802 114.43 58.0707C113.722 58.7682 113.328 59.6994 113.321 60.6933C113.206 76.7534 100.55 90.0373 84.5139 90.9301C83.5653 90.9825 82.683 91.387 82.0273 92.0775Z" fill="white"/>
        <path opacity="0.85" d="M113.269 18.2729C119.909 28.8367 122.978 41.7196 121.053 55.0314C116.753 84.8184 89.1213 105.478 59.3344 101.182C48.0871 99.5601 38.1442 94.6078 30.3531 87.4724C35.7965 96.1333 59 122.5 79 122.5C99 122.5 126.635 92.6007 130.435 66.2822C133.109 47.7425 126.113 30.0399 113.269 18.2729Z" fill="url(#paint0_radial)"/>
        <path opacity="0.3" d="M39.7311 98.7256C33.0908 88.1619 30.0218 75.279 31.9469 61.9671C36.247 32.1802 63.8787 11.5201 93.6656 15.8167C104.913 17.4384 114.856 22.3907 122.647 29.5262C114.434 16.4584 100.756 6.94444 84.2842 4.56595C54.4972 0.265833 26.8656 20.9294 22.5655 50.7163C19.8906 69.256 26.8865 86.9587 39.7311 98.7256Z" fill="#6DC6FF"/>
        <path opacity="0.7" d="M121.053 55.0349C122.975 41.7195 119.906 28.8366 113.269 18.2764C105.478 11.1409 95.5315 6.18864 84.2877 4.56694C54.4973 0.263341 26.8656 20.9269 22.5655 50.7138C20.6439 64.0292 23.7129 76.9121 30.3497 87.4723C38.1408 94.6078 48.0872 99.5601 59.331 101.182C89.1214 105.482 116.753 84.8218 121.053 55.0349ZM39.7869 53.2248C39.7799 54.2188 39.3859 55.15 38.6779 55.8475C37.9769 56.538 37.0527 56.9181 36.0692 56.9181C36.0588 56.9181 36.0518 56.9181 36.0413 56.9181C35.0474 56.9112 34.1162 56.5171 33.4187 55.8091C32.7212 55.1011 32.3411 54.1665 32.348 53.1725C32.4945 33.189 48.2337 16.6686 68.1823 15.5596C69.1798 15.5003 70.1284 15.8386 70.8677 16.5012C71.6071 17.1639 72.0465 18.0741 72.1023 19.0681C72.1581 20.0899 71.7884 21.1013 71.0805 21.8406C70.4248 22.5277 69.5425 22.9357 68.5939 22.988C52.5582 23.8774 39.902 37.1613 39.7869 53.2248Z" fill="url(#paint1_linear)"/>
        <path d="M77.8361 122.98C78.5756 121.673 80.4244 121.673 81.1639 122.98L85.7397 131.061C86.4792 132.367 85.5548 134 84.0758 134H74.9242C73.4452 134 72.5208 132.367 73.2603 131.061L77.8361 122.98Z" fill="#B3D8F0"/>
    </mask>
    <g mask="url(#mask0)">
        <rect x="22" y="4" width="109" height="130" fill="white"/>
    </g>
    <path d="M71.0804 21.8375C71.7848 21.0981 72.158 20.0868 72.1022 19.0649C72.0464 18.0745 71.6105 17.1607 70.8676 16.4981C70.1283 15.8355 69.1797 15.4972 68.1822 15.5565C48.2336 16.669 32.4944 33.1894 32.3479 53.1694C32.341 54.1633 32.7211 55.098 33.4186 55.806C34.1161 56.5139 35.0473 56.908 36.0412 56.915C36.0517 56.915 36.0587 56.915 36.0691 56.915C37.0526 56.915 37.9768 56.5349 38.6778 55.8443C39.3858 55.1468 39.7798 54.2157 39.7868 53.2217C39.9019 37.1617 52.5581 23.8777 68.5938 22.9849C69.5424 22.9326 70.4247 22.528 71.0804 21.8375Z" fill="white"/>
    <path d="M213.529 122.963C212.974 122.963 212.496 122.546 212.426 121.976C211.812 116.931 214.437 113.979 216.751 111.376C219.038 108.802 221.014 106.579 220.525 102.55C220.035 98.5199 217.587 96.8474 214.752 94.9089C211.883 92.948 208.63 90.7249 208.017 85.6793C207.404 80.6356 210.028 77.682 212.343 75.0786C214.629 72.5053 216.605 70.2821 216.116 66.2535C216.042 65.6373 216.473 65.0773 217.083 65.0006C217.693 64.9256 218.247 65.362 218.323 65.9782C218.936 71.0219 216.312 73.9755 213.997 76.5788C211.711 79.1522 209.735 81.3753 210.224 85.404C210.713 89.4345 213.162 91.1069 215.997 93.0454C218.866 95.0063 222.118 97.2295 222.732 102.275C223.345 107.321 220.721 110.272 218.406 112.876C216.119 115.449 214.144 117.672 214.633 121.701C214.707 122.317 214.275 122.877 213.666 122.954C213.619 122.961 213.573 122.963 213.529 122.963Z" fill="#BDBDBD"/>
    <mask id="mask1" mask-type="alpha" maskUnits="userSpaceOnUse" x="186" y="0" width="59" height="71">
        <path opacity="0.3" d="M218.492 48.1038C218.111 48.5076 217.909 49.06 217.939 49.618C217.969 50.159 218.205 50.658 218.607 51.0199C219.007 51.3818 219.521 51.5666 220.061 51.5342C230.858 50.9266 239.378 41.9039 239.457 30.9918C239.461 30.4489 239.255 29.9384 238.878 29.5518C238.5 29.1651 237.996 28.9499 237.458 28.9461C237.452 28.9461 237.449 28.9461 237.443 28.9461C236.911 28.9461 236.41 29.1537 236.031 29.5308C235.648 29.9118 235.434 30.4203 235.431 30.9632C235.368 39.7344 228.518 46.9895 219.838 47.4771C219.324 47.5057 218.847 47.7267 218.492 48.1038Z" fill="white"/>
        <path opacity="0.85" d="M235.402 7.79541C238.997 13.5648 240.658 20.6009 239.616 27.8712C237.288 44.1394 222.332 55.423 206.209 53.0764C200.121 52.1907 194.739 49.486 190.521 45.5889C193.468 50.3191 206.028 64.7193 216.853 64.7193C227.679 64.7193 242.637 48.3898 244.694 34.0158C246.142 23.8903 242.355 14.2219 235.402 7.79541Z" fill="url(#paint2_radial)"/>
        <path opacity="0.3" d="M195.598 51.7349C192.003 45.9655 190.342 38.9294 191.384 31.6591C193.712 15.3908 208.668 4.10724 224.791 6.45386C230.879 7.33956 236.261 10.0443 240.479 13.9413C236.033 6.80433 228.629 1.60824 219.713 0.309221C203.59 -2.03931 188.634 9.24618 186.306 25.5144C184.858 35.6399 188.645 45.3083 195.598 51.7349Z" fill="#6DC6FF"/>
        <path opacity="0.7" d="M239.616 27.8729C240.656 20.6007 238.995 13.5646 235.402 7.79711C231.185 3.90004 225.801 1.19533 219.715 0.309638C203.59 -2.04079 188.634 9.24469 186.306 25.5129C185.266 32.7852 186.927 39.8212 190.52 45.5887C194.737 49.4858 200.121 52.1905 206.207 53.0762C222.332 55.4247 237.288 44.1411 239.616 27.8729ZM195.628 26.8843C195.624 27.4272 195.411 27.9357 195.027 28.3167C194.648 28.6938 194.148 28.9014 193.615 28.9014C193.61 28.9014 193.606 28.9014 193.6 28.9014C193.062 28.8976 192.558 28.6824 192.181 28.2957C191.803 27.9091 191.597 27.3986 191.601 26.8558C191.681 15.9417 200.2 6.91903 210.998 6.31333C211.538 6.28095 212.051 6.4657 212.451 6.8276C212.852 7.1895 213.089 7.68663 213.12 8.22948C213.15 8.78756 212.95 9.33993 212.566 9.74373C212.212 10.119 211.734 10.3418 211.221 10.3704C202.541 10.8561 195.69 18.1112 195.628 26.8843Z" fill="url(#paint3_linear)"/>
        <path d="M216.223 64.9811C216.623 64.2677 217.624 64.2677 218.025 64.9811L220.501 69.3949C220.902 70.1082 220.401 70.9999 219.601 70.9999H214.647C213.846 70.9999 213.346 70.1082 213.746 69.3949L216.223 64.9811Z" fill="#B3D8F0"/>
    </mask>
    <g mask="url(#mask1)">
        <rect x="186" width="59" height="71" fill="#FF3D43"/>
    </g>
    <path d="M212.566 9.74191C212.948 9.33811 213.15 8.78574 213.12 8.22765C213.089 7.68671 212.853 7.18767 212.451 6.82578C212.051 6.46388 211.538 6.27912 210.998 6.3115C200.2 6.91911 191.68 15.9418 191.601 26.8539C191.597 27.3968 191.803 27.9073 192.181 28.2939C192.558 28.6806 193.062 28.8958 193.6 28.8996C193.606 28.8996 193.61 28.8996 193.615 28.8996C194.148 28.8996 194.648 28.692 195.027 28.3149C195.411 27.9339 195.624 27.4254 195.628 26.8825C195.69 18.1113 202.541 10.8562 211.22 10.3686C211.734 10.34 212.212 10.119 212.566 9.74191Z" fill="white"/>
    <path d="M162.264 136.007C161.916 136.007 161.616 135.766 161.572 135.437C161.187 132.523 162.833 130.819 164.285 129.315C165.719 127.829 166.958 126.546 166.651 124.219C166.344 121.892 164.809 120.926 163.031 119.807C161.232 118.674 159.192 117.39 158.807 114.477C158.423 111.564 160.068 109.859 161.52 108.355C162.954 106.869 164.193 105.586 163.886 103.259C163.84 102.903 164.11 102.58 164.493 102.536C164.875 102.492 165.223 102.744 165.27 103.1C165.655 106.013 164.009 107.718 162.558 109.222C161.124 110.708 159.885 111.991 160.191 114.318C160.498 116.645 162.034 117.611 163.812 118.731C165.611 119.863 167.651 121.147 168.035 124.06C168.42 126.974 166.774 128.678 165.323 130.182C163.888 131.668 162.65 132.952 162.956 135.278C163.003 135.634 162.732 135.957 162.35 136.002C162.321 136.006 162.292 136.007 162.264 136.007Z" fill="#BDBDBD"/>
    <mask id="mask2" mask-type="alpha" maskUnits="userSpaceOnUse" x="145" y="65" width="37" height="41">
        <path opacity="0.3" d="M165.376 92.7782C165.137 93.0114 165.01 93.3303 165.029 93.6526C165.048 93.965 165.196 94.2532 165.448 94.4622C165.699 94.6711 166.021 94.7778 166.36 94.7591C173.132 94.4083 178.474 89.198 178.524 82.8966C178.526 82.5831 178.397 82.2883 178.161 82.0651C177.924 81.8418 177.608 81.7175 177.27 81.7153C177.267 81.7153 177.264 81.7153 177.261 81.7153C176.927 81.7153 176.613 81.8352 176.375 82.053C176.135 82.2729 176.001 82.5666 175.999 82.8801C175.96 87.9452 171.664 92.1347 166.22 92.4163C165.898 92.4328 165.599 92.5604 165.376 92.7782Z" fill="white"/>
        <path opacity="0.85" d="M175.981 69.5015C178.235 72.8331 179.277 76.8962 178.624 81.0945C177.164 90.4889 167.784 97.0047 157.673 95.6497C153.855 95.1382 150.48 93.5763 147.835 91.3259C149.683 94.0574 157.56 102.373 164.349 102.373C171.138 102.373 180.518 92.9433 181.808 84.6428C182.716 78.7957 180.341 73.2126 175.981 69.5015Z" fill="url(#paint4_radial)"/>
        <path opacity="0.3" d="M151.019 94.875C148.765 91.5434 147.723 87.4803 148.376 83.2819C149.836 73.8876 159.216 67.3717 169.327 68.7268C173.145 69.2383 176.52 70.8001 179.165 73.0506C176.377 68.9292 171.734 65.9286 166.142 65.1785C156.031 63.8223 146.652 70.3393 145.192 79.7336C144.284 85.5807 146.659 91.1639 151.019 94.875Z" fill="#6DC6FF"/>
        <path opacity="0.7" d="M178.624 81.0956C179.276 76.8962 178.234 72.8331 175.981 69.5026C173.337 67.2521 169.96 65.6903 166.144 65.1788C156.031 63.8215 146.652 70.3385 145.192 79.7328C144.54 83.9323 145.581 87.9954 147.834 91.3259C150.479 93.5763 153.855 95.1382 157.672 95.6496C167.784 97.0058 177.164 90.49 178.624 81.0956ZM151.038 80.5248C151.035 80.8382 150.902 81.1319 150.661 81.3519C150.423 81.5697 150.11 81.6896 149.776 81.6896C149.772 81.6896 149.77 81.6896 149.766 81.6896C149.429 81.6874 149.113 81.5631 148.876 81.3398C148.639 81.1165 148.51 80.8217 148.513 80.5083C148.562 74.2058 153.905 68.9955 160.677 68.6457C161.015 68.627 161.337 68.7337 161.588 68.9427C161.839 69.1517 161.988 69.4388 162.007 69.7522C162.026 70.0745 161.901 70.3935 161.66 70.6267C161.438 70.8433 161.138 70.972 160.816 70.9885C155.373 71.269 151.077 75.4586 151.038 80.5248Z" fill="url(#paint5_linear)"/>
        <path d="M163.954 102.524C164.205 102.112 164.832 102.112 165.083 102.524L166.636 105.073C166.887 105.485 166.574 106 166.072 106H162.965C162.463 106 162.149 105.485 162.4 105.073L163.954 102.524Z" fill="#B3D8F0"/>
    </mask>
    <g mask="url(#mask2)">
        <rect x="145" y="65" width="37" height="41" fill="#1FD32E"/>
    </g>
    <path d="M161.66 70.6256C161.899 70.3924 162.026 70.0735 162.007 69.7512C161.988 69.4388 161.84 69.1506 161.588 68.9417C161.337 68.7327 161.015 68.626 160.677 68.6447C153.905 68.9956 148.562 74.2058 148.513 80.5072C148.51 80.8207 148.639 81.1155 148.876 81.3388C149.113 81.562 149.429 81.6863 149.766 81.6885C149.77 81.6885 149.772 81.6885 149.776 81.6885C150.11 81.6885 150.423 81.5686 150.661 81.3509C150.902 81.1309 151.035 80.8372 151.038 80.5237C151.077 75.4586 155.373 71.2691 160.816 70.9875C161.138 70.971 161.438 70.8434 161.66 70.6256Z" fill="white"/>
    <path d="M126.995 234.695C126.432 234.695 125.945 234.272 125.874 233.694C125.25 228.578 127.919 225.584 130.273 222.944C132.598 220.335 134.607 218.08 134.11 213.995C133.612 209.908 131.123 208.212 128.239 206.246C125.322 204.257 122.014 202.003 121.39 196.886C120.766 191.771 123.435 188.776 125.789 186.136C128.115 183.527 130.124 181.272 129.626 177.187C129.551 176.562 129.99 175.994 130.61 175.916C131.23 175.84 131.794 176.283 131.871 176.908C132.495 182.022 129.826 185.018 127.472 187.658C125.146 190.267 123.137 192.522 123.635 196.607C124.132 200.694 126.622 202.39 129.506 204.356C132.423 206.345 135.731 208.599 136.354 213.716C136.978 218.832 134.31 221.826 131.956 224.466C129.63 227.075 127.621 229.33 128.118 233.415C128.194 234.04 127.755 234.608 127.135 234.686C127.088 234.693 127.04 234.695 126.995 234.695Z" fill="#BDBDBD"/>
    <mask id="mask3" mask-type="alpha" maskUnits="userSpaceOnUse" x="99" y="110" width="60" height="72">
        <path opacity="0.3" d="M132.043 158.781C131.655 159.191 131.449 159.751 131.48 160.317C131.511 160.865 131.751 161.371 132.16 161.738C132.567 162.105 133.089 162.293 133.638 162.26C144.619 161.644 153.283 152.494 153.363 141.428C153.367 140.878 153.158 140.36 152.774 139.968C152.39 139.576 151.877 139.358 151.33 139.354C151.324 139.354 151.321 139.354 151.315 139.354C150.773 139.354 150.265 139.564 149.879 139.947C149.489 140.333 149.272 140.849 149.268 141.399C149.205 150.294 142.238 157.651 133.411 158.146C132.889 158.175 132.403 158.399 132.043 158.781Z" fill="white"/>
        <path opacity="0.85" d="M149.24 117.905C152.895 123.756 154.584 130.891 153.525 138.264C151.158 154.761 135.948 166.203 119.551 163.824C113.36 162.926 107.887 160.183 103.598 156.231C106.594 161.028 119.367 175.631 130.376 175.631C141.385 175.631 156.597 159.071 158.689 144.495C160.161 134.227 156.31 124.422 149.24 117.905Z" fill="url(#paint6_radial)"/>
        <path opacity="0.3" d="M108.76 162.463C105.105 156.613 103.416 149.478 104.475 142.105C106.842 125.607 122.052 114.165 138.449 116.545C144.64 117.443 150.113 120.186 154.402 124.138C149.881 116.9 142.352 111.631 133.285 110.313C116.888 107.932 101.678 119.376 99.3113 135.874C97.8388 146.142 101.69 155.946 108.76 162.463Z" fill="#6DC6FF"/>
        <path opacity="0.7" d="M153.525 138.265C154.582 130.891 152.893 123.756 149.24 117.907C144.951 113.955 139.476 111.212 133.287 110.314C116.888 107.93 101.678 119.375 99.3113 135.872C98.2535 143.247 99.9429 150.382 103.596 156.231C107.885 160.183 113.36 162.926 119.549 163.824C135.948 166.205 151.158 154.763 153.525 138.265ZM108.791 137.263C108.787 137.813 108.57 138.329 108.18 138.716C107.795 139.098 107.286 139.309 106.745 139.309C106.739 139.309 106.735 139.309 106.729 139.309C106.182 139.305 105.669 139.086 105.286 138.694C104.902 138.302 104.692 137.785 104.696 137.234C104.777 126.166 113.441 117.016 124.421 116.402C124.971 116.369 125.493 116.557 125.9 116.924C126.307 117.291 126.549 117.795 126.579 118.345C126.61 118.911 126.406 119.471 126.017 119.881C125.656 120.261 125.17 120.487 124.648 120.516C115.821 121.009 108.854 128.366 108.791 137.263Z" fill="url(#paint7_linear)"/>
        <path d="M129.735 175.896C130.143 175.173 131.16 175.173 131.567 175.896L134.086 180.372C134.493 181.096 133.984 182 133.17 182H128.133C127.318 182 126.81 181.096 127.217 180.372L129.735 175.896Z" fill="#B3D8F0"/>
    </mask>
    <g mask="url(#mask3)">
        <rect x="99" y="110" width="60" height="72" fill="#FFDB1D"/>
    </g>
    <path d="M126.017 119.879C126.404 119.47 126.61 118.91 126.579 118.344C126.548 117.795 126.309 117.289 125.9 116.922C125.493 116.555 124.97 116.368 124.421 116.4C113.441 117.017 104.777 126.166 104.696 137.232C104.692 137.783 104.902 138.3 105.285 138.692C105.669 139.085 106.182 139.303 106.729 139.307C106.735 139.307 106.739 139.307 106.744 139.307C107.286 139.307 107.795 139.096 108.18 138.714C108.57 138.327 108.787 137.812 108.791 137.261C108.854 128.366 115.821 121.009 124.648 120.515C125.17 120.486 125.656 120.262 126.017 119.879Z" fill="white"/>
    <path d="M43.463 226.058C43.0309 226.058 42.6582 225.752 42.6032 225.335C42.125 221.639 44.171 219.478 45.9757 217.571C47.7587 215.686 49.299 214.058 48.9175 211.108C48.5361 208.156 46.6273 206.931 44.4166 205.511C42.1799 204.075 39.6441 202.447 39.1658 198.751C38.6875 195.057 40.7335 192.894 42.5382 190.987C44.3213 189.103 45.8615 187.474 45.4801 184.524C45.4223 184.073 45.7589 183.662 46.2343 183.606C46.7097 183.551 47.1417 183.871 47.201 184.322C47.6792 188.016 45.6332 190.179 43.8285 192.086C42.0455 193.971 40.5052 195.599 40.8867 198.55C41.2681 201.501 43.1769 202.726 45.3876 204.146C47.6243 205.582 50.1602 207.211 50.6384 210.906C51.1167 214.601 49.0707 216.763 47.266 218.67C45.483 220.554 43.9427 222.183 44.3241 225.133C44.3819 225.584 44.0453 225.995 43.5699 226.051C43.5338 226.056 43.4976 226.058 43.463 226.058Z" fill="#BDBDBD"/>
    <mask id="mask4" mask-type="alpha" maskUnits="userSpaceOnUse" x="22" y="136" width="46" height="52">
        <path opacity="0.3" d="M47.3326 171.231C47.0353 171.527 46.8778 171.931 46.9014 172.34C46.9249 172.736 47.1089 173.102 47.4224 173.367C47.7344 173.632 48.1348 173.767 48.5557 173.743C56.9744 173.298 63.6166 166.69 63.6784 158.698C63.6814 158.301 63.5209 157.927 63.2266 157.644C62.9322 157.36 62.5393 157.203 62.1198 157.2C62.1154 157.2 62.1124 157.2 62.108 157.2C61.693 157.2 61.3029 157.352 61.0071 157.628C60.7083 157.907 60.542 158.28 60.5391 158.677C60.4905 165.101 55.1493 170.415 48.382 170.772C47.9817 170.793 47.6093 170.955 47.3326 171.231Z" fill="white"/>
        <path opacity="0.85" d="M60.5172 141.709C63.3195 145.935 64.6146 151.088 63.8022 156.413C61.9875 168.327 50.3264 176.591 37.7558 174.873C33.0093 174.224 28.8132 172.243 25.5252 169.389C27.8224 172.853 37.6147 183.4 46.055 183.4C54.4954 183.4 66.1579 171.44 67.7614 160.913C68.8902 153.497 65.9378 146.416 60.5172 141.709Z" fill="url(#paint8_radial)"/>
        <path opacity="0.3" d="M29.4828 173.89C26.6805 169.665 25.3854 164.512 26.1978 159.187C28.0125 147.272 39.6736 139.008 52.2442 140.727C56.9907 141.376 61.1868 143.356 64.4748 146.211C61.0088 140.984 55.2364 137.178 48.2851 136.227C35.7144 134.506 24.0534 142.772 22.2386 154.687C21.1098 162.103 24.0622 169.184 29.4828 173.89Z" fill="#6DC6FF"/>
        <path opacity="0.7" d="M63.8022 156.414C64.6132 151.088 63.318 145.935 60.5172 141.711C57.2292 138.856 53.0316 136.875 48.2866 136.227C35.7145 134.505 24.0534 142.771 22.2387 154.686C21.4277 160.012 22.7229 165.165 25.5237 169.389C28.8117 172.243 33.0093 174.224 37.7544 174.873C50.3265 176.593 61.9875 168.329 63.8022 156.414ZM29.5064 155.69C29.5035 156.088 29.3371 156.46 29.0384 156.739C28.7425 157.015 28.3525 157.167 27.9375 157.167C27.9331 157.167 27.9301 157.167 27.9257 157.167C27.5062 157.164 27.1133 157.007 26.8189 156.724C26.5245 156.44 26.3641 156.067 26.3671 155.669C26.4289 147.676 33.0711 141.067 41.4898 140.624C41.9107 140.6 42.311 140.735 42.6231 141C42.9351 141.266 43.1205 141.63 43.1441 142.027C43.1676 142.436 43.0116 142.841 42.7129 143.136C42.4362 143.411 42.0638 143.574 41.6635 143.595C34.8961 143.951 29.555 149.265 29.5064 155.69Z" fill="url(#paint9_linear)"/>
        <path d="M45.5638 183.592C45.8759 183.069 46.6562 183.069 46.9683 183.592L48.8993 186.824C49.2114 187.347 48.8213 188 48.1971 188H44.335C43.7108 188 43.3207 187.347 43.6328 186.824L45.5638 183.592Z" fill="#B3D8F0"/>
    </mask>
    <g mask="url(#mask4)">
        <rect x="22" y="136" width="46" height="52" fill="#FFDB1D"/>
    </g>
    <path d="M42.7128 143.135C43.0101 142.839 43.1676 142.435 43.144 142.026C43.1205 141.63 42.9365 141.264 42.623 140.999C42.311 140.734 41.9107 140.599 41.4897 140.623C33.0711 141.068 26.4288 147.676 26.367 155.668C26.3641 156.065 26.5245 156.439 26.8189 156.722C27.1132 157.006 27.5062 157.163 27.9257 157.166C27.9301 157.166 27.933 157.166 27.9374 157.166C28.3525 157.166 28.7425 157.014 29.0383 156.738C29.3371 156.459 29.5034 156.086 29.5064 155.689C29.5549 149.265 34.8961 143.951 41.6634 143.594C42.0637 143.573 42.4361 143.411 42.7128 143.135Z" fill="white"/>
    <path d="M134.995 307.768C134.432 307.768 133.945 307.368 133.874 306.822C133.25 301.99 135.919 299.163 138.273 296.67C140.598 294.205 142.607 292.076 142.11 288.217C141.612 284.357 139.123 282.755 136.239 280.899C133.322 279.021 130.014 276.891 129.39 272.059C128.766 267.228 131.435 264.4 133.789 261.906C136.115 259.442 138.124 257.313 137.626 253.454C137.551 252.864 137.99 252.328 138.61 252.254C139.23 252.182 139.794 252.6 139.871 253.19C140.495 258.021 137.826 260.85 135.472 263.343C133.146 265.808 131.137 267.937 131.635 271.795C132.132 275.656 134.622 277.257 137.506 279.114C140.423 280.992 143.731 283.121 144.354 287.954C144.978 292.786 142.31 295.613 139.956 298.106C137.63 300.571 135.621 302.7 136.118 306.559C136.194 307.149 135.755 307.685 135.135 307.759C135.088 307.766 135.04 307.768 134.995 307.768Z" fill="#BDBDBD"/>
    <mask id="mask5" mask-type="alpha" maskUnits="userSpaceOnUse" x="107" y="190" width="60" height="68">
        <path opacity="0.3" d="M140.043 236.071C139.655 236.458 139.449 236.987 139.48 237.522C139.511 238.04 139.751 238.518 140.16 238.864C140.567 239.211 141.089 239.388 141.638 239.357C152.619 238.775 161.283 230.133 161.363 219.682C161.367 219.163 161.158 218.674 160.774 218.303C160.39 217.933 159.877 217.727 159.33 217.723C159.324 217.723 159.321 217.723 159.315 217.723C158.773 217.723 158.265 217.922 157.879 218.283C157.489 218.648 157.272 219.135 157.268 219.655C157.205 228.056 150.238 235.004 141.411 235.471C140.889 235.499 140.403 235.71 140.043 236.071Z" fill="white"/>
        <path opacity="0.85" d="M157.24 197.466C160.895 202.991 162.584 209.73 161.525 216.693C159.158 232.274 143.948 243.081 127.551 240.834C121.36 239.985 115.887 237.395 111.598 233.662C114.594 238.193 127.367 251.985 138.376 251.985C149.385 251.985 164.597 236.345 166.689 222.578C168.161 212.881 164.31 203.621 157.24 197.466Z" fill="url(#paint10_radial)"/>
        <path opacity="0.3" d="M116.76 239.549C113.105 234.023 111.416 227.284 112.475 220.321C114.842 204.74 130.052 193.934 146.449 196.181C152.64 197.029 158.113 199.62 162.402 203.352C157.881 196.517 150.352 191.54 141.285 190.296C124.888 188.047 109.678 198.855 107.311 214.436C105.839 224.134 109.69 233.394 116.76 239.549Z" fill="#6DC6FF"/>
        <path opacity="0.7" d="M161.525 216.695C162.582 209.73 160.893 202.991 157.24 197.468C152.951 193.735 147.476 191.145 141.287 190.297C124.888 188.045 109.678 198.854 107.311 214.435C106.254 221.4 107.943 228.139 111.596 233.662C115.885 237.395 121.36 239.985 127.549 240.834C143.948 243.083 159.158 232.276 161.525 216.695ZM116.791 215.748C116.787 216.268 116.57 216.755 116.18 217.12C115.795 217.481 115.286 217.68 114.745 217.68C114.739 217.68 114.735 217.68 114.729 217.68C114.182 217.677 113.669 217.47 113.286 217.1C112.902 216.73 112.692 216.241 112.696 215.721C112.777 205.268 121.441 196.627 132.421 196.047C132.971 196.016 133.493 196.193 133.9 196.539C134.307 196.886 134.549 197.362 134.579 197.882C134.61 198.416 134.406 198.945 134.017 199.332C133.656 199.691 133.17 199.905 132.648 199.932C123.821 200.397 116.854 207.346 116.791 215.748Z" fill="url(#paint11_linear)"/>
        <path d="M137.735 252.236C138.143 251.552 139.16 251.552 139.567 252.236L142.086 256.463C142.493 257.146 141.984 258 141.17 258H136.133C135.318 258 134.81 257.146 135.217 256.463L137.735 252.236Z" fill="#B3D8F0"/>
    </mask>
    <g mask="url(#mask5)">
        <rect x="107" y="190" width="60" height="68" fill="#1FD32E"/>
    </g>
    <path d="M134.017 199.33C134.404 198.943 134.61 198.414 134.579 197.88C134.548 197.362 134.309 196.884 133.9 196.537C133.493 196.191 132.97 196.014 132.421 196.045C121.441 196.627 112.777 205.268 112.696 215.719C112.692 216.239 112.902 216.728 113.285 217.098C113.669 217.469 114.182 217.675 114.729 217.678C114.735 217.678 114.739 217.678 114.744 217.678C115.286 217.678 115.795 217.48 116.18 217.118C116.57 216.754 116.787 216.266 116.791 215.747C116.854 207.346 123.821 200.397 132.648 199.93C133.17 199.903 133.656 199.691 134.017 199.33Z" fill="white"/>
    <path d="M222.66 309.383C221.862 309.383 221.173 308.778 221.071 307.952C220.187 300.632 223.968 296.35 227.303 292.573C230.598 288.84 233.444 285.615 232.739 279.771C232.034 273.923 228.507 271.497 224.422 268.685C220.289 265.84 215.603 262.615 214.719 255.296C213.836 247.979 217.616 243.694 220.951 239.917C224.246 236.184 227.092 232.959 226.387 227.114C226.28 226.221 226.902 225.408 227.781 225.297C228.659 225.188 229.458 225.821 229.567 226.715C230.451 234.032 226.67 238.317 223.335 242.093C220.041 245.827 217.194 249.052 217.899 254.896C218.604 260.743 222.131 263.169 226.216 265.982C230.349 268.826 235.035 272.051 235.919 279.371C236.803 286.691 233.022 290.973 229.687 294.749C226.392 298.483 223.546 301.708 224.251 307.552C224.358 308.446 223.736 309.258 222.857 309.37C222.791 309.381 222.724 309.383 222.66 309.383Z" fill="#BDBDBD"/>
    <mask id="mask6" mask-type="alpha" maskUnits="userSpaceOnUse" x="183" y="131" width="85" height="103">
        <path opacity="0.3" d="M229.81 200.785C229.261 201.37 228.97 202.172 229.013 202.981C229.057 203.766 229.397 204.49 229.976 205.015C230.553 205.54 231.292 205.808 232.07 205.761C247.627 204.88 259.9 191.79 260.014 175.96C260.02 175.173 259.723 174.432 259.18 173.871C258.636 173.31 257.909 172.998 257.134 172.992C257.126 172.992 257.121 172.992 257.113 172.992C256.346 172.992 255.625 173.294 255.078 173.841C254.526 174.393 254.219 175.131 254.214 175.919C254.124 188.643 244.254 199.168 231.749 199.875C231.01 199.917 230.322 200.237 229.81 200.785Z" fill="white"/>
        <path opacity="0.85" d="M254.173 142.309C259.351 150.678 261.744 160.886 260.243 171.433C256.89 195.033 235.342 211.402 212.114 207.998C203.343 206.713 195.59 202.789 189.514 197.136C193.759 203.998 211.853 224.888 227.45 224.888C243.046 224.888 264.596 201.199 267.559 180.347C269.645 165.658 264.189 151.632 254.173 142.309Z" fill="url(#paint12_radial)"/>
        <path opacity="0.3" d="M196.827 206.052C191.649 197.682 189.256 187.475 190.757 176.928C194.11 153.328 215.658 136.958 238.886 140.363C247.657 141.648 255.41 145.571 261.486 151.225C255.081 140.871 244.415 133.333 231.57 131.449C208.342 128.042 186.794 144.414 183.441 168.014C181.355 182.703 186.811 196.729 196.827 206.052Z" fill="#6DC6FF"/>
        <path opacity="0.7" d="M260.243 171.435C261.742 160.885 259.349 150.678 254.173 142.311C248.097 136.658 240.341 132.734 231.573 131.449C208.342 128.039 186.794 144.411 183.441 168.012C181.942 178.562 184.336 188.769 189.511 197.136C195.587 202.789 203.343 206.713 212.111 207.998C235.342 211.405 256.89 195.036 260.243 171.435ZM196.871 170.001C196.865 170.789 196.558 171.527 196.006 172.079C195.459 172.626 194.738 172.927 193.971 172.927C193.963 172.927 193.958 172.927 193.95 172.927C193.175 172.922 192.448 172.61 191.904 172.049C191.361 171.488 191.064 170.747 191.07 169.96C191.184 154.127 203.457 141.037 219.014 140.159C219.792 140.112 220.531 140.38 221.108 140.905C221.684 141.43 222.027 142.151 222.071 142.939C222.114 143.748 221.826 144.549 221.274 145.135C220.762 145.68 220.074 146.003 219.335 146.044C206.83 146.749 196.96 157.274 196.871 170.001Z" fill="url(#paint13_linear)"/>
        <path d="M226.542 225.268C227.119 224.233 228.56 224.233 229.137 225.268L232.705 231.671C233.282 232.706 232.561 234 231.408 234H224.271C223.118 234 222.397 232.706 222.974 231.671L226.542 225.268Z" fill="#B3D8F0"/>
    </mask>
    <g mask="url(#mask6)">
        <rect x="183" y="131" width="85" height="103" fill="#69D2FF"/>
    </g>
    <path d="M221.274 145.133C221.823 144.547 222.114 143.746 222.071 142.936C222.027 142.151 221.687 141.427 221.108 140.902C220.531 140.377 219.791 140.109 219.014 140.156C203.457 141.038 191.184 154.127 191.069 169.957C191.064 170.745 191.36 171.485 191.904 172.046C192.448 172.607 193.174 172.919 193.95 172.925C193.958 172.925 193.963 172.925 193.971 172.925C194.738 172.925 195.459 172.624 196.006 172.077C196.558 171.524 196.865 170.786 196.87 169.999C196.96 157.274 206.83 146.749 219.335 146.042C220.074 146 220.762 145.68 221.274 145.133Z" fill="white"/>
    <path d="M273.462 362.427C272.889 362.427 272.395 361.998 272.322 361.412C271.687 356.224 274.401 353.19 276.794 350.513C279.158 347.867 281.201 345.581 280.695 341.439C280.189 337.295 277.658 335.576 274.726 333.582C271.76 331.566 268.398 329.281 267.763 324.093C267.129 318.907 269.842 315.87 272.235 313.194C274.6 310.548 276.642 308.262 276.137 304.12C276.06 303.486 276.506 302.911 277.137 302.832C277.767 302.755 278.34 303.203 278.419 303.837C279.053 309.023 276.34 312.059 273.947 314.736C271.582 317.382 269.54 319.668 270.045 323.81C270.551 327.954 273.082 329.673 276.014 331.666C278.98 333.683 282.343 335.968 282.977 341.156C283.611 346.344 280.898 349.379 278.505 352.055C276.14 354.701 274.098 356.987 274.604 361.129C274.68 361.763 274.234 362.338 273.604 362.417C273.556 362.425 273.508 362.427 273.462 362.427Z" fill="#BDBDBD"/>
    <mask id="mask7" mask-type="alpha" maskUnits="userSpaceOnUse" x="245" y="236" width="61" height="73">
        <path opacity="0.3" d="M278.593 285.459C278.199 285.874 277.99 286.442 278.021 287.016C278.053 287.572 278.297 288.085 278.712 288.457C279.126 288.829 279.657 289.019 280.215 288.986C291.379 288.361 300.187 279.084 300.269 267.865C300.273 267.307 300.06 266.782 299.67 266.384C299.28 265.987 298.759 265.766 298.202 265.762C298.196 265.762 298.193 265.762 298.187 265.762C297.636 265.762 297.119 265.975 296.727 266.363C296.331 266.754 296.11 267.277 296.106 267.836C296.042 276.854 288.959 284.313 279.985 284.815C279.454 284.844 278.96 285.071 278.593 285.459Z" fill="white"/>
        <path opacity="0.85" d="M296.077 244.015C299.793 249.947 301.511 257.181 300.433 264.656C298.027 281.383 282.563 292.984 265.894 290.571C259.599 289.661 254.035 286.88 249.675 282.873C252.721 287.736 265.706 302.542 276.899 302.542C288.092 302.542 303.557 285.753 305.684 270.974C307.181 260.563 303.265 250.622 296.077 244.015Z" fill="url(#paint14_radial)"/>
        <path opacity="0.3" d="M254.923 289.192C251.207 283.26 249.489 276.026 250.567 268.551C252.973 251.824 268.437 240.223 285.106 242.636C291.401 243.546 296.965 246.327 301.325 250.334C296.729 242.996 289.074 237.653 279.856 236.318C263.187 233.903 247.723 245.507 245.316 262.233C243.819 272.644 247.735 282.585 254.923 289.192Z" fill="#6DC6FF"/>
        <path opacity="0.7" d="M300.433 264.658C301.509 257.181 299.791 249.947 296.077 244.017C291.717 240.01 286.151 237.229 279.858 236.318C263.187 233.902 247.723 245.505 245.316 262.232C244.241 269.709 245.959 276.943 249.673 282.873C254.033 286.88 259.599 289.661 265.892 290.571C282.563 292.986 298.027 281.385 300.433 264.658ZM254.954 263.642C254.95 264.2 254.73 264.723 254.333 265.114C253.941 265.502 253.424 265.716 252.874 265.716C252.868 265.716 252.864 265.716 252.858 265.716C252.302 265.712 251.781 265.49 251.39 265.093C251 264.695 250.787 264.17 250.791 263.612C250.873 252.391 259.681 243.114 270.845 242.491C271.403 242.458 271.934 242.648 272.348 243.02C272.762 243.392 273.008 243.903 273.039 244.461C273.07 245.035 272.863 245.603 272.467 246.018C272.1 246.404 271.606 246.633 271.075 246.663C262.101 247.162 255.019 254.621 254.954 263.642Z" fill="url(#paint15_linear)"/>
        <path d="M276.248 302.812C276.662 302.078 277.696 302.078 278.11 302.812L280.671 307.35C281.085 308.083 280.567 309 279.74 309H274.618C273.79 309 273.273 308.083 273.687 307.35L276.248 302.812Z" fill="#B3D8F0"/>
    </mask>
    <g mask="url(#mask7)">
        <rect x="245" y="236" width="61" height="73" fill="#FFDB1D"/>
    </g>
    <path d="M272.467 246.016C272.861 245.601 273.07 245.033 273.039 244.459C273.008 243.903 272.764 243.39 272.348 243.018C271.934 242.646 271.403 242.456 270.845 242.489C259.681 243.114 250.873 252.391 250.791 263.61C250.787 264.169 251 264.693 251.39 265.091C251.781 265.489 252.302 265.71 252.858 265.714C252.864 265.714 252.868 265.714 252.874 265.714C253.424 265.714 253.941 265.5 254.333 265.113C254.73 264.721 254.95 264.198 254.954 263.64C255.018 254.621 262.101 247.162 271.075 246.661C271.606 246.631 272.1 246.404 272.467 246.016Z" fill="white"/>
    <path d="M187.196 353.521C186.688 353.521 186.251 353.204 186.186 352.771C185.625 348.933 188.027 346.688 190.145 344.708C192.238 342.751 194.047 341.06 193.599 337.996C193.151 334.931 190.91 333.659 188.315 332.184C185.689 330.693 182.713 329.002 182.151 325.165C181.59 321.328 183.992 319.082 186.11 317.102C188.203 315.145 190.011 313.454 189.564 310.39C189.496 309.921 189.891 309.495 190.449 309.437C191.007 309.38 191.514 309.712 191.584 310.181C192.145 314.017 189.743 316.263 187.625 318.243C185.532 320.2 183.724 321.891 184.171 324.955C184.619 328.021 186.86 329.293 189.455 330.767C192.081 332.258 195.058 333.949 195.619 337.787C196.18 341.624 193.779 343.869 191.66 345.849C189.567 347.806 187.759 349.497 188.207 352.561C188.274 353.03 187.879 353.456 187.321 353.514C187.279 353.52 187.236 353.521 187.196 353.521Z" fill="#BDBDBD"/>
    <mask id="mask8" mask-type="alpha" maskUnits="userSpaceOnUse" x="162" y="260" width="54" height="54">
        <path opacity="0.3" d="M191.738 296.586C191.389 296.893 191.204 297.313 191.232 297.738C191.26 298.149 191.476 298.529 191.844 298.804C192.21 299.079 192.68 299.22 193.174 299.195C203.057 298.733 210.854 291.871 210.927 283.571C210.93 283.158 210.742 282.77 210.396 282.476C210.051 282.182 209.59 282.018 209.097 282.015C209.092 282.015 209.089 282.015 209.083 282.015C208.596 282.015 208.138 282.173 207.791 282.46C207.44 282.75 207.245 283.137 207.242 283.549C207.185 290.221 200.914 295.738 192.97 296.109C192.5 296.131 192.063 296.299 191.738 296.586Z" fill="white"/>
        <path opacity="0.85" d="M207.216 265.929C210.505 270.317 212.026 275.668 211.072 281.198C208.942 293.571 195.253 302.153 180.496 300.368C174.924 299.694 169.998 297.637 166.138 294.673C168.835 298.271 180.33 309.223 190.239 309.223C200.147 309.223 213.838 296.803 215.72 285.871C217.045 278.17 213.579 270.817 207.216 265.929Z" fill="url(#paint16_radial)"/>
        <path opacity="0.3" d="M170.784 299.348C167.495 294.96 165.974 289.608 166.928 284.079C169.058 271.706 182.747 263.124 197.504 264.909C203.076 265.582 208.002 267.639 211.862 270.603C207.793 265.175 201.017 261.223 192.856 260.235C178.1 258.449 164.41 267.032 162.28 279.405C160.955 287.106 164.421 294.46 170.784 299.348Z" fill="#6DC6FF"/>
        <path opacity="0.7" d="M211.072 281.199C212.024 275.668 210.504 270.317 207.216 265.93C203.356 262.966 198.428 260.909 192.858 260.235C178.1 258.448 164.411 267.031 162.28 279.404C161.328 284.935 162.849 290.287 166.137 294.673C169.996 297.637 174.924 299.694 180.494 300.368C195.253 302.154 208.942 293.572 211.072 281.199ZM170.812 280.447C170.808 280.86 170.613 281.247 170.262 281.537C169.915 281.823 169.457 281.981 168.97 281.981C168.965 281.981 168.961 281.981 168.956 281.981C168.464 281.978 168.003 281.815 167.657 281.521C167.311 281.227 167.123 280.838 167.127 280.426C167.199 272.125 174.997 265.262 184.879 264.802C185.373 264.777 185.843 264.918 186.21 265.193C186.576 265.468 186.794 265.846 186.821 266.259C186.849 266.683 186.666 267.104 186.315 267.411C185.99 267.696 185.553 267.866 185.083 267.887C177.139 268.257 170.869 273.775 170.812 280.447Z" fill="url(#paint17_linear)"/>
        <path d="M189.662 309.422C190.028 308.88 190.944 308.88 191.311 309.422L193.577 312.779C193.944 313.322 193.486 314 192.753 314H188.219C187.487 314 187.029 313.322 187.395 312.779L189.662 309.422Z" fill="#B3D8F0"/>
    </mask>
    <g mask="url(#mask8)">
        <rect x="162" y="260" width="54" height="54" fill="#FFDB1D"/>
    </g>
    <path d="M186.315 267.409C186.664 267.102 186.849 266.682 186.821 266.258C186.794 265.846 186.578 265.467 186.21 265.192C185.843 264.916 185.373 264.776 184.879 264.8C174.996 265.262 167.199 272.125 167.126 280.424C167.123 280.837 167.311 281.225 167.657 281.519C168.002 281.813 168.464 281.977 168.956 281.98C168.961 281.98 168.965 281.98 168.97 281.98C169.457 281.98 169.915 281.822 170.262 281.535C170.613 281.246 170.808 280.859 170.812 280.446C170.869 273.775 177.139 268.257 185.083 267.886C185.553 267.864 185.99 267.696 186.315 267.409Z" fill="white"/>
    <path d="M264.463 421.521C264.031 421.521 263.658 421.204 263.603 420.771C263.125 416.933 265.171 414.688 266.976 412.708C268.759 410.751 270.299 409.06 269.918 405.996C269.536 402.931 267.627 401.659 265.417 400.184C263.18 398.693 260.644 397.002 260.166 393.165C259.688 389.328 261.734 387.082 263.538 385.102C265.321 383.145 266.862 381.454 266.48 378.39C266.422 377.921 266.759 377.495 267.234 377.437C267.71 377.38 268.142 377.712 268.201 378.181C268.679 382.017 266.633 384.263 264.829 386.243C263.046 388.2 261.505 389.891 261.887 392.955C262.268 396.021 264.177 397.293 266.388 398.767C268.624 400.258 271.16 401.949 271.638 405.787C272.117 409.624 270.071 411.869 268.266 413.849C266.483 415.806 264.943 417.497 265.324 420.561C265.382 421.03 265.045 421.456 264.57 421.514C264.534 421.52 264.498 421.521 264.463 421.521Z" fill="#BDBDBD"/>
    <mask id="mask9" mask-type="alpha" maskUnits="userSpaceOnUse" x="243" y="328" width="46" height="54">
        <path opacity="0.3" d="M268.333 364.586C268.035 364.893 267.878 365.313 267.901 365.738C267.925 366.149 268.109 366.529 268.422 366.804C268.734 367.079 269.135 367.22 269.556 367.195C277.974 366.733 284.617 359.871 284.678 351.571C284.681 351.158 284.521 350.77 284.227 350.476C283.932 350.182 283.539 350.018 283.12 350.015C283.115 350.015 283.112 350.015 283.108 350.015C282.693 350.015 282.303 350.173 282.007 350.46C281.708 350.75 281.542 351.137 281.539 351.549C281.491 358.221 276.149 363.738 269.382 364.109C268.982 364.131 268.609 364.299 268.333 364.586Z" fill="white"/>
        <path opacity="0.85" d="M281.517 333.929C284.319 338.317 285.615 343.668 284.802 349.198C282.987 361.571 271.326 370.153 258.756 368.368C254.009 367.694 249.813 365.637 246.525 362.673C248.822 366.271 258.615 377.223 267.055 377.223C275.495 377.223 287.158 364.803 288.761 353.871C289.89 346.17 286.938 338.817 281.517 333.929Z" fill="url(#paint18_radial)"/>
        <path opacity="0.3" d="M250.483 367.348C247.681 362.96 246.385 357.608 247.198 352.079C249.013 339.706 260.674 331.124 273.244 332.909C277.991 333.582 282.187 335.639 285.475 338.603C282.009 333.175 276.236 329.223 269.285 328.235C256.714 326.449 245.053 335.032 243.239 347.405C242.11 355.106 245.062 362.46 250.483 367.348Z" fill="#6DC6FF"/>
        <path opacity="0.7" d="M284.802 349.199C285.613 343.668 284.318 338.317 281.517 333.93C278.229 330.966 274.032 328.909 269.287 328.235C256.714 326.448 245.053 335.031 243.239 347.404C242.428 352.935 243.723 358.287 246.524 362.673C249.812 365.637 254.009 367.694 258.754 368.368C271.326 370.154 282.988 361.572 284.802 349.199ZM250.506 348.447C250.503 348.86 250.337 349.247 250.038 349.537C249.743 349.823 249.353 349.981 248.937 349.981C248.933 349.981 248.93 349.981 248.926 349.981C248.506 349.978 248.113 349.815 247.819 349.521C247.525 349.227 247.364 348.838 247.367 348.426C247.429 340.125 254.071 333.262 262.49 332.802C262.911 332.777 263.311 332.918 263.623 333.193C263.935 333.468 264.121 333.846 264.144 334.259C264.168 334.683 264.012 335.104 263.713 335.411C263.436 335.696 263.064 335.866 262.663 335.887C255.896 336.257 250.555 341.775 250.506 348.447Z" fill="url(#paint19_linear)"/>
        <path d="M266.564 377.422C266.876 376.88 267.656 376.88 267.968 377.422L269.899 380.779C270.211 381.322 269.821 382 269.197 382H265.335C264.711 382 264.321 381.322 264.633 380.779L266.564 377.422Z" fill="#B3D8F0"/>
    </mask>
    <g mask="url(#mask9)">
        <rect x="243" y="328" width="46" height="54" fill="#1FD32E"/>
    </g>
    <path d="M263.713 335.409C264.01 335.102 264.168 334.682 264.144 334.258C264.12 333.846 263.937 333.467 263.623 333.192C263.311 332.916 262.911 332.776 262.49 332.8C254.071 333.262 247.429 340.125 247.367 348.424C247.364 348.837 247.524 349.225 247.819 349.519C248.113 349.813 248.506 349.977 248.926 349.98C248.93 349.98 248.933 349.98 248.937 349.98C249.352 349.98 249.742 349.822 250.038 349.535C250.337 349.246 250.503 348.859 250.506 348.446C250.555 341.775 255.896 336.257 262.663 335.886C263.064 335.864 263.436 335.696 263.713 335.409Z" fill="white"/>
    <path d="M264.463 519.521C264.031 519.521 263.658 519.204 263.603 518.771C263.125 514.933 265.171 512.688 266.976 510.708C268.759 508.751 270.299 507.06 269.918 503.996C269.536 500.931 267.627 499.659 265.417 498.184C263.18 496.693 260.644 495.002 260.166 491.165C259.688 487.328 261.734 485.082 263.538 483.102C265.321 481.145 266.862 479.454 266.48 476.39C266.422 475.921 266.759 475.495 267.234 475.437C267.71 475.38 268.142 475.712 268.201 476.181C268.679 480.017 266.633 482.263 264.829 484.243C263.046 486.2 261.505 487.891 261.887 490.955C262.268 494.021 264.177 495.293 266.388 496.767C268.624 498.258 271.16 499.949 271.638 503.787C272.117 507.624 270.071 509.869 268.266 511.849C266.483 513.806 264.943 515.497 265.324 518.561C265.382 519.03 265.045 519.456 264.57 519.514C264.534 519.52 264.498 519.521 264.463 519.521Z" fill="#BDBDBD"/>
    <mask id="mask10" mask-type="alpha" maskUnits="userSpaceOnUse" x="243" y="426" width="46" height="54">
        <path opacity="0.3" d="M268.333 462.586C268.035 462.893 267.878 463.313 267.901 463.738C267.925 464.149 268.109 464.529 268.422 464.804C268.734 465.079 269.135 465.22 269.556 465.195C277.974 464.733 284.617 457.871 284.678 449.571C284.681 449.158 284.521 448.77 284.227 448.476C283.932 448.182 283.539 448.018 283.12 448.015C283.115 448.015 283.112 448.015 283.108 448.015C282.693 448.015 282.303 448.173 282.007 448.46C281.708 448.75 281.542 449.137 281.539 449.549C281.491 456.221 276.149 461.738 269.382 462.109C268.982 462.131 268.609 462.299 268.333 462.586Z" fill="white"/>
        <path opacity="0.85" d="M281.517 431.929C284.319 436.317 285.615 441.668 284.802 447.198C282.987 459.571 271.326 468.153 258.756 466.368C254.009 465.694 249.813 463.637 246.525 460.673C248.822 464.271 258.615 475.223 267.055 475.223C275.495 475.223 287.158 462.803 288.761 451.871C289.89 444.17 286.938 436.817 281.517 431.929Z" fill="url(#paint20_radial)"/>
        <path opacity="0.3" d="M250.483 465.348C247.681 460.96 246.385 455.608 247.198 450.079C249.013 437.706 260.674 429.124 273.244 430.909C277.991 431.582 282.187 433.639 285.475 436.603C282.009 431.175 276.236 427.223 269.285 426.235C256.714 424.449 245.053 433.032 243.239 445.405C242.11 453.106 245.062 460.46 250.483 465.348Z" fill="#6DC6FF"/>
        <path opacity="0.7" d="M284.802 447.199C285.613 441.668 284.318 436.317 281.517 431.93C278.229 428.966 274.032 426.909 269.287 426.235C256.714 424.448 245.053 433.031 243.239 445.404C242.428 450.935 243.723 456.287 246.524 460.673C249.812 463.637 254.009 465.694 258.754 466.368C271.326 468.154 282.988 459.572 284.802 447.199ZM250.506 446.447C250.503 446.86 250.337 447.247 250.038 447.537C249.743 447.823 249.353 447.981 248.937 447.981C248.933 447.981 248.93 447.981 248.926 447.981C248.506 447.978 248.113 447.815 247.819 447.521C247.525 447.227 247.364 446.838 247.367 446.426C247.429 438.125 254.071 431.262 262.49 430.802C262.911 430.777 263.311 430.918 263.623 431.193C263.935 431.468 264.121 431.846 264.144 432.259C264.168 432.683 264.012 433.104 263.713 433.411C263.436 433.696 263.064 433.866 262.663 433.887C255.896 434.257 250.555 439.775 250.506 446.447Z" fill="url(#paint21_linear)"/>
        <path d="M266.564 475.422C266.876 474.88 267.656 474.88 267.968 475.422L269.899 478.779C270.211 479.322 269.821 480 269.197 480H265.335C264.711 480 264.321 479.322 264.633 478.779L266.564 475.422Z" fill="#B3D8F0"/>
    </mask>
    <g mask="url(#mask10)">
        <rect x="243" y="426" width="46" height="54" fill="#FFDB1D"/>
    </g>
    <path d="M263.713 433.409C264.01 433.102 264.168 432.682 264.144 432.258C264.12 431.846 263.937 431.467 263.623 431.192C263.311 430.916 262.911 430.776 262.49 430.8C254.071 431.262 247.429 438.125 247.367 446.424C247.364 446.837 247.524 447.225 247.819 447.519C248.113 447.813 248.506 447.977 248.926 447.98C248.93 447.98 248.933 447.98 248.937 447.98C249.352 447.98 249.742 447.822 250.038 447.535C250.337 447.246 250.503 446.859 250.506 446.446C250.555 439.775 255.896 434.257 262.663 433.886C263.064 433.864 263.436 433.696 263.713 433.409Z" fill="white"/>
    <path d="M122.329 550.521C121.86 550.521 121.455 550.204 121.395 549.771C120.875 545.933 123.099 543.688 125.061 541.708C126.999 539.751 128.673 538.06 128.258 534.996C127.844 531.931 125.769 530.659 123.366 529.184C120.935 527.693 118.178 526.002 117.658 522.165C117.139 518.328 119.363 516.082 121.324 514.102C123.262 512.145 124.936 510.454 124.522 507.39C124.459 506.921 124.825 506.495 125.342 506.437C125.858 506.38 126.328 506.712 126.392 507.181C126.912 511.017 124.688 513.263 122.727 515.243C120.789 517.2 119.114 518.891 119.529 521.955C119.944 525.021 122.018 526.293 124.421 527.767C126.853 529.258 129.609 530.949 130.129 534.787C130.649 538.624 128.425 540.869 126.463 542.849C124.525 544.806 122.851 546.497 123.265 549.561C123.328 550.03 122.962 550.456 122.446 550.514C122.406 550.52 122.367 550.521 122.329 550.521Z" fill="#BDBDBD"/>
    <mask id="mask11" mask-type="alpha" maskUnits="userSpaceOnUse" x="99" y="457" width="50" height="54">
        <path opacity="0.3" d="M126.535 493.586C126.212 493.893 126.041 494.313 126.067 494.738C126.092 495.149 126.292 495.529 126.633 495.804C126.972 496.079 127.407 496.22 127.865 496.195C137.016 495.733 144.235 488.871 144.303 480.571C144.306 480.158 144.131 479.77 143.811 479.476C143.492 479.182 143.064 479.018 142.608 479.015C142.604 479.015 142.6 479.015 142.596 479.015C142.145 479.015 141.721 479.173 141.399 479.46C141.074 479.75 140.893 480.137 140.89 480.549C140.838 487.221 135.032 492.738 127.676 493.109C127.241 493.131 126.836 493.299 126.535 493.586Z" fill="white"/>
        <path opacity="0.85" d="M140.866 462.929C143.912 467.317 145.32 472.668 144.437 478.198C142.465 490.571 129.79 499.153 116.126 497.368C110.967 496.694 106.406 494.637 102.832 491.673C105.329 495.271 115.972 506.223 125.147 506.223C134.321 506.223 146.998 493.803 148.741 482.871C149.968 475.17 146.758 467.817 140.866 462.929Z" fill="url(#paint22_radial)"/>
        <path opacity="0.3" d="M107.134 496.348C104.088 491.96 102.68 486.608 103.563 481.079C105.535 468.706 118.21 460.124 131.874 461.909C137.033 462.582 141.594 464.639 145.168 467.603C141.401 462.175 135.126 458.223 127.571 457.235C113.907 455.449 101.232 464.032 99.2594 476.405C98.0324 484.106 101.242 491.46 107.134 496.348Z" fill="#6DC6FF"/>
        <path opacity="0.7" d="M144.437 478.199C145.319 472.668 143.911 467.317 140.867 462.93C137.293 459.966 132.73 457.909 127.572 457.235C113.907 455.448 101.232 464.031 99.2594 476.404C98.3779 481.935 99.7857 487.287 102.83 491.673C106.404 494.637 110.967 496.694 116.124 497.368C129.79 499.154 142.465 490.572 144.437 478.199ZM107.159 477.447C107.156 477.86 106.975 478.247 106.65 478.537C106.329 478.823 105.905 478.981 105.454 478.981C105.449 478.981 105.446 478.981 105.441 478.981C104.985 478.978 104.558 478.815 104.238 478.521C103.918 478.227 103.744 477.838 103.747 477.426C103.814 469.125 111.034 462.262 120.185 461.802C120.642 461.777 121.077 461.918 121.416 462.193C121.756 462.468 121.957 462.846 121.983 463.259C122.008 463.683 121.839 464.104 121.514 464.411C121.213 464.696 120.808 464.866 120.373 464.887C113.018 465.257 107.212 470.775 107.159 477.447Z" fill="url(#paint23_linear)"/>
        <path d="M124.613 506.422C124.952 505.88 125.8 505.88 126.139 506.422L128.238 509.779C128.578 510.322 128.154 511 127.475 511H123.277C122.599 511 122.175 510.322 122.514 509.779L124.613 506.422Z" fill="#B3D8F0"/>
    </mask>
    <g mask="url(#mask11)">
        <rect x="99" y="457" width="50" height="54" fill="#69D2FF"/>
    </g>
    <path d="M121.514 464.409C121.837 464.102 122.008 463.682 121.983 463.258C121.957 462.846 121.757 462.467 121.416 462.192C121.077 461.916 120.642 461.776 120.185 461.8C111.034 462.262 103.814 469.125 103.747 477.424C103.744 477.837 103.918 478.225 104.238 478.519C104.558 478.813 104.985 478.977 105.441 478.98C105.446 478.98 105.449 478.98 105.454 478.98C105.905 478.98 106.329 478.822 106.65 478.535C106.975 478.246 107.156 477.859 107.159 477.446C107.212 470.775 113.017 465.257 120.373 464.886C120.808 464.864 121.213 464.696 121.514 464.409Z" fill="white"/>
    <path d="M271.729 174.644C271.231 174.644 270.802 174.286 270.739 173.796C270.187 169.461 272.545 166.926 274.624 164.689C276.679 162.478 278.453 160.568 278.014 157.107C277.574 153.644 275.375 152.207 272.828 150.542C270.251 148.857 267.329 146.947 266.778 142.612C266.227 138.278 268.584 135.741 270.664 133.504C272.718 131.293 274.493 129.383 274.053 125.922C273.987 125.393 274.374 124.912 274.922 124.846C275.47 124.781 275.968 125.156 276.036 125.686C276.587 130.019 274.23 132.556 272.15 134.793C270.096 137.004 268.321 138.914 268.761 142.375C269.2 145.838 271.399 147.275 273.947 148.94C276.524 150.625 279.445 152.535 279.996 156.87C280.547 161.205 278.19 163.741 276.111 165.978C274.056 168.189 272.282 170.099 272.721 173.56C272.788 174.089 272.4 174.57 271.852 174.636C271.811 174.643 271.769 174.644 271.729 174.644Z" fill="#BDBDBD"/>
    <mask id="mask12" mask-type="alpha" maskUnits="userSpaceOnUse" x="247" y="69" width="53" height="61">
        <path opacity="0.3" d="M276.188 110.329C275.845 110.676 275.664 111.15 275.691 111.63C275.718 112.094 275.93 112.523 276.291 112.834C276.651 113.145 277.112 113.304 277.597 113.276C287.297 112.754 294.95 105.002 295.021 95.6268C295.024 95.1604 294.839 94.7218 294.5 94.3896C294.161 94.0574 293.708 93.8725 293.225 93.8692C293.22 93.8692 293.217 93.8692 293.211 93.8692C292.733 93.8692 292.284 94.0476 291.943 94.3716C291.599 94.6989 291.407 95.1358 291.404 95.6022C291.348 103.138 285.194 109.371 277.397 109.79C276.935 109.815 276.506 110.005 276.188 110.329Z" fill="white"/>
        <path opacity="0.85" d="M291.378 75.6973C294.607 80.6541 296.099 86.6991 295.163 92.9455C293.073 106.922 279.637 116.617 265.153 114.601C259.685 113.84 254.85 111.516 251.062 108.168C253.708 112.232 264.991 124.604 274.716 124.604C284.44 124.604 297.878 110.574 299.725 98.2247C301.026 89.5253 297.624 81.2187 291.378 75.6973Z" fill="url(#paint24_radial)"/>
        <path opacity="0.3" d="M255.622 113.448C252.393 108.491 250.901 102.446 251.837 96.2C253.927 82.2231 267.363 72.5287 281.847 74.5448C287.315 75.3058 292.15 77.6296 295.938 80.9777C291.945 74.846 285.294 70.3817 277.285 69.2656C262.801 67.2479 249.366 76.9439 247.275 90.9208C245.974 99.6202 249.376 107.927 255.622 113.448Z" fill="#6DC6FF"/>
        <path opacity="0.7" d="M295.163 92.9471C296.098 86.6992 294.606 80.6541 291.379 75.6989C287.59 72.3507 282.754 70.027 277.287 69.266C262.801 67.2466 249.366 76.9426 247.275 90.9196C246.341 97.1675 247.833 103.213 251.06 108.168C254.848 111.516 259.685 113.84 265.152 114.601C279.637 116.618 293.073 106.924 295.163 92.9471ZM255.649 92.0978C255.645 92.5642 255.454 93.0011 255.109 93.3284C254.769 93.6524 254.319 93.8308 253.841 93.8308C253.836 93.8308 253.833 93.8308 253.827 93.8308C253.344 93.8275 252.891 93.6426 252.552 93.3104C252.213 92.9782 252.028 92.5397 252.032 92.0733C252.103 82.6964 259.756 74.9445 269.456 74.4241C269.941 74.3963 270.402 74.555 270.761 74.866C271.121 75.1769 271.335 75.604 271.362 76.0704C271.389 76.5499 271.209 77.0244 270.865 77.3714C270.546 77.6938 270.117 77.8852 269.656 77.9098C261.859 78.3271 255.705 84.5603 255.649 92.0978Z" fill="url(#paint25_linear)"/>
        <path d="M274.15 124.829C274.509 124.216 275.408 124.216 275.768 124.829L277.993 128.621C278.352 129.234 277.903 130 277.184 130H272.734C272.015 130 271.565 129.234 271.925 128.621L274.15 124.829Z" fill="#B3D8F0"/>
    </mask>
    <g mask="url(#mask12)">
        <rect x="247" y="69" width="53" height="61" fill="#1FD32E"/>
    </g>
    <path d="M270.865 77.3698C271.207 77.0229 271.389 76.5483 271.362 76.0688C271.334 75.6041 271.123 75.1753 270.761 74.8644C270.402 74.5535 269.941 74.3947 269.456 74.4226C259.756 74.9446 252.103 82.6965 252.032 92.0717C252.028 92.5381 252.213 92.9767 252.552 93.3089C252.891 93.6411 253.344 93.826 253.827 93.8293C253.832 93.8293 253.836 93.8293 253.841 93.8293C254.319 93.8293 254.769 93.6509 255.109 93.3269C255.454 92.9996 255.645 92.5626 255.649 92.0963C255.705 84.5604 261.859 78.3271 269.656 77.9082C270.117 77.8837 270.546 77.6938 270.865 77.3698Z" fill="white"/>
    <path d="M48.9916 443.557C48.0054 443.557 47.1545 442.845 47.0291 441.875C45.9374 433.276 50.6077 428.246 54.7271 423.809C58.797 419.424 62.3129 415.635 61.4422 408.769C60.5715 401.9 56.2146 399.05 51.1684 395.746C46.0628 392.405 40.2745 388.616 39.1828 380.017C38.0911 371.421 42.7613 366.388 46.8807 361.951C50.9507 357.565 54.4665 353.777 53.5958 346.911C53.4639 345.861 54.2324 344.907 55.3175 344.776C56.4026 344.648 57.3887 345.392 57.5239 346.442C58.6156 355.038 53.9454 360.071 49.826 364.508C45.756 368.893 42.2402 372.682 43.1109 379.548C43.9816 386.417 48.3385 389.267 53.3847 392.57C58.4903 395.912 64.2786 399.701 65.3703 408.3C66.462 416.899 61.7918 421.929 57.6724 426.366C53.6024 430.751 50.0866 434.54 50.9573 441.406C51.0892 442.456 50.3207 443.41 49.2356 443.541C49.1532 443.554 49.0707 443.557 48.9916 443.557Z" fill="#BDBDBD"/>
    <mask id="mask13" mask-type="alpha" maskUnits="userSpaceOnUse" x="0" y="234" width="105" height="121">
        <path opacity="0.3" d="M57.8245 315.98C57.1458 316.668 56.7864 317.609 56.8401 318.561C56.8939 319.482 57.3138 320.333 58.0294 320.95C58.7416 321.566 59.6554 321.881 60.6163 321.826C79.8328 320.791 94.9944 305.414 95.1355 286.817C95.1422 285.892 94.7761 285.022 94.1041 284.363C93.4322 283.704 92.5352 283.337 91.5778 283.331C91.5677 283.331 91.561 283.331 91.5509 283.331C90.6035 283.331 89.7132 283.685 89.038 284.327C88.356 284.977 87.9763 285.843 87.9696 286.768C87.8588 301.717 75.667 314.081 60.2198 314.912C59.306 314.961 58.4561 315.337 57.8245 315.98Z" fill="white"/>
        <path opacity="0.85" d="M87.9196 247.285C94.3162 257.117 97.2726 269.108 95.4181 281.499C91.2758 309.223 64.6582 328.453 35.9643 324.454C25.1298 322.945 15.5518 318.335 8.04655 311.694C13.2902 319.755 35.6422 344.296 54.9083 344.296C74.1743 344.296 100.795 316.467 104.455 291.97C107.032 274.714 100.293 258.237 87.9196 247.285Z" fill="url(#paint26_radial)"/>
        <path opacity="0.3" d="M17.0804 322.168C10.6838 312.335 7.72743 300.344 9.5819 287.954C13.7242 260.229 40.3418 241 69.0357 244.999C79.8702 246.508 89.4482 251.118 96.9535 257.759C89.0417 245.596 75.8656 236.741 59.9985 234.527C31.3047 230.524 4.68705 249.757 0.544735 277.482C-2.03203 294.738 4.7072 311.215 17.0804 322.168Z" fill="#6DC6FF"/>
        <path opacity="0.7" d="M95.4182 281.502C97.2693 269.108 94.3129 257.117 87.9197 247.288C80.4145 240.647 70.8331 236.037 60.0019 234.528C31.3047 230.522 4.68709 249.755 0.544777 277.48C-1.30633 289.873 1.65007 301.864 8.04327 311.693C15.5485 318.335 25.1299 322.944 35.961 324.454C64.6582 328.456 91.2759 309.226 95.4182 281.502ZM17.1342 279.817C17.1275 280.742 16.7478 281.609 16.0659 282.258C15.3906 282.901 14.5003 283.255 13.5529 283.255C13.5428 283.255 13.5361 283.255 13.526 283.255C12.5686 283.248 11.6716 282.881 10.9997 282.222C10.3278 281.563 9.96157 280.693 9.96829 279.768C10.1094 261.168 25.271 245.792 44.4876 244.759C45.4484 244.704 46.3622 245.019 47.0744 245.636C47.7866 246.253 48.2099 247.1 48.2637 248.025C48.3174 248.976 47.9613 249.917 47.2793 250.606C46.6477 251.245 45.7978 251.625 44.884 251.673C29.4368 252.501 17.2451 264.866 17.1342 279.817Z" fill="url(#paint27_linear)"/>
        <path d="M53.787 344.743C54.4994 343.527 56.2804 343.527 56.9928 344.743L61.4007 352.265C62.113 353.48 61.2226 355 59.7978 355H50.982C49.5573 355 48.6668 353.48 49.3792 352.265L53.787 344.743Z" fill="#B3D8F0"/>
    </mask>
    <g mask="url(#mask13)">
        <rect y="234" width="105" height="121" fill="#69D2FF"/>
    </g>
    <path d="M47.2792 250.602C47.9579 249.914 48.3173 248.973 48.2636 248.022C48.2098 247.1 47.7899 246.249 47.0743 245.633C46.3621 245.016 45.4483 244.701 44.4875 244.756C25.2709 245.792 10.1093 261.168 9.96819 279.765C9.96147 280.69 10.3277 281.56 10.9996 282.219C11.6715 282.878 12.5685 283.245 13.5259 283.251C13.536 283.251 13.5427 283.251 13.5528 283.251C14.5002 283.251 15.3905 282.898 16.0658 282.255C16.7477 281.606 17.1274 280.739 17.1341 279.814C17.245 264.866 29.4367 252.501 44.8839 251.67C45.7977 251.622 46.6476 251.245 47.2792 250.602Z" fill="white"/>
    <path d="M172.125 526.238C171.177 526.238 170.358 525.585 170.238 524.695C169.187 516.807 173.68 512.192 177.642 508.122C181.557 504.099 184.939 500.624 184.102 494.325C183.264 488.024 179.073 485.409 174.219 482.379C169.308 479.313 163.74 475.838 162.69 467.949C161.64 460.064 166.132 455.447 170.095 451.377C174.01 447.353 177.392 443.878 176.554 437.58C176.427 436.616 177.166 435.741 178.21 435.621C179.254 435.504 180.202 436.186 180.333 437.149C181.383 445.034 176.89 449.652 172.928 453.722C169.013 457.745 165.631 461.221 166.469 467.519C167.306 473.82 171.497 476.435 176.351 479.466C181.262 482.531 186.83 486.007 187.88 493.895C188.93 501.783 184.438 506.398 180.475 510.468C176.56 514.491 173.178 517.967 174.016 524.265C174.143 525.228 173.404 526.104 172.36 526.224C172.281 526.235 172.201 526.238 172.125 526.238Z" fill="#BDBDBD"/>
    <mask id="mask14" mask-type="alpha" maskUnits="userSpaceOnUse" x="125" y="334" width="101" height="111">
        <path opacity="0.3" d="M180.622 409.205C179.969 409.836 179.623 410.699 179.675 411.572C179.726 412.418 180.13 413.198 180.819 413.764C181.504 414.329 182.383 414.618 183.307 414.568C201.792 413.618 216.376 399.512 216.511 382.452C216.518 381.603 216.166 380.805 215.519 380.201C214.873 379.596 214.01 379.26 213.089 379.254C213.079 379.254 213.073 379.254 213.063 379.254C212.152 379.254 211.296 379.578 210.646 380.168C209.99 380.763 209.625 381.559 209.618 382.407C209.512 396.12 197.784 407.463 182.926 408.225C182.047 408.269 181.229 408.615 180.622 409.205Z" fill="white"/>
        <path opacity="0.85" d="M209.57 346.187C215.723 355.207 218.567 366.207 216.783 377.573C212.799 403.007 187.195 420.647 159.594 416.978C149.172 415.594 139.959 411.365 132.74 405.273C137.784 412.668 159.284 435.181 177.817 435.181C196.349 435.181 221.955 409.651 225.476 387.18C227.955 371.349 221.472 356.234 209.57 346.187Z" fill="url(#paint28_radial)"/>
        <path opacity="0.3" d="M141.43 414.881C135.277 405.861 132.433 394.861 134.217 383.495C138.201 358.062 163.805 340.421 191.406 344.09C201.828 345.474 211.041 349.703 218.26 355.795C210.65 344.638 197.975 336.514 182.713 334.483C155.112 330.812 129.508 348.455 125.524 373.889C123.045 389.719 129.528 404.834 141.43 414.881Z" fill="#6DC6FF"/>
        <path opacity="0.7" d="M216.783 377.576C218.564 366.207 215.72 355.207 209.57 346.19C202.351 340.097 193.135 335.869 182.716 334.484C155.112 330.809 129.509 348.453 125.524 373.886C123.743 385.256 126.587 396.256 132.737 405.273C139.956 411.365 149.173 415.594 159.591 416.978C187.195 420.65 212.799 403.009 216.783 377.576ZM141.481 376.03C141.475 376.879 141.11 377.674 140.454 378.27C139.804 378.859 138.948 379.184 138.037 379.184C138.027 379.184 138.02 379.184 138.011 379.184C137.09 379.178 136.227 378.841 135.581 378.237C134.934 377.633 134.582 376.834 134.589 375.986C134.724 358.923 149.308 344.817 167.793 343.87C168.717 343.82 169.596 344.108 170.281 344.674C170.966 345.24 171.373 346.017 171.425 346.866C171.477 347.738 171.134 348.602 170.478 349.233C169.871 349.82 169.053 350.168 168.174 350.213C153.315 350.972 141.588 362.315 141.481 376.03Z" fill="url(#paint29_linear)"/>
        <path d="M176.738 435.59C177.423 434.475 179.136 434.475 179.822 435.59L184.062 442.491C184.747 443.606 183.89 445 182.52 445H174.04C172.669 445 171.813 443.606 172.498 442.491L176.738 435.59Z" fill="#B3D8F0"/>
    </mask>
    <g mask="url(#mask14)">
        <rect x="125" y="334" width="101" height="111" fill="#69D2FF"/>
    </g>
    <path d="M170.478 349.23C171.131 348.599 171.477 347.735 171.425 346.863C171.373 346.017 170.969 345.237 170.281 344.671C169.596 344.105 168.717 343.817 167.793 343.867C149.308 344.817 134.724 358.923 134.588 375.983C134.582 376.832 134.934 377.63 135.581 378.234C136.227 378.839 137.09 379.175 138.011 379.181C138.02 379.181 138.027 379.181 138.037 379.181C138.948 379.181 139.804 378.857 140.454 378.267C141.11 377.671 141.475 376.876 141.481 376.028C141.588 362.315 153.315 350.972 168.174 350.21C169.053 350.165 169.871 349.82 170.478 349.23Z" fill="white"/>
    <path d="M64.3281 501.427C63.7176 501.427 63.1909 500.998 63.1133 500.412C62.4375 495.224 65.3286 492.19 67.8787 489.513C70.3982 486.867 72.5747 484.581 72.0356 480.439C71.4966 476.295 68.7995 474.576 65.6757 472.582C62.5151 470.566 58.9318 468.281 58.256 463.093C57.5802 457.907 60.4713 454.87 63.0214 452.194C65.5409 449.548 67.7174 447.262 67.1784 443.12C67.0967 442.486 67.5724 441.911 68.2441 441.832C68.9159 441.755 69.5264 442.203 69.6101 442.837C70.2859 448.023 67.3948 451.059 64.8447 453.736C62.3252 456.382 60.1487 458.668 60.6877 462.81C61.2267 466.954 63.9238 468.673 67.0477 470.666C70.2083 472.683 73.7915 474.968 74.4673 480.156C75.1431 485.344 72.2521 488.379 69.7019 491.055C67.1824 493.701 65.006 495.987 65.545 500.129C65.6266 500.763 65.1509 501.338 64.4792 501.417C64.4282 501.425 64.3771 501.427 64.3281 501.427Z" fill="#BDBDBD"/>
    <mask id="mask15" mask-type="alpha" maskUnits="userSpaceOnUse" x="34" y="375" width="65" height="73">
        <path opacity="0.3" d="M69.7961 424.459C69.376 424.874 69.1535 425.442 69.1867 426.016C69.22 426.572 69.48 427.085 69.923 427.457C70.3639 427.829 70.9295 428.019 71.5243 427.986C83.4203 427.361 92.8061 418.084 92.8934 406.865C92.8976 406.307 92.6709 405.782 92.2549 405.384C91.839 404.987 91.2837 404.766 90.691 404.762C90.6848 404.762 90.6806 404.762 90.6744 404.762C90.0879 404.762 89.5368 404.975 89.1187 405.363C88.6966 405.754 88.4615 406.277 88.4574 406.836C88.3888 415.854 80.8415 423.313 71.2789 423.815C70.7133 423.844 70.1871 424.071 69.7961 424.459Z" fill="white"/>
        <path opacity="0.85" d="M88.4264 383.015C92.3862 388.947 94.2163 396.181 93.0683 403.656C90.5041 420.383 74.0265 431.984 56.2636 429.571C49.5566 428.661 43.6273 425.88 38.9812 421.873C42.2273 426.736 56.0642 441.542 67.9908 441.542C79.9174 441.542 96.3971 424.753 98.6628 409.974C100.258 399.563 96.086 389.622 88.4264 383.015Z" fill="url(#paint30_radial)"/>
        <path opacity="0.3" d="M44.5736 428.192C40.6138 422.26 38.7836 415.026 39.9317 407.551C42.4959 390.824 58.9735 379.223 76.7364 381.636C83.4434 382.546 89.3727 385.327 94.0188 389.334C89.1211 381.996 80.9644 376.653 71.1419 375.318C53.3791 372.903 36.9015 384.507 34.3372 401.233C32.7421 411.644 36.914 421.585 44.5736 428.192Z" fill="#6DC6FF"/>
        <path opacity="0.7" d="M93.0684 403.658C94.2143 396.181 92.3842 388.947 88.4265 383.017C83.7804 379.01 77.849 376.229 71.144 375.318C53.3791 372.902 36.9015 384.505 34.3372 401.232C33.1913 408.709 35.0215 415.943 38.9792 421.873C43.6253 425.88 49.5566 428.661 56.2616 429.571C74.0265 431.986 90.5041 420.385 93.0684 403.658ZM44.6069 402.642C44.6027 403.2 44.3677 403.723 43.9455 404.114C43.5275 404.502 42.9764 404.716 42.3899 404.716C42.3837 404.716 42.3795 404.716 42.3733 404.716C41.7805 404.712 41.2253 404.49 40.8093 404.093C40.3934 403.695 40.1667 403.17 40.1708 402.612C40.2582 391.391 49.6439 382.114 61.5399 381.491C62.1347 381.458 62.7004 381.648 63.1413 382.02C63.5822 382.392 63.8442 382.903 63.8775 383.461C63.9108 384.035 63.6903 384.603 63.2682 385.018C62.8772 385.404 62.351 385.633 61.7853 385.663C52.2228 386.162 44.6755 393.621 44.6069 402.642Z" fill="url(#paint31_linear)"/>
        <path d="M67.2967 441.812C67.7377 441.078 68.8402 441.078 69.2812 441.812L72.0099 446.35C72.4509 447.083 71.8997 448 71.0177 448H65.5603C64.6783 448 64.1271 447.083 64.5681 446.35L67.2967 441.812Z" fill="#B3D8F0"/>
    </mask>
    <g mask="url(#mask15)">
        <rect x="34" y="375" width="65" height="73" fill="#1FD32E"/>
    </g>
    <path d="M63.2681 385.016C63.6882 384.601 63.9107 384.033 63.8775 383.459C63.8442 382.903 63.5842 382.39 63.1412 382.018C62.7003 381.646 62.1347 381.456 61.5399 381.489C49.6439 382.114 40.2581 391.391 40.1708 402.61C40.1666 403.169 40.3933 403.693 40.8093 404.091C41.2252 404.489 41.7805 404.71 42.3732 404.714C42.3794 404.714 42.3836 404.714 42.3898 404.714C42.9763 404.714 43.5274 404.5 43.9455 404.113C44.3677 403.721 44.6027 403.198 44.6068 402.64C44.6754 393.621 52.2227 386.162 61.7853 385.661C62.3509 385.631 62.8771 385.404 63.2681 385.016Z" fill="white"/>
    <defs>
        <radialGradient id="paint0_radial" cx="0" cy="0" r="1" gradientUnits="userSpaceOnUse" gradientTransform="translate(80.6765 65.6358) rotate(42.008) scale(46.8655 49.7949)">
            <stop offset="0.625" stop-color="#7BC3F2" stop-opacity="0"/>
            <stop offset="1" stop-color="#7BC3F2"/>
        </radialGradient>
        <linearGradient id="paint1_linear" x1="71.8093" y1="4" x2="71.8093" y2="101.748" gradientUnits="userSpaceOnUse">
            <stop stop-color="#60B8FE"/>
            <stop offset="1" stop-color="#60B8FE" stop-opacity="0"/>
        </linearGradient>
        <radialGradient id="paint2_radial" cx="0" cy="0" r="1" gradientUnits="userSpaceOnUse" gradientTransform="translate(217.761 33.6628) rotate(42.2632) scale(25.47 27.0863)">
            <stop offset="0.625" stop-color="#7BC3F2" stop-opacity="0"/>
            <stop offset="1" stop-color="#7BC3F2"/>
        </radialGradient>
        <linearGradient id="paint3_linear" x1="212.961" y1="0" x2="212.961" y2="53.3854" gradientUnits="userSpaceOnUse">
            <stop stop-color="#60B8FE"/>
            <stop offset="1" stop-color="#60B8FE" stop-opacity="0"/>
        </linearGradient>
        <radialGradient id="paint4_radial" cx="0" cy="0" r="1" gradientUnits="userSpaceOnUse" gradientTransform="translate(164.918 84.439) rotate(39.9227) scale(15.4135 16.2088)">
            <stop offset="0.625" stop-color="#7BC3F2" stop-opacity="0"/>
            <stop offset="1" stop-color="#7BC3F2"/>
        </radialGradient>
        <linearGradient id="paint5_linear" x1="161.908" y1="65" x2="161.908" y2="95.8282" gradientUnits="userSpaceOnUse">
            <stop stop-color="#60B8FE"/>
            <stop offset="1" stop-color="#60B8FE" stop-opacity="0"/>
        </linearGradient>
        <radialGradient id="paint6_radial" cx="0" cy="0" r="1" gradientUnits="userSpaceOnUse" gradientTransform="translate(131.299 144.137) rotate(42.1828) scale(25.8687 27.5028)">
            <stop offset="0.625" stop-color="#7BC3F2" stop-opacity="0"/>
            <stop offset="1" stop-color="#7BC3F2"/>
        </radialGradient>
        <linearGradient id="paint7_linear" x1="126.418" y1="110" x2="126.418" y2="164.137" gradientUnits="userSpaceOnUse">
            <stop stop-color="#60B8FE"/>
            <stop offset="1" stop-color="#60B8FE" stop-opacity="0"/>
        </linearGradient>
        <radialGradient id="paint8_radial" cx="0" cy="0" r="1" gradientUnits="userSpaceOnUse" gradientTransform="translate(46.7626 160.654) rotate(40.4862) scale(19.3227 20.3874)">
            <stop offset="0.625" stop-color="#7BC3F2" stop-opacity="0"/>
            <stop offset="1" stop-color="#7BC3F2"/>
        </radialGradient>
        <linearGradient id="paint9_linear" x1="43.0205" y1="136" x2="43.0205" y2="175.099" gradientUnits="userSpaceOnUse">
            <stop stop-color="#60B8FE"/>
            <stop offset="1" stop-color="#60B8FE" stop-opacity="0"/>
        </linearGradient>
        <radialGradient id="paint10_radial" cx="0" cy="0" r="1" gradientUnits="userSpaceOnUse" gradientTransform="translate(139.299 222.24) rotate(40.5587) scale(25.2308 26.6316)">
            <stop offset="0.625" stop-color="#7BC3F2" stop-opacity="0"/>
            <stop offset="1" stop-color="#7BC3F2"/>
        </radialGradient>
        <linearGradient id="paint11_linear" x1="134.418" y1="190" x2="134.418" y2="241.13" gradientUnits="userSpaceOnUse">
            <stop stop-color="#60B8FE"/>
            <stop offset="1" stop-color="#60B8FE" stop-opacity="0"/>
        </linearGradient>
        <radialGradient id="paint12_radial" cx="0" cy="0" r="1" gradientUnits="userSpaceOnUse" gradientTransform="translate(228.757 179.835) rotate(42.4611) scale(36.8098 39.1707)">
            <stop offset="0.625" stop-color="#7BC3F2" stop-opacity="0"/>
            <stop offset="1" stop-color="#7BC3F2"/>
        </radialGradient>
        <linearGradient id="paint13_linear" x1="221.842" y1="131" x2="221.842" y2="208.446" gradientUnits="userSpaceOnUse">
            <stop stop-color="#60B8FE"/>
            <stop offset="1" stop-color="#60B8FE" stop-opacity="0"/>
        </linearGradient>
        <radialGradient id="paint14_radial" cx="0" cy="0" r="1" gradientUnits="userSpaceOnUse" gradientTransform="translate(277.837 270.611) rotate(42.1048) scale(26.2675 27.9192)">
            <stop offset="0.625" stop-color="#7BC3F2" stop-opacity="0"/>
            <stop offset="1" stop-color="#7BC3F2"/>
        </radialGradient>
        <linearGradient id="paint15_linear" x1="272.875" y1="236" x2="272.875" y2="290.889" gradientUnits="userSpaceOnUse">
            <stop stop-color="#60B8FE"/>
            <stop offset="1" stop-color="#60B8FE" stop-opacity="0"/>
        </linearGradient>
        <radialGradient id="paint16_radial" cx="0" cy="0" r="1" gradientUnits="userSpaceOnUse" gradientTransform="translate(191.069 285.603) rotate(37.0588) scale(21.6186 22.2141)">
            <stop offset="0.625" stop-color="#7BC3F2" stop-opacity="0"/>
            <stop offset="1" stop-color="#7BC3F2"/>
        </radialGradient>
        <linearGradient id="paint17_linear" x1="186.676" y1="260" x2="186.676" y2="300.603" gradientUnits="userSpaceOnUse">
            <stop stop-color="#60B8FE"/>
            <stop offset="1" stop-color="#60B8FE" stop-opacity="0"/>
        </linearGradient>
        <radialGradient id="paint18_radial" cx="0" cy="0" r="1" gradientUnits="userSpaceOnUse" gradientTransform="translate(267.763 353.603) rotate(41.5569) scale(19.6394 20.8301)">
            <stop offset="0.625" stop-color="#7BC3F2" stop-opacity="0"/>
            <stop offset="1" stop-color="#7BC3F2"/>
        </radialGradient>
        <linearGradient id="paint19_linear" x1="264.02" y1="328" x2="264.02" y2="368.603" gradientUnits="userSpaceOnUse">
            <stop stop-color="#60B8FE"/>
            <stop offset="1" stop-color="#60B8FE" stop-opacity="0"/>
        </linearGradient>
        <radialGradient id="paint20_radial" cx="0" cy="0" r="1" gradientUnits="userSpaceOnUse" gradientTransform="translate(267.763 451.603) rotate(41.5569) scale(19.6394 20.8301)">
            <stop offset="0.625" stop-color="#7BC3F2" stop-opacity="0"/>
            <stop offset="1" stop-color="#7BC3F2"/>
        </radialGradient>
        <linearGradient id="paint21_linear" x1="264.02" y1="426" x2="264.02" y2="466.603" gradientUnits="userSpaceOnUse">
            <stop stop-color="#60B8FE"/>
            <stop offset="1" stop-color="#60B8FE" stop-opacity="0"/>
        </linearGradient>
        <radialGradient id="paint22_radial" cx="0" cy="0" r="1" gradientUnits="userSpaceOnUse" gradientTransform="translate(125.916 482.603) rotate(39.1999) scale(20.6132 21.5719)">
            <stop offset="0.625" stop-color="#7BC3F2" stop-opacity="0"/>
            <stop offset="1" stop-color="#7BC3F2"/>
        </radialGradient>
        <linearGradient id="paint23_linear" x1="121.848" y1="457" x2="121.848" y2="497.603" gradientUnits="userSpaceOnUse">
            <stop stop-color="#60B8FE"/>
            <stop offset="1" stop-color="#60B8FE" stop-opacity="0"/>
        </linearGradient>
        <radialGradient id="paint24_radial" cx="0" cy="0" r="1" gradientUnits="userSpaceOnUse" gradientTransform="translate(275.531 97.9214) rotate(40.9956) scale(22.4343 23.7335)">
            <stop offset="0.625" stop-color="#7BC3F2" stop-opacity="0"/>
            <stop offset="1" stop-color="#7BC3F2"/>
        </radialGradient>
        <linearGradient id="paint25_linear" x1="271.219" y1="69" x2="271.219" y2="114.866" gradientUnits="userSpaceOnUse">
            <stop stop-color="#60B8FE"/>
            <stop offset="1" stop-color="#60B8FE" stop-opacity="0"/>
        </linearGradient>
        <radialGradient id="paint26_radial" cx="0" cy="0" r="1" gradientUnits="userSpaceOnUse" gradientTransform="translate(56.5233 291.369) rotate(41.031) scale(44.4692 47.0526)">
            <stop offset="0.625" stop-color="#7BC3F2" stop-opacity="0"/>
            <stop offset="1" stop-color="#7BC3F2"/>
        </radialGradient>
        <linearGradient id="paint27_linear" x1="47.9815" y1="234" x2="47.9815" y2="324.981" gradientUnits="userSpaceOnUse">
            <stop stop-color="#60B8FE"/>
            <stop offset="1" stop-color="#60B8FE" stop-opacity="0"/>
        </linearGradient>
        <radialGradient id="paint28_radial" cx="0" cy="0" r="1" gradientUnits="userSpaceOnUse" gradientTransform="translate(179.37 386.628) rotate(39.6904) scale(41.9329 44.0309)">
            <stop offset="0.625" stop-color="#7BC3F2" stop-opacity="0"/>
            <stop offset="1" stop-color="#7BC3F2"/>
        </radialGradient>
        <linearGradient id="paint29_linear" x1="171.154" y1="334" x2="171.154" y2="417.462" gradientUnits="userSpaceOnUse">
            <stop stop-color="#60B8FE"/>
            <stop offset="1" stop-color="#60B8FE" stop-opacity="0"/>
        </linearGradient>
        <radialGradient id="paint30_radial" cx="0" cy="0" r="1" gradientUnits="userSpaceOnUse" gradientTransform="translate(68.9906 409.611) rotate(40.3016) scale(27.2291 28.6993)">
            <stop offset="0.625" stop-color="#7BC3F2" stop-opacity="0"/>
            <stop offset="1" stop-color="#7BC3F2"/>
        </radialGradient>
        <linearGradient id="paint31_linear" x1="63.7028" y1="375" x2="63.7028" y2="429.889" gradientUnits="userSpaceOnUse">
            <stop stop-color="#60B8FE"/>
            <stop offset="1" stop-color="#60B8FE" stop-opacity="0"/>
        </linearGradient>
    </defs>
</svg>
