<svg width="8" height="16" viewBox="0 0 8 16" fill="none" xmlns="http://www.w3.org/2000/svg">
    <g filter="url(#filter0_i)">
        <path fill-rule="evenodd" clip-rule="evenodd" d="M6 2C6 3.10457 5.10457 4 4 4C2.89543 4 2 3.10457 2 2C2 0.89543 2.89543 0 4 0C5.10457 0 6 0.89543 6 2ZM1 5C0.447715 5 0 5.44772 0 6C0 6.55228 0.447715 7 1 7H3V14H1C0.447715 14 0 14.4477 0 15C0 15.5523 0.447715 16 1 16H4H7C7.55228 16 8 15.5523 8 15C8 14.4477 7.55228 14 7 14H5V6V5H4H1Z" fill="#1FD32E"/>
    </g>
    <defs>
        <filter id="filter0_i" x="0" y="0" width="8" height="17" filterUnits="userSpaceOnUse" color-interpolation-filters="sRGB">
            <feFlood flood-opacity="0" result="BackgroundImageFix"/>
            <feBlend mode="normal" in="SourceGraphic" in2="BackgroundImageFix" result="shape"/>
            <feColorMatrix in="SourceAlpha" type="matrix" values="0 0 0 0 0 0 0 0 0 0 0 0 0 0 0 0 0 0 127 0" result="hardAlpha"/>
            <feOffset dy="1"/>
            <feGaussianBlur stdDeviation="1"/>
            <feComposite in2="hardAlpha" operator="arithmetic" k2="-1" k3="1"/>
            <feColorMatrix type="matrix" values="0 0 0 0 0 0 0 0 0 0 0 0 0 0 0 0 0 0 0.25 0"/>
            <feBlend mode="normal" in2="shape" result="effect1_innerShadow"/>
        </filter>
    </defs>
</svg>
