<svg width="18" height="18" viewBox="0 0 18 18" fill="none" xmlns="http://www.w3.org/2000/svg">
    <g filter="url(#filter0_i)">
        <circle cx="8.9729" cy="8.97302" r="2" fill="#1FD32E"/>
        <mask id="path-2-inside-1" fill="white">
            <path fill-rule="evenodd" clip-rule="evenodd" d="M12.0733 1.58116C11.099 1.17757 10.0546 0.969845 8.99999 0.969845V2.44492C8.99998 2.44492 8.99997 2.44492 8.99995 2.44492C8.11104 2.44492 7.26346 2.62184 6.49048 2.94237L5.89542 1.50579C4.91117 1.91348 4.01685 2.51104 3.26353 3.26435L4.36425 4.36507C3.76039 4.96892 3.27378 5.69002 2.94151 6.49129L1.58032 5.92747C1.17672 6.90183 0.968994 7.94614 0.968994 9.00078H2.44405C2.44405 9.00078 2.44405 9.00079 2.44405 9.00079C2.44405 9.88972 2.62097 10.7373 2.94153 11.5103L1.50495 12.1054C1.91264 13.0896 2.5102 13.9839 3.26352 14.7373L4.36426 13.6365C4.96812 14.2404 5.68922 14.727 6.49049 15.0592L5.92664 16.4205C6.90101 16.824 7.94532 17.0318 8.99997 17.0318V15.5567C9.88887 15.5567 10.7364 15.3797 11.5094 15.0592L12.1045 16.4958C13.0887 16.0881 13.9831 15.4906 14.7364 14.7373L13.6356 13.6365C14.2395 13.0327 14.7261 12.3116 15.0584 11.5103L16.4196 12.0741C16.8232 11.0998 17.031 10.0555 17.031 9.00084H15.5559C15.5559 9.00082 15.5559 9.00081 15.5559 9.00079C15.5559 8.1119 15.379 7.26433 15.0584 6.49136L16.4949 5.89636C16.0872 4.9121 15.4896 4.01779 14.7363 3.26448L13.6357 4.36511C13.0318 3.76126 12.3107 3.27466 11.5095 2.94239L12.0733 1.58116Z"/>
        </mask>
        <path d="M8.99999 0.969845V-1.03016H6.99999V0.969845H8.99999ZM12.0733 1.58116L13.9211 2.34653L14.6865 0.498768L12.8387 -0.266598L12.0733 1.58116ZM8.99999 2.44492V4.44492H11V2.44492H8.99999ZM6.49048 2.94237L4.64272 3.70774L5.40839 5.55622L7.25657 4.78983L6.49048 2.94237ZM5.89542 1.50579L7.74318 0.740418L6.97781 -1.10733L5.13006 -0.341972L5.89542 1.50579ZM3.26353 3.26435L1.84932 1.85014L0.435093 3.26435L1.84932 4.67857L3.26353 3.26435ZM4.36425 4.36507L5.77845 5.77929L7.1927 4.36508L5.77846 2.95085L4.36425 4.36507ZM2.94151 6.49129L2.17615 8.33905L4.02316 9.10411L4.78896 7.2574L2.94151 6.49129ZM1.58032 5.92747L2.34568 4.07971L0.497928 3.31435L-0.26744 5.1621L1.58032 5.92747ZM0.968994 9.00078H-1.03101V11.0008H0.968994V9.00078ZM2.44405 9.00078H4.44405V7.00078H2.44405V9.00078ZM2.94153 11.5103L3.70689 13.3581L5.55541 12.5924L4.78897 10.7442L2.94153 11.5103ZM1.50495 12.1054L0.739584 10.2576L-1.10818 11.023L-0.342811 12.8707L1.50495 12.1054ZM3.26352 14.7373L1.84931 16.1515L3.26352 17.5657L4.67773 16.1515L3.26352 14.7373ZM4.36426 13.6365L5.77846 12.2223L4.36425 10.8081L2.95005 12.2223L4.36426 13.6365ZM6.49049 15.0592L8.33825 15.8246L9.10332 13.9775L7.25658 13.2118L6.49049 15.0592ZM5.92664 16.4205L4.07889 15.6551L3.31351 17.5028L5.16128 18.2682L5.92664 16.4205ZM8.99997 17.0318V19.0318H11V17.0318H8.99997ZM8.99997 15.5567L8.99996 13.5567L6.99997 13.5567V15.5567H8.99997ZM11.5094 15.0592L13.3572 14.2938L12.5915 12.4454L10.7433 13.2118L11.5094 15.0592ZM12.1045 16.4958L10.2567 17.2612L11.0221 19.1089L12.8698 18.3436L12.1045 16.4958ZM14.7364 14.7373L16.1506 16.1515L17.5648 14.7373L16.1506 13.323L14.7364 14.7373ZM13.6356 13.6365L12.2214 12.2223L10.8072 13.6365L12.2214 15.0507L13.6356 13.6365ZM15.0584 11.5103L15.8238 9.66254L13.9767 8.89749L13.2109 10.7442L15.0584 11.5103ZM16.4196 12.0741L15.6543 13.9219L17.502 14.6873L18.2674 12.8395L16.4196 12.0741ZM17.031 9.00084H19.031V7.00084H17.031V9.00084ZM15.5559 9.00084H13.5559V11.0008H15.5559V9.00084ZM15.0584 6.49136L14.2931 4.6436L12.4446 5.40927L13.211 7.25745L15.0584 6.49136ZM16.4949 5.89636L17.2603 7.74412L19.108 6.97875L18.3427 5.13098L16.4949 5.89636ZM14.7363 3.26448L16.1505 1.85026L14.7363 0.436059L13.3221 1.85026L14.7363 3.26448ZM13.6357 4.36511L12.2215 5.77932L13.6357 7.19353L15.0499 5.77933L13.6357 4.36511ZM11.5095 2.94239L9.66172 2.17702L8.89665 4.02404L10.7434 4.78984L11.5095 2.94239ZM8.99999 2.96984C9.792 2.96984 10.5762 3.12584 11.308 3.42892L12.8387 -0.266598C11.6217 -0.770699 10.3173 -1.03016 8.99999 -1.03016V2.96984ZM11 2.44492V0.969845H6.99999V2.44492H11ZM8.99995 4.44492C8.99995 4.44492 8.99995 4.44492 8.99995 4.44492C8.99995 4.44492 8.99995 4.44492 8.99995 4.44492H8.99996C8.99996 4.44492 8.99996 4.44492 8.99996 4.44492H8.99996C8.99996 4.44492 8.99996 4.44492 8.99996 4.44492H8.99996C8.99996 4.44492 8.99996 4.44492 8.99996 4.44492C8.99996 4.44492 8.99996 4.44492 8.99996 4.44492H8.99996C8.99996 4.44492 8.99996 4.44492 8.99996 4.44492C8.99996 4.44492 8.99996 4.44492 8.99996 4.44492H8.99996C8.99997 4.44492 8.99997 4.44492 8.99997 4.44492C8.99997 4.44492 8.99997 4.44492 8.99997 4.44492H8.99997C8.99997 4.44492 8.99997 4.44492 8.99997 4.44492C8.99997 4.44492 8.99997 4.44492 8.99997 4.44492C8.99997 4.44492 8.99997 4.44492 8.99997 4.44492H8.99997H8.99997C8.99997 4.44492 8.99997 4.44492 8.99997 4.44492C8.99997 4.44492 8.99997 4.44492 8.99997 4.44492H8.99998H8.99998C8.99998 4.44492 8.99998 4.44492 8.99998 4.44492C8.99998 4.44492 8.99998 4.44492 8.99998 4.44492C8.99998 4.44492 8.99998 4.44492 8.99998 4.44492H8.99998C8.99998 4.44492 8.99998 4.44492 8.99998 4.44492C8.99998 4.44492 8.99998 4.44492 8.99998 4.44492H8.99998C8.99998 4.44492 8.99998 4.44492 8.99998 4.44492C8.99998 4.44492 8.99998 4.44492 8.99998 4.44492H8.99999C8.99999 4.44492 8.99999 4.44492 8.99999 4.44492C8.99999 4.44492 8.99999 4.44492 8.99999 4.44492H8.99999C8.99999 4.44492 8.99999 4.44492 8.99999 4.44492H8.99999C8.99999 4.44492 8.99999 4.44492 8.99999 4.44492H8.99999C8.99999 4.44492 8.99999 4.44492 8.99999 4.44492C8.99999 4.44492 8.99999 4.44492 8.99999 4.44492V0.444925C8.99999 0.444925 8.99999 0.444925 8.99999 0.444925C8.99999 0.444925 8.99999 0.444925 8.99999 0.444925H8.99999C8.99999 0.444925 8.99999 0.444925 8.99999 0.444925H8.99999C8.99999 0.444925 8.99999 0.444925 8.99999 0.444925H8.99999C8.99999 0.444925 8.99999 0.444925 8.99999 0.444925C8.99999 0.444925 8.99999 0.444925 8.99999 0.444925H8.99998C8.99998 0.444925 8.99998 0.444925 8.99998 0.444925C8.99998 0.444925 8.99998 0.444925 8.99998 0.444925H8.99998C8.99998 0.444925 8.99998 0.444925 8.99998 0.444925C8.99998 0.444925 8.99998 0.444925 8.99998 0.444925H8.99998C8.99998 0.444925 8.99998 0.444925 8.99998 0.444925C8.99998 0.444925 8.99998 0.444925 8.99998 0.444925C8.99998 0.444925 8.99998 0.444925 8.99998 0.444925H8.99998H8.99997C8.99997 0.444925 8.99997 0.444925 8.99997 0.444925C8.99997 0.444925 8.99997 0.444925 8.99997 0.444925H8.99997H8.99997C8.99997 0.444925 8.99997 0.444925 8.99997 0.444925C8.99997 0.444925 8.99997 0.444925 8.99997 0.444925C8.99997 0.444925 8.99997 0.444925 8.99997 0.444925H8.99997C8.99997 0.444925 8.99997 0.444925 8.99997 0.444925C8.99997 0.444925 8.99997 0.444925 8.99996 0.444925H8.99996C8.99996 0.444925 8.99996 0.444925 8.99996 0.444925C8.99996 0.444925 8.99996 0.444925 8.99996 0.444925H8.99996C8.99996 0.444925 8.99996 0.444925 8.99996 0.444925C8.99996 0.444925 8.99996 0.444925 8.99996 0.444925H8.99996C8.99996 0.444925 8.99996 0.444925 8.99996 0.444925H8.99996C8.99996 0.444925 8.99996 0.444925 8.99996 0.444925H8.99995C8.99995 0.444925 8.99995 0.444925 8.99995 0.444925C8.99995 0.444925 8.99995 0.444925 8.99995 0.444925V4.44492ZM7.25657 4.78983C7.79096 4.56823 8.37853 4.44492 8.99995 4.44492V0.444925C7.84355 0.444925 6.73595 0.675441 5.72439 1.09491L7.25657 4.78983ZM8.33823 2.177L7.74318 0.740418L4.04767 2.27116L4.64272 3.70774L8.33823 2.177ZM5.13006 -0.341972C3.90315 0.166227 2.78836 0.911106 1.84932 1.85014L4.67774 4.67857C5.24534 4.11097 5.91918 3.66073 6.66079 3.35355L5.13006 -0.341972ZM1.84932 4.67857L2.95004 5.77929L5.77846 2.95085L4.67774 1.85014L1.84932 4.67857ZM4.78896 7.2574C5.01923 6.70213 5.35733 6.20041 5.77845 5.77929L2.95005 2.95084C2.16346 3.73742 1.52834 4.67791 1.09406 5.72518L4.78896 7.2574ZM3.70687 4.64353L2.34568 4.07971L0.814954 7.77523L2.17615 8.33905L3.70687 4.64353ZM-0.26744 5.1621C-0.771545 6.37911 -1.03101 7.68349 -1.03101 9.00078H2.96899C2.96899 8.20879 3.12499 7.42455 3.42807 6.69284L-0.26744 5.1621ZM0.968994 11.0008H2.44405V7.00078H0.968994V11.0008ZM4.44405 9.00079C4.44405 9.00079 4.44405 9.00079 4.44405 9.00079C4.44405 9.00079 4.44405 9.00079 4.44405 9.00079C4.44405 9.00079 4.44405 9.00079 4.44405 9.00079V9.00079C4.44405 9.00079 4.44405 9.00079 4.44405 9.00078C4.44405 9.00078 4.44405 9.00078 4.44405 9.00078C4.44405 9.00078 4.44405 9.00078 4.44405 9.00078C4.44405 9.00078 4.44405 9.00078 4.44405 9.00078C4.44405 9.00078 4.44405 9.00078 4.44405 9.00078V9.00078C4.44405 9.00078 4.44405 9.00078 4.44405 9.00078C4.44405 9.00078 4.44405 9.00078 4.44405 9.00078C4.44405 9.00078 4.44405 9.00078 4.44405 9.00078H0.444047C0.444047 9.00078 0.444047 9.00078 0.444047 9.00078C0.444047 9.00078 0.444047 9.00078 0.444047 9.00078C0.444047 9.00078 0.444047 9.00078 0.444047 9.00078V9.00078C0.444047 9.00078 0.444047 9.00078 0.444047 9.00078C0.444047 9.00078 0.444047 9.00078 0.444047 9.00078C0.444047 9.00078 0.444047 9.00078 0.444047 9.00078C0.444047 9.00078 0.444047 9.00078 0.444047 9.00078C0.444047 9.00079 0.444047 9.00079 0.444047 9.00079V9.00079C0.444047 9.00079 0.444047 9.00079 0.444047 9.00079C0.444047 9.00079 0.444047 9.00079 0.444047 9.00079C0.444047 9.00079 0.444047 9.00079 0.444047 9.00079H4.44405ZM4.78897 10.7442C4.56736 10.2098 4.44405 9.62222 4.44405 9.00079H0.444047C0.444047 10.1572 0.674582 11.2649 1.09408 12.2765L4.78897 10.7442ZM2.17616 9.66257L0.739584 10.2576L2.27031 13.9531L3.70689 13.3581L2.17616 9.66257ZM-0.342811 12.8707C0.165392 14.0977 0.910277 15.2124 1.84931 16.1515L4.67773 13.323C4.11013 12.7554 3.65989 12.0816 3.3527 11.34L-0.342811 12.8707ZM4.67773 16.1515L5.77847 15.0507L2.95005 12.2223L1.84931 13.323L4.67773 16.1515ZM7.25658 13.2118C6.7013 12.9815 6.19959 12.6434 5.77846 12.2223L2.95006 15.0507C3.73665 15.8373 4.67714 16.4724 5.72441 16.9067L7.25658 13.2118ZM4.64273 14.2938L4.07889 15.6551L7.7744 17.1858L8.33825 15.8246L4.64273 14.2938ZM5.16128 18.2682C6.3783 18.7723 7.68268 19.0318 8.99997 19.0318V15.0318C8.20797 15.0318 7.42372 14.8758 6.69201 14.5727L5.16128 18.2682ZM11 17.0318V15.5567H6.99997V17.0318H11ZM10.7433 13.2118C10.2089 13.4333 9.62138 13.5567 8.99996 13.5567L8.99997 17.5567C10.1564 17.5567 11.264 17.3261 12.2755 16.9067L10.7433 13.2118ZM9.66166 15.8246L10.2567 17.2612L13.9522 15.7305L13.3572 14.2938L9.66166 15.8246ZM12.8698 18.3436C14.0968 17.8354 15.2116 17.0905 16.1506 16.1515L13.3222 13.323C12.7546 13.8906 12.0807 14.3409 11.3391 14.6481L12.8698 18.3436ZM16.1506 13.323L15.0498 12.2223L12.2214 15.0507L13.3222 16.1515L16.1506 13.323ZM13.2109 10.7442C12.9807 11.2995 12.6426 11.8012 12.2214 12.2223L15.0498 15.0508C15.8364 14.2642 16.4715 13.3237 16.9058 12.2764L13.2109 10.7442ZM17.185 10.2264L15.8238 9.66254L14.293 13.3581L15.6543 13.9219L17.185 10.2264ZM15.031 9.00084C15.031 9.79283 14.875 10.5771 14.5719 11.3088L18.2674 12.8395C18.7715 11.6225 19.031 10.3181 19.031 9.00084H15.031ZM15.5559 11.0008H17.031V7.00084H15.5559V11.0008ZM13.5559 9.00079C13.5559 9.00079 13.5559 9.00079 13.5559 9.00079C13.5559 9.00079 13.5559 9.00079 13.5559 9.00079C13.5559 9.00079 13.5559 9.00079 13.5559 9.00079C13.5559 9.00079 13.5559 9.00079 13.5559 9.00079C13.5559 9.00079 13.5559 9.00079 13.5559 9.00079C13.5559 9.00079 13.5559 9.00079 13.5559 9.0008C13.5559 9.0008 13.5559 9.0008 13.5559 9.0008C13.5559 9.0008 13.5559 9.0008 13.5559 9.0008V9.0008V9.0008C13.5559 9.0008 13.5559 9.0008 13.5559 9.0008C13.5559 9.0008 13.5559 9.0008 13.5559 9.0008C13.5559 9.0008 13.5559 9.0008 13.5559 9.0008C13.5559 9.0008 13.5559 9.0008 13.5559 9.0008V9.0008V9.0008C13.5559 9.00081 13.5559 9.00081 13.5559 9.00081C13.5559 9.00081 13.5559 9.00081 13.5559 9.00081C13.5559 9.00081 13.5559 9.00081 13.5559 9.00081V9.00081V9.00081C13.5559 9.00081 13.5559 9.00081 13.5559 9.00081C13.5559 9.00081 13.5559 9.00081 13.5559 9.00081V9.00081V9.00081C13.5559 9.00081 13.5559 9.00081 13.5559 9.00081C13.5559 9.00081 13.5559 9.00081 13.5559 9.00082V9.00082V9.00082C13.5559 9.00082 13.5559 9.00082 13.5559 9.00082C13.5559 9.00082 13.5559 9.00082 13.5559 9.00082V9.00082V9.00082C13.5559 9.00082 13.5559 9.00082 13.5559 9.00082C13.5559 9.00082 13.5559 9.00082 13.5559 9.00082C13.5559 9.00082 13.5559 9.00082 13.5559 9.00082V9.00082V9.00083C13.5559 9.00083 13.5559 9.00083 13.5559 9.00083C13.5559 9.00083 13.5559 9.00083 13.5559 9.00083C13.5559 9.00083 13.5559 9.00083 13.5559 9.00083C13.5559 9.00083 13.5559 9.00083 13.5559 9.00083V9.00083V9.00083C13.5559 9.00083 13.5559 9.00083 13.5559 9.00083C13.5559 9.00083 13.5559 9.00083 13.5559 9.00083C13.5559 9.00083 13.5559 9.00083 13.5559 9.00083C13.5559 9.00084 13.5559 9.00084 13.5559 9.00084C13.5559 9.00084 13.5559 9.00084 13.5559 9.00084C13.5559 9.00084 13.5559 9.00084 13.5559 9.00084C13.5559 9.00084 13.5559 9.00084 13.5559 9.00084C13.5559 9.00084 13.5559 9.00084 13.5559 9.00084H17.5559C17.5559 9.00084 17.5559 9.00084 17.5559 9.00084C17.5559 9.00084 17.5559 9.00084 17.5559 9.00084C17.5559 9.00084 17.5559 9.00084 17.5559 9.00084C17.5559 9.00084 17.5559 9.00084 17.5559 9.00084C17.5559 9.00084 17.5559 9.00084 17.5559 9.00083C17.5559 9.00083 17.5559 9.00083 17.5559 9.00083C17.5559 9.00083 17.5559 9.00083 17.5559 9.00083C17.5559 9.00083 17.5559 9.00083 17.5559 9.00083V9.00083V9.00083C17.5559 9.00083 17.5559 9.00083 17.5559 9.00083C17.5559 9.00083 17.5559 9.00083 17.5559 9.00083C17.5559 9.00083 17.5559 9.00083 17.5559 9.00083C17.5559 9.00083 17.5559 9.00083 17.5559 9.00083V9.00082V9.00082C17.5559 9.00082 17.5559 9.00082 17.5559 9.00082C17.5559 9.00082 17.5559 9.00082 17.5559 9.00082C17.5559 9.00082 17.5559 9.00082 17.5559 9.00082V9.00082V9.00082C17.5559 9.00082 17.5559 9.00082 17.5559 9.00082C17.5559 9.00082 17.5559 9.00082 17.5559 9.00082V9.00082V9.00082C17.5559 9.00081 17.5559 9.00081 17.5559 9.00081C17.5559 9.00081 17.5559 9.00081 17.5559 9.00081V9.00081V9.00081C17.5559 9.00081 17.5559 9.00081 17.5559 9.00081C17.5559 9.00081 17.5559 9.00081 17.5559 9.00081V9.00081V9.00081C17.5559 9.00081 17.5559 9.00081 17.5559 9.00081C17.5559 9.00081 17.5559 9.00081 17.5559 9.00081C17.5559 9.00081 17.5559 9.00081 17.5559 9.0008V9.0008V9.0008C17.5559 9.0008 17.5559 9.0008 17.5559 9.0008C17.5559 9.0008 17.5559 9.0008 17.5559 9.0008C17.5559 9.0008 17.5559 9.0008 17.5559 9.0008C17.5559 9.0008 17.5559 9.0008 17.5559 9.0008V9.0008V9.0008C17.5559 9.0008 17.5559 9.0008 17.5559 9.0008C17.5559 9.0008 17.5559 9.0008 17.5559 9.0008C17.5559 9.00079 17.5559 9.00079 17.5559 9.00079C17.5559 9.00079 17.5559 9.00079 17.5559 9.00079C17.5559 9.00079 17.5559 9.00079 17.5559 9.00079C17.5559 9.00079 17.5559 9.00079 17.5559 9.00079C17.5559 9.00079 17.5559 9.00079 17.5559 9.00079C17.5559 9.00079 17.5559 9.00079 17.5559 9.00079H13.5559ZM13.211 7.25745C13.4326 7.79183 13.5559 8.37939 13.5559 9.00079H17.5559C17.5559 7.84441 17.3253 6.73682 16.9059 5.72528L13.211 7.25745ZM15.8238 8.33912L17.2603 7.74412L15.7295 4.0486L14.2931 4.6436L15.8238 8.33912ZM18.3427 5.13098C17.8345 3.90408 17.0896 2.78929 16.1505 1.85026L13.3221 4.6787C13.8897 5.24629 14.34 5.92013 14.6471 6.66173L18.3427 5.13098ZM13.3221 1.85026L12.2215 2.95089L15.0499 5.77933L16.1505 4.6787L13.3221 1.85026ZM10.7434 4.78984C11.2986 5.0201 11.8004 5.3582 12.2215 5.77932L15.0499 2.95089C14.2633 2.16432 13.3228 1.52922 12.2756 1.09494L10.7434 4.78984ZM10.2256 0.815792L9.66172 2.17702L13.3572 3.70776L13.9211 2.34653L10.2256 0.815792Z" fill="#1FD32E" mask="url(#path-2-inside-1)"/>
    </g>
    <defs>
        <filter id="filter0_i" x="0.968994" y="0.969845" width="16.062" height="17.0619" filterUnits="userSpaceOnUse" color-interpolation-filters="sRGB">
            <feFlood flood-opacity="0" result="BackgroundImageFix"/>
            <feBlend mode="normal" in="SourceGraphic" in2="BackgroundImageFix" result="shape"/>
            <feColorMatrix in="SourceAlpha" type="matrix" values="0 0 0 0 0 0 0 0 0 0 0 0 0 0 0 0 0 0 127 0" result="hardAlpha"/>
            <feOffset dy="1"/>
            <feGaussianBlur stdDeviation="1"/>
            <feComposite in2="hardAlpha" operator="arithmetic" k2="-1" k3="1"/>
            <feColorMatrix type="matrix" values="0 0 0 0 0 0 0 0 0 0 0 0 0 0 0 0 0 0 0.25 0"/>
            <feBlend mode="normal" in2="shape" result="effect1_innerShadow"/>
        </filter>
    </defs>
</svg>
