<svg width="320" height="511" viewBox="0 0 320 511" fill="none" xmlns="http://www.w3.org/2000/svg">
    <path opacity="0.3" d="M90.0273 92.0775C89.3228 92.8169 88.9497 93.8283 89.0055 94.8501C89.0613 95.8406 89.4972 96.7543 90.24 97.4169C90.9794 98.0796 91.928 98.4179 92.9254 98.3586C112.874 97.2461 128.613 80.7257 128.76 60.7456C128.767 59.7517 128.387 58.817 127.689 58.1091C126.992 57.4011 126.06 57.007 125.066 57C125.056 57 125.049 57 125.039 57C124.055 57 123.131 57.3802 122.43 58.0707C121.722 58.7682 121.328 59.6994 121.321 60.6933C121.206 76.7534 108.55 90.0373 92.5139 90.9301C91.5653 90.9825 90.683 91.387 90.0273 92.0775Z" fill="white"/>
    <path opacity="0.85" d="M121.269 18.2732C127.909 28.8369 130.978 41.7198 129.053 55.0317C124.753 84.8186 97.1214 105.479 67.3344 101.182C56.0872 99.5604 46.1442 94.6081 38.3531 87.4726C46.5662 100.54 60.2443 110.054 76.7159 112.433C106.503 116.733 134.134 96.0694 138.435 66.2824C141.109 47.7428 134.114 30.0401 121.269 18.2732Z" fill="url(#paint0_radial)"/>
    <path opacity="0.3" d="M47.731 98.7258C41.0908 88.1621 38.0218 75.2792 39.9469 61.9673C44.247 32.1804 71.8786 11.5203 101.666 15.8169C112.913 17.4387 122.856 22.3909 130.647 29.5264C122.434 16.4587 108.756 6.94468 92.2841 4.5662C62.4972 0.266077 34.8656 20.9297 30.5654 50.7166C27.8905 69.2563 34.8865 86.9589 47.731 98.7258Z" fill="#6DC6FF"/>
    <path opacity="0.7" d="M129.053 55.0349C130.975 41.7195 127.906 28.8366 121.269 18.2764C113.478 11.1409 103.531 6.18864 92.2877 4.56694C62.4973 0.263341 34.8656 20.9269 30.5655 50.7138C28.6439 64.0292 31.7129 76.9121 38.3497 87.4723C46.1408 94.6078 56.0872 99.5601 67.331 101.182C97.1214 105.482 124.753 84.8218 129.053 55.0349ZM47.7869 53.2248C47.7799 54.2188 47.3859 55.15 46.6779 55.8475C45.9769 56.538 45.0527 56.9181 44.0692 56.9181C44.0588 56.9181 44.0518 56.9181 44.0413 56.9181C43.0474 56.9112 42.1162 56.5171 41.4187 55.8091C40.7212 55.1011 40.3411 54.1665 40.348 53.1725C40.4945 33.189 56.2337 16.6686 76.1823 15.5596C77.1798 15.5003 78.1284 15.8386 78.8677 16.5012C79.6071 17.1639 80.0465 18.0741 80.1023 19.0681C80.1581 20.0899 79.7884 21.1013 79.0805 21.8406C78.4248 22.5277 77.5425 22.9357 76.5939 22.988C60.5582 23.8774 47.902 37.1613 47.7869 53.2248Z" fill="url(#paint1_linear)"/>
    <path d="M79.0804 21.8373C79.7849 21.0979 80.158 20.0865 80.1022 19.0647C80.0464 18.0742 79.6105 17.1605 78.8676 16.4979C78.1283 15.8352 77.1797 15.4969 76.1823 15.5562C56.2336 16.6687 40.4944 33.1891 40.348 53.1692C40.341 54.1631 40.7211 55.0978 41.4186 55.8057C42.1161 56.5137 43.0473 56.9078 44.0413 56.9148C44.0517 56.9148 44.0587 56.9148 44.0692 56.9148C45.0526 56.9148 45.9768 56.5346 46.6778 55.8441C47.3858 55.1466 47.7799 54.2154 47.7868 53.2215C47.9019 37.1614 60.5582 23.8774 76.5938 22.9846C77.5424 22.9323 78.4247 22.5278 79.0804 21.8373Z" fill="white"/>
    <path opacity="0.3" d="M227.1 57.3723C226.641 57.8539 226.398 58.5127 226.435 59.1783C226.471 59.8235 226.755 60.4187 227.239 60.8503C227.721 61.2819 228.338 61.5023 228.988 61.4637C241.982 60.739 252.234 49.9779 252.33 36.9632C252.334 36.3158 252.087 35.707 251.632 35.2458C251.178 34.7847 250.571 34.528 249.924 34.5234C249.917 34.5234 249.913 34.5234 249.906 34.5234C249.265 34.5234 248.663 34.771 248.207 35.2208C247.745 35.6752 247.489 36.2817 247.484 36.9292C247.409 47.3904 239.165 56.0434 228.72 56.6249C228.102 56.659 227.527 56.9225 227.1 57.3723Z" fill="white"/>
    <path opacity="0.85" d="M247.45 9.29736C251.776 16.1784 253.775 24.5701 252.521 33.2412C249.72 52.6439 231.721 66.1016 212.319 63.3028C204.993 62.2465 198.516 59.0206 193.441 54.3727C198.791 62.8848 207.7 69.0821 218.43 70.6314C237.832 73.4324 255.831 59.9725 258.632 40.5698C260.374 28.4933 255.817 16.9621 247.45 9.29736Z" fill="url(#paint2_radial)"/>
    <path opacity="0.3" d="M199.55 61.7029C195.224 54.8219 193.225 46.4301 194.479 37.759C197.28 18.3563 215.279 4.89867 234.681 7.69742C242.007 8.75377 248.484 11.9796 253.559 16.6275C248.209 8.11542 239.3 1.91818 228.57 0.368871C209.168 -2.43216 191.169 11.0278 188.368 30.4305C186.626 42.5069 191.183 54.0381 199.55 61.7029Z" fill="#6DC6FF"/>
    <path opacity="0.7" d="M252.521 33.2433C253.773 24.5699 251.773 16.1782 247.45 9.2994C242.376 4.65148 235.897 1.42564 228.573 0.369298C209.168 -2.434 191.169 11.0259 188.368 30.4286C187.117 39.102 189.116 47.4937 193.439 54.3725C198.514 59.0204 204.993 62.2462 212.317 63.3026C231.721 66.1036 249.72 52.646 252.521 33.2433ZM199.586 32.0642C199.581 32.7117 199.325 33.3182 198.864 33.7726C198.407 34.2224 197.805 34.47 197.164 34.47C197.158 34.47 197.153 34.47 197.146 34.47C196.499 34.4655 195.892 34.2087 195.438 33.7476C194.984 33.2864 194.736 32.6776 194.74 32.0302C194.836 19.0133 205.088 8.25214 218.082 7.52974C218.732 7.49112 219.35 7.71148 219.831 8.1431C220.313 8.57473 220.599 9.16764 220.635 9.81508C220.672 10.4807 220.431 11.1395 219.97 11.6211C219.543 12.0686 218.968 12.3344 218.35 12.3685C207.905 12.9478 199.661 21.6007 199.586 32.0642Z" fill="url(#paint3_linear)"/>
    <path d="M219.97 11.6189C220.429 11.1373 220.672 10.4785 220.635 9.81288C220.599 9.16771 220.315 8.57252 219.831 8.1409C219.35 7.70927 218.732 7.48891 218.082 7.52753C205.088 8.25221 194.836 19.0133 194.74 32.028C194.736 32.6754 194.983 33.2842 195.438 33.7454C195.892 34.2065 196.499 34.4632 197.146 34.4678C197.153 34.4678 197.157 34.4678 197.164 34.4678C197.805 34.4678 198.407 34.2202 198.864 33.7704C199.325 33.316 199.581 32.7095 199.586 32.062C199.661 21.6008 207.905 12.9478 218.35 12.3663C218.968 12.3322 219.543 12.0687 219.97 11.6189Z" fill="white"/>
    <path opacity="0.3" d="M173.579 98.1305C173.314 98.4086 173.174 98.789 173.195 99.1734C173.216 99.546 173.38 99.8897 173.659 100.139C173.937 100.388 174.294 100.515 174.669 100.493C182.173 100.075 188.093 93.8605 188.148 86.345C188.151 85.9711 188.008 85.6195 187.745 85.3532C187.483 85.0869 187.133 84.9387 186.759 84.936C186.755 84.936 186.752 84.936 186.748 84.936C186.379 84.936 186.031 85.079 185.767 85.3388C185.501 85.6011 185.353 85.9514 185.35 86.3253C185.307 92.3663 180.546 97.3631 174.514 97.6989C174.158 97.7186 173.826 97.8707 173.579 98.1305Z" fill="white"/>
    <path opacity="0.85" d="M185.331 70.3689C187.828 74.3424 188.983 79.1884 188.259 84.1956C186.641 95.4 176.247 103.171 165.043 101.555C160.813 100.945 157.073 99.0823 154.142 96.3983C157.231 101.314 162.376 104.892 168.572 105.787C179.776 107.405 190.17 99.632 191.787 88.4276C192.793 81.4539 190.162 74.795 185.331 70.3689Z" fill="url(#paint4_radial)"/>
    <path opacity="0.3" d="M157.669 100.631C155.172 96.6576 154.017 91.8116 154.741 86.8044C156.359 75.6 166.753 67.8287 177.957 69.4448C182.187 70.0549 185.927 71.9177 188.858 74.6017C185.769 69.6862 180.624 66.1075 174.428 65.2129C163.224 63.5954 152.83 71.368 151.213 82.5724C150.207 89.5461 152.838 96.205 157.669 100.631Z" fill="#6DC6FF"/>
    <path opacity="0.7" d="M188.259 84.1968C188.981 79.1882 187.827 74.3423 185.331 70.3701C182.4 67.6861 178.659 65.8233 174.429 65.2133C163.224 63.5945 152.83 71.3671 151.213 82.5715C150.49 87.58 151.644 92.426 154.141 96.3982C157.071 99.0822 160.813 100.945 165.042 101.555C176.248 103.173 186.641 95.4012 188.259 84.1968ZM157.69 83.516C157.688 83.8898 157.54 84.2401 157.273 84.5025C157.01 84.7622 156.662 84.9052 156.292 84.9052C156.288 84.9052 156.286 84.9052 156.282 84.9052C155.908 84.9026 155.557 84.7543 155.295 84.488C155.033 84.2217 154.89 83.8702 154.892 83.4963C154.947 75.9795 160.868 69.7653 168.371 69.3482C168.747 69.3259 169.103 69.4531 169.381 69.7024C169.66 69.9516 169.825 70.294 169.846 70.6679C169.867 71.0522 169.728 71.4327 169.461 71.7108C169.215 71.9692 168.883 72.1227 168.526 72.1424C162.494 72.4769 157.734 77.4737 157.69 83.516Z" fill="url(#paint5_linear)"/>
    <path d="M169.461 71.7096C169.726 71.4315 169.867 71.0511 169.846 70.6667C169.825 70.2941 169.661 69.9504 169.381 69.7012C169.103 69.4519 168.747 69.3247 168.371 69.347C160.868 69.7655 154.947 75.9796 154.892 83.4951C154.89 83.869 155.033 84.2206 155.295 84.4869C155.557 84.7532 155.908 84.9014 156.282 84.904C156.286 84.904 156.288 84.904 156.292 84.904C156.662 84.904 157.01 84.761 157.273 84.5013C157.54 84.2389 157.688 83.8887 157.69 83.5148C157.734 77.4738 162.494 72.477 168.526 72.1412C168.883 72.1215 169.215 71.9693 169.461 71.7096Z" fill="white"/>
    <path opacity="0.3" d="M140.651 168.18C140.186 168.669 139.939 169.337 139.976 170.012C140.013 170.666 140.301 171.27 140.792 171.707C141.28 172.145 141.907 172.369 142.565 172.329C155.742 171.594 166.139 160.682 166.236 147.484C166.24 146.827 165.989 146.21 165.529 145.742C165.068 145.275 164.453 145.014 163.796 145.01C163.789 145.01 163.785 145.01 163.778 145.01C163.128 145.01 162.518 145.261 162.055 145.717C161.587 146.178 161.327 146.793 161.322 147.449C161.246 158.058 152.886 166.833 142.294 167.422C141.667 167.457 141.084 167.724 140.651 168.18Z" fill="white"/>
    <path opacity="0.85" d="M161.288 119.428C165.674 126.406 167.701 134.916 166.43 143.709C163.589 163.385 145.337 177.032 125.661 174.194C118.232 173.123 111.664 169.852 106.518 165.138C111.943 173.77 120.978 180.055 131.858 181.626C151.534 184.467 169.786 170.817 172.627 151.141C174.393 138.895 169.772 127.201 161.288 119.428Z" fill="url(#paint6_radial)"/>
    <path opacity="0.3" d="M112.712 172.572C108.326 165.594 106.299 157.084 107.57 148.291C110.411 128.615 128.663 114.968 148.339 117.806C155.768 118.877 162.336 122.148 167.482 126.862C162.057 118.23 153.022 111.945 142.142 110.374C122.466 107.533 104.214 121.183 101.373 140.859C99.6066 153.105 104.228 164.799 112.712 172.572Z" fill="#6DC6FF"/>
    <path opacity="0.7" d="M166.43 143.711C167.699 134.916 165.672 126.406 161.288 119.43C156.141 114.717 149.571 111.446 142.144 110.374C122.466 107.532 104.214 121.181 101.374 140.857C100.104 149.653 102.131 158.163 106.515 165.138C111.662 169.852 118.232 173.123 125.659 174.194C145.337 177.035 163.589 163.387 166.43 143.711ZM112.749 142.516C112.745 143.172 112.484 143.787 112.017 144.248C111.554 144.704 110.943 144.955 110.293 144.955C110.287 144.955 110.282 144.955 110.275 144.955C109.618 144.951 109.003 144.691 108.543 144.223C108.082 143.755 107.831 143.138 107.835 142.481C107.932 129.281 118.329 118.368 131.506 117.636C132.165 117.597 132.791 117.82 133.28 118.258C133.768 118.695 134.058 119.297 134.095 119.953C134.132 120.628 133.888 121.296 133.42 121.785C132.987 122.239 132.404 122.508 131.778 122.543C121.185 123.13 112.825 131.905 112.749 142.516Z" fill="url(#paint7_linear)"/>
    <path d="M133.42 121.783C133.885 121.294 134.132 120.626 134.095 119.951C134.058 119.297 133.77 118.693 133.28 118.256C132.791 117.818 132.165 117.594 131.506 117.634C118.329 118.368 107.932 129.281 107.835 142.479C107.831 143.136 108.082 143.753 108.543 144.221C109.003 144.688 109.618 144.949 110.275 144.953C110.282 144.953 110.286 144.953 110.293 144.953C110.943 144.953 111.554 144.702 112.017 144.246C112.484 143.785 112.745 143.17 112.749 142.514C112.825 131.905 121.185 123.13 131.778 122.54C132.404 122.506 132.987 122.239 133.42 121.783Z" fill="white"/>
    <path opacity="0.3" d="M55.6369 178.019C55.3008 178.372 55.1228 178.854 55.1494 179.342C55.176 179.814 55.384 180.25 55.7384 180.566C56.0911 180.883 56.5437 181.044 57.0195 181.016C66.5363 180.485 74.0449 172.603 74.1148 163.072C74.1181 162.597 73.9367 162.152 73.604 161.814C73.2712 161.476 72.827 161.288 72.3528 161.285C72.3478 161.285 72.3445 161.285 72.3395 161.285C71.8703 161.285 71.4294 161.466 71.095 161.796C70.7573 162.128 70.5693 162.572 70.5659 163.047C70.511 170.708 64.4732 177.046 56.8232 177.472C56.3706 177.497 55.9497 177.69 55.6369 178.019Z" fill="white"/>
    <path opacity="0.85" d="M70.5412 142.809C73.709 147.849 75.1731 153.995 74.2547 160.346C72.2033 174.556 59.0212 184.412 44.8109 182.363C39.4453 181.589 34.7019 179.226 30.985 175.822C34.9032 182.056 41.4285 186.595 49.2865 187.73C63.4968 189.781 76.6788 179.924 78.7303 165.713C80.0064 156.868 76.6688 148.423 70.5412 142.809Z" fill="url(#paint8_radial)"/>
    <path opacity="0.3" d="M35.4588 181.191C32.291 176.151 30.8269 170.005 31.7453 163.654C33.7967 149.444 46.9788 139.588 61.1891 141.637C66.5547 142.411 71.2982 144.774 75.015 148.178C71.0968 141.944 64.5715 137.405 56.7135 136.27C42.5032 134.219 29.3212 144.076 27.2697 158.287C25.9936 167.132 29.3312 175.577 35.4588 181.191Z" fill="#6DC6FF"/>
    <path opacity="0.7" d="M74.2547 160.347C75.1715 153.995 73.7073 147.849 70.5412 142.811C66.8243 139.407 62.0792 137.044 56.7152 136.27C42.5033 134.217 29.3212 144.075 27.2698 158.286C26.3531 164.638 27.8172 170.784 30.9833 175.822C34.7002 179.226 39.4453 181.589 44.8093 182.362C59.0212 184.414 72.2033 174.558 74.2547 160.347ZM35.4855 159.484C35.4822 159.958 35.2942 160.402 34.9564 160.735C34.622 161.064 34.1811 161.246 33.7119 161.246C33.7069 161.246 33.7036 161.246 33.6986 161.246C33.2244 161.242 32.7802 161.054 32.4475 160.717C32.1147 160.379 31.9333 159.933 31.9367 159.459C32.0066 149.925 39.5152 142.044 49.0319 141.515C49.5078 141.486 49.9603 141.648 50.313 141.964C50.6658 142.28 50.8754 142.714 50.902 143.189C50.9286 143.676 50.7523 144.159 50.4145 144.511C50.1017 144.839 49.6808 145.034 49.2283 145.059C41.5782 145.483 35.5404 151.82 35.4855 159.484Z" fill="url(#paint9_linear)"/>
    <path d="M50.4145 144.51C50.7506 144.157 50.9286 143.674 50.902 143.187C50.8754 142.714 50.6674 142.279 50.313 141.962C49.9603 141.646 49.5078 141.485 49.0319 141.513C39.5151 142.044 32.0065 149.925 31.9367 159.457C31.9333 159.931 32.1147 160.377 32.4474 160.715C32.7802 161.053 33.2244 161.241 33.6986 161.244C33.7036 161.244 33.7069 161.244 33.7119 161.244C34.1811 161.244 34.622 161.063 34.9564 160.733C35.2942 160.401 35.4822 159.956 35.4855 159.482C35.5404 151.82 41.5782 145.483 49.2282 145.057C49.6808 145.032 50.1017 144.839 50.4145 144.51Z" fill="white"/>
    <path opacity="0.3" d="M148.448 244.948C148.009 245.409 147.776 246.04 147.811 246.678C147.846 247.296 148.118 247.866 148.581 248.279C149.042 248.692 149.634 248.903 150.256 248.866C162.701 248.172 172.52 237.866 172.612 225.401C172.616 224.781 172.379 224.198 171.944 223.756C171.508 223.315 170.928 223.069 170.308 223.065C170.301 223.065 170.297 223.065 170.29 223.065C169.677 223.065 169.1 223.302 168.663 223.732C168.221 224.168 167.975 224.749 167.971 225.369C167.899 235.388 160.003 243.675 149.999 244.232C149.408 244.265 148.857 244.517 148.448 244.948Z" fill="white"/>
    <path opacity="0.85" d="M167.938 198.904C172.081 205.495 173.996 213.532 172.795 221.836C170.112 240.419 152.874 253.308 134.291 250.628C127.275 249.616 121.072 246.527 116.211 242.075C121.335 250.227 129.868 256.163 140.144 257.647C158.727 260.329 175.965 247.438 178.647 228.855C180.316 217.289 175.952 206.245 167.938 198.904Z" fill="url(#paint10_radial)"/>
    <path opacity="0.3" d="M122.062 249.096C117.919 242.505 116.004 234.468 117.205 226.164C119.888 207.581 137.126 194.692 155.709 197.372C162.725 198.384 168.928 201.473 173.789 205.925C168.665 197.772 160.132 191.837 149.856 190.353C131.273 187.671 114.035 200.562 111.353 219.145C109.684 230.711 114.048 241.755 122.062 249.096Z" fill="#6DC6FF"/>
    <path opacity="0.7" d="M172.795 221.839C173.993 213.532 172.079 205.495 167.938 198.906C163.078 194.455 156.873 191.365 149.858 190.354C131.274 187.669 114.035 200.56 111.353 219.143C110.154 227.45 112.069 235.487 116.209 242.075C121.069 246.527 127.275 249.616 134.289 250.628C152.874 253.31 170.112 240.421 172.795 221.839ZM122.096 220.709C122.092 221.33 121.846 221.91 121.405 222.346C120.967 222.776 120.391 223.014 119.777 223.014C119.771 223.014 119.766 223.014 119.76 223.014C119.14 223.009 118.559 222.763 118.124 222.322C117.688 221.88 117.451 221.297 117.456 220.677C117.547 208.21 127.366 197.903 139.811 197.212C140.433 197.175 141.025 197.386 141.486 197.799C141.948 198.212 142.222 198.78 142.256 199.4C142.291 200.038 142.061 200.669 141.619 201.13C141.21 201.559 140.66 201.813 140.068 201.846C130.064 202.401 122.168 210.688 122.096 220.709Z" fill="url(#paint11_linear)"/>
    <path d="M141.619 201.128C142.058 200.667 142.291 200.036 142.256 199.398C142.222 198.78 141.95 198.21 141.486 197.797C141.025 197.384 140.433 197.172 139.811 197.209C127.366 197.904 117.547 208.21 117.456 220.675C117.451 221.295 117.688 221.878 118.124 222.32C118.559 222.761 119.14 223.007 119.76 223.011C119.766 223.011 119.771 223.011 119.777 223.011C120.391 223.011 120.967 222.774 121.405 222.343C121.846 221.908 122.092 221.327 122.096 220.707C122.168 210.688 130.064 202.401 140.068 201.844C140.659 201.811 141.21 201.559 141.619 201.128Z" fill="white"/>
    <path opacity="0.3" d="M238.723 214.23C238.057 214.929 237.705 215.885 237.757 216.85C237.81 217.786 238.222 218.65 238.924 219.276C239.623 219.902 240.519 220.222 241.462 220.166C260.312 219.114 275.185 203.503 275.323 184.623C275.33 183.683 274.971 182.8 274.312 182.131C273.653 181.462 272.773 181.09 271.833 181.083C271.824 181.083 271.817 181.083 271.807 181.083C270.878 181.083 270.004 181.442 269.342 182.095C268.673 182.754 268.301 183.634 268.294 184.573C268.185 199.749 256.226 212.302 241.073 213.146C240.176 213.195 239.343 213.578 238.723 214.23Z" fill="white"/>
    <path opacity="0.85" d="M268.245 144.488C274.52 154.47 277.42 166.644 275.601 179.223C271.537 207.371 245.427 226.894 217.279 222.833C206.651 221.301 197.256 216.621 189.893 209.879C197.654 222.227 210.579 231.217 226.144 233.465C254.292 237.529 280.402 218.002 284.466 189.855C286.993 172.335 280.382 155.607 268.245 144.488Z" fill="url(#paint12_radial)"/>
    <path opacity="0.3" d="M198.755 220.512C192.48 210.53 189.58 198.356 191.399 185.777C195.463 157.629 221.573 138.106 249.721 142.167C260.349 143.699 269.744 148.379 277.107 155.121C269.346 142.773 256.421 133.783 240.856 131.535C212.708 127.471 186.598 146.998 182.534 175.145C180.007 192.665 186.618 209.393 198.755 220.512Z" fill="#6DC6FF"/>
    <path opacity="0.7" d="M275.601 179.226C277.417 166.644 274.516 154.47 268.245 144.491C260.883 137.748 251.484 133.068 240.859 131.536C212.708 127.469 186.598 146.995 182.534 175.143C180.719 187.725 183.619 199.899 189.89 209.878C197.252 216.621 206.651 221.301 217.276 222.833C245.427 226.897 271.537 207.374 275.601 179.226ZM198.808 177.516C198.801 178.455 198.429 179.335 197.76 179.994C197.097 180.647 196.224 181.006 195.295 181.006C195.285 181.006 195.278 181.006 195.268 181.006C194.329 180.999 193.449 180.627 192.79 179.958C192.131 179.289 191.772 178.406 191.778 177.466C191.917 158.583 206.79 142.971 225.64 141.923C226.583 141.867 227.479 142.187 228.178 142.813C228.876 143.439 229.292 144.3 229.344 145.239C229.397 146.204 229.048 147.16 228.379 147.859C227.759 148.508 226.925 148.894 226.029 148.943C210.876 149.783 198.917 162.336 198.808 177.516Z" fill="url(#paint13_linear)"/>
    <path d="M228.379 147.856C229.044 147.157 229.397 146.201 229.344 145.236C229.292 144.3 228.88 143.436 228.178 142.81C227.479 142.184 226.583 141.864 225.64 141.92C206.79 142.972 191.917 158.583 191.778 177.463C191.772 178.402 192.131 179.286 192.79 179.955C193.449 180.624 194.329 180.996 195.268 181.003C195.278 181.003 195.285 181.003 195.295 181.003C196.224 181.003 197.097 180.643 197.76 179.991C198.429 179.332 198.801 178.452 198.808 177.513C198.917 162.337 210.876 149.784 226.029 148.94C226.925 148.891 227.759 148.508 228.379 147.856Z" fill="white"/>
    <path opacity="0.3" d="M287.202 294.988C286.73 295.484 286.48 296.161 286.517 296.845C286.555 297.509 286.847 298.121 287.344 298.564C287.839 299.008 288.475 299.235 289.143 299.195C302.503 298.45 313.044 287.386 313.142 274.004C313.147 273.339 312.892 272.713 312.425 272.239C311.958 271.764 311.334 271.501 310.668 271.496C310.661 271.496 310.657 271.496 310.65 271.496C309.991 271.496 309.372 271.75 308.903 272.213C308.428 272.68 308.165 273.304 308.16 273.969C308.083 284.725 299.607 293.622 288.867 294.22C288.232 294.255 287.641 294.526 287.202 294.988Z" fill="white"/>
    <path opacity="0.85" d="M308.125 245.559C312.572 252.634 314.628 261.262 313.338 270.177C310.458 290.127 291.953 303.963 272.004 301.086C264.471 300 257.812 296.683 252.594 291.904C258.095 300.656 267.255 307.028 278.287 308.621C298.236 311.501 316.741 297.662 319.621 277.712C321.413 265.296 316.727 253.44 308.125 245.559Z" fill="url(#paint14_radial)"/>
    <path opacity="0.3" d="M258.875 299.441C254.428 292.366 252.372 283.738 253.662 274.823C256.542 254.873 275.047 241.037 294.996 243.914C302.529 245 309.188 248.317 314.406 253.096C308.905 244.344 299.745 237.972 288.713 236.379C268.764 233.499 250.259 247.338 247.379 267.288C245.587 279.704 250.273 291.56 258.875 299.441Z" fill="#6DC6FF"/>
    <path opacity="0.7" d="M313.338 270.18C314.625 261.262 312.57 252.634 308.125 245.561C302.907 240.783 296.246 237.466 288.716 236.38C268.764 233.497 250.259 247.336 247.379 267.286C246.092 276.203 248.147 284.832 252.592 291.904C257.81 296.683 264.471 300 272.001 301.086C291.953 303.966 310.458 290.129 313.338 270.18ZM258.912 268.967C258.908 269.633 258.644 270.257 258.17 270.724C257.7 271.186 257.081 271.441 256.423 271.441C256.415 271.441 256.411 271.441 256.404 271.441C255.738 271.436 255.115 271.172 254.647 270.698C254.18 270.224 253.926 269.598 253.93 268.932C254.028 255.549 264.569 244.485 277.929 243.742C278.597 243.702 279.233 243.929 279.728 244.372C280.223 244.816 280.517 245.426 280.555 246.092C280.592 246.776 280.345 247.453 279.87 247.948C279.431 248.409 278.84 248.682 278.205 248.717C267.466 249.313 258.989 258.209 258.912 268.967Z" fill="url(#paint15_linear)"/>
    <path d="M279.87 247.946C280.342 247.451 280.592 246.774 280.555 246.089C280.517 245.426 280.225 244.814 279.728 244.37C279.233 243.926 278.597 243.7 277.929 243.74C264.569 244.485 254.028 255.549 253.93 268.93C253.926 269.596 254.18 270.222 254.647 270.696C255.114 271.17 255.738 271.434 256.404 271.439C256.411 271.439 256.415 271.439 256.422 271.439C257.081 271.439 257.7 271.184 258.17 270.722C258.644 270.255 258.908 269.631 258.912 268.965C258.989 258.209 267.466 249.313 278.205 248.715C278.84 248.68 279.431 248.409 279.87 247.946Z" fill="white"/>
    <path opacity="0.3" d="M78.2018 433.988C77.73 434.484 77.4801 435.161 77.5174 435.845C77.5548 436.509 77.8468 437.121 78.3443 437.564C78.8394 438.008 79.4747 438.235 80.1427 438.195C93.5028 437.45 104.044 426.386 104.142 413.004C104.147 412.339 103.892 411.713 103.425 411.239C102.958 410.764 102.334 410.501 101.668 410.496C101.661 410.496 101.657 410.496 101.65 410.496C100.991 410.496 100.372 410.75 99.9026 411.213C99.4284 411.68 99.1645 412.304 99.1598 412.969C99.0828 423.725 90.6066 432.622 79.8671 433.22C79.2318 433.255 78.6409 433.526 78.2018 433.988Z" fill="white"/>
    <path opacity="0.85" d="M99.1251 384.559C103.572 391.634 105.628 400.262 104.338 409.177C101.458 429.127 82.9528 442.963 63.0038 440.086C55.4712 439 48.8122 435.683 43.5943 430.904C49.0948 439.656 58.2554 446.028 69.2868 447.621C89.2358 450.501 107.741 436.662 110.621 416.712C112.413 404.296 107.727 392.44 99.1251 384.559Z" fill="url(#paint16_radial)"/>
    <path opacity="0.3" d="M49.8749 438.441C45.4278 431.366 43.3724 422.738 44.6617 413.823C47.5416 393.873 66.0472 380.037 85.9962 382.914C93.5288 384 100.188 387.317 105.406 392.096C99.9052 383.344 90.7446 376.972 79.7132 375.379C59.7642 372.499 41.2586 386.338 38.3787 406.288C36.5872 418.704 41.2726 430.56 49.8749 438.441Z" fill="#6DC6FF"/>
    <path opacity="0.7" d="M104.338 409.18C105.625 400.262 103.57 391.634 99.1251 384.561C93.9072 379.783 87.2458 376.466 79.7156 375.38C59.7642 372.497 41.2586 386.336 38.3788 406.286C37.0918 415.203 39.1472 423.832 43.592 430.904C48.8099 435.683 55.4713 439 63.0015 440.086C82.9529 442.966 101.458 429.129 104.338 409.18ZM49.9123 407.967C49.9077 408.633 49.6437 409.257 49.1696 409.724C48.7001 410.186 48.0812 410.441 47.4225 410.441C47.4155 410.441 47.4108 410.441 47.4038 410.441C46.7381 410.436 46.1145 410.172 45.6474 409.698C45.1803 409.224 44.9257 408.598 44.9303 407.932C45.0284 394.549 55.5694 383.485 68.9294 382.742C69.5975 382.702 70.2328 382.929 70.7279 383.372C71.2231 383.816 71.5174 384.426 71.5547 385.092C71.5921 385.776 71.3445 386.453 70.8704 386.948C70.4313 387.409 69.8404 387.682 69.2051 387.717C58.4656 388.313 49.9894 397.209 49.9123 407.967Z" fill="url(#paint17_linear)"/>
    <path d="M70.8704 386.946C71.3422 386.451 71.5921 385.774 71.5547 385.089C71.5173 384.426 71.2254 383.814 70.7279 383.37C70.2327 382.926 69.5974 382.7 68.9294 382.74C55.5693 383.485 45.0284 394.549 44.9303 407.93C44.9256 408.596 45.1802 409.222 45.6474 409.696C46.1145 410.17 46.7381 410.434 47.4038 410.439C47.4108 410.439 47.4155 410.439 47.4225 410.439C48.0811 410.439 48.7001 410.184 49.1696 409.722C49.6437 409.255 49.9076 408.631 49.9123 407.965C49.9894 397.209 58.4656 388.313 69.205 387.715C69.8403 387.68 70.4313 387.409 70.8704 386.946Z" fill="white"/>
    <path opacity="0.3" d="M199.738 303.635C199.389 304.001 199.204 304.503 199.232 305.009C199.26 305.499 199.476 305.952 199.844 306.28C200.21 306.609 200.68 306.776 201.174 306.747C211.057 306.196 218.854 298.011 218.927 288.113C218.93 287.62 218.742 287.157 218.396 286.807C218.051 286.456 217.59 286.261 217.097 286.257C217.092 286.257 217.089 286.257 217.083 286.257C216.596 286.257 216.138 286.445 215.791 286.788C215.44 287.133 215.245 287.594 215.242 288.087C215.185 296.043 208.914 302.624 200.97 303.067C200.5 303.093 200.063 303.293 199.738 303.635Z" fill="white"/>
    <path opacity="0.85" d="M215.216 267.071C218.505 272.304 220.026 278.687 219.072 285.282C216.942 300.039 203.253 310.274 188.496 308.146C182.924 307.342 177.998 304.889 174.138 301.354C178.207 307.828 184.983 312.541 193.144 313.719C207.9 315.85 221.59 305.613 223.72 290.856C225.045 281.671 221.579 272.901 215.216 267.071Z" fill="url(#paint18_radial)"/>
    <path opacity="0.3" d="M178.784 306.929C175.495 301.695 173.974 295.313 174.928 288.718C177.058 273.961 190.747 263.726 205.504 265.854C211.076 266.658 216.002 269.111 219.862 272.646C215.793 266.172 209.017 261.459 200.856 260.281C186.1 258.15 172.41 268.387 170.28 283.144C168.955 292.329 172.421 301.099 178.784 306.929Z" fill="#6DC6FF"/>
    <path opacity="0.7" d="M219.072 285.284C220.024 278.687 218.504 272.305 215.216 267.073C211.356 263.538 206.428 261.084 200.858 260.281C186.1 258.149 172.411 268.386 170.28 283.143C169.328 289.74 170.849 296.122 174.137 301.354C177.996 304.889 182.924 307.342 188.494 308.146C203.253 310.276 216.942 300.041 219.072 285.284ZM178.812 284.387C178.808 284.879 178.613 285.341 178.262 285.686C177.915 286.028 177.457 286.217 176.97 286.217C176.965 286.217 176.961 286.217 176.956 286.217C176.464 286.213 176.003 286.018 175.657 285.667C175.311 285.316 175.123 284.853 175.127 284.361C175.199 274.461 182.997 266.276 192.879 265.727C193.373 265.697 193.843 265.865 194.21 266.193C194.576 266.522 194.794 266.973 194.821 267.465C194.849 267.971 194.666 268.472 194.315 268.839C193.99 269.179 193.553 269.381 193.083 269.407C185.139 269.848 178.869 276.429 178.812 284.387Z" fill="url(#paint19_linear)"/>
    <path d="M194.315 268.837C194.664 268.471 194.849 267.97 194.821 267.463C194.794 266.973 194.578 266.52 194.21 266.192C193.843 265.863 193.373 265.696 192.879 265.725C182.997 266.276 175.199 274.461 175.127 284.359C175.123 284.852 175.311 285.315 175.657 285.666C176.003 286.016 176.464 286.212 176.956 286.215C176.961 286.215 176.965 286.215 176.97 286.215C177.457 286.215 177.915 286.027 178.262 285.685C178.613 285.339 178.808 284.878 178.812 284.385C178.869 276.429 185.139 269.848 193.083 269.405C193.553 269.379 193.99 269.179 194.315 268.837Z" fill="white"/>
    <path opacity="0.3" d="M276.738 371.635C276.389 372.001 276.204 372.503 276.232 373.009C276.26 373.499 276.476 373.952 276.844 374.28C277.21 374.609 277.68 374.776 278.174 374.747C288.057 374.196 295.854 366.011 295.927 356.113C295.93 355.62 295.742 355.157 295.396 354.807C295.051 354.456 294.59 354.261 294.097 354.257C294.092 354.257 294.089 354.257 294.083 354.257C293.596 354.257 293.138 354.445 292.791 354.788C292.44 355.133 292.245 355.594 292.242 356.087C292.185 364.043 285.914 370.624 277.97 371.067C277.5 371.093 277.063 371.293 276.738 371.635Z" fill="white"/>
    <path opacity="0.85" d="M292.216 335.071C295.506 340.304 297.026 346.687 296.072 353.282C293.942 368.039 280.253 378.274 265.496 376.146C259.924 375.342 254.998 372.889 251.138 369.354C255.207 375.828 261.983 380.541 270.144 381.719C284.9 383.85 298.59 373.613 300.72 358.856C302.045 349.671 298.579 340.901 292.216 335.071Z" fill="url(#paint20_radial)"/>
    <path opacity="0.3" d="M255.784 374.929C252.495 369.695 250.974 363.313 251.928 356.718C254.058 341.961 267.747 331.726 282.504 333.854C288.076 334.658 293.002 337.111 296.862 340.646C292.793 334.172 286.017 329.459 277.856 328.281C263.1 326.15 249.41 336.387 247.28 351.144C245.955 360.329 249.421 369.099 255.784 374.929Z" fill="#6DC6FF"/>
    <path opacity="0.7" d="M296.072 353.284C297.024 346.687 295.504 340.305 292.216 335.073C288.356 331.538 283.428 329.084 277.858 328.281C263.1 326.149 249.411 336.386 247.28 351.143C246.328 357.74 247.849 364.122 251.137 369.354C254.996 372.889 259.924 375.342 265.494 376.146C280.253 378.276 293.942 368.041 296.072 353.284ZM255.812 352.387C255.808 352.879 255.613 353.341 255.262 353.686C254.915 354.028 254.457 354.217 253.97 354.217C253.965 354.217 253.961 354.217 253.956 354.217C253.464 354.213 253.003 354.018 252.657 353.667C252.311 353.316 252.123 352.853 252.127 352.361C252.199 342.461 259.997 334.276 269.879 333.727C270.373 333.697 270.843 333.865 271.21 334.193C271.576 334.522 271.794 334.973 271.821 335.465C271.849 335.971 271.666 336.472 271.315 336.839C270.99 337.179 270.553 337.381 270.083 337.407C262.139 337.848 255.869 344.429 255.812 352.387Z" fill="url(#paint21_linear)"/>
    <path d="M271.315 336.837C271.664 336.471 271.849 335.97 271.821 335.463C271.794 334.973 271.578 334.52 271.21 334.192C270.843 333.863 270.373 333.696 269.879 333.725C259.996 334.276 252.199 342.461 252.127 352.359C252.123 352.852 252.311 353.315 252.657 353.666C253.003 354.016 253.464 354.212 253.956 354.215C253.961 354.215 253.965 354.215 253.97 354.215C254.457 354.215 254.915 354.027 255.262 353.685C255.613 353.339 255.808 352.878 255.812 352.385C255.869 344.429 262.139 337.848 270.083 337.405C270.553 337.379 270.99 337.179 271.315 336.837Z" fill="white"/>
    <path opacity="0.3" d="M276.738 469.635C276.389 470.001 276.204 470.503 276.232 471.009C276.26 471.499 276.476 471.952 276.844 472.28C277.21 472.609 277.68 472.776 278.174 472.747C288.057 472.196 295.854 464.011 295.927 454.113C295.93 453.62 295.742 453.157 295.396 452.807C295.051 452.456 294.59 452.261 294.097 452.257C294.092 452.257 294.089 452.257 294.083 452.257C293.596 452.257 293.138 452.445 292.791 452.788C292.44 453.133 292.245 453.594 292.242 454.087C292.185 462.043 285.914 468.624 277.97 469.067C277.5 469.093 277.063 469.293 276.738 469.635Z" fill="white"/>
    <path opacity="0.85" d="M292.216 433.071C295.506 438.304 297.026 444.687 296.072 451.282C293.942 466.039 280.253 476.274 265.496 474.146C259.924 473.342 254.998 470.889 251.138 467.354C255.207 473.828 261.983 478.541 270.144 479.719C284.9 481.85 298.59 471.613 300.72 456.856C302.045 447.671 298.579 438.901 292.216 433.071Z" fill="url(#paint22_radial)"/>
    <path opacity="0.3" d="M255.784 472.929C252.495 467.695 250.974 461.313 251.928 454.718C254.058 439.961 267.747 429.726 282.504 431.854C288.076 432.658 293.002 435.111 296.862 438.646C292.793 432.172 286.017 427.459 277.856 426.281C263.1 424.15 249.41 434.387 247.28 449.144C245.955 458.329 249.421 467.099 255.784 472.929Z" fill="#6DC6FF"/>
    <path opacity="0.7" d="M296.072 451.284C297.024 444.687 295.504 438.305 292.216 433.073C288.356 429.538 283.428 427.084 277.858 426.281C263.1 424.149 249.411 434.386 247.28 449.143C246.328 455.74 247.849 462.122 251.137 467.354C254.996 470.889 259.924 473.342 265.494 474.146C280.253 476.276 293.942 466.041 296.072 451.284ZM255.812 450.387C255.808 450.879 255.613 451.341 255.262 451.686C254.915 452.028 254.457 452.217 253.97 452.217C253.965 452.217 253.961 452.217 253.956 452.217C253.464 452.213 253.003 452.018 252.657 451.667C252.311 451.316 252.123 450.853 252.127 450.361C252.199 440.461 259.997 432.276 269.879 431.727C270.373 431.697 270.843 431.865 271.21 432.193C271.576 432.522 271.794 432.973 271.821 433.465C271.849 433.971 271.666 434.472 271.315 434.839C270.99 435.179 270.553 435.381 270.083 435.407C262.139 435.848 255.869 442.429 255.812 450.387Z" fill="url(#paint23_linear)"/>
    <path d="M271.315 434.837C271.664 434.471 271.849 433.97 271.821 433.463C271.794 432.973 271.578 432.52 271.21 432.192C270.843 431.863 270.373 431.696 269.879 431.725C259.996 432.276 252.199 440.461 252.127 450.359C252.123 450.852 252.311 451.315 252.657 451.666C253.003 452.016 253.464 452.212 253.956 452.215C253.961 452.215 253.965 452.215 253.97 452.215C254.457 452.215 254.915 452.027 255.262 451.685C255.613 451.339 255.808 450.878 255.812 450.385C255.869 442.429 262.139 435.848 270.083 435.405C270.553 435.379 270.99 435.179 271.315 434.837Z" fill="white"/>
    <path opacity="0.3" d="M134.738 500.635C134.389 501.001 134.204 501.503 134.232 502.009C134.26 502.499 134.476 502.952 134.844 503.28C135.21 503.609 135.68 503.776 136.174 503.747C146.057 503.196 153.854 495.011 153.927 485.113C153.93 484.62 153.742 484.157 153.396 483.807C153.051 483.456 152.59 483.261 152.097 483.257C152.092 483.257 152.089 483.257 152.083 483.257C151.596 483.257 151.138 483.445 150.791 483.788C150.44 484.133 150.245 484.594 150.242 485.087C150.185 493.043 143.914 499.624 135.97 500.067C135.5 500.093 135.063 500.293 134.738 500.635Z" fill="white"/>
    <path opacity="0.85" d="M150.216 464.071C153.505 469.304 155.026 475.687 154.072 482.282C151.942 497.039 138.253 507.274 123.496 505.146C117.924 504.342 112.998 501.889 109.138 498.354C113.207 504.828 119.983 509.541 128.144 510.719C142.9 512.85 156.59 502.613 158.72 487.856C160.045 478.671 156.579 469.901 150.216 464.071Z" fill="url(#paint24_radial)"/>
    <path opacity="0.3" d="M113.784 503.929C110.495 498.695 108.974 492.313 109.928 485.718C112.058 470.961 125.747 460.726 140.504 462.854C146.076 463.658 151.002 466.111 154.862 469.646C150.793 463.172 144.017 458.459 135.856 457.281C121.1 455.15 107.41 465.387 105.28 480.144C103.955 489.329 107.421 498.099 113.784 503.929Z" fill="#6DC6FF"/>
    <path opacity="0.7" d="M154.072 482.284C155.024 475.687 153.504 469.305 150.216 464.073C146.356 460.538 141.428 458.084 135.858 457.281C121.1 455.149 107.411 465.386 105.28 480.143C104.328 486.74 105.849 493.122 109.137 498.354C112.996 501.889 117.924 504.342 123.494 505.146C138.253 507.276 151.942 497.041 154.072 482.284ZM113.812 481.387C113.808 481.879 113.613 482.341 113.262 482.686C112.915 483.028 112.457 483.217 111.97 483.217C111.965 483.217 111.961 483.217 111.956 483.217C111.464 483.213 111.003 483.018 110.657 482.667C110.311 482.316 110.123 481.853 110.127 481.361C110.199 471.461 117.997 463.276 127.879 462.727C128.373 462.697 128.843 462.865 129.21 463.193C129.576 463.522 129.794 463.973 129.821 464.465C129.849 464.971 129.666 465.472 129.315 465.839C128.99 466.179 128.553 466.381 128.083 466.407C120.139 466.848 113.869 473.429 113.812 481.387Z" fill="url(#paint25_linear)"/>
    <path d="M129.315 465.837C129.664 465.471 129.849 464.97 129.821 464.463C129.794 463.973 129.578 463.52 129.21 463.192C128.843 462.863 128.373 462.696 127.879 462.725C117.997 463.276 110.199 471.461 110.127 481.359C110.123 481.852 110.311 482.315 110.657 482.666C111.003 483.016 111.464 483.212 111.956 483.215C111.961 483.215 111.965 483.215 111.97 483.215C112.457 483.215 112.915 483.027 113.262 482.685C113.613 482.339 113.808 481.878 113.812 481.385C113.869 473.429 120.139 466.848 128.083 466.405C128.553 466.379 128.99 466.179 129.315 465.837Z" fill="white"/>
    <path opacity="0.3" d="M284.593 118.292C284.199 118.705 283.99 119.271 284.021 119.843C284.053 120.398 284.297 120.909 284.712 121.28C285.126 121.651 285.657 121.84 286.215 121.807C297.379 121.184 306.187 111.939 306.269 100.757C306.273 100.201 306.06 99.6778 305.67 99.2816C305.28 98.8854 304.759 98.6649 304.202 98.661C304.196 98.661 304.193 98.661 304.187 98.661C303.636 98.661 303.119 98.8737 302.727 99.2602C302.331 99.6505 302.11 100.172 302.106 100.728C302.042 109.716 294.959 117.15 285.985 117.65C285.454 117.679 284.96 117.905 284.593 118.292Z" fill="white"/>
    <path opacity="0.85" d="M302.077 76.9878C305.793 82.8997 307.511 90.1094 306.433 97.5593C304.027 114.229 288.563 125.791 271.894 123.387C265.599 122.479 260.035 119.708 255.675 115.715C260.271 123.028 267.926 128.352 277.144 129.683C293.813 132.09 309.277 120.526 311.684 103.856C313.181 93.4801 309.265 83.573 302.077 76.9878Z" fill="url(#paint26_radial)"/>
    <path opacity="0.3" d="M260.923 122.012C257.207 116.1 255.489 108.891 256.567 101.441C258.973 84.7708 274.437 73.2086 291.106 75.6131C297.401 76.5207 302.965 79.2922 307.325 83.2855C302.729 75.9723 295.074 70.6479 285.856 69.3168C269.187 66.9103 253.723 78.4744 251.316 95.1444C249.819 105.52 253.735 115.427 260.923 122.012Z" fill="#6DC6FF"/>
    <path opacity="0.7" d="M306.433 97.5611C307.509 90.1093 305.791 82.8995 302.077 76.9896C297.717 72.9963 292.151 70.2248 285.858 69.3173C269.187 66.9088 253.723 78.473 251.316 95.1429C250.241 102.595 251.959 109.804 255.673 115.714C260.033 119.708 265.599 122.479 271.892 123.387C288.563 125.793 304.027 114.231 306.433 97.5611ZM260.954 96.5482C260.95 97.1044 260.73 97.6255 260.333 98.0159C259.941 98.4023 259.424 98.6151 258.874 98.6151C258.868 98.6151 258.864 98.6151 258.858 98.6151C258.302 98.6112 257.781 98.3906 257.39 97.9944C257 97.5982 256.787 97.0751 256.791 96.5189C256.873 85.3353 265.681 76.0899 276.845 75.4692C277.403 75.436 277.934 75.6254 278.348 75.9962C278.762 76.367 279.008 76.8764 279.039 77.4327C279.07 78.0045 278.863 78.5706 278.467 78.9843C278.1 79.3688 277.606 79.5972 277.075 79.6264C268.101 80.1241 261.019 87.5584 260.954 96.5482Z" fill="url(#paint27_linear)"/>
    <path d="M278.467 78.9825C278.861 78.5687 279.07 78.0027 279.039 77.4308C279.008 76.8765 278.764 76.3652 278.348 75.9943C277.934 75.6235 277.403 75.4342 276.845 75.4674C265.681 76.09 256.873 85.3354 256.791 96.517C256.787 97.0733 257 97.5963 257.39 97.9925C257.781 98.3888 258.302 98.6093 258.858 98.6132C258.864 98.6132 258.868 98.6132 258.874 98.6132C259.424 98.6132 259.941 98.4005 260.333 98.014C260.73 97.6237 260.95 97.1025 260.954 96.5463C261.019 87.5585 268.101 80.1242 277.075 79.6246C277.606 79.5953 278.1 79.3689 278.467 78.9825Z" fill="white"/>
    <path opacity="0.3" d="M66.6358 331.775C65.8538 332.596 65.4395 333.719 65.5015 334.853C65.5634 335.952 66.0474 336.967 66.872 337.702C67.6927 338.438 68.7458 338.814 69.853 338.748C91.9978 337.513 109.47 319.173 109.632 296.993C109.64 295.89 109.218 294.853 108.444 294.067C107.67 293.281 106.636 292.843 105.532 292.835C105.521 292.835 105.513 292.835 105.502 292.835C104.41 292.835 103.384 293.257 102.606 294.024C101.82 294.798 101.382 295.832 101.375 296.935C101.247 314.764 87.1972 329.51 69.3962 330.501C68.3431 330.559 67.3637 331.009 66.6358 331.775Z" fill="white"/>
    <path opacity="0.85" d="M101.317 249.844C108.688 261.571 112.095 275.873 109.958 290.65C105.184 323.717 74.5108 346.652 41.4446 341.882C28.9591 340.082 17.9216 334.584 9.27271 326.663C18.39 341.17 33.5739 351.731 51.8589 354.371C84.9251 359.145 115.599 336.206 120.372 303.14C123.342 282.559 115.576 262.907 101.317 249.844Z" fill="url(#paint28_radial)"/>
    <path opacity="0.3" d="M19.6831 339.156C12.3118 327.429 8.90493 313.127 11.042 298.35C15.8155 265.283 46.4892 242.348 79.5554 247.118C92.0409 248.918 103.078 254.416 111.727 262.337C102.61 247.83 87.4261 237.269 69.1411 234.629C36.0749 229.855 5.40125 252.794 0.627721 285.86C-2.34169 306.441 5.42446 326.093 19.6831 339.156Z" fill="#6DC6FF"/>
    <path opacity="0.7" d="M109.958 290.654C112.091 275.873 108.684 261.571 101.317 249.848C92.6681 241.927 81.6267 236.43 69.1451 234.629C36.075 229.852 5.40131 252.791 0.627791 285.857C-1.50539 300.639 1.9015 314.94 9.26891 326.663C17.9178 334.584 28.9592 340.082 41.4408 341.882C74.5109 346.655 105.185 323.721 109.958 290.654ZM19.7451 288.645C19.7374 289.748 19.2999 290.782 18.514 291.556C17.7358 292.323 16.7099 292.745 15.6181 292.745C15.6065 292.745 15.5988 292.745 15.5871 292.745C14.4838 292.737 13.4501 292.299 12.6758 291.513C11.9015 290.728 11.4795 289.69 11.4873 288.587C11.6499 266.403 29.1218 248.064 51.2666 246.832C52.3739 246.767 53.4269 247.142 54.2476 247.878C55.0684 248.613 55.5562 249.624 55.6181 250.727C55.6801 251.861 55.2697 252.984 54.4838 253.805C53.756 254.568 52.7765 255.021 51.7234 255.079C33.9224 256.066 19.8729 270.813 19.7451 288.645Z" fill="url(#paint29_linear)"/>
    <path d="M54.4837 253.801C55.2658 252.981 55.68 251.858 55.6181 250.723C55.5561 249.624 55.0722 248.61 54.2476 247.874C53.4268 247.138 52.3738 246.763 51.2665 246.829C29.1217 248.064 11.6498 266.403 11.4872 288.583C11.4795 289.686 11.9014 290.724 12.6757 291.51C13.45 292.296 14.4837 292.733 15.5871 292.741C15.5987 292.741 15.6064 292.741 15.6181 292.741C16.7098 292.741 17.7357 292.319 18.5139 291.552C19.2998 290.778 19.7373 289.744 19.745 288.641C19.8728 270.813 33.9224 256.066 51.7234 255.075C52.7764 255.017 53.7559 254.568 54.4837 253.801Z" fill="white"/>
    <path opacity="0.3" d="M189.129 423.695C188.411 424.447 188.031 425.477 188.088 426.518C188.145 427.527 188.589 428.457 189.345 429.132C190.098 429.807 191.064 430.151 192.08 430.091C212.395 428.958 228.423 412.134 228.572 391.787C228.579 390.775 228.192 389.823 227.482 389.102C226.771 388.381 225.823 387.98 224.811 387.973C224.8 387.973 224.793 387.973 224.782 387.973C223.781 387.973 222.84 388.36 222.126 389.063C221.405 389.774 221.004 390.722 220.996 391.734C220.879 408.089 207.991 421.617 191.661 422.526C190.695 422.579 189.796 422.991 189.129 423.695Z" fill="white"/>
    <path opacity="0.85" d="M220.944 348.535C227.706 359.293 230.831 372.412 228.871 385.969C224.492 416.302 196.353 437.342 166.019 432.966C154.566 431.315 144.44 426.272 136.506 419.005C144.87 432.313 158.799 442.001 175.573 444.424C205.907 448.803 234.045 427.76 238.424 397.426C241.148 378.546 234.024 360.518 220.944 348.535Z" fill="url(#paint30_radial)"/>
    <path opacity="0.3" d="M146.056 430.465C139.294 419.707 136.169 406.588 138.129 393.031C142.508 362.698 170.647 341.658 200.981 346.034C212.434 347.685 222.56 352.728 230.494 359.995C222.13 346.687 208.201 336.999 191.427 334.576C161.093 330.197 132.955 351.24 128.576 381.574C125.852 400.454 132.976 418.482 146.056 430.465Z" fill="#6DC6FF"/>
    <path opacity="0.7" d="M228.871 385.972C230.828 372.412 227.702 359.293 220.944 348.539C213.01 341.272 202.881 336.229 191.431 334.577C161.094 330.195 132.955 351.238 128.576 381.571C126.619 395.131 129.744 408.251 136.503 419.005C144.437 426.271 154.566 431.315 166.016 432.966C196.353 437.345 224.492 416.306 228.871 385.972ZM146.113 384.129C146.106 385.141 145.705 386.089 144.984 386.799C144.27 387.503 143.329 387.89 142.327 387.89C142.317 387.89 142.31 387.89 142.299 387.89C141.287 387.883 140.339 387.481 139.628 386.76C138.918 386.039 138.531 385.088 138.538 384.075C138.687 363.725 154.715 346.901 175.03 345.772C176.045 345.711 177.011 346.056 177.764 346.731C178.517 347.406 178.965 348.333 179.022 349.345C179.078 350.385 178.702 351.415 177.981 352.168C177.313 352.868 176.415 353.283 175.449 353.337C159.119 354.242 146.23 367.77 146.113 384.129Z" fill="url(#paint31_linear)"/>
    <path d="M177.981 352.165C178.698 351.412 179.078 350.382 179.022 349.341C178.965 348.333 178.521 347.402 177.764 346.727C177.011 346.053 176.045 345.708 175.03 345.769C154.715 346.901 138.687 363.725 138.538 384.072C138.531 385.084 138.918 386.036 139.628 386.757C140.338 387.478 141.287 387.879 142.299 387.886C142.31 387.886 142.317 387.886 142.327 387.886C143.329 387.886 144.27 387.499 144.984 386.796C145.705 386.086 146.106 385.137 146.113 384.125C146.23 367.77 159.119 354.243 175.449 353.333C176.415 353.28 177.313 352.868 177.981 352.165Z" fill="white"/>
    <defs>
        <radialGradient id="paint0_radial" cx="0" cy="0" r="1" gradientUnits="userSpaceOnUse" gradientTransform="translate(88.6766 65.6361) rotate(42.008) scale(46.8655 49.7949)">
            <stop offset="0.625" stop-color="#7BC3F2" stop-opacity="0"/>
            <stop offset="1" stop-color="#7BC3F2"/>
        </radialGradient>
        <linearGradient id="paint1_linear" x1="79.8093" y1="4" x2="79.8093" y2="101.748" gradientUnits="userSpaceOnUse">
            <stop stop-color="#60B8FE"/>
            <stop offset="1" stop-color="#60B8FE" stop-opacity="0"/>
        </linearGradient>
        <radialGradient id="paint2_radial" cx="0" cy="0" r="1" gradientUnits="userSpaceOnUse" gradientTransform="translate(226.221 40.1487) rotate(42.0083) scale(30.5272 32.4354)">
            <stop offset="0.625" stop-color="#7BC3F2" stop-opacity="0"/>
            <stop offset="1" stop-color="#7BC3F2"/>
        </radialGradient>
        <linearGradient id="paint3_linear" x1="220.445" y1="0" x2="220.445" y2="63.6714" gradientUnits="userSpaceOnUse">
            <stop stop-color="#60B8FE"/>
            <stop offset="1" stop-color="#60B8FE" stop-opacity="0"/>
        </linearGradient>
        <radialGradient id="paint4_radial" cx="0" cy="0" r="1" gradientUnits="userSpaceOnUse" gradientTransform="translate(173.071 88.1845) rotate(42.0083) scale(17.6284 18.7303)">
            <stop offset="0.625" stop-color="#7BC3F2" stop-opacity="0"/>
            <stop offset="1" stop-color="#7BC3F2"/>
        </radialGradient>
        <linearGradient id="paint5_linear" x1="169.736" y1="65" x2="169.736" y2="101.768" gradientUnits="userSpaceOnUse">
            <stop stop-color="#60B8FE"/>
            <stop offset="1" stop-color="#60B8FE" stop-opacity="0"/>
        </linearGradient>
        <radialGradient id="paint6_radial" cx="0" cy="0" r="1" gradientUnits="userSpaceOnUse" gradientTransform="translate(139.759 150.714) rotate(42.0083) scale(30.9571 32.8923)">
            <stop offset="0.625" stop-color="#7BC3F2" stop-opacity="0"/>
            <stop offset="1" stop-color="#7BC3F2"/>
        </radialGradient>
        <linearGradient id="paint7_linear" x1="133.902" y1="110" x2="133.902" y2="174.568" gradientUnits="userSpaceOnUse">
            <stop stop-color="#60B8FE"/>
            <stop offset="1" stop-color="#60B8FE" stop-opacity="0"/>
        </linearGradient>
        <radialGradient id="paint8_radial" cx="0" cy="0" r="1" gradientUnits="userSpaceOnUse" gradientTransform="translate(54.9925 165.405) rotate(42.0083) scale(22.3579 23.7555)">
            <stop offset="0.625" stop-color="#7BC3F2" stop-opacity="0"/>
            <stop offset="1" stop-color="#7BC3F2"/>
        </radialGradient>
        <linearGradient id="paint9_linear" x1="50.7623" y1="136" x2="50.7623" y2="182.633" gradientUnits="userSpaceOnUse">
            <stop stop-color="#60B8FE"/>
            <stop offset="1" stop-color="#60B8FE" stop-opacity="0"/>
        </linearGradient>
        <radialGradient id="paint10_radial" cx="0" cy="0" r="1" gradientUnits="userSpaceOnUse" gradientTransform="translate(147.606 228.452) rotate(42.0083) scale(29.2373 31.0649)">
            <stop offset="0.625" stop-color="#7BC3F2" stop-opacity="0"/>
            <stop offset="1" stop-color="#7BC3F2"/>
        </radialGradient>
        <linearGradient id="paint11_linear" x1="142.074" y1="190" x2="142.074" y2="250.981" gradientUnits="userSpaceOnUse">
            <stop stop-color="#60B8FE"/>
            <stop offset="1" stop-color="#60B8FE" stop-opacity="0"/>
        </linearGradient>
        <radialGradient id="paint12_radial" cx="0" cy="0" r="1" gradientUnits="userSpaceOnUse" gradientTransform="translate(237.447 189.244) rotate(42.0083) scale(44.2859 47.0542)">
            <stop offset="0.625" stop-color="#7BC3F2" stop-opacity="0"/>
            <stop offset="1" stop-color="#7BC3F2"/>
        </radialGradient>
        <linearGradient id="paint13_linear" x1="229.068" y1="131" x2="229.068" y2="223.368" gradientUnits="userSpaceOnUse">
            <stop stop-color="#60B8FE"/>
            <stop offset="1" stop-color="#60B8FE" stop-opacity="0"/>
        </linearGradient>
        <radialGradient id="paint14_radial" cx="0" cy="0" r="1" gradientUnits="userSpaceOnUse" gradientTransform="translate(286.297 277.28) rotate(42.0083) scale(31.3871 33.3491)">
            <stop offset="0.625" stop-color="#7BC3F2" stop-opacity="0"/>
            <stop offset="1" stop-color="#7BC3F2"/>
        </radialGradient>
        <linearGradient id="paint15_linear" x1="280.359" y1="236" x2="280.359" y2="301.465" gradientUnits="userSpaceOnUse">
            <stop stop-color="#60B8FE"/>
            <stop offset="1" stop-color="#60B8FE" stop-opacity="0"/>
        </linearGradient>
        <radialGradient id="paint16_radial" cx="0" cy="0" r="1" gradientUnits="userSpaceOnUse" gradientTransform="translate(77.2972 416.28) rotate(42.0083) scale(31.3871 33.3491)">
            <stop offset="0.625" stop-color="#7BC3F2" stop-opacity="0"/>
            <stop offset="1" stop-color="#7BC3F2"/>
        </radialGradient>
        <linearGradient id="paint17_linear" x1="71.3586" y1="375" x2="71.3586" y2="440.465" gradientUnits="userSpaceOnUse">
            <stop stop-color="#60B8FE"/>
            <stop offset="1" stop-color="#60B8FE" stop-opacity="0"/>
        </linearGradient>
        <radialGradient id="paint18_radial" cx="0" cy="0" r="1" gradientUnits="userSpaceOnUse" gradientTransform="translate(199.069 290.535) rotate(42.0083) scale(23.2179 24.6692)">
            <stop offset="0.625" stop-color="#7BC3F2" stop-opacity="0"/>
            <stop offset="1" stop-color="#7BC3F2"/>
        </radialGradient>
        <linearGradient id="paint19_linear" x1="194.676" y1="260" x2="194.676" y2="308.426" gradientUnits="userSpaceOnUse">
            <stop stop-color="#60B8FE"/>
            <stop offset="1" stop-color="#60B8FE" stop-opacity="0"/>
        </linearGradient>
        <radialGradient id="paint20_radial" cx="0" cy="0" r="1" gradientUnits="userSpaceOnUse" gradientTransform="translate(276.069 358.535) rotate(42.0083) scale(23.2179 24.6692)">
            <stop offset="0.625" stop-color="#7BC3F2" stop-opacity="0"/>
            <stop offset="1" stop-color="#7BC3F2"/>
        </radialGradient>
        <linearGradient id="paint21_linear" x1="271.676" y1="328" x2="271.676" y2="376.426" gradientUnits="userSpaceOnUse">
            <stop stop-color="#60B8FE"/>
            <stop offset="1" stop-color="#60B8FE" stop-opacity="0"/>
        </linearGradient>
        <radialGradient id="paint22_radial" cx="0" cy="0" r="1" gradientUnits="userSpaceOnUse" gradientTransform="translate(276.069 456.535) rotate(42.0083) scale(23.2179 24.6692)">
            <stop offset="0.625" stop-color="#7BC3F2" stop-opacity="0"/>
            <stop offset="1" stop-color="#7BC3F2"/>
        </radialGradient>
        <linearGradient id="paint23_linear" x1="271.676" y1="426" x2="271.676" y2="474.426" gradientUnits="userSpaceOnUse">
            <stop stop-color="#60B8FE"/>
            <stop offset="1" stop-color="#60B8FE" stop-opacity="0"/>
        </linearGradient>
        <radialGradient id="paint24_radial" cx="0" cy="0" r="1" gradientUnits="userSpaceOnUse" gradientTransform="translate(134.069 487.535) rotate(42.0083) scale(23.2179 24.6692)">
            <stop offset="0.625" stop-color="#7BC3F2" stop-opacity="0"/>
            <stop offset="1" stop-color="#7BC3F2"/>
        </radialGradient>
        <linearGradient id="paint25_linear" x1="129.676" y1="457" x2="129.676" y2="505.426" gradientUnits="userSpaceOnUse">
            <stop stop-color="#60B8FE"/>
            <stop offset="1" stop-color="#60B8FE" stop-opacity="0"/>
        </linearGradient>
        <radialGradient id="paint26_radial" cx="0" cy="0" r="1" gradientUnits="userSpaceOnUse" gradientTransform="translate(283.837 103.494) rotate(42.0083) scale(26.2276 27.8671)">
            <stop offset="0.625" stop-color="#7BC3F2" stop-opacity="0"/>
            <stop offset="1" stop-color="#7BC3F2"/>
        </radialGradient>
        <linearGradient id="paint27_linear" x1="278.875" y1="69" x2="278.875" y2="123.704" gradientUnits="userSpaceOnUse">
            <stop stop-color="#60B8FE"/>
            <stop offset="1" stop-color="#60B8FE" stop-opacity="0"/>
        </linearGradient>
        <radialGradient id="paint28_radial" cx="0" cy="0" r="1" gradientUnits="userSpaceOnUse" gradientTransform="translate(65.1363 302.422) rotate(42.0083) scale(52.0252 55.2773)">
            <stop offset="0.625" stop-color="#7BC3F2" stop-opacity="0"/>
            <stop offset="1" stop-color="#7BC3F2"/>
        </radialGradient>
        <linearGradient id="paint29_linear" x1="55.2929" y1="234" x2="55.2929" y2="342.51" gradientUnits="userSpaceOnUse">
            <stop stop-color="#60B8FE"/>
            <stop offset="1" stop-color="#60B8FE" stop-opacity="0"/>
        </linearGradient>
        <radialGradient id="paint30_radial" cx="0" cy="0" r="1" gradientUnits="userSpaceOnUse" gradientTransform="translate(187.753 396.768) rotate(42.0083) scale(47.7256 50.7089)">
            <stop offset="0.625" stop-color="#7BC3F2" stop-opacity="0"/>
            <stop offset="1" stop-color="#7BC3F2"/>
        </radialGradient>
        <linearGradient id="paint31_linear" x1="178.723" y1="334" x2="178.723" y2="433.543" gradientUnits="userSpaceOnUse">
            <stop stop-color="#60B8FE"/>
            <stop offset="1" stop-color="#60B8FE" stop-opacity="0"/>
        </linearGradient>
    </defs>
</svg>
