<svg width="24" height="24" viewBox="0 0 24 24" fill="none" xmlns="http://www.w3.org/2000/svg">
    <g filter="url(#filter0_i)">
        <path fill-rule="evenodd" clip-rule="evenodd" d="M6.93702 5.78214C7.00787 5.68584 7.08656 5.56794 7.18689 5.40897C7.24312 5.31989 7.44827 4.98808 7.4818 4.93445C8.31079 3.60856 8.91339 3 10 3H14C15.0866 3 15.6892 3.60856 16.5182 4.93445C16.5517 4.98808 16.7569 5.31989 16.8131 5.40897C16.9134 5.56794 16.9921 5.68584 17.063 5.78214C17.1097 5.84565 17.1505 5.89612 17.1838 5.93333H20C21.6569 5.93333 23 7.24663 23 8.86667V17.6667C23 19.2867 21.6569 20.6 20 20.6H4C2.34315 20.6 1 19.2867 1 17.6667V8.86667C1 7.24663 2.34315 5.93333 4 5.93333H6.8162C6.84949 5.89612 6.8903 5.84565 6.93702 5.78214Z" stroke="#1FD32E" stroke-width="2"/>
        <path fill-rule="evenodd" clip-rule="evenodd" d="M19.4973 10.8916C20.0864 10.8916 20.564 10.414 20.564 9.82491C20.564 9.2358 20.0864 8.75824 19.4973 8.75824C18.9082 8.75824 18.4307 9.2358 18.4307 9.82491C18.4307 10.414 18.9082 10.8916 19.4973 10.8916Z" stroke="#1FD32E" stroke-width="2"/>
        <path fill-rule="evenodd" clip-rule="evenodd" d="M12.2 18.8C9.25451 18.8 6.8667 16.4122 6.8667 13.4667C6.8667 10.5212 9.25451 8.13336 12.2 8.13336C15.1456 8.13336 17.5334 10.5212 17.5334 13.4667C17.5334 16.4122 15.1456 18.8 12.2 18.8Z" stroke="#1FD32E" stroke-width="2"/>
    </g>
    <defs>
        <filter id="filter0_i" x="0" y="0" width="24" height="25" filterUnits="userSpaceOnUse" color-interpolation-filters="sRGB">
            <feFlood flood-opacity="0" result="BackgroundImageFix"/>
            <feBlend mode="normal" in="SourceGraphic" in2="BackgroundImageFix" result="shape"/>
            <feColorMatrix in="SourceAlpha" type="matrix" values="0 0 0 0 0 0 0 0 0 0 0 0 0 0 0 0 0 0 127 0" result="hardAlpha"/>
            <feOffset dy="1"/>
            <feGaussianBlur stdDeviation="1"/>
            <feComposite in2="hardAlpha" operator="arithmetic" k2="-1" k3="1"/>
            <feColorMatrix type="matrix" values="0 0 0 0 0 0 0 0 0 0 0 0 0 0 0 0 0 0 0.25 0"/>
            <feBlend mode="normal" in2="shape" result="effect1_innerShadow"/>
        </filter>
    </defs>
</svg>
