<svg width="16" height="16" viewBox="0 0 16 16" fill="none" xmlns="http://www.w3.org/2000/svg">
    <path d="M0.502786 4.62069C0.479419 4.43666 0.614857 4.24227 0.845638 4.21487L6.84063 3.50306C7.07419 3.47533 7.2601 3.63617 7.28391 3.82371L8.49721 13.3793C8.52058 13.5633 8.38514 13.7577 8.15436 13.7851L2.15937 14.4969C1.92581 14.5247 1.7399 14.3638 1.71609 14.1763L0.502786 4.62069Z" fill="white" stroke="#4F4F4F"/>
    <rect x="4.5" y="2.5" width="7" height="11" rx="0.5" fill="white" stroke="#4F4F4F"/>
    <path d="M8.71667 1.88233C8.74711 1.62267 8.96077 1.47808 9.15453 1.50301L15.1495 2.27413C15.3483 2.29971 15.5275 2.50247 15.4966 2.76577L14.2833 13.1177C14.2529 13.3773 14.0392 13.5219 13.8455 13.497L7.85047 12.7259C7.65166 12.7003 7.47251 12.4975 7.50337 12.2342L8.71667 1.88233Z" fill="white" stroke="#4F4F4F"/>
</svg>
