<svg width="335" height="216" viewBox="0 0 335 216" fill="none" xmlns="http://www.w3.org/2000/svg">
    <path d="M42.8709 170.919L36.5631 190.723L22.5659 175.358L42.8709 170.919Z" fill="#C4C4C4"/>
    <path d="M18.2718 19.1957L19.6078 39.9374L0.97702 30.7235L18.2718 19.1957Z" fill="#C4C4C4"/>
    <path d="M319.823 7.8709L313.515 27.6752L299.518 12.3104L319.823 7.8709Z" fill="#C4C4C4"/>
    <path d="M327.823 175.871L321.515 195.675L307.518 180.31L327.823 175.871Z" fill="#C4C4C4"/>
    <path d="M202.744 205.177L183.13 212.052L186.983 191.628L202.744 205.177Z" fill="#C4C4C4"/>
    <path d="M175.768 150.98L184.912 169.645L164.176 168.232L175.768 150.98Z" fill="#C4C4C4"/>
    <path d="M306.823 41.8709L300.515 61.6752L286.518 46.3104L306.823 41.8709Z" fill="#C4C4C4"/>
    <path d="M93.8231 44.8709L87.5153 64.6752L73.5182 49.3104L93.8231 44.8709Z" fill="#C4C4C4"/>
</svg>
