<svg width="40" height="40" viewBox="0 0 40 40" fill="none" xmlns="http://www.w3.org/2000/svg">
    <g filter="url(#filter0_i)">
        <path fill-rule="evenodd" clip-rule="evenodd" d="M25 19L24.9442 19.5776L24.328 25.9333C24.328 26.5224 23.7744 27 23.0915 27H16.9085C16.2256 27 15.672 26.5224 15.6741 25.9776L15 19H25Z" stroke="#FFDB1D" stroke-width="2"/>
        <path d="M27 18V17C27 16.4477 26.3732 16 25.6 16H14.4C13.6268 16 13 16.4477 13 17V18" stroke="#FFDB1D" stroke-width="2"/>
        <path fill-rule="evenodd" clip-rule="evenodd" d="M18.2 13H21.8C22.4627 13 23 13.5373 23 14.2V16H17V14.2C17 13.5373 17.5373 13 18.2 13Z" stroke="#FFDB1D" stroke-width="2"/>
    </g>
    <path d="M20 38C10.0589 38 2 29.9411 2 20H-2C-2 32.1503 7.84974 42 20 42V38ZM38 20C38 29.9411 29.9411 38 20 38V42C32.1503 42 42 32.1503 42 20H38ZM20 2C29.9411 2 38 10.0589 38 20H42C42 7.84974 32.1503 -2 20 -2V2ZM20 -2C7.84974 -2 -2 7.84974 -2 20H2C2 10.0589 10.0589 2 20 2V-2Z" fill="url(#paint0_linear)"/>
    <defs>
        <filter id="filter0_i" x="12" y="12" width="16" height="17" filterUnits="userSpaceOnUse" color-interpolation-filters="sRGB">
            <feFlood flood-opacity="0" result="BackgroundImageFix"/>
            <feBlend mode="normal" in="SourceGraphic" in2="BackgroundImageFix" result="shape"/>
            <feColorMatrix in="SourceAlpha" type="matrix" values="0 0 0 0 0 0 0 0 0 0 0 0 0 0 0 0 0 0 127 0" result="hardAlpha"/>
            <feOffset dy="1"/>
            <feGaussianBlur stdDeviation="1"/>
            <feComposite in2="hardAlpha" operator="arithmetic" k2="-1" k3="1"/>
            <feColorMatrix type="matrix" values="0 0 0 0 0 0 0 0 0 0 0 0 0 0 0 0 0 0 0.25 0"/>
            <feBlend mode="normal" in2="shape" result="effect1_innerShadow"/>
        </filter>
        <linearGradient id="paint0_linear" x1="20" y1="-5.65613" x2="20" y2="49.2228" gradientUnits="userSpaceOnUse">
            <stop stop-color="#FFDF65"/>
            <stop offset="1" stop-color="white"/>
        </linearGradient>
    </defs>
</svg>
