<svg width="16" height="16" viewBox="0 0 16 16" fill="none" xmlns="http://www.w3.org/2000/svg">
    <path d="M6.35854 0.649805L6.35855 0.649778C6.39025 0.560036 6.47511 0.5 6.57035 0.5H12.358C12.5326 0.5 12.6397 0.689918 12.5515 0.838789L8.58544 6.72046L8.05979 7.5H9H11.741C12.104 7.5 12.3095 7.91602 12.0891 8.20434L12.0845 8.21028L12.0802 8.21636L6.88261 15.452C6.8552 15.4861 6.83214 15.4945 6.81681 15.4977C6.79546 15.5022 6.76527 15.5004 6.73322 15.4857C6.70118 15.471 6.6801 15.4493 6.66956 15.4302C6.66168 15.416 6.65259 15.3917 6.66235 15.3452L7.76532 10.0887L7.89178 9.48606H7.27598H3.8557C3.55332 9.48606 3.34182 9.187 3.44256 8.90191L3.44257 8.9019L6.35854 0.649805Z" fill="white" stroke="#4F4F4F"/>
    <path d="M7.22739 15.8155C6.8063 16.2469 6.04205 15.8667 6.17274 15.2425L7.27567 9.98602H7.6008C7.88958 9.98602 8.10523 10.2516 8.04595 10.5343L7.05808 15.2425C7.00848 15.4788 7.08736 15.6803 7.22739 15.8155Z" fill="#4F4F4F"/>
    <path d="M8.57378 0.000976562C8.26665 0.000976562 7.99268 0.194445 7.89031 0.484195L4.97424 8.73623C4.75856 9.3466 5.21153 9.98692 5.8589 9.98692H3.85553C3.20812 9.98692 2.75518 9.3466 2.97087 8.73623L5.88693 0.484195C5.98931 0.194445 6.26293 0.000976562 6.57006 0.000976562H8.57378Z" fill="#4F4F4F"/>
</svg>
