<svg width="18" height="19" viewBox="0 0 18 19" fill="none" xmlns="http://www.w3.org/2000/svg">
    <path d="M6.83689 2.20286L6.83689 2.20283C6.86066 2.11067 6.93996 2.04347 7.03484 2.03516L12.8005 1.53074C12.9744 1.51552 13.0976 1.69538 13.0228 1.85137L9.58441 8.05633L9.1287 8.87871L10.0653 8.79677L12.7959 8.55788C13.1575 8.52624 13.3985 8.92276 13.204 9.2292L13.2 9.23551L13.1962 9.24195L8.64906 16.903C8.62474 16.9394 8.60249 16.9498 8.5875 16.9544C8.56662 16.9607 8.53639 16.9615 8.50319 16.9497C8.46998 16.9378 8.44709 16.9181 8.43493 16.8999C8.42584 16.8864 8.41466 16.863 8.42033 16.8158L9.06098 11.4833L9.13443 10.8719L8.52097 10.9255L5.1137 11.2236C4.81247 11.25 4.57571 10.9705 4.65123 10.6777L4.65123 10.6777L6.83689 2.20286Z" fill="white" stroke="#DBDBDB"/>
    <path d="M9.02413 17.2352C8.64223 17.7016 7.84776 17.3895 7.92354 16.7562L8.56415 11.4236L8.88804 11.3953C9.17572 11.3701 9.41371 11.6159 9.37929 11.9027L8.80552 16.6791C8.77671 16.9188 8.87285 17.1127 9.02413 17.2352Z" fill="#DBDBDB"/>
    <path d="M8.98706 1.36344C8.68111 1.39021 8.42504 1.60682 8.34831 1.90439L6.16256 10.3792C6.00089 11.006 6.50794 11.6044 7.15285 11.548L5.1571 11.7226C4.51216 11.779 4.00514 11.1806 4.1668 10.5538L6.35256 2.079C6.42929 1.78143 6.68501 1.56485 6.99097 1.53808L8.98706 1.36344Z" fill="#DBDBDB"/>
</svg>
