<svg width="16" height="16" viewBox="0 0 16 16" fill="none" xmlns="http://www.w3.org/2000/svg">
    <path d="M5.8871 0.483219L2.97113 8.73531C2.75542 9.34575 3.20826 9.98606 3.8557 9.98606H7.27598L6.17301 15.2425C6.0361 15.895 6.87816 16.281 7.28313 15.7514L12.4862 8.50806C12.9583 7.89075 12.5182 7 11.741 7H9L12.972 1.1095C13.2745 0.626875 12.9276 0 12.358 0H6.57035C6.2632 0 5.98942 0.193625 5.8871 0.483219Z" fill="#FFDB1D"/>
    <path d="M7.22739 15.8155C6.8063 16.2469 6.04205 15.8667 6.17274 15.2425L7.27567 9.98602H7.6008C7.88958 9.98602 8.10523 10.2516 8.04595 10.5343L7.05808 15.2425C7.00848 15.4788 7.08736 15.6803 7.22739 15.8155Z" fill="#F4B70C"/>
    <path d="M8.57378 0.000976562C8.26665 0.000976562 7.99268 0.194445 7.89031 0.484195L4.97424 8.73623C4.75856 9.3466 5.21153 9.98692 5.8589 9.98692H3.85553C3.20812 9.98692 2.75518 9.3466 2.97087 8.73623L5.88693 0.484195C5.98931 0.194445 6.26293 0.000976562 6.57006 0.000976562H8.57378Z" fill="#F4B70C"/>
</svg>
