<svg width="6" height="21" viewBox="0 0 6 21" fill="none" xmlns="http://www.w3.org/2000/svg">
    <path d="M0 18.1491C0 17.2919 0.281346 16.5963 0.844037 16.0621C1.41896 15.528 2.13456 15.2609 2.99083 15.2609C3.85933 15.2609 4.57492 15.528 5.13761 16.0621C5.71254 16.5963 6 17.2919 6 18.1491C6 18.9938 5.71865 19.6832 5.15596 20.2174C4.59327 20.7391 3.87156 21 2.99083 21C2.12232 21 1.40673 20.7391 0.844037 20.2174C0.281346 19.6832 0 18.9938 0 18.1491ZM0 2.8882C0 2.03106 0.281346 1.3354 0.844037 0.801242C1.41896 0.267081 2.13456 0 2.99083 0C3.85933 0 4.57492 0.267081 5.13761 0.801242C5.71254 1.3354 6 2.03106 6 2.8882C6 3.73292 5.71865 4.42236 5.15596 4.95652C4.59327 5.47826 3.87156 5.73913 2.99083 5.73913C2.12232 5.73913 1.40673 5.47826 0.844037 4.95652C0.281346 4.42236 0 3.73292 0 2.8882Z" fill="#FFDB1D"/>
</svg>
