<svg width="228" height="188" viewBox="0 0 228 188" fill="none" xmlns="http://www.w3.org/2000/svg">
    <path d="M207.891 91.2656C207.891 91.2656 171.113 129.442 161.327 136.125C151.54 142.808 138.281 136.125 138.281 136.125L129 145.406L94.9688 111.375L135.188 71.1562L129.719 62.0413L125.906 55.6875L145.884 35.7096L147.562 34.0312L207.891 91.2656Z" fill="#F6D0B1"/>
    <path d="M153.75 65.1892V74.0296C153.771 81.7809 152.255 89.4594 149.288 96.6206C146.322 103.782 141.964 110.283 136.468 115.749L113.531 92.8125L135.187 71.1562L125.906 55.6875L145.884 35.7096C151.061 44.6699 153.775 54.8407 153.75 65.1892Z" fill="#F4C396"/>
    <path d="M147.563 65.1892V74.0295C147.562 88.0367 141.998 101.47 132.094 111.375L113.531 129.937L94.9688 111.375L104.25 102.094V80.8629C104.249 76.4735 104.835 72.1036 105.99 67.8691C108.281 59.4698 108.311 50.6143 106.076 42.1998C103.842 33.7853 99.423 26.1111 93.2672 19.9547C93.2672 19.9547 88.4399 15.4898 89.9388 13.4694C91.4377 11.4489 92.6328 10.8822 96.0002 10.102C99.3675 9.32179 101.377 9.06079 104.25 9.06079C107.123 9.06079 109.968 9.62669 112.622 10.7262C115.276 11.8256 117.688 13.4372 119.719 15.4687L132.094 27.8437C133.219 28.9691 134.29 30.1447 135.3 31.359C143.223 40.8515 147.563 52.8243 147.563 65.1892Z" fill="#F6D0B1"/>
    <path d="M79.4813 120.652L91.8544 108.279L138.254 154.679L125.881 167.052L79.4813 120.652Z" fill="#C6EE70"/>
    <path d="M113.531 191.812L132.094 173.25L76.4062 117.562L0.36734 191.812H36.1875H113.531Z" fill="#43C45F"/>
    <path d="M147.563 65.1892V65.4753C143.899 66.8924 139.86 67.0075 136.122 65.8013C132.385 64.5951 129.175 62.1409 127.031 58.85C124.887 55.559 123.939 51.6312 124.346 47.7246C124.753 43.818 126.49 40.17 129.267 37.3918L135.3 31.359C143.223 40.8515 147.563 52.8243 147.563 65.1892Z" fill="#F4C396"/>
    <path d="M207.891 91.2656L186.196 112.961C182.219 112.59 178.498 110.841 175.675 108.016C172.852 105.191 171.106 101.468 170.739 97.4918C166.76 97.1244 163.035 95.3767 160.21 92.5515C157.385 89.7262 155.637 86.0016 155.27 82.023C151.291 81.6557 147.567 79.9079 144.741 77.0827C141.916 74.2575 140.168 70.5328 139.801 66.5543C136.031 66.2184 132.481 64.6296 129.719 62.0413L125.906 55.6875L145.884 35.7096L147.562 34.0312L207.891 91.2656Z" fill="#F4C396"/>
    <path d="M152.186 23.214L133.626 41.7739C129.355 46.0448 129.355 52.9693 133.626 57.2402L133.627 57.2405C137.898 61.5114 144.822 61.5114 149.093 57.2405L167.653 38.6806C171.924 34.4097 171.924 27.4852 167.653 23.2143L167.653 23.214C163.382 18.9431 156.457 18.9431 152.186 23.214Z" fill="#F6D0B1"/>
    <path d="M149.092 57.2426L167.651 38.6829C168.667 37.6674 169.872 36.8618 171.199 36.3122C172.526 35.7626 173.948 35.4797 175.384 35.4797C176.821 35.4797 178.243 35.7626 179.57 36.3122C180.897 36.8618 182.102 37.6674 183.118 38.6829C185.169 40.7339 186.321 43.5156 186.321 46.4161C186.321 49.3166 185.169 52.0984 183.118 54.1493L164.558 72.709C162.507 74.76 159.725 75.9122 156.825 75.9122C153.924 75.9122 151.143 74.76 149.092 72.709C147.041 70.6581 145.888 67.8763 145.888 64.9758C145.888 62.0753 147.041 59.2936 149.092 57.2426L149.092 57.2426Z" fill="#F6D0B1"/>
    <path d="M183.117 54.1515L164.557 72.7114C160.286 76.9823 160.286 83.9068 164.557 88.1777L164.557 88.178C168.828 92.4489 175.753 92.4489 180.023 88.178L198.583 69.6181C202.854 65.3472 202.854 58.4227 198.583 54.1518L198.583 54.1515C194.312 49.8806 187.388 49.8807 183.117 54.1515Z" fill="#F6D0B1"/>
    <path d="M198.582 69.6203L180.023 88.1802C175.752 92.4511 175.752 99.3756 180.023 103.646L180.023 103.647C184.294 107.918 191.218 107.918 195.489 103.647L214.049 85.0868C218.32 80.816 218.32 73.8915 214.049 69.6206L214.049 69.6203C209.778 65.3494 202.853 65.3494 198.582 69.6203Z" fill="#F6D0B1"/>
    <path d="M174.059 148.353C178.982 148.353 183.704 146.397 187.185 142.916C190.666 139.435 192.622 134.713 192.622 129.79C192.622 134.713 194.577 139.435 198.059 142.916C201.54 146.397 206.261 148.353 211.184 148.353C206.261 148.353 201.54 150.308 198.059 153.789C194.577 157.271 192.622 161.992 192.622 166.915C192.622 161.992 190.666 157.271 187.185 153.789C183.704 150.308 178.982 148.353 174.059 148.353Z" fill="#F0C033"/>
    <path d="M187.781 24.75C191.884 24.75 195.818 23.1203 198.719 20.2193C201.62 17.3184 203.25 13.3838 203.25 9.28125C203.25 13.3838 204.88 17.3184 207.781 20.2193C210.682 23.1203 214.616 24.75 218.719 24.75C214.616 24.75 210.682 26.3797 207.781 29.2807C204.88 32.1816 203.25 36.1162 203.25 40.2188C203.25 36.1162 201.62 32.1816 198.719 29.2807C195.818 26.3797 191.884 24.75 187.781 24.75Z" fill="#F0C033"/>
    <path d="M39.2812 64.9687H39.2813C44.2043 64.9687 48.9258 63.0131 52.4069 59.5319C55.8881 56.0508 57.8438 51.3293 57.8438 46.4062C57.8438 51.3293 59.7995 56.0508 63.2806 59.5319C66.7617 63.0131 71.4832 64.9688 76.4063 64.9688C73.9686 64.9687 71.5548 65.4489 69.3027 66.3817C67.0506 67.3146 65.0043 68.6819 63.2806 70.4056C61.5569 72.1293 60.1896 74.1756 59.2567 76.4277C58.3239 78.6798 57.8438 81.0936 57.8437 83.5312C57.8437 78.6082 55.8881 73.8867 52.4069 70.4056C48.9258 66.9244 44.2043 64.9687 39.2813 64.9687H39.2812Z" fill="#F0C033"/>
    <path d="M147.563 61.875C146.951 61.875 146.353 61.6936 145.844 61.3536C145.335 61.0137 144.938 60.5305 144.704 59.9652C144.47 59.3999 144.409 58.7779 144.528 58.1777C144.648 57.5776 144.942 57.0264 145.375 56.5937L167.031 34.9375C167.611 34.3579 168.398 34.0325 169.218 34.0327C170.039 34.033 170.825 34.3589 171.405 34.9388C171.985 35.5188 172.311 36.3053 172.311 37.1254C172.311 37.9456 171.986 38.7323 171.406 39.3126L149.75 60.9688C149.463 61.2566 149.122 61.4847 148.747 61.6402C148.371 61.7957 147.969 61.8755 147.563 61.875Z" fill="#F4C396"/>
    <path d="M163.031 77.3438C162.419 77.3438 161.821 77.1623 161.313 76.8224C160.804 76.4824 160.407 75.9992 160.173 75.4339C159.939 74.8687 159.878 74.2466 159.997 73.6465C160.116 73.0464 160.411 72.4951 160.844 72.0625L182.5 50.4062C183.08 49.8266 183.867 49.5012 184.687 49.5015C185.507 49.5017 186.294 49.8276 186.874 50.4076C187.454 50.9875 187.78 51.774 187.78 52.5942C187.78 53.4143 187.455 54.201 186.875 54.7813L165.219 76.4376C164.932 76.7253 164.591 76.9535 164.215 77.109C163.84 77.2645 163.438 77.3443 163.031 77.3438Z" fill="#F4C396"/>
    <path d="M178.5 92.8125C177.888 92.8125 177.29 92.6311 176.781 92.2911C176.273 91.9512 175.876 91.468 175.642 90.9027C175.408 90.3374 175.346 89.7154 175.466 89.1153C175.585 88.5151 175.88 87.9639 176.312 87.5312L197.969 65.875C198.549 65.2954 199.336 64.97 200.156 64.9702C200.976 64.9705 201.763 65.2964 202.342 65.8763C202.922 66.4563 203.248 67.2428 203.249 68.0629C203.249 68.8831 202.923 69.6698 202.344 70.2501L180.688 91.9064C180.401 92.1941 180.06 92.4222 179.684 92.5777C179.309 92.7333 178.906 92.813 178.5 92.8125Z" fill="#F4C396"/>
</svg>
