<svg width="12" height="14" viewBox="0 0 12 14" fill="none" xmlns="http://www.w3.org/2000/svg">
    <path fill-rule="evenodd" clip-rule="evenodd" d="M1 6V0H3.31826C4.14864 0 4.77955 0.141484 5.21099 0.424451C5.64539 0.707418 5.86259 1.11813 5.86259 1.65659C5.86259 1.96703 5.78576 2.23214 5.63209 2.45192C5.47843 2.6717 5.25236 2.83379 4.9539 2.93819C5.29078 3.0206 5.54935 3.17445 5.72961 3.39973C5.90987 3.625 6 3.89973 6 4.2239C6 4.81181 5.79905 5.25412 5.39716 5.55082C4.99823 5.84478 4.40573 5.99451 3.61968 6H1ZM2.55585 3.44918V4.88736H3.57535C3.85609 4.88736 4.07181 4.8283 4.22252 4.71016C4.37323 4.58929 4.44858 4.42033 4.44858 4.2033C4.44858 3.7033 4.18115 3.45192 3.64628 3.44918H2.55585ZM2.55585 2.50137H3.36702C3.70686 2.49863 3.94917 2.44093 4.09397 2.3283C4.23877 2.21566 4.31117 2.04945 4.31117 1.82967C4.31117 1.57692 4.23286 1.3956 4.07624 1.28571C3.91962 1.17308 3.66696 1.11676 3.31826 1.11676H2.55585V2.50137ZM8.74627 3.45742H11.4925V2.38187H8.74627V1.11676H12V0H7V6H11.99V4.88736H8.74627V3.45742ZM8.41418 11.6264H9.083L10.328 14H12L10.1869 10.7693L11.7985 8.00004H10.0862L8.9581 10.3201H8.41418V8.00004H7V14H8.41418V11.6264ZM1.96434 12.8792H4.02282L4.38659 14H6L3.69758 8.00004H2.28531L0 14H1.60485L1.96434 12.8792ZM3.66334 11.7624H2.32382L2.99144 9.68136L3.66334 11.7624Z" fill="#9B9B9B"/>
</svg>
