<svg width="18" height="19" viewBox="0 0 18 19" fill="none" xmlns="http://www.w3.org/2000/svg">
    <path d="M1.49027 6.89376C1.45095 6.71247 1.56893 6.50701 1.79645 6.4596L7.70659 5.228C7.93684 5.18002 8.13606 5.32405 8.17613 5.5088L10.2176 14.9223C10.257 15.1036 10.139 15.309 9.91146 15.3564L4.00132 16.588C3.77107 16.636 3.57185 16.492 3.53178 16.3072L1.49027 6.89376Z" fill="white" stroke="#DBDBDB"/>
    <rect x="5.28752" y="4.43276" width="7" height="11" rx="0.5" transform="rotate(-5 5.28752 4.43276)" fill="white" stroke="#DBDBDB"/>
    <path d="M9.43426 3.44994C9.44195 3.18861 9.6422 3.02595 9.83739 3.03389L15.8768 3.27959C16.0771 3.28774 16.2732 3.47411 16.2654 3.7391L15.959 14.1574C15.9513 14.4187 15.751 14.5813 15.5558 14.5734L9.51643 14.3277C9.31614 14.3196 9.12 14.1332 9.1278 13.8682L9.43426 3.44994Z" fill="white" stroke="#DBDBDB"/>
</svg>
