<svg width="144" height="144" viewBox="0 0 144 144" fill="none" xmlns="http://www.w3.org/2000/svg">
    <circle cx="72" cy="72" r="72" fill="#FFDF65"/>
    <path fill-rule="evenodd" clip-rule="evenodd" d="M102.207 137.376C96.5981 138.779 90.728 139.523 84.6839 139.523C44.9194 139.523 12.6839 107.288 12.6839 67.5233C12.6839 38.5465 29.8016 13.5677 54.4765 2.1474C23.1809 9.9732 0 38.2795 0 72C0 111.764 32.2355 144 72 144C82.7877 144 93.0213 141.628 102.207 137.376Z" fill="#F4B70C"/>
    <path d="M53.9425 51.0335C52.3623 59.4657 44.2456 65.0203 35.8135 63.4401" stroke="black" stroke-width="8" stroke-linecap="round"/>
    <path d="M89.8587 51.0335C91.4389 59.4657 99.5555 65.0203 107.988 63.4401" stroke="black" stroke-width="8" stroke-linecap="round"/>
    <path d="M38.8722 73.9218C41.9317 76.9812 41.9317 81.9416 38.8723 85.001C35.8128 88.0605 30.8525 88.0604 27.793 85.001C24.7336 81.9416 24.7336 76.9812 27.793 73.9218C29.3227 72.3921 33.3323 65.658 33.3323 65.658C33.3323 65.658 37.3425 72.3921 38.8722 73.9218Z" fill="#59B8F6"/>
    <path d="M94.7565 101.472C94.7565 91.1698 84.7351 82.8187 72.3731 82.8187C60.011 82.8187 49.9896 91.1698 49.9896 101.472" stroke="black" stroke-width="8" stroke-linecap="round"/>
</svg>
