<svg width="12" height="12" viewBox="0 0 12 12" fill="none" xmlns="http://www.w3.org/2000/svg">
    <path d="M5.17905 0.594301C5.46298 -0.198102 6.53702 -0.1981 6.82095 0.594303L7.74419 3.17092C7.86736 3.51469 8.17552 3.74833 8.52687 3.76435L11.1604 3.88444C11.9703 3.92137 12.3022 4.98735 11.6677 5.51401L9.60484 7.22653C9.32961 7.45502 9.2119 7.83306 9.30588 8.18673L10.0102 10.8376C10.2268 11.6528 9.35793 12.3116 8.68191 11.8447L6.48373 10.3265C6.19045 10.1239 5.80955 10.1239 5.51627 10.3265L3.31809 11.8447C2.64207 12.3116 1.77315 11.6528 1.98977 10.8376L2.69412 8.18672C2.7881 7.83305 2.67039 7.45502 2.39516 7.22653L0.332255 5.51401C-0.302163 4.98734 0.0297341 3.92137 0.83963 3.88444L3.47313 3.76435C3.82449 3.74833 4.13264 3.51469 4.25582 3.17092L5.17905 0.594301Z" fill="white"/>
</svg>
