<svg width="21" height="20" viewBox="0 0 21 20" fill="none" xmlns="http://www.w3.org/2000/svg">
    <path d="M11.3976 1.15916L12.9363 5.45353C13.2065 6.20779 13.8905 6.73701 14.6887 6.7734L19.0778 6.97355C19.9312 7.01246 20.3638 8.19351 19.6269 8.8053L16.1887 11.6595C15.5756 12.1685 15.3214 13.0007 15.5266 13.7729L16.7005 18.191C16.8252 18.6605 16.6403 19.0715 16.3326 19.3048C16.0276 19.536 15.6205 19.5829 15.254 19.3297L11.5904 16.7994C10.9305 16.3437 10.0695 16.3437 9.40964 16.7994L5.746 19.3297C5.37952 19.5829 4.97238 19.536 4.6674 19.3048C4.3597 19.0715 4.17476 18.6605 4.29951 18.191L5.47344 13.7729C5.67862 13.0007 5.42438 12.1685 4.81131 11.6595L1.37313 8.8053C0.63617 8.19351 1.06879 7.01246 1.92216 6.97355L6.31133 6.7734C7.10949 6.73701 7.79346 6.20779 8.06372 5.45353L9.60245 1.15916C9.91737 0.280281 11.0826 0.280279 11.3976 1.15916Z" stroke="url(#paint0_linear)"/>
    <defs>
        <linearGradient id="paint0_linear" x1="10.5" y1="-2.82806" x2="10.5" y2="24.6114" gradientUnits="userSpaceOnUse">
            <stop stop-color="#FFDF65"/>
            <stop offset="1" stop-color="white"/>
        </linearGradient>
    </defs>
</svg>
