<svg width="46" height="46" viewBox="0 0 46 46" fill="none" xmlns="http://www.w3.org/2000/svg">
    <g filter="url(#filter0_di)">
        <path d="M19.4869 3.79341C20.0977 1.46732 23.1547 1.19987 24.1602 3.38456L27.4296 10.4884C27.8658 11.4362 28.801 12.0245 29.8051 11.9826L37.3306 11.6686C39.645 11.572 40.8551 14.5234 39.1805 16.1804L33.7354 21.5685C33.0089 22.2873 32.768 23.3926 33.1236 24.3759L35.7885 31.7455C36.608 34.0119 34.2989 36.1034 32.2585 34.9428L25.6238 31.1689C24.7386 30.6654 23.6545 30.7603 22.8702 31.4098L16.9916 36.2785C15.1837 37.7758 12.5465 36.117 12.96 33.7427L14.3047 26.0223C14.4841 24.9923 14.055 23.9456 13.2147 23.3638L6.91667 19.0032C4.97979 17.6621 5.65902 14.5454 7.955 14.2386L15.4208 13.241C16.4168 13.1079 17.2357 12.3662 17.5007 11.3571L19.4869 3.79341Z" fill="#FFDB1D"/>
        <path d="M20.4541 4.0474C20.8265 2.62912 22.6387 2.47057 23.2517 3.80264L26.5211 10.9065C27.1184 12.2042 28.4175 13.0413 29.8468 12.9817L37.3723 12.6677C38.6936 12.6126 39.5597 14.3984 38.4772 15.4696L33.032 20.8576C32.0203 21.8587 31.699 23.377 32.1832 24.7159L34.8481 32.0855C35.1102 32.8104 34.8754 33.4798 34.4246 33.8881C33.979 34.2918 33.3572 34.4173 32.7529 34.0736L26.1182 30.2997C24.8717 29.5907 23.3368 29.725 22.2323 30.6397L16.3537 35.5083C15.8184 35.9517 15.1842 35.9361 14.6752 35.616C14.1604 35.2921 13.813 34.6736 13.9452 33.9143L15.2899 26.1939C15.5342 24.7912 14.9541 23.3518 13.784 22.5416L7.48591 18.181C6.23378 17.314 6.77664 15.405 8.08745 15.2298L15.5532 14.2322C16.9711 14.0428 18.1051 12.9928 18.4679 11.6111L20.4541 4.0474Z" stroke="url(#paint0_linear)" stroke-width="2"/>
    </g>
    <defs>
        <filter id="filter0_di" x="0.5979" y="0.403351" width="45.1434" height="45.1434" filterUnits="userSpaceOnUse" color-interpolation-filters="sRGB">
            <feFlood flood-opacity="0" result="BackgroundImageFix"/>
            <feColorMatrix in="SourceAlpha" type="matrix" values="0 0 0 0 0 0 0 0 0 0 0 0 0 0 0 0 0 0 127 0"/>
            <feOffset dy="4"/>
            <feGaussianBlur stdDeviation="2"/>
            <feColorMatrix type="matrix" values="0 0 0 0 0 0 0 0 0 0 0 0 0 0 0 0 0 0 0.25 0"/>
            <feBlend mode="normal" in2="BackgroundImageFix" result="effect1_dropShadow"/>
            <feBlend mode="normal" in="SourceGraphic" in2="effect1_dropShadow" result="shape"/>
            <feColorMatrix in="SourceAlpha" type="matrix" values="0 0 0 0 0 0 0 0 0 0 0 0 0 0 0 0 0 0 127 0" result="hardAlpha"/>
            <feOffset dy="1"/>
            <feGaussianBlur stdDeviation="1"/>
            <feComposite in2="hardAlpha" operator="arithmetic" k2="-1" k3="1"/>
            <feColorMatrix type="matrix" values="0 0 0 0 0 0 0 0 0 0 0 0 0 0 0 0 0 0 0.25 0"/>
            <feBlend mode="normal" in2="shape" result="effect2_innerShadow"/>
        </filter>
        <linearGradient id="paint0_linear" x1="21.253" y1="-2.93222" x2="25.3527" y2="43.9279" gradientUnits="userSpaceOnUse">
            <stop stop-color="#FFDF65"/>
            <stop offset="1" stop-color="white"/>
        </linearGradient>
    </defs>
</svg>
