<svg width="24" height="24" viewBox="0 0 24 24" fill="none" xmlns="http://www.w3.org/2000/svg">
    <path d="M11.2995 1.52592C11.5508 0.824697 12.4492 0.824691 12.7005 1.52592L13.6419 1.18861L12.7005 1.52592L14.547 6.67916C14.9233 7.72932 15.8803 8.47624 17.0082 8.52767L22.2752 8.76784C22.6 8.78265 22.8515 8.99113 22.9566 9.32843C23.0623 9.66796 22.9793 10.024 22.6967 10.2586L18.5709 13.6836C17.7118 14.3969 17.3602 15.5574 17.6453 16.6302L19.054 21.9319C19.1591 22.3275 19.0067 22.6581 18.7575 22.847C18.5137 23.0318 18.2144 23.0615 17.9321 22.8666L13.5358 19.8301C12.6072 19.1888 11.3928 19.1888 10.4642 19.8301L6.06788 22.8666C5.7856 23.0615 5.4863 23.0318 5.24255 22.847C4.99334 22.6581 4.8409 22.3275 4.946 21.9319L6.35471 16.6302C6.63978 15.5574 6.28824 14.3969 5.42907 13.6836L1.30325 10.2586L0.664509 11.028L1.30325 10.2586C1.02068 10.024 0.937726 9.66796 1.04344 9.32843C1.14846 8.99113 1.40002 8.78265 1.72481 8.76784L6.99181 8.52767C8.11966 8.47624 9.07673 7.72932 9.45302 6.67916L11.2995 1.52592L10.3581 1.1886L11.2995 1.52592Z" stroke="url(#paint0_linear)" stroke-width="2"/>
    <defs>
        <linearGradient id="paint0_linear" x1="12" y1="-3.39368" x2="12" y2="29.5337" gradientUnits="userSpaceOnUse">
            <stop stop-color="#FFDF65"/>
            <stop offset="1" stop-color="white"/>
        </linearGradient>
    </defs>
</svg>
